<svg width="1036" height="211" viewBox="0 0 1036 211" fill="none" xmlns="http://www.w3.org/2000/svg">
<rect y="0.523926" width="1036" height="209.927" rx="10" fill="#ED1C24"/>
<g clip-path="url(#clip0_46_9)">
<path fill-rule="evenodd" clip-rule="evenodd" d="M484.661 18.8135C519.506 0.574347 557.019 -3.20494 587.695 3.86066C657.552 20.128 663.053 71.8876 625.875 125.29C608.869 149.774 583.694 173.271 553.351 188.059C503.501 212.378 455.819 213.693 424.475 194.961C392.965 176.229 385.462 144.68 396.632 111.159C408.136 76.3242 440.314 40.5032 484.661 18.8135Z" fill="#ED1C24"/>
<path d="M594.364 58.4137C594.198 60.3855 594.198 62.3573 594.531 64.3291C594.864 66.4652 595.365 68.7656 596.198 70.9017C597.365 74.0238 599.033 76.8171 600.867 79.1176C602.534 81.2537 604.534 82.8969 606.868 84.2114C609.703 85.3616 612.37 86.0189 614.538 85.8545C616.372 85.8545 617.705 85.3616 618.706 84.54C619.373 83.8828 619.873 82.8968 620.04 81.5823C620.373 79.7748 620.039 77.4744 619.539 74.5167C619.373 73.6951 619.206 73.0379 619.039 72.2163C618.872 71.559 618.539 70.7374 618.372 70.0802C616.872 66.3009 614.871 62.8502 612.37 60.2212C610.203 57.9207 607.535 56.2776 604.701 55.456C601.7 54.6344 599.199 54.6344 597.365 55.2917C596.198 55.7846 595.198 56.6062 594.698 57.9208L594.364 58.4137ZM593.031 12.0765C607.869 6.65406 622.54 7.80429 635.044 13.884C648.049 20.128 658.552 31.7945 664.054 46.4186C667.222 54.6344 668.389 63.1789 667.889 71.2304C667.388 79.4462 665.221 87.3334 661.22 94.399C661.053 94.7276 660.886 95.2206 660.386 95.8779C660.053 96.5351 659.719 97.0281 659.553 97.3567C653.551 107.051 647.382 114.117 641.213 119.211C634.878 124.305 628.709 127.591 622.54 129.891C607.369 135.478 592.364 134.328 579.693 128.248C566.355 121.84 555.685 110.338 550.183 95.5492C547.182 87.4977 545.682 79.4462 546.015 71.7233C546.348 63.8361 548.182 56.2776 551.684 49.212C554.351 43.9539 558.519 37.8742 564.021 32.1231C568.856 27.0293 574.691 22.0998 581.193 17.8276C582.861 16.6774 584.694 15.6915 586.528 14.7056C589.029 13.7197 591.03 12.7338 593.031 12.0765Z" fill="white"/>
<path d="M523.674 39.0243L549.016 29.6583C551.35 28.8367 553.851 29.9869 554.685 32.2873C554.685 32.4517 554.851 32.4517 554.851 32.616L590.863 127.427C591.197 127.92 591.363 128.577 591.363 129.234C591.53 130.549 591.03 131.863 590.03 132.685L578.192 144.351C577.692 144.844 577.192 145.173 576.525 145.337L555.685 152.896C554.351 153.389 552.851 153.224 551.684 152.403L528.176 136.957L532.677 148.623C533.011 149.281 533.344 150.102 533.344 150.924C533.344 152.074 532.844 153.224 532.01 153.881L520.173 165.548C519.673 166.041 519.173 166.37 518.673 166.534L493.164 175.9C490.83 176.721 488.329 175.571 487.496 173.271L451.15 77.4744C450.484 75.6669 450.984 73.6951 452.484 72.5449L463.988 61.207C464.488 60.7141 464.988 60.3854 465.655 60.2211L487.829 52.1696C489.163 51.6767 490.664 51.841 491.831 52.6626L513.504 66.6295L509.503 56.1132C508.836 54.4701 509.336 52.6626 510.503 51.5124L522.174 39.8459C522.674 39.5173 523.174 39.1886 523.674 39.0243Z" fill="white"/>
<path d="M437.313 195.947C427.309 196.932 418.64 195.125 411.137 190.688C400.967 184.773 393.465 174.421 388.296 161.111L368.29 108.202C367.623 106.394 368.123 104.422 369.624 103.272L381.127 91.9342C381.628 91.4413 382.128 91.1127 382.628 90.9483L408.136 81.5823C410.47 80.7607 412.971 81.9109 413.805 84.2114L434.312 138.271C435.479 141.393 437.146 144.351 439.48 146.323C441.147 147.802 443.315 148.788 445.982 148.952C446.482 148.952 447.149 148.952 447.649 148.952C447.649 147.966 447.483 146.98 447.316 145.994C446.982 144.516 446.649 143.037 445.982 141.394L425.475 87.3334C424.808 85.5259 425.309 83.5541 426.809 82.4039L437.979 71.3947C438.48 70.7374 439.147 70.2445 439.98 69.9159L465.489 60.5498C467.823 59.7282 470.323 60.8784 471.157 63.1789L491.497 116.746C494.665 124.962 496.165 132.849 495.999 140.243C495.832 147.638 494.165 154.539 490.663 160.783C487.829 165.712 482.494 170.806 477.159 175.9C475.992 177.05 474.658 178.2 473.658 179.186L473.491 179.351C471.491 181.487 469.156 183.458 466.656 185.102C458.153 191.017 447.983 194.796 437.313 195.947Z" fill="white"/>
<path fill-rule="evenodd" clip-rule="evenodd" d="M554.184 148.788L519.34 125.948L528.676 150.924H528.843L517.005 162.426L491.497 171.956L455.152 76.1598L466.989 64.4934L489.33 56.4419L522.174 77.6387L513.504 54.7987L525.175 43.1322L550.517 33.7662L587.029 129.563L575.191 141.229L554.184 148.788Z" fill="black"/>
<path fill-rule="evenodd" clip-rule="evenodd" d="M594.698 16.1844C622.54 5.99679 650.049 21.4425 660.053 47.8974C665.888 63.1789 664.721 79.6105 657.552 92.5915C657.218 93.4131 656.718 94.2347 656.218 95.0563C644.714 113.788 632.877 121.511 621.373 125.783C592.697 136.3 564.855 120.525 554.685 94.0704C549.016 78.9532 549.516 64.1648 556.018 51.1838C560.687 41.8177 570.857 29.987 584.028 21.4425C587.195 19.3064 590.863 17.4989 594.698 16.1844ZM590.03 57.5921C590.03 57.4278 590.196 57.2635 590.196 57.0992C592.03 51.1838 598.032 49.3763 605.535 51.3481C613.204 53.3199 619.039 60.3855 622.207 68.6013C622.874 70.2445 623.374 71.8877 623.707 73.6951C625.208 80.4321 624.541 85.1973 621.707 87.8263C618.372 90.9484 612.204 91.1126 605.201 88.155C599.366 85.0329 594.864 79.2819 592.197 72.3806C590.196 67.4511 589.529 62.3573 590.03 57.5921Z" fill="black"/>
<path fill-rule="evenodd" clip-rule="evenodd" d="M509.67 100.314L528.676 150.924L503.168 160.29L466.989 64.4934L489.33 56.4419L543.514 91.277L525.175 43.1322L550.517 33.7662L587.029 129.563L566.022 137.121L509.67 100.314Z" fill="black"/>
<path fill-rule="evenodd" clip-rule="evenodd" d="M502.834 91.9342L524.508 148.952L505.168 156.018L471.324 66.4652L488.83 60.0569L550.183 99.6571L529.51 45.1041L548.516 38.0385L582.694 127.591L566.355 133.506L502.834 91.9342Z" fill="white"/>
<path fill-rule="evenodd" clip-rule="evenodd" d="M532.511 46.4186L547.182 40.9962L579.526 126.276L566.689 130.877L498.166 86.0189L521.507 147.638L506.669 153.06L474.325 67.944L488.496 62.6859L554.851 105.408L532.511 46.4186Z" fill="#F8DA27"/>
<path fill-rule="evenodd" clip-rule="evenodd" d="M594.698 16.1844C622.54 5.99679 650.049 21.4425 660.053 47.8974C670.056 74.3524 659.553 103.929 631.877 114.117C604.034 124.305 576.525 108.859 566.522 82.4039C556.352 55.7846 566.855 26.372 594.698 16.1844ZM603.867 40.3389C589.863 45.4327 587.362 59.5639 592.197 72.3806C597.032 85.033 608.202 94.0703 622.374 88.9765C636.378 83.7184 638.879 69.7515 634.044 56.9348C629.042 44.2825 617.872 35.2451 603.867 40.3389Z" fill="black"/>
<path fill-rule="evenodd" clip-rule="evenodd" d="M595.865 19.3064C621.873 9.77605 647.548 24.2359 657.052 49.212C666.388 74.0238 656.718 101.629 630.71 111.324C604.701 120.854 579.026 106.23 569.523 81.418C560.186 56.4419 569.69 28.8368 595.865 19.3064ZM602.7 37.2169C586.862 42.968 583.527 59.071 589.029 73.5308C594.531 87.9907 607.535 97.8497 623.541 92.0986C639.379 86.1832 642.713 70.2445 637.212 55.949C631.543 41.4891 618.539 31.4658 602.7 37.2169Z" fill="white"/>
<path fill-rule="evenodd" clip-rule="evenodd" d="M601.867 35.0808C618.372 29.0011 633.044 38.6958 639.213 54.9631C645.381 71.2304 640.713 87.9906 624.208 94.0704C607.702 100.15 592.864 90.4554 586.695 74.1881C580.526 58.0851 585.361 41.1605 601.867 35.0808ZM596.699 21.4425C621.04 12.4051 645.715 25.7148 654.884 49.8693C664.054 74.0238 654.218 99.9857 630.043 108.859C605.701 117.732 581.027 104.587 571.857 80.4321C562.521 56.2776 572.19 30.3156 596.699 21.4425Z" fill="#F8DA27"/>
<path fill-rule="evenodd" clip-rule="evenodd" d="M434.645 191.838C414.638 192.989 400.467 180.336 392.631 159.468L372.625 106.558L384.295 94.8919L409.803 85.5259L430.31 139.586C432.978 146.487 437.813 152.567 445.982 152.896C448.316 153.06 451.484 152.731 452.151 149.773C452.318 146.323 451.651 142.872 450.317 139.586L429.81 85.5259L441.647 73.8594L466.989 64.4933L487.329 118.06C493.164 133.506 493.164 147.309 486.829 158.482C483.828 163.74 476.659 169.984 470.657 175.9C461.487 185.43 447.649 191.181 434.645 191.838Z" fill="black"/>
<path fill-rule="evenodd" clip-rule="evenodd" d="M468.156 174.257L468.323 174.585L462.988 176.557C462.821 176.557 462.654 176.721 462.654 176.721C462.488 176.721 462.321 176.886 462.154 176.886L456.819 178.858L456.652 178.529C431.144 185.102 413.638 171.956 404.468 147.802L384.462 94.8919L409.97 85.5259L430.477 139.586C433.145 146.487 437.979 152.567 446.149 152.896C448.483 153.06 450.984 152.567 453.151 151.745C455.485 150.924 457.653 149.609 459.32 147.966C465.155 142.544 464.822 134.821 462.154 127.919L441.481 73.8594L466.989 64.4933L487.329 118.06C496.499 142.379 491.997 162.919 468.156 174.257Z" fill="black"/>
<path fill-rule="evenodd" clip-rule="evenodd" d="M463.821 172.614L461.654 173.435C461.487 173.435 461.32 173.599 461.154 173.599C460.987 173.599 460.82 173.764 460.654 173.764L458.486 174.585C433.145 182.473 416.306 170.477 407.469 146.816L388.63 97.0281L407.803 89.9625L427.143 140.901C430.31 149.116 436.312 156.018 445.815 156.346C448.65 156.511 451.484 156.018 454.151 155.032C456.819 154.046 459.487 152.567 461.487 150.595C468.323 144.187 468.323 135.149 465.155 126.934L445.815 75.9956L464.988 68.93L484.161 119.375C493.164 143.037 488.329 162.262 463.821 172.614Z" fill="white"/>
<path fill-rule="evenodd" clip-rule="evenodd" d="M391.631 98.3426L406.469 92.9202L424.975 141.722C431.144 157.825 444.148 161.111 454.985 157.168C465.822 153.06 473.658 142.215 467.322 126.112L448.816 77.3101L463.655 71.8876L481.994 120.197C489.33 139.422 489.33 160.454 460.82 171.463C460.654 171.463 460.487 171.628 460.32 171.628C460.153 171.628 459.987 171.792 459.82 171.792C431.811 181.651 416.973 165.877 409.47 146.159L391.631 98.3426Z" fill="#F8DA27"/>
<path fill-rule="evenodd" clip-rule="evenodd" d="M517.339 55.456L526.509 46.2543L531.677 59.8926L522.507 69.0943L517.339 55.456ZM524.175 73.6951L533.344 64.4934L535.345 69.5872L526.175 78.7889L524.175 73.6951Z" fill="#58585A"/>
<path fill-rule="evenodd" clip-rule="evenodd" d="M433.645 86.3475L442.814 77.1458L447.983 90.784L438.813 99.9857L433.645 86.3475ZM440.48 104.587L449.65 95.3849L451.651 100.479L442.481 109.68L440.48 104.587Z" fill="#58585A"/>
<path fill-rule="evenodd" clip-rule="evenodd" d="M387.963 138.107L397.133 128.905L402.301 142.544L393.131 151.745L387.963 138.107ZM394.965 156.346L404.135 147.144L404.468 147.802C405.135 149.281 405.635 150.759 406.302 152.238L396.966 161.44L394.965 156.346Z" fill="#58585A"/>
<path fill-rule="evenodd" clip-rule="evenodd" d="M615.205 52.6626L624.541 43.4609C627.875 46.0899 630.71 49.8692 632.71 54.1414L623.541 63.1788C621.54 59.2352 618.706 55.456 615.205 52.6626ZM625.541 67.6153L634.544 58.5779C635.211 60.5497 635.545 62.3572 635.878 64.329L627.042 73.0378V72.8734C626.708 71.2303 626.208 69.4228 625.541 67.6153Z" fill="#58585A"/>
</g>
<defs>
<clipPath id="clip0_46_9">
<rect width="300" height="207.277" fill="white" transform="translate(368 0.523926)"/>
</clipPath>
</defs>
</svg>
