<svg width="65" height="65" viewBox="0 0 65 65" fill="none" xmlns="http://www.w3.org/2000/svg">
<path d="M30 1.44338C31.547 0.550212 33.453 0.550212 35 1.44338L58.1458 14.8066C59.6928 15.6998 60.6458 17.3504 60.6458 19.1368V45.8632C60.6458 47.6496 59.6928 49.3002 58.1458 50.1934L35 63.5566C33.453 64.4498 31.547 64.4498 30 63.5566L6.85417 50.1934C5.30717 49.3002 4.35417 47.6496 4.35417 45.8633V19.1368C4.35417 17.3504 5.30717 15.6998 6.85417 14.8066L30 1.44338Z" fill="#535B6A"/>
<path d="M6.2049 24.9443L8.74174 23.3588C8.80834 23.3172 8.89474 23.365 8.89474 23.4436V35.8517C8.89474 35.8934 8.86888 35.9307 8.82985 35.9454L6.29301 36.8967C6.22764 36.9212 6.1579 36.8729 6.1579 36.8031V25.0291C6.1579 24.9946 6.17566 24.9626 6.2049 24.9443Z" fill="#98A5B1"/>
<path d="M6.24549 44.4627L8.81815 44.1411C8.86327 44.1355 8.90652 44.161 8.9234 44.2032L9.57471 45.8315C9.57753 45.8385 9.5812 45.8453 9.58554 45.8516C9.80129 46.1606 9.94485 46.3153 10.2632 46.5263L29.2537 57.7172C29.3237 57.7584 29.3178 57.8617 29.2435 57.8947L26.3898 59.163C26.3599 59.1763 26.3254 59.1741 26.2975 59.1572L8.21053 48.2368C7.29544 47.671 6.2194 45.6183 6.16043 44.5616C6.15762 44.5112 6.19545 44.469 6.24549 44.4627Z" fill="#98A5B1"/>
<path d="M59.4784 39.7141L56.9397 41.3008C56.8737 41.3421 56.7879 41.2954 56.7867 41.2176L56.4475 19.1694C56.4474 19.1618 56.4464 19.154 56.4445 19.1466C56.3691 18.8494 56.2854 18.7058 56.1053 18.4737L54.8143 17.1827C54.7727 17.1411 54.7758 17.0728 54.821 17.0352L56.7193 15.4532C56.7591 15.4201 56.8174 15.4227 56.8542 15.459C57.8718 16.4601 59.1706 17.3723 59.1842 18.1316L59.5254 39.6277C59.526 39.6628 59.5081 39.6956 59.4784 39.7141Z" fill="#98A5B1"/>
<path d="M49.8564 12.4068L48.6331 13.63C48.6012 13.662 48.5517 13.6685 48.5125 13.646L37.4165 7.25737C37.3555 7.22221 37.3489 7.13663 37.404 7.09262L38.946 5.85901C38.9785 5.83301 39.0237 5.82986 39.0595 5.85111L49.8367 12.2501C49.8928 12.2834 49.9025 12.3606 49.8564 12.4068Z" fill="#98A5B1"/>
<path d="M6.2049 24.9443L8.74174 23.3588C8.80834 23.3172 8.89474 23.365 8.89474 23.4436V35.8517C8.89474 35.8934 8.86888 35.9307 8.82985 35.9454L6.29301 36.8967C6.22764 36.9212 6.1579 36.8729 6.1579 36.8031V25.0291C6.1579 24.9946 6.17566 24.9626 6.2049 24.9443Z" stroke="#98A5B1"/>
<path d="M6.24549 44.4627L8.81815 44.1411C8.86327 44.1355 8.90652 44.161 8.9234 44.2032L9.57471 45.8315C9.57753 45.8385 9.5812 45.8453 9.58554 45.8516C9.80129 46.1606 9.94485 46.3153 10.2632 46.5263L29.2537 57.7172C29.3237 57.7584 29.3178 57.8617 29.2435 57.8947L26.3898 59.163C26.3599 59.1763 26.3254 59.1741 26.2975 59.1572L8.21053 48.2368C7.29544 47.671 6.2194 45.6183 6.16043 44.5616C6.15762 44.5112 6.19545 44.469 6.24549 44.4627Z" stroke="#98A5B1"/>
<path d="M59.4784 39.7141L56.9397 41.3008C56.8737 41.3421 56.7879 41.2954 56.7867 41.2176L56.4475 19.1694C56.4474 19.1618 56.4464 19.154 56.4445 19.1466C56.3691 18.8494 56.2854 18.7058 56.1053 18.4737L54.8143 17.1827C54.7727 17.1411 54.7758 17.0728 54.821 17.0352L56.7193 15.4532C56.7591 15.4201 56.8174 15.4227 56.8542 15.459C57.8718 16.4601 59.1706 17.3723 59.1842 18.1316L59.5254 39.6277C59.526 39.6628 59.5081 39.6956 59.4784 39.7141Z" stroke="#98A5B1"/>
<path d="M49.8564 12.4068L48.6331 13.63C48.6012 13.662 48.5517 13.6685 48.5125 13.646L37.4165 7.25737C37.3555 7.22221 37.3489 7.13663 37.404 7.09262L38.946 5.85901C38.9785 5.83301 39.0237 5.82986 39.0595 5.85111L49.8367 12.2501C49.8928 12.2834 49.9025 12.3606 49.8564 12.4068Z" stroke="#98A5B1"/>
<path d="M30.8421 7.09888C32.0797 6.38434 33.6045 6.38434 34.8421 7.09888L53.5439 17.8963C54.7815 18.6109 55.5439 19.9314 55.5439 21.3604V42.9554C55.5439 44.3844 54.7815 45.7049 53.5439 46.4195L34.8421 57.2169C33.6045 57.9314 32.0797 57.9314 30.8421 57.2169L12.1404 46.4195C10.9028 45.7049 10.1404 44.3844 10.1404 42.9554V21.3604C10.1404 19.9314 10.9028 18.6109 12.1404 17.8963L30.8421 7.09888Z" fill="#5A616D" stroke="#363B44" stroke-width="2"/>
<path d="M40.5 47.1785L45.8015 45.0676L40.5 30.7857V47.1785Z" fill="#E5CFAE"/>
<path d="M23.5 16.8215L18.1985 18.9324L23.5 33.2143V16.8215Z" fill="#E5CFAE"/>
<path d="M23.5 49H40.5V15H23.5V49Z" fill="#FDECCD"/>
<path d="M40.5 32.6072V31.3929H23.5V32.6072H40.5Z" fill="black"/>
<path d="M37.4643 27.7657C37.4643 27.0863 36.9452 26.5356 36.2658 26.5356C35.5864 26.5356 35.0358 27.0705 35.0358 27.7499C35.0358 28.4293 35.5865 28.9642 36.2658 28.9642C36.9451 28.9642 37.4643 28.4451 37.4643 27.7657Z" fill="black"/>
<path d="M33.2143 23.5157C33.2143 22.8363 32.6952 22.2856 32.0158 22.2856C31.3364 22.2856 30.7858 22.8205 30.7858 23.4999C30.7858 24.1793 31.3365 24.7142 32.0158 24.7142C32.6951 24.7142 33.2143 24.1951 33.2143 23.5157Z" fill="black"/>
<path d="M28.9643 19.2657C28.9643 18.5863 28.4452 18.0356 27.7658 18.0356C27.0864 18.0356 26.5358 18.5705 26.5358 19.2499C26.5358 19.9293 27.0865 20.4642 27.7658 20.4642C28.4452 20.4642 28.9643 19.9451 28.9643 19.2657Z" fill="black"/>
<path d="M28.9643 36.2657C28.9643 35.5863 28.4452 35.0356 27.7658 35.0356C27.0864 35.0356 26.5358 35.5705 26.5358 36.2499C26.5358 36.9293 27.0865 37.4642 27.7658 37.4642C28.4452 37.4642 28.9643 36.9451 28.9643 36.2657Z" fill="black"/>
<path d="M28.9643 44.7657C28.9643 44.0863 28.4452 43.5356 27.7658 43.5356C27.0864 43.5356 26.5358 44.0705 26.5358 44.7499C26.5358 45.4293 27.0865 45.9642 27.7658 45.9642C28.4452 45.9642 28.9643 45.4451 28.9643 44.7657Z" fill="black"/>
<path d="M37.4643 36.2657C37.4643 35.5863 36.9452 35.0356 36.2658 35.0356C35.5864 35.0356 35.0358 35.5705 35.0358 36.2499C35.0358 36.9293 35.5865 37.4642 36.2658 37.4642C36.9451 37.4642 37.4643 36.9451 37.4643 36.2657Z" fill="black"/>
<path d="M33.2143 40.5157C33.2143 39.8363 32.6952 39.2856 32.0158 39.2856C31.3364 39.2856 30.7858 39.8205 30.7858 40.4999C30.7858 41.1793 31.3365 41.7142 32.0158 41.7142C32.6951 41.7142 33.2143 41.1951 33.2143 40.5157Z" fill="black"/>
<path d="M37.4643 44.7657C37.4643 44.0863 36.9452 43.5356 36.2658 43.5356C35.5864 43.5356 35.0358 44.0705 35.0358 44.7499C35.0358 45.4293 35.5865 45.9642 36.2658 45.9642C36.9451 45.9642 37.4643 45.4451 37.4643 44.7657Z" fill="black"/>
</svg>
