<svg width="65" height="65" viewBox="0 0 65 65" fill="none" xmlns="http://www.w3.org/2000/svg">
<path d="M30 1.44338C31.547 0.550212 33.453 0.550212 35 1.44338L58.1458 14.8066C59.6928 15.6998 60.6458 17.3504 60.6458 19.1368V45.8632C60.6458 47.6496 59.6928 49.3002 58.1458 50.1934L35 63.5566C33.453 64.4498 31.547 64.4498 30 63.5566L6.85417 50.1934C5.30717 49.3002 4.35417 47.6496 4.35417 45.8633V19.1368C4.35417 17.3504 5.30717 15.6998 6.85417 14.8066L30 1.44338Z" fill="#226BFF"/>
<path d="M6.2049 24.9443L8.74174 23.3588C8.80834 23.3172 8.89474 23.365 8.89474 23.4436V35.8518C8.89474 35.8934 8.86888 35.9307 8.82985 35.9454L6.29301 36.8967C6.22764 36.9212 6.1579 36.8729 6.1579 36.8031V25.0291C6.1579 24.9946 6.17566 24.9626 6.2049 24.9443Z" fill="#B2DAFF"/>
<path d="M6.24549 44.4627L8.81815 44.1411C8.86327 44.1355 8.90652 44.161 8.9234 44.2032L9.57471 45.8315C9.57753 45.8385 9.5812 45.8453 9.58554 45.8516C9.80129 46.1606 9.94485 46.3153 10.2632 46.5263L29.2537 57.7172C29.3237 57.7584 29.3178 57.8617 29.2435 57.8947L26.3898 59.163C26.3599 59.1763 26.3254 59.1741 26.2975 59.1573L8.21053 48.2368C7.29544 47.671 6.2194 45.6183 6.16043 44.5616C6.15762 44.5112 6.19545 44.469 6.24549 44.4627Z" fill="#B2DAFF"/>
<path d="M59.4784 39.7141L56.9397 41.3008C56.8737 41.3421 56.7879 41.2954 56.7867 41.2176L56.4475 19.1694C56.4474 19.1618 56.4464 19.154 56.4445 19.1466C56.3691 18.8494 56.2854 18.7058 56.1053 18.4737L54.8143 17.1827C54.7727 17.1411 54.7758 17.0728 54.821 17.0352L56.7193 15.4532C56.7591 15.4201 56.8174 15.4227 56.8542 15.459C57.8718 16.4601 59.1706 17.3723 59.1842 18.1316L59.5254 39.6277C59.526 39.6628 59.5081 39.6956 59.4784 39.7141Z" fill="#B2DAFF"/>
<path d="M49.8564 12.4068L48.6331 13.63C48.6012 13.662 48.5517 13.6685 48.5125 13.646L37.4165 7.25737C37.3555 7.22221 37.3489 7.13663 37.404 7.09262L38.946 5.85901C38.9785 5.83301 39.0237 5.82986 39.0595 5.85111L49.8367 12.2501C49.8928 12.2834 49.9025 12.3606 49.8564 12.4068Z" fill="#B2DAFF"/>
<path d="M6.2049 24.9443L8.74174 23.3588C8.80834 23.3172 8.89474 23.365 8.89474 23.4436V35.8518C8.89474 35.8934 8.86888 35.9307 8.82985 35.9454L6.29301 36.8967C6.22764 36.9212 6.1579 36.8729 6.1579 36.8031V25.0291C6.1579 24.9946 6.17566 24.9626 6.2049 24.9443Z" stroke="#B2DAFF"/>
<path d="M6.24549 44.4627L8.81815 44.1411C8.86327 44.1355 8.90652 44.161 8.9234 44.2032L9.57471 45.8315C9.57753 45.8385 9.5812 45.8453 9.58554 45.8516C9.80129 46.1606 9.94485 46.3153 10.2632 46.5263L29.2537 57.7172C29.3237 57.7584 29.3178 57.8617 29.2435 57.8947L26.3898 59.163C26.3599 59.1763 26.3254 59.1741 26.2975 59.1573L8.21053 48.2368C7.29544 47.671 6.2194 45.6183 6.16043 44.5616C6.15762 44.5112 6.19545 44.469 6.24549 44.4627Z" stroke="#B2DAFF"/>
<path d="M59.4784 39.7141L56.9397 41.3008C56.8737 41.3421 56.7879 41.2954 56.7867 41.2176L56.4475 19.1694C56.4474 19.1618 56.4464 19.154 56.4445 19.1466C56.3691 18.8494 56.2854 18.7058 56.1053 18.4737L54.8143 17.1827C54.7727 17.1411 54.7758 17.0728 54.821 17.0352L56.7193 15.4532C56.7591 15.4201 56.8174 15.4227 56.8542 15.459C57.8718 16.4601 59.1706 17.3723 59.1842 18.1316L59.5254 39.6277C59.526 39.6628 59.5081 39.6956 59.4784 39.7141Z" stroke="#B2DAFF"/>
<path d="M49.8564 12.4068L48.6331 13.63C48.6012 13.662 48.5517 13.6685 48.5125 13.646L37.4165 7.25737C37.3555 7.22221 37.3489 7.13663 37.404 7.09262L38.946 5.85901C38.9785 5.83301 39.0237 5.82986 39.0595 5.85111L49.8367 12.2501C49.8928 12.2834 49.9025 12.3606 49.8564 12.4068Z" stroke="#B2DAFF"/>
<path d="M30.8421 7.09888C32.0797 6.38434 33.6045 6.38434 34.8421 7.09888L53.5439 17.8963C54.7815 18.6109 55.5439 19.9314 55.5439 21.3604V42.9554C55.5439 44.3844 54.7815 45.7049 53.5439 46.4195L34.8421 57.2169C33.6045 57.9314 32.0797 57.9314 30.8421 57.2169L12.1404 46.4195C10.9028 45.7049 10.1404 44.3844 10.1404 42.9554V21.3604C10.1404 19.9314 10.9028 18.6109 12.1404 17.8963L30.8421 7.09888Z" fill="#293EC3" stroke="#1F2F94" stroke-width="2"/>
<path d="M26.4276 14.7612C26.376 14.7625 26.3232 14.7653 26.2747 14.7765C25.7555 14.8589 25.4922 15.3908 25.1131 15.8923C24.6844 21.7509 24.0789 27.1151 23.6495 32.9808C25.4462 32.8463 27.9154 32.8739 30.4513 32.8394C33.2101 32.802 35.8986 32.6132 37.2149 32.1363C39.9275 31.1536 42.0203 28.6651 43.7683 24.9677C38.3953 21.6965 32.6116 17.8084 27.6504 15.1548C27.2192 14.9751 26.7886 14.7536 26.4276 14.7612ZM24.089 17.1571C20.8757 23.2326 18.0336 28.2043 14.7919 34.387C14.729 36.0482 15.0568 37.0043 15.4759 37.6122C15.8961 38.2214 16.2769 38.379 16.8401 38.342C17.6525 38.0727 18.6734 37.3492 19.729 36.4352C20.1292 36.0786 22.6925 33.8547 22.912 33.363C23.3143 27.8658 23.6838 22.6863 24.089 17.1571ZM33.2637 17.4476C37.1748 19.8742 40.9139 22.3147 44.3185 24.3296C45.3361 24.9318 47.2656 25.646 48.7244 26.0797C47.3359 24.6737 45.7513 23.4652 43.9861 22.5947L33.2637 17.4476ZM30.7723 19.7135C31.1672 19.7033 31.5587 19.8143 31.9454 20.0422C32.7201 20.4925 33.4395 21.3974 34.1044 22.7591C34.7253 24.0306 34.9593 25.2074 34.8075 26.2899C34.6571 27.3668 34.1408 28.1771 33.2599 28.7202C33.0233 28.866 32.7725 28.9875 32.5033 29.0832L31.6283 29.3048L31.143 28.3113C31.4428 28.2951 31.7303 28.2473 32.0065 28.1661C32.2828 28.0848 32.5373 27.9699 32.7708 27.826C33.3933 27.4422 33.7496 26.9091 33.8407 26.2249C33.9332 25.5352 33.764 24.6843 33.3287 23.6685C33.2994 24.0896 33.1847 24.4669 32.9886 24.8034C32.7925 25.1399 32.5261 25.4101 32.19 25.6173C31.4927 26.0472 30.8214 26.1465 30.1762 25.9116C29.5323 25.6711 29.0037 25.1264 28.5904 24.2799C28.1858 23.4514 28.0715 22.6572 28.2503 21.8955C28.4291 21.1338 28.8728 20.537 29.5763 20.1033C29.9794 19.8548 30.3774 19.7238 30.7723 19.7135ZM30.6844 20.7415C30.4564 20.7499 30.2281 20.8242 29.9966 20.9669C29.5733 21.2279 29.3198 21.6059 29.2362 22.098C29.1538 22.5846 29.2548 23.1153 29.538 23.6953C29.823 24.2788 30.1717 24.6621 30.5812 24.8454L31.8346 24.727C32.2579 24.466 32.5089 24.094 32.5912 23.6074C32.6766 23.1189 32.5781 22.5822 32.2931 21.9986C32.0099 21.4187 31.6626 21.0376 31.2499 20.8561C31.0957 20.786 30.9397 20.7486 30.7838 20.7415C30.7513 20.74 30.717 20.7402 30.6844 20.7415ZM22.335 23.8023C22.4164 23.7977 22.4828 23.8214 22.5337 23.871C22.698 24.0263 22.687 24.4332 22.4955 25.0938C22.3621 25.5541 22.1726 26.0051 21.9338 26.4465C21.6961 26.8843 21.4253 27.2792 21.1199 27.6273C21.3853 27.4926 21.5513 27.5368 21.6128 27.761C21.6764 27.9836 21.6302 28.3615 21.4753 28.8959C21.2375 29.7162 20.8946 30.4816 20.4512 31.1925C20.0078 31.9034 19.4997 32.4986 18.9227 32.9808C18.729 33.1427 18.539 33.2765 18.3533 33.3782C18.1687 33.4819 17.9855 33.5546 17.8069 33.5999L18.1241 32.5146C18.2444 32.5519 18.392 32.5329 18.5711 32.4535C18.7503 32.3741 18.9541 32.24 19.1787 32.0523C19.5702 31.725 19.9066 31.3357 20.1913 30.8868C20.4781 30.4362 20.6986 29.9464 20.8524 29.4156C20.9944 28.9257 21.0103 28.6245 20.8983 28.51C20.7894 28.3901 20.5657 28.4704 20.2257 28.7546L19.6869 29.2055L19.9544 28.2807L20.5161 27.8107C20.8232 27.5541 21.0923 27.2487 21.3186 26.8936C21.5459 26.5349 21.7178 26.1477 21.8383 25.732C21.962 25.3051 21.9722 25.0491 21.8689 24.9639C21.7686 24.8733 21.563 24.9581 21.2498 25.2199C21.0788 25.3629 20.8841 25.5474 20.669 25.7778C20.4539 26.0083 20.2111 26.2926 19.9353 26.63L20.2257 25.6288C20.4971 25.312 20.7438 25.0389 20.967 24.8072C21.1924 24.5739 21.395 24.3797 21.5784 24.2264C21.9043 23.9541 22.1561 23.8122 22.335 23.8023H22.335ZM44.6242 25.3995C42.8963 29.0517 40.6951 31.8318 37.8759 32.9885L38.3039 46.9015C39.0408 46.4901 39.18 46.2437 39.5038 45.4648L49.118 27.8222C49.2521 27.4786 49.2644 27.2561 49.053 27.1114C47.4676 26.6678 46.1056 26.126 44.6242 25.3995ZM37.3677 27.8336L37.704 28.5176L32.1288 31.2575L31.7887 30.5735L37.3677 27.8336ZM45.5451 30.4015L45.163 31.4027C44.7384 31.9701 44.1633 32.7338 43.4396 33.6916C42.7123 34.6541 42.2488 35.2689 42.0525 35.541C41.6814 36.0535 41.3985 36.4744 41.2042 36.8021C41.0063 37.1345 40.8523 37.4438 40.7419 37.7306C40.5619 38.198 40.5047 38.5446 40.5699 38.7662C40.633 38.9886 40.8084 39.0393 41.0934 38.9228C41.2955 38.8402 41.5326 38.6899 41.808 38.4681C42.0812 38.2472 42.3991 37.9529 42.7556 37.5854L42.2895 38.7853C41.9558 39.0838 41.6586 39.3286 41.3953 39.5189C41.132 39.7093 40.9061 39.8436 40.7189 39.9202C40.2255 40.1219 39.9199 40.0533 39.8018 39.7176C39.6838 39.382 39.7721 38.8327 40.0655 38.0707C40.2047 37.7093 40.3738 37.3534 40.5737 36.9969C40.7701 36.6453 41.0514 36.2091 41.4144 35.6901C41.5114 35.5544 41.8057 35.1565 42.3009 34.494L44.3873 31.7198L42.1366 32.6369L42.5226 31.6358L45.5451 30.4015ZM37.1155 33.2636C35.5603 33.7301 33.0603 33.8282 30.459 33.8635C28.2513 33.8844 25.2287 33.7107 23.447 34.0317C22.4066 35.0341 21.2866 36.1059 20.1913 37.0543C19.2161 37.8711 18.2174 38.7195 16.9853 39.1101C16.8338 39.1223 16.8092 39.1052 16.6567 39.0871C17.1134 39.4983 17.5937 39.7474 18.1126 40.0424L35.652 47.0659C35.7441 47.0838 36.7157 47.4437 37.5091 47.0697L37.1155 33.2636ZM28.6897 37.1421C28.7681 37.1395 28.8457 37.1398 28.9228 37.1421C29.0109 37.1448 29.0962 37.1522 29.1827 37.1613C29.8742 37.234 30.4242 37.4969 30.8334 37.9522C31.126 38.2779 31.2462 38.6091 31.1888 38.9458C31.135 39.2809 30.9117 39.5866 30.5239 39.8629C31.1234 39.7288 31.6819 39.7295 32.1976 39.859C32.7169 39.987 33.1394 40.2327 33.4663 40.5965C33.9623 41.1485 34.1043 41.6711 33.8942 42.1671C33.6877 42.6615 33.1452 43.097 32.2626 43.4701C31.3799 43.8431 30.5689 43.9808 29.8285 43.8866C29.0916 43.7909 28.475 43.468 27.979 42.916C27.6521 42.5522 27.5225 42.1836 27.5892 41.8079C27.6559 41.4322 27.9095 41.0908 28.3535 40.7838V40.78C27.8158 40.8949 27.316 40.8961 26.8517 40.78C26.391 40.6623 26.0132 40.4407 25.7206 40.115C25.3115 39.6597 25.2141 39.2035 25.4302 38.7471C25.6499 38.2892 26.1578 37.894 26.9511 37.5587C27.5612 37.3008 28.1412 37.1605 28.6897 37.1421ZM28.4987 37.937C28.1813 37.9428 27.8459 38.0228 27.4975 38.1701C27.0294 38.3679 26.7424 38.6014 26.6301 38.877C26.5214 39.1511 26.598 39.4378 26.8632 39.7329C27.1284 40.028 27.4623 40.2037 27.8682 40.2603C28.2776 40.3154 28.7184 40.2441 29.1865 40.0463C29.651 39.8499 29.9378 39.615 30.0501 39.3393C30.1659 39.0622 30.0936 38.7747 29.8285 38.4796C29.5633 38.1845 29.2212 38.0097 28.8082 37.9561C28.7058 37.9423 28.6045 37.935 28.4987 37.937ZM30.8564 40.4055C30.4954 40.4055 30.1215 40.4896 29.7329 40.6538C29.2183 40.8713 28.8982 41.1389 28.7776 41.4601C28.6606 41.7799 28.7556 42.1102 29.0642 42.4536C29.3728 42.7971 29.7645 43.0083 30.2335 43.0803C30.7061 43.1509 31.1977 43.0761 31.7123 42.8587C32.2269 42.6412 32.547 42.3698 32.6676 42.0486C32.7859 41.7248 32.6912 41.3922 32.3849 41.0513C32.0762 40.7078 31.6843 40.5027 31.2117 40.4322C31.0945 40.4142 30.9767 40.4053 30.8564 40.4055Z" fill="#F1F1F1"/>
</svg>
