<svg width="65" height="65" viewBox="0 0 65 65" fill="none" xmlns="http://www.w3.org/2000/svg">
<path d="M30 1.44338C31.547 0.550212 33.453 0.550212 35 1.44338L58.1458 14.8066C59.6928 15.6998 60.6458 17.3504 60.6458 19.1368V45.8632C60.6458 47.6496 59.6928 49.3002 58.1458 50.1934L35 63.5566C33.453 64.4498 31.547 64.4498 30 63.5566L6.85417 50.1934C5.30717 49.3002 4.35417 47.6496 4.35417 45.8633V19.1368C4.35417 17.3504 5.30717 15.6998 6.85417 14.8066L30 1.44338Z" fill="#226BFF"/>
<path d="M6.2049 24.9443L8.74174 23.3588C8.80834 23.3172 8.89474 23.365 8.89474 23.4436V35.8518C8.89474 35.8934 8.86888 35.9308 8.82985 35.9454L6.29301 36.8967C6.22764 36.9212 6.1579 36.8729 6.1579 36.8031V25.0291C6.1579 24.9946 6.17566 24.9626 6.2049 24.9443Z" fill="#B2DAFF"/>
<path d="M6.24549 44.4627L8.81815 44.1412C8.86327 44.1355 8.90652 44.161 8.9234 44.2032L9.57471 45.8315C9.57753 45.8386 9.5812 45.8453 9.58554 45.8516C9.80129 46.1606 9.94485 46.3153 10.2632 46.5263L29.2537 57.7172C29.3237 57.7584 29.3178 57.8617 29.2435 57.8947L26.3898 59.163C26.3599 59.1763 26.3254 59.1741 26.2975 59.1573L8.21053 48.2368C7.29544 47.671 6.2194 45.6183 6.16043 44.5616C6.15762 44.5112 6.19545 44.469 6.24549 44.4627Z" fill="#B2DAFF"/>
<path d="M59.4784 39.7141L56.9397 41.3008C56.8737 41.3421 56.7879 41.2954 56.7867 41.2176L56.4475 19.1694C56.4474 19.1618 56.4464 19.154 56.4445 19.1466C56.3691 18.8494 56.2854 18.7058 56.1053 18.4737L54.8143 17.1827C54.7727 17.1411 54.7758 17.0728 54.821 17.0352L56.7193 15.4532C56.7591 15.4201 56.8174 15.4227 56.8542 15.459C57.8718 16.4601 59.1706 17.3723 59.1842 18.1316L59.5254 39.6278C59.526 39.6628 59.5081 39.6956 59.4784 39.7141Z" fill="#B2DAFF"/>
<path d="M49.8564 12.4068L48.6331 13.63C48.6012 13.662 48.5517 13.6685 48.5125 13.646L37.4165 7.25737C37.3555 7.22222 37.3489 7.13664 37.404 7.09263L38.946 5.85902C38.9785 5.83301 39.0237 5.82987 39.0595 5.85112L49.8367 12.2501C49.8928 12.2834 49.9025 12.3607 49.8564 12.4068Z" fill="#B2DAFF"/>
<path d="M6.2049 24.9443L8.74174 23.3588C8.80834 23.3172 8.89474 23.365 8.89474 23.4436V35.8518C8.89474 35.8934 8.86888 35.9308 8.82985 35.9454L6.29301 36.8967C6.22764 36.9212 6.1579 36.8729 6.1579 36.8031V25.0291C6.1579 24.9946 6.17566 24.9626 6.2049 24.9443Z" stroke="#B2DAFF"/>
<path d="M6.24549 44.4627L8.81815 44.1412C8.86327 44.1355 8.90652 44.161 8.9234 44.2032L9.57471 45.8315C9.57753 45.8386 9.5812 45.8453 9.58554 45.8516C9.80129 46.1606 9.94485 46.3153 10.2632 46.5263L29.2537 57.7172C29.3237 57.7584 29.3178 57.8617 29.2435 57.8947L26.3898 59.163C26.3599 59.1763 26.3254 59.1741 26.2975 59.1573L8.21053 48.2368C7.29544 47.671 6.2194 45.6183 6.16043 44.5616C6.15762 44.5112 6.19545 44.469 6.24549 44.4627Z" stroke="#B2DAFF"/>
<path d="M59.4784 39.7141L56.9397 41.3008C56.8737 41.3421 56.7879 41.2954 56.7867 41.2176L56.4475 19.1694C56.4474 19.1618 56.4464 19.154 56.4445 19.1466C56.3691 18.8494 56.2854 18.7058 56.1053 18.4737L54.8143 17.1827C54.7727 17.1411 54.7758 17.0728 54.821 17.0352L56.7193 15.4532C56.7591 15.4201 56.8174 15.4227 56.8542 15.459C57.8718 16.4601 59.1706 17.3723 59.1842 18.1316L59.5254 39.6278C59.526 39.6628 59.5081 39.6956 59.4784 39.7141Z" stroke="#B2DAFF"/>
<path d="M49.8564 12.4068L48.6331 13.63C48.6012 13.662 48.5517 13.6685 48.5125 13.646L37.4165 7.25737C37.3555 7.22222 37.3489 7.13664 37.404 7.09263L38.946 5.85902C38.9785 5.83301 39.0237 5.82987 39.0595 5.85112L49.8367 12.2501C49.8928 12.2834 49.9025 12.3607 49.8564 12.4068Z" stroke="#B2DAFF"/>
<path d="M30.8421 7.09888C32.0797 6.38434 33.6045 6.38434 34.8421 7.09888L53.5439 17.8963C54.7815 18.6109 55.5439 19.9314 55.5439 21.3604V42.9554C55.5439 44.3844 54.7815 45.7049 53.5439 46.4195L34.8421 57.2169C33.6045 57.9314 32.0797 57.9314 30.8421 57.2169L12.1404 46.4195C10.9028 45.7049 10.1404 44.3844 10.1404 42.9554V21.3604C10.1404 19.9314 10.9028 18.6109 12.1404 17.8963L30.8421 7.09888Z" fill="#293EC3" stroke="#1F2F94" stroke-width="2"/>
<path d="M42.4828 16H21.5173C20.9076 16 20.4138 16.4938 20.4138 17.1034V46.8966C20.4138 47.5062 20.9076 48 21.5173 48H42.4828C43.0924 48 43.5862 47.5062 43.5862 46.8966V17.1034C43.5862 16.4938 43.0924 16 42.4828 16Z" fill="#E6EEF4"/>
<path d="M41.9311 18.2069C41.9311 17.9022 41.6841 17.6552 41.3793 17.6552H28.6896C28.3849 17.6552 28.1379 17.9022 28.1379 18.2069C28.1379 18.5117 28.3849 18.7587 28.6896 18.7587H41.3793L40.8275 18.2069V36.9656C40.8275 37.2702 41.0745 37.5173 41.3793 37.5173C41.684 37.5173 41.931 37.2703 41.931 36.9656V18.2069H41.9311Z" fill="black"/>
<path d="M22.0689 45.7931C22.0689 46.0978 22.3159 46.3449 22.6207 46.3449H35.3103C35.615 46.3449 35.862 46.0979 35.862 45.7931C35.862 45.4884 35.615 45.2414 35.3103 45.2414H22.6207L23.1724 45.7931V27.0345C23.1724 26.7298 22.9254 26.4827 22.6207 26.4827C22.316 26.4827 22.0689 26.7297 22.0689 27.0345V45.7931Z" fill="black"/>
<path d="M33.6551 36.4138C33.6551 37.1393 33.8239 37.8549 34.1483 38.5043L34.5588 39.3247C34.6504 39.5085 34.5175 39.7242 34.3122 39.7242H29.6876C29.4824 39.7242 29.3495 39.5084 29.441 39.3247L29.8515 38.5043C30.176 37.8549 30.3448 37.1394 30.3448 36.4138C29.7996 36.8089 29.1696 37.0124 28.475 37.0124C26.4578 37.0124 24.7078 35.3186 24.8341 33.2762C24.9048 32.1275 25.6363 31.1421 26.6107 30.5308C27.5889 29.9167 28.496 29.8676 29.307 30.0646C28.7883 29.4506 28.475 28.6582 28.475 27.7921C28.475 25.6149 30.4485 23.8986 32.7039 24.3349C34.1158 24.6075 35.2374 25.7677 35.4746 27.1857C35.6589 28.2858 35.3306 29.3098 34.6934 30.0646C35.5105 29.8665 36.4247 29.9178 37.4107 30.544C38.38 31.1597 39.1088 32.1424 39.1756 33.2888C39.2937 35.3257 37.5381 37.0124 35.5254 37.0124C34.8402 37.0124 34.1903 36.8006 33.6551 36.4138Z" fill="black"/>
<path d="M25.3317 17.9828C25.1375 17.5459 24.5175 17.5459 24.3234 17.9828L22.1165 22.9483C21.9927 23.2267 22.1181 23.5528 22.3966 23.6766C22.675 23.8003 23.0011 23.6749 23.1249 23.3964L25.3317 18.4309H24.3234L26.5302 23.3964C26.654 23.6749 26.98 23.8003 27.2585 23.6766C27.5369 23.5528 27.6624 23.2267 27.5386 22.9483L25.3317 17.9828Z" fill="black"/>
<path d="M25.931 22.0689C26.2357 22.0689 26.4828 21.8219 26.4828 21.5172C26.4828 21.2125 26.2358 20.9654 25.931 20.9654H23.7242C23.4195 20.9654 23.1724 21.2124 23.1724 21.5172C23.1724 21.8219 23.4194 22.0689 23.7242 22.0689H25.931Z" fill="black"/>
<path d="M38.6683 46.0172C38.8624 46.454 39.4824 46.454 39.6766 46.0172L41.8834 41.0517C42.0072 40.7732 41.8818 40.4472 41.6033 40.3234C41.3249 40.1997 40.9988 40.325 40.8751 40.6035L38.6682 45.569H39.6765L37.4696 40.6035C37.3459 40.3251 37.0198 40.1997 36.7414 40.3234C36.4629 40.4472 36.3375 40.7732 36.4613 41.0517L38.6683 46.0172Z" fill="black"/>
<path d="M38.0689 41.931C37.7642 41.931 37.5172 42.178 37.5172 42.4828C37.5172 42.7875 37.7642 43.0345 38.0689 43.0345H40.2758C40.5805 43.0345 40.8275 42.7875 40.8275 42.4828C40.8275 42.1781 40.5805 41.931 40.2758 41.931H38.0689Z" fill="black"/>
</svg>
