<svg width="65" height="65" viewBox="0 0 65 65" fill="none" xmlns="http://www.w3.org/2000/svg">
<path d="M30 1.44338C31.547 0.550212 33.453 0.550212 35 1.44338L58.1458 14.8066C59.6928 15.6998 60.6458 17.3504 60.6458 19.1368V45.8632C60.6458 47.6496 59.6928 49.3002 58.1458 50.1934L35 63.5566C33.453 64.4498 31.547 64.4498 30 63.5566L6.85417 50.1934C5.30717 49.3002 4.35417 47.6496 4.35417 45.8633V19.1368C4.35417 17.3504 5.30717 15.6998 6.85417 14.8066L30 1.44338Z" fill="#FB5454"/>
<path d="M6.2049 24.9443L8.74174 23.3588C8.80834 23.3172 8.89474 23.365 8.89474 23.4436V35.8518C8.89474 35.8934 8.86888 35.9308 8.82985 35.9454L6.29301 36.8967C6.22764 36.9212 6.1579 36.8729 6.1579 36.8031V25.0291C6.1579 24.9946 6.17566 24.9626 6.2049 24.9443Z" fill="#FFA0A0"/>
<path d="M6.24549 44.4627L8.81815 44.1412C8.86327 44.1355 8.90652 44.161 8.9234 44.2032L9.57471 45.8315C9.57753 45.8386 9.5812 45.8453 9.58554 45.8516C9.80129 46.1606 9.94485 46.3153 10.2632 46.5263L29.2537 57.7172C29.3237 57.7584 29.3178 57.8617 29.2435 57.8947L26.3898 59.163C26.3599 59.1763 26.3254 59.1741 26.2975 59.1573L8.21053 48.2368C7.29544 47.671 6.2194 45.6183 6.16043 44.5616C6.15762 44.5112 6.19545 44.469 6.24549 44.4627Z" fill="#FFA0A0"/>
<path d="M59.4784 39.7141L56.9397 41.3008C56.8737 41.3421 56.7879 41.2954 56.7867 41.2176L56.4475 19.1694C56.4474 19.1618 56.4464 19.154 56.4445 19.1466C56.3691 18.8494 56.2854 18.7058 56.1053 18.4737L54.8143 17.1827C54.7727 17.1411 54.7758 17.0728 54.821 17.0352L56.7193 15.4532C56.7591 15.4201 56.8174 15.4227 56.8542 15.459C57.8718 16.4601 59.1706 17.3723 59.1842 18.1316L59.5254 39.6278C59.526 39.6628 59.5081 39.6956 59.4784 39.7141Z" fill="#FFA0A0"/>
<path d="M49.8564 12.4068L48.6331 13.63C48.6012 13.662 48.5517 13.6685 48.5125 13.646L37.4165 7.25737C37.3555 7.22222 37.3489 7.13664 37.404 7.09263L38.946 5.85902C38.9785 5.83301 39.0237 5.82987 39.0595 5.85112L49.8367 12.2501C49.8928 12.2834 49.9025 12.3607 49.8564 12.4068Z" fill="#FFA0A0"/>
<path d="M6.2049 24.9443L8.74174 23.3588C8.80834 23.3172 8.89474 23.365 8.89474 23.4436V35.8518C8.89474 35.8934 8.86888 35.9308 8.82985 35.9454L6.29301 36.8967C6.22764 36.9212 6.1579 36.8729 6.1579 36.8031V25.0291C6.1579 24.9946 6.17566 24.9626 6.2049 24.9443Z" stroke="#FFA0A0"/>
<path d="M6.24549 44.4627L8.81815 44.1412C8.86327 44.1355 8.90652 44.161 8.9234 44.2032L9.57471 45.8315C9.57753 45.8386 9.5812 45.8453 9.58554 45.8516C9.80129 46.1606 9.94485 46.3153 10.2632 46.5263L29.2537 57.7172C29.3237 57.7584 29.3178 57.8617 29.2435 57.8947L26.3898 59.163C26.3599 59.1763 26.3254 59.1741 26.2975 59.1573L8.21053 48.2368C7.29544 47.671 6.2194 45.6183 6.16043 44.5616C6.15762 44.5112 6.19545 44.469 6.24549 44.4627Z" stroke="#FFA0A0"/>
<path d="M59.4784 39.7141L56.9397 41.3008C56.8737 41.3421 56.7879 41.2954 56.7867 41.2176L56.4475 19.1694C56.4474 19.1618 56.4464 19.154 56.4445 19.1466C56.3691 18.8494 56.2854 18.7058 56.1053 18.4737L54.8143 17.1827C54.7727 17.1411 54.7758 17.0728 54.821 17.0352L56.7193 15.4532C56.7591 15.4201 56.8174 15.4227 56.8542 15.459C57.8718 16.4601 59.1706 17.3723 59.1842 18.1316L59.5254 39.6278C59.526 39.6628 59.5081 39.6956 59.4784 39.7141Z" stroke="#FFA0A0"/>
<path d="M49.8564 12.4068L48.6331 13.63C48.6012 13.662 48.5517 13.6685 48.5125 13.646L37.4165 7.25737C37.3555 7.22222 37.3489 7.13664 37.404 7.09263L38.946 5.85902C38.9785 5.83301 39.0237 5.82987 39.0595 5.85112L49.8367 12.2501C49.8928 12.2834 49.9025 12.3607 49.8564 12.4068Z" stroke="#FFA0A0"/>
<path d="M30.8421 7.09888C32.0797 6.38434 33.6045 6.38434 34.8421 7.09888L53.5439 17.8963C54.7815 18.6109 55.5439 19.9314 55.5439 21.3604V42.9554C55.5439 44.3844 54.7815 45.7049 53.5439 46.4195L34.8421 57.2169C33.6045 57.9314 32.0797 57.9314 30.8421 57.2169L12.1404 46.4195C10.9028 45.7049 10.1404 44.3844 10.1404 42.9554V21.3604C10.1404 19.9314 10.9028 18.6109 12.1404 17.8963L30.8421 7.09888Z" fill="#FD3838" stroke="#D30000" stroke-width="2"/>
<g clip-path="url(#clip0_53_229)">
<path d="M37.4535 16.1865C37.2406 15.335 36.3359 14.8028 35.5376 15.0689L17.4966 19.1668C16.645 19.3796 16.1661 20.2843 16.379 21.1358L22.9781 45.8292C23.0845 46.2549 23.3506 46.5743 23.7232 46.7871C23.9893 46.9468 24.2553 47 24.5214 47C24.6811 47 24.7875 47 24.9472 46.9468L25.2665 46.8403C24.9472 46.4145 24.7875 45.8824 24.7875 45.3502V42.6892C24.5747 42.6892 24.3618 42.5296 24.2554 42.3167C23.67 40.0815 23.0314 37.8464 22.4459 35.558C21.8073 33.3228 21.2218 31.0344 20.6364 28.8525C20.5832 28.5864 20.7429 28.2671 21.0089 28.2139C21.275 28.1607 21.5943 28.3203 21.6475 28.5864C22.233 30.8215 22.8716 33.0567 23.457 35.2919C23.8828 36.8884 24.3617 38.5382 24.7875 40.1347V24.8611C24.5746 25.0739 24.2553 25.0207 24.0424 24.8079L23.2973 23.9564C23.2973 23.9564 23.2441 23.9564 23.2441 24.0096L21.1686 24.5417C21.1154 24.5417 21.1154 24.5417 21.0622 24.5417L20.8493 25.6593C20.7961 25.9254 20.5832 26.0851 20.3172 26.0851C20.264 26.0851 20.264 26.0851 20.2107 26.0851C19.9446 26.0319 19.7318 25.7657 19.785 25.4464L20.7429 20.8164C20.7961 20.6036 20.9557 20.4439 21.1154 20.3907C21.3282 20.3375 21.5411 20.3907 21.6475 20.5503L24.7874 24.0628V19.8054C24.7874 18.3152 25.9582 17.1445 27.4483 17.1445H37.7727L37.4535 16.1865Z" fill="#FBFBFB"/>
<path d="M46.0748 18.2088H27.4483C26.5436 18.2088 25.8518 18.9006 25.8518 19.8053V45.3501C25.8518 46.2549 26.5436 46.9467 27.4483 46.9467H46.0748C46.9795 46.9467 47.6713 46.2549 47.6713 45.3501V19.8054C47.6714 18.9007 46.9795 18.2088 46.0748 18.2088ZM35.4311 20.3375H45.0104C45.3298 20.3375 45.5426 20.5504 45.5426 20.8697V36.7821C45.5426 37.1014 45.3298 37.3142 45.0104 37.3142C44.6911 37.3142 44.4783 37.1014 44.4783 36.7821V21.402H35.4311C35.1118 21.402 34.899 21.1891 34.899 20.8698C34.899 20.5505 35.1118 20.3375 35.4311 20.3375ZM27.9806 20.8698C27.9806 20.5505 28.1934 20.3376 28.5127 20.3376C28.832 20.3376 29.0449 20.5505 29.0449 20.8698V22.5727L30.7479 20.4972C30.9608 20.2843 31.2801 20.2311 31.493 20.444C31.7059 20.6569 31.7591 20.9762 31.5462 21.1891L30.1093 22.8921L32.0784 25.8723C32.2381 26.1384 32.1849 26.4577 31.9188 26.6173C31.9188 26.6705 31.8123 26.7238 31.7059 26.7238C31.5463 26.7238 31.3866 26.6173 31.2801 26.5109L29.4707 23.7968L29.0449 24.2757V26.1916C29.0449 26.5109 28.8321 26.7237 28.5128 26.7237C28.1935 26.7237 27.9806 26.5109 27.9806 26.1916V20.8698H27.9806ZM39.1564 44.818L28.5127 44.8712C28.3531 44.8712 28.2466 44.818 28.1402 44.7115C28.0338 44.6051 27.9806 44.4987 27.9806 44.339V28.3735C27.9806 28.0542 28.1934 27.8414 28.5127 27.8414C28.832 27.8414 29.0449 28.0542 29.0449 28.3735V43.8069L39.1563 43.7537C39.4757 43.7537 39.6885 43.9665 39.6885 44.2858C39.6886 44.5519 39.4757 44.818 39.1564 44.818ZM38.9436 37.261L39.4225 38.4319C39.529 38.6447 39.529 38.9108 39.3693 39.1237C39.2097 39.3365 38.9968 39.4962 38.7307 39.4962H34.7925C34.5264 39.4962 34.2604 39.3365 34.1539 39.1237C34.0474 38.9108 33.9942 38.6447 34.1007 38.4319L34.4732 37.261C34.2071 37.3675 33.9942 37.3675 33.7281 37.3675C32.717 37.3675 31.759 36.9417 31.0672 36.1967C30.3754 35.5048 30.056 34.5469 30.1093 33.6421C30.1625 32.5778 30.8011 31.5666 31.8655 30.8748C32.3977 30.5555 32.8767 30.3426 33.4088 30.3426C33.2492 29.9701 33.196 29.4911 33.196 29.0121C33.196 27.9478 33.6749 26.9366 34.5265 26.2448C35.378 25.553 36.4423 25.2868 37.5067 25.553C38.8904 25.8191 39.9547 26.9366 40.2208 28.3203C40.3805 29.0654 40.3273 29.7572 40.1144 30.3426C40.6465 30.3958 41.1256 30.5555 41.6577 30.928C42.7221 31.6198 43.3607 32.5778 43.4139 33.6954C43.4671 34.6533 43.1478 35.558 42.456 36.2499C41.7642 36.995 40.753 37.4207 39.7951 37.4207C39.4757 37.3674 39.2096 37.3142 38.9436 37.261ZM45.6491 44.2858H45.5426C45.5426 44.6051 45.3298 44.818 45.0104 44.818C44.6911 44.818 44.4783 44.6051 44.4783 44.2858V42.5828L42.7753 44.6583C42.6688 44.7648 42.5092 44.818 42.3495 44.818C42.2431 44.818 42.0834 44.7648 42.0302 44.7115C41.8174 44.4987 41.7641 44.1794 41.977 43.9665L43.4139 42.2635L41.4448 39.2833C41.2852 39.0172 41.3384 38.6978 41.6045 38.5382C41.8706 38.3785 42.1899 38.4317 42.3495 38.6978L44.159 41.412L44.5847 40.9331V38.964C44.5847 38.6446 44.7976 38.4318 45.1169 38.4318C45.4362 38.4318 45.6491 38.6446 45.6491 38.964V44.2858Z" fill="#FBFBFB"/>
</g>
<defs>
<clipPath id="clip0_53_229">
<rect width="32" height="32" fill="white" transform="translate(16 15)"/>
</clipPath>
</defs>
</svg>
