<svg width="57" height="65" viewBox="0 0 57 65" fill="none" xmlns="http://www.w3.org/2000/svg">
<path d="M25.6458 1.44338C27.1928 0.550212 29.0988 0.550212 30.6458 1.44338L53.7917 14.8066C55.3387 15.6998 56.2917 17.3504 56.2917 19.1368V45.8632C56.2917 47.6496 55.3387 49.3002 53.7917 50.1934L30.6458 63.5566C29.0988 64.4498 27.1928 64.4498 25.6458 63.5566L2.5 50.1934C0.952995 49.3002 0 47.6496 0 45.8633V19.1368C0 17.3504 0.952995 15.6998 2.5 14.8066L25.6458 1.44338Z" fill="#FFC700"/>
<path d="M1.85071 24.9443L4.38755 23.3588C4.45416 23.3172 4.54055 23.365 4.54055 23.4436V35.8517C4.54055 35.8934 4.5147 35.9307 4.47567 35.9454L1.93882 36.8967C1.87345 36.9212 1.80371 36.8729 1.80371 36.8031V25.0291C1.80371 24.9946 1.82147 24.9626 1.85071 24.9443Z" fill="#FFDC5D"/>
<path d="M1.89131 44.4627L4.46397 44.1411C4.50909 44.1355 4.55233 44.161 4.56922 44.2032L5.22052 45.8315C5.22334 45.8385 5.22701 45.8453 5.23136 45.8516C5.4471 46.1606 5.59066 46.3153 5.90897 46.5263L24.8995 57.7172C24.9696 57.7584 24.9637 57.8617 24.8893 57.8947L22.0356 59.163C22.0057 59.1763 21.9713 59.1741 21.9433 59.1572L3.85634 48.2368C2.94126 47.671 1.86522 45.6183 1.80625 44.5616C1.80344 44.5112 1.84126 44.469 1.89131 44.4627Z" fill="#FFDC5D"/>
<path d="M54.6889 39.7141L52.1502 41.3008C52.0842 41.3421 51.9984 41.2954 51.9972 41.2176L51.658 19.1694C51.6579 19.1618 51.6569 19.154 51.655 19.1466C51.5796 18.8494 51.4959 18.7058 51.3158 18.4737L50.0248 17.1827C49.9832 17.1411 49.9863 17.0728 50.0315 17.0352L51.9298 15.4532C51.9696 15.4201 52.0279 15.4227 52.0647 15.459C53.0823 16.4601 54.3811 17.3723 54.3947 18.1316L54.7359 39.6277C54.7365 39.6628 54.7187 39.6956 54.6889 39.7141Z" fill="#FFDC5D"/>
<path d="M45.5022 12.4068L44.279 13.63C44.247 13.662 44.1975 13.6685 44.1583 13.646L33.0624 7.25737C33.0013 7.22221 32.9948 7.13663 33.0498 7.09262L34.5918 5.85901C34.6243 5.83301 34.6695 5.82986 34.7053 5.85111L45.4825 12.2501C45.5386 12.2834 45.5483 12.3606 45.5022 12.4068Z" fill="#FFDC5D"/>
<path d="M1.85071 24.9443L4.38755 23.3588C4.45416 23.3172 4.54055 23.365 4.54055 23.4436V35.8517C4.54055 35.8934 4.5147 35.9307 4.47567 35.9454L1.93882 36.8967C1.87345 36.9212 1.80371 36.8729 1.80371 36.8031V25.0291C1.80371 24.9946 1.82147 24.9626 1.85071 24.9443Z" stroke="#FFDC5D"/>
<path d="M1.89131 44.4627L4.46397 44.1411C4.50909 44.1355 4.55233 44.161 4.56922 44.2032L5.22052 45.8315C5.22334 45.8385 5.22701 45.8453 5.23136 45.8516C5.4471 46.1606 5.59066 46.3153 5.90897 46.5263L24.8995 57.7172C24.9696 57.7584 24.9637 57.8617 24.8893 57.8947L22.0356 59.163C22.0057 59.1763 21.9713 59.1741 21.9433 59.1572L3.85634 48.2368C2.94126 47.671 1.86522 45.6183 1.80625 44.5616C1.80344 44.5112 1.84126 44.469 1.89131 44.4627Z" stroke="#FFDC5D"/>
<path d="M54.6889 39.7141L52.1502 41.3008C52.0842 41.3421 51.9984 41.2954 51.9972 41.2176L51.658 19.1694C51.6579 19.1618 51.6569 19.154 51.655 19.1466C51.5796 18.8494 51.4959 18.7058 51.3158 18.4737L50.0248 17.1827C49.9832 17.1411 49.9863 17.0728 50.0315 17.0352L51.9298 15.4532C51.9696 15.4201 52.0279 15.4227 52.0647 15.459C53.0823 16.4601 54.3811 17.3723 54.3947 18.1316L54.7359 39.6277C54.7365 39.6628 54.7187 39.6956 54.6889 39.7141Z" stroke="#FFDC5D"/>
<path d="M45.5022 12.4068L44.279 13.63C44.247 13.662 44.1975 13.6685 44.1583 13.646L33.0624 7.25737C33.0013 7.22221 32.9948 7.13663 33.0498 7.09262L34.5918 5.85901C34.6243 5.83301 34.6695 5.82986 34.7053 5.85111L45.4825 12.2501C45.5386 12.2834 45.5483 12.3606 45.5022 12.4068Z" stroke="#FFDC5D"/>
<path d="M26.0526 7.09888C27.2902 6.38434 28.815 6.38434 30.0526 7.09888L48.7544 17.8963C49.992 18.6109 50.7544 19.9314 50.7544 21.3604V42.9554C50.7544 44.3844 49.992 45.7049 48.7544 46.4195L30.0526 57.2169C28.815 57.9314 27.2902 57.9314 26.0526 57.2169L7.35088 46.4195C6.11327 45.7049 5.35088 44.3844 5.35088 42.9554V21.3604C5.35088 19.9314 6.11327 18.6109 7.35088 17.8963L26.0526 7.09888Z" fill="#FFA726"/>
<path d="M26.0526 7.09888C27.2902 6.38434 28.815 6.38434 30.0526 7.09888L48.7544 17.8963C49.992 18.6109 50.7544 19.9314 50.7544 21.3604V42.9554C50.7544 44.3844 49.992 45.7049 48.7544 46.4195L30.0526 57.2169C28.815 57.9314 27.2902 57.9314 26.0526 57.2169L7.35088 46.4195C6.11327 45.7049 5.35088 44.3844 5.35088 42.9554V21.3604C5.35088 19.9314 6.11327 18.6109 7.35088 17.8963L26.0526 7.09888Z" stroke="#EC910C" stroke-width="2" style="mix-blend-mode:darken"/>
<g clip-path="url(#clip0_53_180)">
<path d="M21.1976 44.86V18.4084C21.1976 17.7995 21.6913 17.3063 22.2998 17.3063H32.9752L32.1078 14.8171C31.9502 14.2291 31.3462 13.8802 30.7582 14.0378L12.1275 18.2828C11.5395 18.4404 11.1907 19.0444 11.3483 19.6324L18.1948 45.1829C18.3519 45.7709 18.9564 46.1198 19.5444 45.9621L21.3822 45.4695C21.2659 45.2947 21.1976 45.0854 21.1976 44.86Z" fill="#DAE1E5"/>
<path d="M41.5874 17.3063H22.2998C21.6909 17.3063 21.1976 17.7995 21.1976 18.4084V44.8599C21.1976 45.4689 21.6909 45.9621 22.2998 45.9621H41.5874C42.1963 45.9621 42.6895 45.4689 42.6895 44.8599V18.4084C42.6895 17.7995 42.1963 17.3063 41.5874 17.3063Z" fill="#E6EEF4"/>
<path d="M41.0363 19.5108C41.0363 19.2064 40.7896 18.9597 40.4852 18.9597H30.5659C30.2615 18.9597 30.0148 19.2064 30.0148 19.5108C30.0148 19.8151 30.2615 20.0618 30.5659 20.0618H40.4852L39.9341 19.5108V36.0094C39.9341 36.3138 40.1808 36.5605 40.4852 36.5605C40.7896 36.5605 41.0363 36.3138 41.0363 36.0094V19.5108Z" fill="black"/>
<path d="M22.8508 43.7892C22.8508 44.0941 23.0985 44.3411 23.4035 44.3402L34.4249 44.3088C34.7293 44.3079 34.9753 44.0605 34.9744 43.7561C34.9735 43.4518 34.7261 43.2057 34.4218 43.2066L23.4003 43.2381L23.953 43.7892V27.2569C23.953 26.9526 23.7063 26.7059 23.4019 26.7059C23.0975 26.7059 22.8508 26.9526 22.8508 27.2569V43.7892Z" fill="black"/>
<path d="M33.323 35.5101C33.2916 35.4897 33.2553 35.5206 33.269 35.5559L34.1827 37.8952C34.2632 38.0566 34.1458 38.2473 33.965 38.2473H29.8893C29.7086 38.2473 29.5911 38.0566 29.6722 37.8952L30.4332 35.5503C30.4448 35.5151 30.4067 35.4869 30.3764 35.5073C29.9174 35.8176 29.3938 36.0507 28.8207 36.0507C27.043 36.0507 25.5005 34.5578 25.6118 32.7574C25.6741 31.7451 26.3189 30.8766 27.178 30.3376C28.0398 29.797 28.7491 29.7541 29.4638 29.9271C29.007 29.3859 28.8207 28.6877 28.8207 27.9245C28.8207 25.9913 30.5864 24.4704 32.5929 24.8864C33.7881 25.1344 34.7459 26.1131 34.9757 27.3117C35.1675 28.3108 35 29.2443 34.4236 29.9271C35.1433 29.7524 35.8266 29.7976 36.6956 30.3498C37.5504 30.892 38.1923 31.7583 38.2513 32.769C38.3555 34.5644 36.808 36.0506 35.0347 36.0506C34.4715 36.0507 33.7942 35.8132 33.323 35.5101Z" fill="black"/>
<path d="M26.0991 19.2641C25.896 18.858 25.3164 18.858 25.1133 19.2641L22.909 23.6727C22.7729 23.945 22.8832 24.2759 23.1555 24.4121C23.4277 24.5482 23.7587 24.4379 23.8948 24.1656L26.0991 19.757H25.1133L27.3176 24.1656C27.4537 24.4379 27.7847 24.5482 28.057 24.4121C28.3292 24.276 28.4395 23.945 28.3034 23.6727L26.0991 19.2641Z" fill="black"/>
<path d="M26.7256 23.1144C27.03 23.1144 27.2767 22.8677 27.2767 22.5633C27.2767 22.259 27.03 22.0123 26.7256 22.0123H24.5213C24.217 22.0123 23.9703 22.259 23.9703 22.5633C23.9703 22.8677 24.217 23.1144 24.5213 23.1144H26.7256Z" fill="black"/>
<path d="M40.9781 39.5957C41.1142 39.3235 41.0039 38.9925 40.7316 38.8563C40.4594 38.7203 40.1284 38.8306 39.9923 39.1028L37.788 43.5114C37.6519 43.7836 37.7622 44.1146 38.0344 44.2508C38.3067 44.3868 38.6376 44.2765 38.7738 44.0043L40.9781 39.5957Z" fill="black"/>
<path d="M37.788 44.0042C37.9241 44.2765 38.2551 44.3868 38.5273 44.2507C38.7996 44.1146 38.9099 43.7836 38.7738 43.5113L36.5695 39.1027C36.4334 38.8305 36.1024 38.7202 35.8301 38.8563C35.5579 38.9923 35.4476 39.3234 35.5837 39.5956L37.788 44.0042Z" fill="black"/>
<path d="M37.1616 40.154C36.8572 40.154 36.6105 40.4007 36.6105 40.705C36.6105 41.0094 36.8572 41.2561 37.1616 41.2561H39.3659C39.6703 41.2561 39.917 41.0094 39.917 40.705C39.917 40.4007 39.6703 40.154 39.3659 40.154H37.1616Z" fill="black"/>
<path d="M17.1167 34.6975C18.0684 38.1929 18.4962 39.7708 19.0119 41.696C19.0907 41.9901 19.3928 42.1645 19.6868 42.0858C19.9808 42.007 20.1553 41.7049 20.0765 41.4108C19.5603 39.4836 19.1322 37.9048 18.1879 34.4365C17.2281 30.9113 16.8126 29.379 16.3 27.4664C16.2212 27.1725 15.9191 26.998 15.6251 27.0768C15.3312 27.1556 15.1567 27.4577 15.2355 27.7517C15.7485 29.6662 16.1643 31.1994 17.1167 34.6975Z" fill="#D71E00"/>
<path d="M16.3045 19.1906C16.0031 18.8508 15.4433 19.0008 15.3522 19.4457L14.3641 24.2748C14.3031 24.5729 14.4954 24.8642 14.7935 24.9251C15.0917 24.9861 15.3829 24.7939 15.4439 24.4957L16.432 19.6667L15.4798 19.9218L18.7498 23.6096C18.9518 23.8373 19.3 23.8582 19.5277 23.6563C19.7555 23.4543 19.7763 23.1061 19.5744 22.8784L16.3045 19.1906Z" fill="#D71E00"/>
<path d="M17.9061 22.7476C18.2001 22.6689 18.3745 22.3667 18.2958 22.0727C18.217 21.7787 17.9149 21.6043 17.6209 21.683L15.4915 22.2534C15.1975 22.3321 15.023 22.6343 15.1018 22.9283C15.1805 23.2223 15.4827 23.3967 15.7767 23.318L17.9061 22.7476Z" fill="#D71E00"/>
</g>
<defs>
<clipPath id="clip0_53_180">
<rect width="32" height="32" fill="white" transform="translate(11 14)"/>
</clipPath>
</defs>
</svg>
