<svg width="65" height="65" viewBox="0 0 65 65" fill="none" xmlns="http://www.w3.org/2000/svg">
<path d="M30 1.44338C31.547 0.550212 33.453 0.550212 35 1.44338L58.1458 14.8066C59.6928 15.6998 60.6458 17.3504 60.6458 19.1368V45.8632C60.6458 47.6496 59.6928 49.3002 58.1458 50.1934L35 63.5566C33.453 64.4498 31.547 64.4498 30 63.5566L6.85417 50.1934C5.30717 49.3002 4.35417 47.6496 4.35417 45.8633V19.1368C4.35417 17.3504 5.30717 15.6998 6.85417 14.8066L30 1.44338Z" fill="#CAD3E6"/>
<path d="M6.2049 24.9443L8.74174 23.3588C8.80834 23.3172 8.89474 23.365 8.89474 23.4436V35.8518C8.89474 35.8934 8.86888 35.9307 8.82985 35.9454L6.29301 36.8967C6.22764 36.9212 6.1579 36.8729 6.1579 36.8031V25.0291C6.1579 24.9946 6.17566 24.9626 6.2049 24.9443Z" fill="#EFF7FF"/>
<path d="M6.24549 44.4627L8.81815 44.1411C8.86327 44.1355 8.90652 44.161 8.9234 44.2032L9.57471 45.8315C9.57753 45.8385 9.5812 45.8453 9.58554 45.8516C9.80129 46.1606 9.94485 46.3153 10.2632 46.5263L29.2537 57.7172C29.3237 57.7584 29.3178 57.8617 29.2435 57.8947L26.3898 59.163C26.3599 59.1763 26.3254 59.1741 26.2975 59.1573L8.21053 48.2368C7.29544 47.671 6.2194 45.6183 6.16043 44.5616C6.15762 44.5112 6.19545 44.469 6.24549 44.4627Z" fill="#EFF7FF"/>
<path d="M59.4784 39.7141L56.9397 41.3008C56.8737 41.3421 56.7879 41.2954 56.7867 41.2176L56.4475 19.1694C56.4474 19.1618 56.4464 19.154 56.4445 19.1466C56.3691 18.8494 56.2854 18.7058 56.1053 18.4737L54.8143 17.1827C54.7727 17.1411 54.7758 17.0728 54.821 17.0352L56.7193 15.4532C56.7591 15.4201 56.8174 15.4227 56.8542 15.459C57.8718 16.4601 59.1706 17.3723 59.1842 18.1316L59.5254 39.6277C59.526 39.6628 59.5081 39.6956 59.4784 39.7141Z" fill="#EFF7FF"/>
<path d="M49.8564 12.4068L48.6331 13.63C48.6012 13.662 48.5517 13.6685 48.5125 13.646L37.4165 7.25737C37.3555 7.22221 37.3489 7.13663 37.404 7.09262L38.946 5.85901C38.9785 5.83301 39.0237 5.82986 39.0595 5.85111L49.8367 12.2501C49.8928 12.2834 49.9025 12.3606 49.8564 12.4068Z" fill="#EFF7FF"/>
<path d="M6.2049 24.9443L8.74174 23.3588C8.80834 23.3172 8.89474 23.365 8.89474 23.4436V35.8518C8.89474 35.8934 8.86888 35.9307 8.82985 35.9454L6.29301 36.8967C6.22764 36.9212 6.1579 36.8729 6.1579 36.8031V25.0291C6.1579 24.9946 6.17566 24.9626 6.2049 24.9443Z" stroke="#EFF7FF"/>
<path d="M6.24549 44.4627L8.81815 44.1411C8.86327 44.1355 8.90652 44.161 8.9234 44.2032L9.57471 45.8315C9.57753 45.8385 9.5812 45.8453 9.58554 45.8516C9.80129 46.1606 9.94485 46.3153 10.2632 46.5263L29.2537 57.7172C29.3237 57.7584 29.3178 57.8617 29.2435 57.8947L26.3898 59.163C26.3599 59.1763 26.3254 59.1741 26.2975 59.1573L8.21053 48.2368C7.29544 47.671 6.2194 45.6183 6.16043 44.5616C6.15762 44.5112 6.19545 44.469 6.24549 44.4627Z" stroke="#EFF7FF"/>
<path d="M59.4784 39.7141L56.9397 41.3008C56.8737 41.3421 56.7879 41.2954 56.7867 41.2176L56.4475 19.1694C56.4474 19.1618 56.4464 19.154 56.4445 19.1466C56.3691 18.8494 56.2854 18.7058 56.1053 18.4737L54.8143 17.1827C54.7727 17.1411 54.7758 17.0728 54.821 17.0352L56.7193 15.4532C56.7591 15.4201 56.8174 15.4227 56.8542 15.459C57.8718 16.4601 59.1706 17.3723 59.1842 18.1316L59.5254 39.6277C59.526 39.6628 59.5081 39.6956 59.4784 39.7141Z" stroke="#EFF7FF"/>
<path d="M49.8564 12.4068L48.6331 13.63C48.6012 13.662 48.5517 13.6685 48.5125 13.646L37.4165 7.25737C37.3555 7.22221 37.3489 7.13663 37.404 7.09262L38.946 5.85901C38.9785 5.83301 39.0237 5.82986 39.0595 5.85111L49.8367 12.2501C49.8928 12.2834 49.9025 12.3606 49.8564 12.4068Z" stroke="#EFF7FF"/>
<path d="M30.8421 7.09888C32.0797 6.38434 33.6045 6.38434 34.8421 7.09888L53.5439 17.8963C54.7815 18.6109 55.5439 19.9314 55.5439 21.3604V42.9554C55.5439 44.3844 54.7815 45.7049 53.5439 46.4195L34.8421 57.2169C33.6045 57.9314 32.0797 57.9314 30.8421 57.2169L12.1404 46.4195C10.9028 45.7049 10.1404 44.3844 10.1404 42.9554V21.3604C10.1404 19.9314 10.9028 18.6109 12.1404 17.8963L30.8421 7.09888Z" fill="#D3DCEE" stroke="#8595B6" stroke-width="2"/>
<g clip-path="url(#clip0_53_84)">
<path d="M16.3094 39.5393C16.3094 37.218 18.1804 35.3362 20.4883 35.3362C21.6322 35.3362 22.6678 35.7991 23.422 36.5484C23.7017 36.8262 24.1575 36.8262 24.4372 36.5484C25.1914 35.7992 26.2271 35.3362 27.3709 35.3362C29.6788 35.3362 31.5497 37.218 31.5497 39.5393C31.5497 43.8802 25.96 47.8292 24.3554 48.8733C24.096 49.0421 23.7631 49.0421 23.5037 48.8733C21.8993 47.8292 16.3094 43.8802 16.3094 39.5393Z" fill="#FF6464"/>
<path d="M22.1878 35.7029C21.6682 35.4692 21.0943 35.3363 20.4883 35.3363C18.1804 35.3363 16.3094 37.218 16.3094 39.5394C16.3094 43.8803 21.8992 47.8293 23.5038 48.8734C23.6334 48.9578 23.7815 49.0001 23.9296 49.0001C18.219 41.2048 20.2509 36.8426 22.1878 35.7029Z" fill="#D2555A"/>
<path d="M46.2328 40.2599C44.9624 40.187 43.8504 40.8877 43.317 41.9333C43.1993 42.1642 43.003 42.3456 42.7569 42.4269C42.7539 42.4279 42.7508 42.429 42.7478 42.4299C42.5386 42.4988 42.3296 42.3205 42.3624 42.1027C42.4344 41.6241 42.5476 41.1591 42.6976 40.7108C42.7791 40.4674 42.9573 40.272 43.1862 40.1558C44.2347 39.6236 44.9379 38.51 44.8649 37.2375C44.7756 35.6818 43.4814 34.411 41.9245 34.3482C40.1697 34.2774 38.7248 35.6791 38.7248 37.4182C38.7248 38.6163 39.4118 39.6515 40.4124 40.1577C40.6392 40.2724 40.8153 40.4665 40.8961 40.7075C41.0467 41.1568 41.1603 41.623 41.2325 42.1027C41.2653 42.3205 41.0563 42.4988 40.8471 42.4299C40.844 42.4289 40.8408 42.4279 40.8377 42.4268C40.5918 42.3454 40.3957 42.1642 40.278 41.9335C39.7448 40.8878 38.6327 40.1869 37.3621 40.2598C35.8064 40.3491 34.5356 41.6433 34.4728 43.2002C34.4021 44.955 35.8038 46.3999 37.5429 46.3999C38.737 46.3999 39.7693 45.7173 40.2773 44.7221C40.3955 44.4906 40.5926 44.3087 40.8394 44.2271C40.8423 44.2262 40.8451 44.2252 40.848 44.2243C41.0573 44.1553 41.2657 44.3338 41.2334 44.5518C41.0164 46.0115 40.4181 47.3464 39.543 48.4528C39.368 48.6741 39.5301 48.9999 39.8123 48.9999H43.7823C44.0645 48.9999 44.2266 48.6741 44.0516 48.4528C43.1765 47.3464 42.5782 46.0115 42.3612 44.5518C42.3288 44.3338 42.5373 44.1553 42.7466 44.2243C42.7495 44.2252 42.7524 44.2262 42.7552 44.2271C43.002 44.3087 43.1991 44.4906 43.3173 44.7221C43.8253 45.7174 44.8576 46.3999 46.0518 46.3999C47.7909 46.3999 49.1926 44.9549 49.1218 43.2002C49.0593 41.6433 47.7885 40.3491 46.2328 40.2599Z" fill="#515262"/>
<path d="M36.4962 43.2002C36.5474 41.9317 37.4006 40.838 38.5563 40.4279C38.1856 40.2979 37.783 40.2357 37.3622 40.2598C35.8065 40.3491 34.5356 41.6433 34.473 43.2002C34.4022 44.955 35.8039 46.3999 37.543 46.3999C37.8985 46.3999 38.2391 46.3382 38.5564 46.2269C37.3186 45.7958 36.44 44.5977 36.4962 43.2002Z" fill="#464655"/>
<path d="M41.1187 39.4313C40.9722 38.9401 40.748 37.9682 40.748 37.4184C40.748 35.8954 41.6087 34.9401 42.8066 34.5207C42.5274 34.4215 42.2314 34.3607 41.9246 34.3484C40.1697 34.2776 38.7249 35.6793 38.7249 37.4184C38.7249 38.5651 39.355 39.5612 40.2863 40.0884C40.328 40.1121 40.3695 40.136 40.4124 40.1578C40.6393 40.2726 40.8155 40.4665 40.8961 40.7076C41.0467 41.1569 41.1604 41.6231 41.2325 42.1027C41.2608 42.2901 41.1098 42.4472 40.9339 42.4439L40.9346 42.4462C41.0062 42.4711 41.4503 42.5198 41.5449 42.2252C41.6368 41.9394 41.4923 40.6836 41.1187 39.4313Z" fill="#464655"/>
<path d="M46.2328 40.2599C44.9623 40.187 43.8504 40.8877 43.317 41.9333C43.1993 42.1642 43.003 42.3456 42.7569 42.4269C42.7539 42.4279 42.6871 42.4448 42.6577 42.4451C42.6577 42.4451 43.8022 42.6042 44.7177 41.3887C45.2576 40.6719 45.8384 40.3785 46.5757 40.3019C46.4631 40.282 46.3491 40.2665 46.2328 40.2599Z" fill="#464655"/>
<path d="M46.2328 46.3945C44.9623 46.4674 43.8504 45.7667 43.317 44.7211C43.1993 44.4902 43.003 44.3088 42.7569 44.2275C42.7539 44.2265 42.6871 44.2096 42.6577 44.2093C42.6577 44.2093 43.8022 44.0502 44.7177 45.2656C45.2576 45.9824 45.8384 46.2759 46.5757 46.3525C46.4631 46.3724 46.3491 46.3878 46.2328 46.3945Z" fill="#464655"/>
<path d="M41.0388 48.4529C41.4292 47.4713 41.8238 44.7246 41.1551 44.3061C41.1551 44.3061 41.2478 44.4558 41.2335 44.5518C41.0166 46.0115 40.4183 47.3465 39.5432 48.4529C39.3681 48.6742 39.5302 48.9999 39.8125 48.9999H41.3081C41.026 48.9999 40.9346 48.7151 41.0388 48.4529Z" fill="#464655"/>
<path d="M42.2414 15.219C44.1404 17.6752 47.036 20.5713 49.4918 22.4706C49.7837 22.6963 49.7837 23.1326 49.4918 23.3583C47.036 25.2576 44.1404 28.1536 42.2414 30.6099C42.0157 30.9019 41.5794 30.9019 41.3537 30.6099C39.4547 28.1537 36.5591 25.2576 34.1033 23.3583C33.8114 23.1326 33.8114 22.6963 34.1033 22.4706C36.5591 20.5713 39.4546 17.6752 41.3536 15.219C41.5794 14.927 42.0156 14.927 42.2414 15.219Z" fill="#FF6464"/>
<path d="M41.7293 30.6098C40.8534 28.1535 39.5179 25.2575 38.3853 23.3581C38.2507 23.1324 38.2507 22.6962 38.3853 22.4705C39.5179 20.5711 40.8534 17.6752 41.7293 15.2189C41.7727 15.0968 41.8615 15.0432 41.9378 15.0195C41.7305 14.9658 41.4988 15.0312 41.3537 15.2189C39.4546 17.6752 36.5591 20.5712 34.1032 22.4705C33.8114 22.6962 33.8114 23.1324 34.1032 23.3581C36.5591 25.2574 39.4546 28.1535 41.3537 30.6098C41.4988 30.7974 41.7305 30.8628 41.9377 30.8092C41.8615 30.7855 41.7728 30.7319 41.7293 30.6098Z" fill="#D2555A"/>
<path d="M24.2274 15.0865C24.0433 14.9742 23.8158 14.9742 23.6318 15.0865C22.2222 15.9464 16.2892 19.8307 16.2892 24.2901C16.2892 26.6078 18.1652 28.4866 20.4791 28.4866C21.2366 28.4866 21.9464 28.2848 22.559 27.9324C22.7346 27.8313 22.94 28.01 22.8711 28.2019C22.5442 29.1124 22.0815 29.957 21.5068 30.7102C21.2873 30.9978 21.4981 31.4149 21.8576 31.4149H26.046C26.4056 31.4149 26.6159 30.9976 26.3963 30.7098C25.8282 29.9652 25.3695 29.1312 25.0434 28.2326C24.9741 28.0418 25.1766 27.8628 25.3528 27.9609C25.9533 28.2954 26.644 28.4866 27.3801 28.4866C29.6941 28.4866 31.57 26.6078 31.57 24.2901C31.57 19.8307 25.637 15.9464 24.2274 15.0865Z" fill="#515262"/>
<path d="M22.1993 28.1144C17.4919 25.5078 21.9134 17.6906 23.9708 15.008C23.8543 14.9994 23.7362 15.0228 23.6318 15.0865C22.2222 15.9464 16.2892 19.8307 16.2892 24.29C16.2892 26.6077 18.1652 28.4866 20.4791 28.4866C21.0929 28.4866 21.6744 28.3521 22.1993 28.1144Z" fill="#464655"/>
<path d="M23.1398 30.8021C23.4108 28.5499 23.399 27.909 22.7059 27.909C22.8274 27.9338 22.9207 28.0635 22.8711 28.2019C22.5443 29.1124 22.0815 29.9569 21.5068 30.7102C21.2873 30.9978 21.4981 31.4149 21.8576 31.4149H23.4416C23.1253 31.4149 23.1128 31.0271 23.1398 30.8021Z" fill="#464655"/>
</g>
<defs>
<clipPath id="clip0_53_84">
<rect width="34" height="34" fill="white" transform="translate(16 15)"/>
</clipPath>
</defs>
</svg>
