<svg width="65" height="65" viewBox="0 0 65 65" fill="none" xmlns="http://www.w3.org/2000/svg">
<path d="M30 1.44338C31.547 0.550212 33.453 0.550212 35 1.44338L58.1458 14.8066C59.6928 15.6998 60.6458 17.3504 60.6458 19.1368V45.8632C60.6458 47.6496 59.6928 49.3002 58.1458 50.1934L35 63.5566C33.453 64.4498 31.547 64.4498 30 63.5566L6.85417 50.1934C5.30717 49.3002 4.35417 47.6496 4.35417 45.8633V19.1368C4.35417 17.3504 5.30717 15.6998 6.85417 14.8066L30 1.44338Z" fill="#CAD3E6"/>
<path d="M6.2049 24.9443L8.74174 23.3588C8.80834 23.3172 8.89474 23.365 8.89474 23.4436V35.8517C8.89474 35.8934 8.86888 35.9307 8.82985 35.9454L6.29301 36.8967C6.22764 36.9212 6.1579 36.8729 6.1579 36.8031V25.0291C6.1579 24.9946 6.17566 24.9626 6.2049 24.9443Z" fill="#EFF7FF"/>
<path d="M6.24549 44.4627L8.81815 44.1411C8.86327 44.1355 8.90652 44.161 8.9234 44.2032L9.57471 45.8315C9.57753 45.8385 9.5812 45.8453 9.58554 45.8516C9.80129 46.1606 9.94485 46.3153 10.2632 46.5263L29.2537 57.7172C29.3237 57.7584 29.3178 57.8617 29.2435 57.8947L26.3898 59.163C26.3599 59.1763 26.3254 59.1741 26.2975 59.1572L8.21053 48.2368C7.29544 47.671 6.2194 45.6183 6.16043 44.5616C6.15762 44.5112 6.19545 44.469 6.24549 44.4627Z" fill="#EFF7FF"/>
<path d="M59.4784 39.7141L56.9397 41.3008C56.8737 41.3421 56.7879 41.2954 56.7867 41.2176L56.4475 19.1694C56.4474 19.1618 56.4464 19.154 56.4445 19.1466C56.3691 18.8494 56.2854 18.7058 56.1053 18.4737L54.8143 17.1827C54.7727 17.1411 54.7758 17.0728 54.821 17.0352L56.7193 15.4532C56.7591 15.4201 56.8174 15.4227 56.8542 15.459C57.8718 16.4601 59.1706 17.3723 59.1842 18.1316L59.5254 39.6277C59.526 39.6628 59.5081 39.6956 59.4784 39.7141Z" fill="#EFF7FF"/>
<path d="M49.8564 12.4068L48.6331 13.63C48.6012 13.662 48.5517 13.6685 48.5125 13.646L37.4165 7.25737C37.3555 7.22221 37.3489 7.13663 37.404 7.09262L38.946 5.85901C38.9785 5.83301 39.0237 5.82986 39.0595 5.85111L49.8367 12.2501C49.8928 12.2834 49.9025 12.3606 49.8564 12.4068Z" fill="#EFF7FF"/>
<path d="M6.2049 24.9443L8.74174 23.3588C8.80834 23.3172 8.89474 23.365 8.89474 23.4436V35.8517C8.89474 35.8934 8.86888 35.9307 8.82985 35.9454L6.29301 36.8967C6.22764 36.9212 6.1579 36.8729 6.1579 36.8031V25.0291C6.1579 24.9946 6.17566 24.9626 6.2049 24.9443Z" stroke="#EFF7FF"/>
<path d="M6.24549 44.4627L8.81815 44.1411C8.86327 44.1355 8.90652 44.161 8.9234 44.2032L9.57471 45.8315C9.57753 45.8385 9.5812 45.8453 9.58554 45.8516C9.80129 46.1606 9.94485 46.3153 10.2632 46.5263L29.2537 57.7172C29.3237 57.7584 29.3178 57.8617 29.2435 57.8947L26.3898 59.163C26.3599 59.1763 26.3254 59.1741 26.2975 59.1572L8.21053 48.2368C7.29544 47.671 6.2194 45.6183 6.16043 44.5616C6.15762 44.5112 6.19545 44.469 6.24549 44.4627Z" stroke="#EFF7FF"/>
<path d="M59.4784 39.7141L56.9397 41.3008C56.8737 41.3421 56.7879 41.2954 56.7867 41.2176L56.4475 19.1694C56.4474 19.1618 56.4464 19.154 56.4445 19.1466C56.3691 18.8494 56.2854 18.7058 56.1053 18.4737L54.8143 17.1827C54.7727 17.1411 54.7758 17.0728 54.821 17.0352L56.7193 15.4532C56.7591 15.4201 56.8174 15.4227 56.8542 15.459C57.8718 16.4601 59.1706 17.3723 59.1842 18.1316L59.5254 39.6277C59.526 39.6628 59.5081 39.6956 59.4784 39.7141Z" stroke="#EFF7FF"/>
<path d="M49.8564 12.4068L48.6331 13.63C48.6012 13.662 48.5517 13.6685 48.5125 13.646L37.4165 7.25737C37.3555 7.22221 37.3489 7.13663 37.404 7.09262L38.946 5.85901C38.9785 5.83301 39.0237 5.82986 39.0595 5.85111L49.8367 12.2501C49.8928 12.2834 49.9025 12.3606 49.8564 12.4068Z" stroke="#EFF7FF"/>
<path d="M30.8421 7.09888C32.0797 6.38434 33.6045 6.38434 34.8421 7.09888L53.5439 17.8963C54.7815 18.6109 55.5439 19.9314 55.5439 21.3604V42.9554C55.5439 44.3844 54.7815 45.7049 53.5439 46.4195L34.8421 57.2169C33.6045 57.9314 32.0797 57.9314 30.8421 57.2169L12.1404 46.4195C10.9028 45.7049 10.1404 44.3844 10.1404 42.9554V21.3604C10.1404 19.9314 10.9028 18.6109 12.1404 17.8963L30.8421 7.09888Z" fill="#D3DCEE" stroke="#8595B6" stroke-width="2"/>
<path d="M41.1733 18.2299C40.1991 17.4908 38.9878 17.0468 37.6697 17.0468H22.8139C19.6033 17.0468 17 19.6507 17 22.8607V37.7171C17 39.1156 17.4947 40.398 18.3175 41.402C18.9802 44.5711 21.7949 46.959 25.1577 46.959H40.0128C43.8656 46.959 47 43.8241 47 39.9706V25.1136C46.9999 21.6559 44.4743 18.7852 41.1733 18.2299ZM39.1623 37.7401H39.6452V40.2565H39.0768V38.263H39.0689L38.5886 38.491L38.4925 38.0497L39.1623 37.7401ZM29.4151 32.1165C26.8223 31.2523 25.8316 29.8544 25.8573 28.3802C25.8573 26.0417 27.8393 24.2888 30.9144 24.2888C32.3629 24.2888 33.6343 24.6445 34.3958 25.0252L33.7358 27.6944C33.1758 27.3894 32.0837 26.9823 31.0415 26.9823C30.1009 26.9823 29.568 27.3644 29.568 27.9731C29.568 28.5837 30.0508 28.8887 31.5751 29.4216C33.9387 30.2345 34.9044 31.4552 34.9301 33.2593C34.9301 35.5972 33.1259 37.3006 29.5681 37.3006C27.9416 37.3006 26.4931 36.9186 25.5524 36.4101L26.2388 33.6651C26.9496 34.0979 28.4245 34.5808 29.5681 34.5808C30.7367 34.5808 31.2195 34.2 31.2195 33.5643C31.2193 32.9043 30.8379 32.5994 29.4151 32.1165ZM44.6508 39.9699C44.6508 42.5278 42.5706 44.6093 40.0128 44.6093H25.1577C24.0069 44.6093 22.9549 44.1851 22.1434 43.4895C22.3634 43.5152 22.5867 43.5311 22.8146 43.5311H37.6697C40.8817 43.5311 43.483 40.9278 43.483 37.7172V22.8614C43.483 22.5544 43.4521 22.256 43.4066 21.9622C44.1766 22.7909 44.6515 23.8976 44.6515 25.1142V39.9699H44.6508Z" fill="#3D3E40"/>
</svg>
