<svg width="65" height="65" viewBox="0 0 65 65" fill="none" xmlns="http://www.w3.org/2000/svg">
<path d="M30 1.44338C31.547 0.550212 33.453 0.550212 35 1.44338L58.1458 14.8066C59.6928 15.6998 60.6458 17.3504 60.6458 19.1368V45.8632C60.6458 47.6496 59.6928 49.3002 58.1458 50.1934L35 63.5566C33.453 64.4498 31.547 64.4498 30 63.5566L6.85417 50.1934C5.30717 49.3002 4.35417 47.6496 4.35417 45.8633V19.1368C4.35417 17.3504 5.30717 15.6998 6.85417 14.8066L30 1.44338Z" fill="#CAD3E6"/>
<path d="M6.2049 24.9443L8.74174 23.3588C8.80834 23.3172 8.89474 23.365 8.89474 23.4436V35.8518C8.89474 35.8934 8.86888 35.9308 8.82985 35.9454L6.29301 36.8967C6.22764 36.9212 6.1579 36.8729 6.1579 36.8031V25.0291C6.1579 24.9946 6.17566 24.9626 6.2049 24.9443Z" fill="#EFF7FF"/>
<path d="M6.24549 44.4627L8.81815 44.1412C8.86327 44.1355 8.90652 44.161 8.9234 44.2032L9.57471 45.8315C9.57753 45.8386 9.5812 45.8453 9.58554 45.8516C9.80129 46.1606 9.94485 46.3153 10.2632 46.5263L29.2537 57.7172C29.3237 57.7584 29.3178 57.8617 29.2435 57.8947L26.3898 59.163C26.3599 59.1763 26.3254 59.1741 26.2975 59.1573L8.21053 48.2368C7.29544 47.671 6.2194 45.6183 6.16043 44.5616C6.15762 44.5112 6.19545 44.469 6.24549 44.4627Z" fill="#EFF7FF"/>
<path d="M59.4784 39.7141L56.9397 41.3008C56.8737 41.3421 56.7879 41.2954 56.7867 41.2176L56.4475 19.1694C56.4474 19.1618 56.4464 19.154 56.4445 19.1466C56.3691 18.8494 56.2854 18.7058 56.1053 18.4737L54.8143 17.1827C54.7727 17.1411 54.7758 17.0728 54.821 17.0352L56.7193 15.4532C56.7591 15.4201 56.8174 15.4227 56.8542 15.459C57.8718 16.4601 59.1706 17.3723 59.1842 18.1316L59.5254 39.6278C59.526 39.6628 59.5081 39.6956 59.4784 39.7141Z" fill="#EFF7FF"/>
<path d="M49.8564 12.4068L48.6331 13.63C48.6012 13.662 48.5517 13.6685 48.5125 13.646L37.4165 7.25737C37.3555 7.22222 37.3489 7.13664 37.404 7.09263L38.946 5.85902C38.9785 5.83301 39.0237 5.82987 39.0595 5.85112L49.8367 12.2501C49.8928 12.2834 49.9025 12.3607 49.8564 12.4068Z" fill="#EFF7FF"/>
<path d="M6.2049 24.9443L8.74174 23.3588C8.80834 23.3172 8.89474 23.365 8.89474 23.4436V35.8518C8.89474 35.8934 8.86888 35.9308 8.82985 35.9454L6.29301 36.8967C6.22764 36.9212 6.1579 36.8729 6.1579 36.8031V25.0291C6.1579 24.9946 6.17566 24.9626 6.2049 24.9443Z" stroke="#EFF7FF"/>
<path d="M6.24549 44.4627L8.81815 44.1412C8.86327 44.1355 8.90652 44.161 8.9234 44.2032L9.57471 45.8315C9.57753 45.8386 9.5812 45.8453 9.58554 45.8516C9.80129 46.1606 9.94485 46.3153 10.2632 46.5263L29.2537 57.7172C29.3237 57.7584 29.3178 57.8617 29.2435 57.8947L26.3898 59.163C26.3599 59.1763 26.3254 59.1741 26.2975 59.1573L8.21053 48.2368C7.29544 47.671 6.2194 45.6183 6.16043 44.5616C6.15762 44.5112 6.19545 44.469 6.24549 44.4627Z" stroke="#EFF7FF"/>
<path d="M59.4784 39.7141L56.9397 41.3008C56.8737 41.3421 56.7879 41.2954 56.7867 41.2176L56.4475 19.1694C56.4474 19.1618 56.4464 19.154 56.4445 19.1466C56.3691 18.8494 56.2854 18.7058 56.1053 18.4737L54.8143 17.1827C54.7727 17.1411 54.7758 17.0728 54.821 17.0352L56.7193 15.4532C56.7591 15.4201 56.8174 15.4227 56.8542 15.459C57.8718 16.4601 59.1706 17.3723 59.1842 18.1316L59.5254 39.6278C59.526 39.6628 59.5081 39.6956 59.4784 39.7141Z" stroke="#EFF7FF"/>
<path d="M49.8564 12.4068L48.6331 13.63C48.6012 13.662 48.5517 13.6685 48.5125 13.646L37.4165 7.25737C37.3555 7.22222 37.3489 7.13664 37.404 7.09263L38.946 5.85902C38.9785 5.83301 39.0237 5.82987 39.0595 5.85112L49.8367 12.2501C49.8928 12.2834 49.9025 12.3607 49.8564 12.4068Z" stroke="#EFF7FF"/>
<path d="M30.8421 7.09888C32.0797 6.38434 33.6045 6.38434 34.8421 7.09888L53.5439 17.8963C54.7815 18.6109 55.5439 19.9314 55.5439 21.3604V42.9554C55.5439 44.3844 54.7815 45.7049 53.5439 46.4195L34.8421 57.2169C33.6045 57.9314 32.0797 57.9314 30.8421 57.2169L12.1404 46.4195C10.9028 45.7049 10.1404 44.3844 10.1404 42.9554V21.3604C10.1404 19.9314 10.9028 18.6109 12.1404 17.8963L30.8421 7.09888Z" fill="#D3DCEE" stroke="#8595B6" stroke-width="2"/>
<g clip-path="url(#clip0_53_253)">
<path d="M48.557 24.9305L40.0682 16.4422C39.7853 16.1593 39.4018 16.0003 39.0023 16.0003H26.9972C26.5967 16.0003 26.2132 16.1593 25.9302 16.4422L17.442 24.9305C17.159 25.2135 17 25.597 17 25.9974V38.0026C17 38.4026 17.159 38.786 17.442 39.069L25.9307 47.5577C26.2131 47.8407 26.5972 47.9997 26.9976 47.9997H39.0028C39.4023 47.9997 39.7858 47.8412 40.0688 47.5582L48.558 39.0695C48.8405 38.7866 49 38.403 49 38.0026V25.9974C48.999 25.597 48.84 25.2135 48.557 24.9305Z" fill="#CC092E"/>
<path d="M21.2384 21.1346L17.442 24.9305C17.159 25.2135 17 25.597 17 25.9974V38.0026C17 38.4026 17.159 38.786 17.442 39.069L25.9307 47.5577C26.2131 47.8407 26.5972 47.9997 26.9976 47.9997H39.0028C39.4023 47.9997 39.7858 47.8412 40.0688 47.5582L43.8652 43.7619L21.2384 21.1346Z" fill="#E81542"/>
<path d="M22.4814 31.6877C21.4734 31.2982 21.1669 31.0183 21.1669 30.4908C21.1669 30.0938 21.4669 29.6298 22.3134 29.6298C22.8914 29.6298 23.3329 29.8048 23.6024 29.9513C23.6669 29.9863 23.7439 29.9918 23.8124 29.9648C23.8819 29.9379 23.9354 29.8818 23.9589 29.8119L24.2223 29.0309C24.2613 28.9174 24.2133 28.7924 24.1088 28.7334C23.8483 28.5859 23.2729 28.3379 22.3464 28.3379C20.787 28.3379 19.698 29.2683 19.698 30.6013C19.698 31.6668 20.3935 32.4313 21.816 32.9357C22.8509 33.3332 23.0534 33.6917 23.0534 34.1762C23.0534 34.8117 22.5669 35.1911 21.7524 35.1911C21.2144 35.1911 20.6214 35.0241 20.1664 34.7442C20.1019 34.7037 20.0199 34.6957 19.9469 34.7231C19.8745 34.7506 19.819 34.8102 19.7964 34.8846L19.5545 35.6876C19.5235 35.7931 19.5635 35.9066 19.655 35.9681C20.1099 36.271 20.9459 36.483 21.6859 36.483C23.6528 36.483 24.5323 35.2856 24.5323 34.0986C24.5328 32.9647 23.9188 32.2433 22.4814 31.6877Z" fill="#B2042E"/>
<path d="M31.3336 28.4588H25.8437C25.7062 28.4588 25.5938 28.5708 25.5938 28.7088V29.5228C25.5938 29.6608 25.7062 29.7728 25.8437 29.7728H27.8496V36.1236C27.8496 36.2616 27.9612 36.3736 28.0996 36.3736H29.0676C29.2061 36.3736 29.3175 36.2616 29.3175 36.1236V29.7728H31.334C31.4725 29.7728 31.584 29.6609 31.584 29.5229V28.7089C31.5835 28.5709 31.4721 28.4588 31.3336 28.4588Z" fill="#B2042E"/>
<path d="M35.9645 28.3379C33.7895 28.3379 32.2711 30.0423 32.2711 32.4822C32.2711 34.8446 33.7445 36.4946 35.8539 36.4946C37.6929 36.4946 39.5473 35.2096 39.5473 32.3392C39.5473 29.9458 38.1079 28.3379 35.9645 28.3379ZM35.9094 35.2136C34.4565 35.2136 33.7945 33.7866 33.7945 32.4602C33.7945 31.0457 34.4515 29.6188 35.9205 29.6188C37.3734 29.6188 38.0354 31.0517 38.0354 32.3832C38.0354 33.7917 37.3784 35.2136 35.9094 35.2136Z" fill="#B2042E"/>
<path d="M45.7226 29.0838C45.2216 28.6323 44.4657 28.4038 43.4767 28.4038C42.8038 28.4038 42.1898 28.4518 41.5978 28.5498C41.4778 28.5698 41.3888 28.6743 41.3888 28.7963V36.123C41.3888 36.261 41.5013 36.373 41.6388 36.373H42.5967C42.7342 36.373 42.8467 36.261 42.8467 36.123V33.4476C43.0177 33.4651 43.1941 33.4686 43.3662 33.4686C44.4051 33.4686 45.2741 33.1516 45.8116 32.5792C46.2386 32.1402 46.4551 31.5482 46.4551 30.8207C46.4551 30.1088 46.1936 29.4908 45.7226 29.0838ZM43.3887 32.1992C43.1737 32.1992 42.9942 32.1887 42.8467 32.1677V29.6983C42.9991 29.6783 43.2177 29.6633 43.4982 29.6633C44.1827 29.6633 44.9981 29.8718 44.9981 30.8653C44.9981 32.0257 43.9892 32.1992 43.3887 32.1992Z" fill="#B2042E"/>
<path d="M22.4813 31.2713C21.4734 30.8818 21.1669 30.6018 21.1669 30.0743C21.1669 29.6774 21.4669 29.2134 22.3134 29.2134C22.8914 29.2134 23.3328 29.3884 23.6024 29.5349C23.6669 29.5699 23.7438 29.5754 23.8123 29.5484C23.8818 29.5214 23.9353 29.4654 23.9588 29.3954L24.2223 28.6144C24.2613 28.5009 24.2133 28.376 24.1088 28.3169C23.8483 28.1694 23.2729 27.9214 22.3464 27.9214C20.7869 27.9214 19.698 28.8519 19.698 30.1849C19.698 31.2503 20.3935 32.0148 21.8159 32.5193C22.8509 32.9167 23.0534 33.2752 23.0534 33.7597C23.0534 34.3953 22.5669 34.7747 21.7524 34.7747C21.2144 34.7747 20.6214 34.6077 20.1664 34.3277C20.1019 34.2872 20.0199 34.2792 19.9469 34.3067C19.8749 34.3347 19.8194 34.3947 19.7969 34.4687L19.555 35.2716C19.524 35.3771 19.564 35.4906 19.6554 35.5521C20.1104 35.8551 20.9464 36.0671 21.6864 36.0671C23.6533 36.0671 24.5328 34.8697 24.5328 33.6827C24.5328 32.5482 23.9188 31.8268 22.4813 31.2713Z" fill="white"/>
<path d="M31.3336 28.0424H25.8437C25.7062 28.0424 25.5938 28.1544 25.5938 28.2924V29.1063C25.5938 29.2443 25.7062 29.3563 25.8437 29.3563H27.8496V35.7071C27.8496 35.8451 27.9612 35.9571 28.0996 35.9571H29.0676C29.2061 35.9571 29.3175 35.8451 29.3175 35.7071V29.3563H31.334C31.4725 29.3563 31.584 29.2443 31.584 29.1063V28.2924C31.5835 28.1544 31.4721 28.0424 31.3336 28.0424Z" fill="#E0E0E0"/>
<path d="M28.1456 28.0424H25.8437C25.7062 28.0424 25.5938 28.1544 25.5938 28.2924V29.1063C25.5938 29.2443 25.7062 29.3563 25.8437 29.3563H27.8496V35.7071C27.8496 35.8451 27.9612 35.9571 28.0996 35.9571H29.0676C29.2061 35.9571 29.3175 35.8451 29.3175 35.7071V29.3563H29.46L28.1456 28.0424Z" fill="white"/>
<path d="M35.9644 27.9213C33.7894 27.9213 32.271 29.6258 32.271 32.0657C32.271 34.4281 33.7444 36.0781 35.8539 36.0781C37.6928 36.0781 39.5473 34.7931 39.5473 31.9227C39.5473 29.5293 38.1078 27.9213 35.9644 27.9213ZM35.9094 34.7972C34.4564 34.7972 33.7944 33.3702 33.7944 32.0438C33.7944 30.6293 34.4514 29.2023 35.9204 29.2023C37.3733 29.2023 38.0353 30.6353 38.0353 31.9668C38.0353 33.3752 37.3783 34.7972 35.9094 34.7972Z" fill="#E0E0E0"/>
<path d="M32.275 32.1717C32.319 34.4767 33.777 36.0781 35.8539 36.0781C35.9584 36.0781 36.0639 36.0726 36.1674 36.0646L32.275 32.1717Z" fill="white"/>
<path d="M45.7226 28.6674C45.2216 28.2159 44.4657 27.9874 43.4767 27.9874C42.8038 27.9874 42.1898 28.0354 41.5978 28.1334C41.4778 28.1534 41.3888 28.2578 41.3888 28.3798V35.7066C41.3888 35.8446 41.5013 35.9565 41.6388 35.9565H42.5967C42.7342 35.9565 42.8467 35.8446 42.8467 35.7066V33.0312C43.0177 33.0487 43.1941 33.0522 43.3662 33.0522C44.4051 33.0522 45.2741 32.7352 45.8116 32.1627C46.2386 31.7237 46.4551 31.1318 46.4551 30.4043C46.4551 29.6924 46.1936 29.0744 45.7226 28.6674ZM43.3887 31.7828C43.1737 31.7828 42.9942 31.7723 42.8467 31.7513V29.2819C42.9991 29.2619 43.2177 29.2469 43.4982 29.2469C44.1827 29.2469 44.9981 29.4554 44.9981 30.4488C44.9981 31.6093 43.9892 31.7828 43.3887 31.7828Z" fill="#E0E0E0"/>
</g>
<defs>
<clipPath id="clip0_53_253">
<rect width="32" height="32" fill="white" transform="translate(17 16)"/>
</clipPath>
</defs>
</svg>
