<svg width="57" height="65" viewBox="0 0 57 65" fill="none" xmlns="http://www.w3.org/2000/svg">
<path d="M25.6458 1.44338C27.1928 0.550212 29.0988 0.550212 30.6458 1.44338L53.7917 14.8066C55.3387 15.6998 56.2917 17.3504 56.2917 19.1368V45.8632C56.2917 47.6496 55.3387 49.3002 53.7917 50.1934L30.6458 63.5566C29.0988 64.4498 27.1928 64.4498 25.6458 63.5566L2.5 50.1934C0.952995 49.3002 0 47.6496 0 45.8633V19.1368C0 17.3504 0.952995 15.6998 2.5 14.8066L25.6458 1.44338Z" fill="#FFC700"/>
<path d="M1.85071 24.9443L4.38755 23.3588C4.45416 23.3172 4.54055 23.365 4.54055 23.4436V35.8517C4.54055 35.8934 4.5147 35.9307 4.47567 35.9454L1.93882 36.8967C1.87345 36.9212 1.80371 36.8729 1.80371 36.8031V25.0291C1.80371 24.9946 1.82147 24.9626 1.85071 24.9443Z" fill="#FFDC5D"/>
<path d="M1.89131 44.4627L4.46397 44.1411C4.50909 44.1355 4.55233 44.161 4.56922 44.2032L5.22052 45.8315C5.22334 45.8385 5.22701 45.8453 5.23136 45.8516C5.4471 46.1606 5.59066 46.3153 5.90897 46.5263L24.8995 57.7172C24.9696 57.7584 24.9637 57.8617 24.8893 57.8947L22.0356 59.163C22.0057 59.1763 21.9713 59.1741 21.9433 59.1572L3.85634 48.2368C2.94126 47.671 1.86522 45.6183 1.80625 44.5616C1.80344 44.5112 1.84126 44.469 1.89131 44.4627Z" fill="#FFDC5D"/>
<path d="M54.6889 39.7141L52.1502 41.3008C52.0842 41.3421 51.9984 41.2954 51.9972 41.2176L51.658 19.1694C51.6579 19.1618 51.6569 19.154 51.655 19.1466C51.5796 18.8494 51.4959 18.7058 51.3158 18.4737L50.0248 17.1827C49.9832 17.1411 49.9863 17.0728 50.0315 17.0352L51.9298 15.4532C51.9696 15.4201 52.0279 15.4227 52.0647 15.459C53.0823 16.4601 54.3811 17.3723 54.3947 18.1316L54.7359 39.6277C54.7365 39.6628 54.7187 39.6956 54.6889 39.7141Z" fill="#FFDC5D"/>
<path d="M45.5022 12.4068L44.279 13.63C44.247 13.662 44.1975 13.6685 44.1583 13.646L33.0624 7.25737C33.0013 7.22221 32.9948 7.13663 33.0498 7.09262L34.5918 5.85901C34.6243 5.83301 34.6695 5.82986 34.7053 5.85111L45.4825 12.2501C45.5386 12.2834 45.5483 12.3606 45.5022 12.4068Z" fill="#FFDC5D"/>
<path d="M1.85071 24.9443L4.38755 23.3588C4.45416 23.3172 4.54055 23.365 4.54055 23.4436V35.8517C4.54055 35.8934 4.5147 35.9307 4.47567 35.9454L1.93882 36.8967C1.87345 36.9212 1.80371 36.8729 1.80371 36.8031V25.0291C1.80371 24.9946 1.82147 24.9626 1.85071 24.9443Z" stroke="#FFDC5D"/>
<path d="M1.89131 44.4627L4.46397 44.1411C4.50909 44.1355 4.55233 44.161 4.56922 44.2032L5.22052 45.8315C5.22334 45.8385 5.22701 45.8453 5.23136 45.8516C5.4471 46.1606 5.59066 46.3153 5.90897 46.5263L24.8995 57.7172C24.9696 57.7584 24.9637 57.8617 24.8893 57.8947L22.0356 59.163C22.0057 59.1763 21.9713 59.1741 21.9433 59.1572L3.85634 48.2368C2.94126 47.671 1.86522 45.6183 1.80625 44.5616C1.80344 44.5112 1.84126 44.469 1.89131 44.4627Z" stroke="#FFDC5D"/>
<path d="M54.6889 39.7141L52.1502 41.3008C52.0842 41.3421 51.9984 41.2954 51.9972 41.2176L51.658 19.1694C51.6579 19.1618 51.6569 19.154 51.655 19.1466C51.5796 18.8494 51.4959 18.7058 51.3158 18.4737L50.0248 17.1827C49.9832 17.1411 49.9863 17.0728 50.0315 17.0352L51.9298 15.4532C51.9696 15.4201 52.0279 15.4227 52.0647 15.459C53.0823 16.4601 54.3811 17.3723 54.3947 18.1316L54.7359 39.6277C54.7365 39.6628 54.7187 39.6956 54.6889 39.7141Z" stroke="#FFDC5D"/>
<path d="M45.5022 12.4068L44.279 13.63C44.247 13.662 44.1975 13.6685 44.1583 13.646L33.0624 7.25737C33.0013 7.22221 32.9948 7.13663 33.0498 7.09262L34.5918 5.85901C34.6243 5.83301 34.6695 5.82986 34.7053 5.85111L45.4825 12.2501C45.5386 12.2834 45.5483 12.3606 45.5022 12.4068Z" stroke="#FFDC5D"/>
<path d="M26.0526 7.09888C27.2902 6.38434 28.815 6.38434 30.0526 7.09888L48.7544 17.8963C49.992 18.6109 50.7544 19.9314 50.7544 21.3604V42.9554C50.7544 44.3844 49.992 45.7049 48.7544 46.4195L30.0526 57.2169C28.815 57.9314 27.2902 57.9314 26.0526 57.2169L7.35088 46.4195C6.11327 45.7049 5.35088 44.3844 5.35088 42.9554V21.3604C5.35088 19.9314 6.11327 18.6109 7.35088 17.8963L26.0526 7.09888Z" fill="#FFA726"/>
<path d="M26.0526 7.09888C27.2902 6.38434 28.815 6.38434 30.0526 7.09888L48.7544 17.8963C49.992 18.6109 50.7544 19.9314 50.7544 21.3604V42.9554C50.7544 44.3844 49.992 45.7049 48.7544 46.4195L30.0526 57.2169C28.815 57.9314 27.2902 57.9314 26.0526 57.2169L7.35088 46.4195C6.11327 45.7049 5.35088 44.3844 5.35088 42.9554V21.3604C5.35088 19.9314 6.11327 18.6109 7.35088 17.8963L26.0526 7.09888Z" stroke="#EC910C" stroke-width="2" style="mix-blend-mode:darken"/>
<g clip-path="url(#clip0_54_58)">
<path fill-rule="evenodd" clip-rule="evenodd" d="M23.3326 19.598C28.2109 17.0072 33.4626 16.4703 37.7574 17.474C47.5373 19.7847 48.3075 27.1372 43.1025 34.723C40.7217 38.2008 37.1972 41.5386 32.9491 43.6393C25.9702 47.0937 19.2946 47.2805 14.9065 44.6196C10.4951 41.9587 9.44473 37.4772 11.0086 32.7157C12.6191 27.7674 17.1239 22.679 23.3326 19.598Z" fill="#ED1C24"/>
<path d="M38.691 25.2232C38.6677 25.5033 38.6677 25.7834 38.7144 26.0635C38.761 26.3669 38.8311 26.6937 38.9478 26.9971C39.1112 27.4406 39.3446 27.8374 39.6013 28.1642C39.8347 28.4676 40.1148 28.701 40.4416 28.8877C40.8384 29.0511 41.2118 29.1445 41.5153 29.1212C41.772 29.1212 41.9588 29.0511 42.0988 28.9344C42.1922 28.8411 42.2622 28.701 42.2855 28.5143C42.3322 28.2575 42.2855 27.9308 42.2155 27.5106C42.1922 27.3939 42.1688 27.3006 42.1455 27.1838C42.1221 27.0905 42.0755 26.9738 42.0521 26.8804C41.8421 26.3436 41.562 25.8534 41.2118 25.4799C40.9084 25.1532 40.535 24.9198 40.1382 24.8031C39.718 24.6864 39.3679 24.6864 39.1112 24.7797C38.9478 24.8497 38.8077 24.9664 38.7377 25.1532L38.691 25.2232ZM38.5043 18.641C40.5816 17.8708 42.6357 18.0342 44.3862 18.8978C46.2068 19.7847 47.6773 21.442 48.4476 23.5193C48.8911 24.6864 49.0544 25.9001 48.9844 27.0438C48.9144 28.2109 48.611 29.3312 48.0508 30.3349C48.0274 30.3816 48.0041 30.4516 47.9341 30.545C47.8874 30.6383 47.8407 30.7083 47.8174 30.755C46.9771 32.1321 46.1135 33.1358 45.2498 33.8594C44.3629 34.583 43.4993 35.0498 42.6357 35.3766C40.5116 36.1701 38.4109 36.0068 36.637 35.1431C34.7697 34.2328 33.2759 32.599 32.5056 30.4983C32.0855 29.3546 31.8754 28.2108 31.9221 27.1138C31.9688 25.9935 32.2255 24.9198 32.7157 23.9161C33.0892 23.1692 33.6727 22.3056 34.4429 21.4886C35.1198 20.7651 35.9368 20.0648 36.8471 19.458C37.0805 19.2946 37.3372 19.1545 37.594 19.0145C37.9441 18.8744 38.2242 18.7344 38.5043 18.641Z" fill="white"/>
<path d="M28.7944 22.469L32.3422 21.1385C32.669 21.0218 33.0191 21.1852 33.1358 21.512C33.1358 21.5353 33.1592 21.5353 33.1592 21.5587L38.2008 35.0264C38.2475 35.0965 38.2708 35.1898 38.2708 35.2832C38.2942 35.4699 38.2242 35.6566 38.0841 35.7733L36.4269 37.4306C36.3569 37.5006 36.2869 37.5473 36.1935 37.5706L33.2759 38.6443C33.0891 38.7143 32.8791 38.691 32.7157 38.5743L29.4246 36.3802L30.0548 38.0374C30.1015 38.1308 30.1482 38.2475 30.1482 38.3642C30.1482 38.5276 30.0781 38.691 29.9614 38.7843L28.3042 40.4415C28.2342 40.5116 28.1642 40.5583 28.0942 40.5816L24.523 41.912C24.1962 42.0287 23.8461 41.8654 23.7294 41.5386L18.641 27.9308C18.5477 27.674 18.6177 27.3939 18.8278 27.2305L20.4383 25.62C20.5083 25.55 20.5783 25.5033 20.6717 25.4799L23.7761 24.3362C23.9628 24.2662 24.1729 24.2896 24.3363 24.4063L27.3706 26.3903L26.8104 24.8964C26.717 24.663 26.7871 24.4063 26.9504 24.2429L28.5843 22.5857C28.6543 22.539 28.7244 22.4923 28.7944 22.469Z" fill="white"/>
<path d="M16.7038 44.7596C15.3033 44.8997 14.0896 44.6429 13.0392 44.0127C11.6154 43.1725 10.5651 41.702 9.8415 39.8114L7.04058 32.2955C6.94721 32.0388 7.01723 31.7587 7.2273 31.5953L8.83783 29.9848C8.90786 29.9148 8.97788 29.8681 9.0479 29.8447L12.6191 28.5143C12.9459 28.3976 13.296 28.561 13.4127 28.8877L16.2836 36.5669C16.447 37.0104 16.6804 37.4306 17.0072 37.7107C17.2406 37.9207 17.544 38.0608 17.9175 38.0841C17.9875 38.0841 18.0809 38.0841 18.1509 38.0841C18.1509 37.9441 18.1276 37.804 18.1042 37.664C18.0575 37.4539 18.0109 37.2438 17.9175 37.0104L15.0465 29.3312C14.9532 29.0745 15.0232 28.7944 15.2333 28.631L16.7971 27.0671C16.8671 26.9738 16.9605 26.9038 17.0772 26.8571L20.6484 25.5266C20.9752 25.4099 21.3253 25.5733 21.442 25.9001L24.2896 33.5093C24.7331 34.6763 24.9431 35.7967 24.9198 36.847C24.8965 37.8974 24.663 38.8777 24.1729 39.7647C23.7761 40.4649 23.0292 41.1885 22.2823 41.912C22.1189 42.0754 21.9321 42.2388 21.7921 42.3789L21.7688 42.4022C21.4887 42.7056 21.1619 42.9857 20.8118 43.2191C19.6214 44.0594 18.1976 44.5963 16.7038 44.7596Z" fill="white"/>
<path fill-rule="evenodd" clip-rule="evenodd" d="M33.0658 38.0608L28.1875 34.8164L29.4946 38.3642H29.518L27.8607 39.9981L24.2896 41.3518L19.2012 27.744L20.8584 26.0868L23.9861 24.9431L28.5843 27.9541L27.3706 24.7097L29.0045 23.0525L32.5523 21.722L37.664 35.3299L36.0068 36.9871L33.0658 38.0608Z" fill="black"/>
<path fill-rule="evenodd" clip-rule="evenodd" d="M38.7377 19.2246C42.6356 17.7774 46.4869 19.9715 47.8874 23.7294C48.7043 25.9001 48.5409 28.2342 47.5372 30.0781C47.4906 30.1948 47.4205 30.3116 47.3505 30.4283C45.74 33.0891 44.0828 34.1862 42.4722 34.793C38.4576 36.2869 34.5596 34.0461 33.1358 30.2882C32.3422 28.1408 32.4123 26.0401 33.3226 24.1962C33.9761 22.8658 35.3999 21.1852 37.2438 19.9715C37.6873 19.668 38.2008 19.4113 38.7377 19.2246ZM38.0841 25.1065C38.0841 25.0832 38.1075 25.0598 38.1075 25.0365C38.3642 24.1962 39.2045 23.9394 40.2548 24.2195C41.3285 24.4996 42.1455 25.5033 42.5889 26.6703C42.6823 26.9038 42.7523 27.1372 42.799 27.3939C43.0091 28.3509 42.9157 29.0278 42.5189 29.4013C42.0521 29.8447 41.1885 29.8681 40.2082 29.4479C39.3912 29.0044 38.761 28.1875 38.3876 27.2072C38.1075 26.507 38.0141 25.7834 38.0841 25.1065Z" fill="black"/>
<path fill-rule="evenodd" clip-rule="evenodd" d="M26.8338 31.1752L29.4946 38.3642L25.9235 39.6946L20.8585 26.0868L23.9862 24.9431L31.572 29.8914L29.0045 23.0525L32.5523 21.722L37.664 35.3299L34.723 36.4036L26.8338 31.1752Z" fill="black"/>
<path fill-rule="evenodd" clip-rule="evenodd" d="M25.8768 29.9848L28.9111 38.0841L26.2036 39.0878L21.4653 26.3669L23.9161 25.4566L32.5056 31.0818L29.6114 23.3326L32.2722 22.3289L37.0572 35.0498L34.7697 35.89L25.8768 29.9848Z" fill="white"/>
<path fill-rule="evenodd" clip-rule="evenodd" d="M30.0315 23.5193L32.0855 22.749L36.6137 34.863L34.8164 35.5166L25.2233 29.1445L28.491 37.8974L26.4137 38.6676L21.8855 26.577L23.8695 25.8301L33.1592 31.8987L30.0315 23.5193Z" fill="#F8DA27"/>
<path fill-rule="evenodd" clip-rule="evenodd" d="M38.7377 19.2246C42.6356 17.7774 46.4869 19.9715 47.8874 23.7294C49.2878 27.4873 47.8173 31.6887 43.9427 33.1358C40.0448 34.583 36.1935 32.3889 34.793 28.631C33.3692 24.8497 34.8397 20.6717 38.7377 19.2246ZM40.0214 22.6557C38.0608 23.3793 37.7107 25.3866 38.3876 27.2072C39.0644 29.0045 40.6283 30.2882 42.6123 29.5646C44.5729 28.8177 44.923 26.8337 44.2462 25.0131C43.5459 23.2159 41.9821 21.9321 40.0214 22.6557Z" fill="black"/>
<path fill-rule="evenodd" clip-rule="evenodd" d="M38.9011 19.668C42.5423 18.3143 46.1368 20.3683 47.4672 23.9161C48.7743 27.4406 47.4205 31.3619 43.7793 32.739C40.1381 34.0928 36.5436 32.0154 35.2132 28.491C33.9061 24.9431 35.2365 21.0218 38.9011 19.668ZM39.8581 22.2122C37.6407 23.0291 37.1738 25.3166 37.9441 27.3706C38.7143 29.4246 40.5349 30.8251 42.7757 30.0081C44.9931 29.1678 45.4599 26.9038 44.6896 24.8731C43.896 22.8191 42.0755 21.3953 39.8581 22.2122Z" fill="white"/>
<path fill-rule="evenodd" clip-rule="evenodd" d="M39.7413 21.9088C42.0521 21.0452 44.1061 22.4223 44.9697 24.733C45.8334 27.0438 45.1798 29.4246 42.869 30.2882C40.5583 31.1518 38.4809 29.7747 37.6173 27.4639C36.7537 25.1765 37.4306 22.7724 39.7413 21.9088ZM39.0178 19.9715C42.4256 18.6877 45.88 20.5783 47.1638 24.0095C48.4476 27.4406 47.0704 31.1285 43.686 32.3889C40.2782 33.6493 36.8237 31.782 35.54 28.3509C34.2329 24.9198 35.5866 21.2319 39.0178 19.9715Z" fill="#F8DA27"/>
<path fill-rule="evenodd" clip-rule="evenodd" d="M16.3303 44.1761C13.5294 44.3395 11.5454 42.5422 10.4484 39.5779L7.64746 32.0621L9.28133 30.4049L12.8525 29.0745L15.7235 36.7537C16.0969 37.734 16.7738 38.5976 17.9175 38.6443C18.2443 38.6676 18.6878 38.6209 18.7811 38.2008C18.8045 37.7106 18.7111 37.2205 18.5244 36.7537L15.6534 29.0745L17.3106 27.4173L20.8585 26.0868L23.7061 33.696C24.523 35.89 24.523 37.8507 23.6361 39.4379C23.2159 40.1848 22.2123 41.0717 21.372 41.912C20.0882 43.2658 18.1509 44.0827 16.3303 44.1761Z" fill="black"/>
<path fill-rule="evenodd" clip-rule="evenodd" d="M21.0218 41.6786L21.0452 41.7253L20.2982 42.0054C20.2749 42.0054 20.2516 42.0287 20.2516 42.0287C20.2282 42.0287 20.2049 42.0521 20.1815 42.0521L19.4346 42.3322L19.4113 42.2855C15.8401 43.2191 13.3893 41.3518 12.1055 37.9207L9.30463 30.4049L12.8758 29.0745L15.7467 36.7537C16.1202 37.734 16.7971 38.5976 17.9408 38.6443C18.2676 38.6676 18.6177 38.5976 18.9211 38.4809C19.2479 38.3642 19.5513 38.1775 19.7847 37.9441C20.6017 37.1738 20.555 36.0768 20.1815 35.0964L17.2873 27.4173L20.8584 26.0868L23.706 33.696C24.9898 37.1505 24.3596 40.0681 21.0218 41.6786Z" fill="black"/>
<path fill-rule="evenodd" clip-rule="evenodd" d="M20.415 41.4452L20.1116 41.5619C20.0882 41.5619 20.0649 41.5853 20.0415 41.5853C20.0182 41.5853 19.9948 41.6086 19.9715 41.6086L19.6681 41.7253C16.1202 42.8457 13.7628 41.1418 12.5257 37.7807L9.88818 30.7083L12.5724 29.7047L15.28 36.9404C15.7234 38.1074 16.5637 39.0878 17.8942 39.1345C18.291 39.1578 18.6878 39.0878 19.0612 38.9477C19.4347 38.8077 19.8081 38.5976 20.0882 38.3175C21.0452 37.4072 21.0452 36.1235 20.6017 34.9564L17.8942 27.7207L20.5784 26.717L23.2626 33.8827C24.523 37.2438 23.8461 39.9747 20.415 41.4452Z" fill="white"/>
<path fill-rule="evenodd" clip-rule="evenodd" d="M10.3083 30.8951L12.3856 30.1248L14.9765 37.0571C15.8401 39.3445 17.6607 39.8113 19.1779 39.2512C20.695 38.6676 21.7921 37.1271 20.9051 34.8397L18.3143 27.9074L20.3916 27.1372L22.9591 33.9994C23.9861 36.7303 23.9861 39.718 19.9948 41.2818C19.9715 41.2818 19.9481 41.3052 19.9248 41.3052C19.9014 41.3052 19.8781 41.3285 19.8548 41.3285C15.9335 42.729 13.8561 40.4882 12.8058 37.6873L10.3083 30.8951Z" fill="#F8DA27"/>
<path fill-rule="evenodd" clip-rule="evenodd" d="M27.9075 24.8031L29.1912 23.496L29.9148 25.4333L28.631 26.7404L27.9075 24.8031ZM28.8645 27.3939L30.1482 26.0868L30.4283 26.8104L29.1445 28.1175L28.8645 27.3939Z" fill="#58585A"/>
<path fill-rule="evenodd" clip-rule="evenodd" d="M16.1902 29.1912L17.474 27.8841L18.1976 29.8214L16.9138 31.1285L16.1902 29.1912ZM17.1472 31.782L18.431 30.4749L18.7111 31.1985L17.4273 32.5056L17.1472 31.782Z" fill="#58585A"/>
<path fill-rule="evenodd" clip-rule="evenodd" d="M9.7948 36.5436L11.0786 35.2365L11.8021 37.1738L10.5184 38.4809L9.7948 36.5436ZM10.7751 39.1344L12.0589 37.8273L12.1056 37.9207C12.1989 38.1308 12.2689 38.3408 12.3623 38.5509L11.0552 39.858L10.7751 39.1344Z" fill="#58585A"/>
<path fill-rule="evenodd" clip-rule="evenodd" d="M41.6086 24.4063L42.9157 23.0992C43.3826 23.4726 43.7794 24.0095 44.0594 24.6163L42.7757 25.9001C42.4956 25.3399 42.0988 24.8031 41.6086 24.4063ZM43.0558 26.5303L44.3162 25.2465C44.4096 25.5266 44.4562 25.7834 44.5029 26.0635L43.2658 27.3005V27.2772C43.2192 27.0438 43.1491 26.787 43.0558 26.5303Z" fill="#58585A"/>
</g>
<defs>
<clipPath id="clip0_54_58">
<rect width="42" height="29.4436" fill="white" transform="translate(7 17)"/>
</clipPath>
</defs>
</svg>
