<svg width="80" height="80" viewBox="0 0 80 80" fill="none" xmlns="http://www.w3.org/2000/svg">
<g clip-path="url(#clip0_33_961)">
<path d="M53.8461 63.0769H26.1539C25.2308 63.0769 24.6155 63.6922 24.6155 64.6153V70.7692C24.6155 71.6923 25.2308 72.3077 26.1539 72.3077H53.8463C54.7694 72.3077 55.3847 71.6923 55.3847 70.7692V64.6153C55.3847 63.6923 54.7692 63.0769 53.8461 63.0769ZM52.3077 69.2308H27.6924V66.1539H52.3077V69.2308Z" fill="#2E384D"/>
<path d="M74.1539 55.2308H71.6988L69.3847 26C68.6155 17.2308 61.3847 10.7692 52.6155 10.7692H52.4616H52.1991C51.4644 5.51298 47.0153 1.53845 41.5384 1.53845H38.4616C32.9839 1.53845 28.5344 5.51408 27.8006 10.7716C19.2734 10.8705 12.1467 17.2974 11.2308 25.8461C11.2308 25.943 11.2314 26.0239 11.2361 26.0999C11.2345 26.1178 11.2323 26.1356 11.2308 26.1538L8.38203 55.3847H5.84609C2.61531 55.3847 0 58 0 61.2308V66.4616C0 72.3077 4.61531 76.9231 10.4616 76.9231H15.7539C17.752 77.9305 19.9816 78.4616 22.3078 78.4616H58.4617C60.7269 78.4616 62.9383 77.9275 64.9081 76.9231H69.5386C75.3847 76.9231 80.0002 72.3078 80.0002 66.3078V61.077C80 57.8461 77.3847 55.2308 74.1539 55.2308ZM55.3847 24.6153C56.3078 24.6153 56.9231 24 56.9231 23.0769C56.9231 22.1538 56.3078 21.5384 55.3847 21.5384H49.2308C48.3077 21.5384 47.6923 22.1538 47.6923 23.0769C47.6923 24 48.3077 24.6153 49.2308 24.6153H50.7692V40.8777C47.4369 42.2995 43.7914 43.0769 40 43.0769C36.2028 43.0769 32.56 42.3228 29.2308 40.931V24.6153H30.7692C31.6923 24.6153 32.3077 24 32.3077 23.0769C32.3077 22.1538 31.6923 21.5384 30.7692 21.5384H24.6153C23.6922 21.5384 23.0769 22.1538 23.0769 23.0769C23.0769 24 23.6922 24.6153 24.6153 24.6153H26.1538V39.4127C20.923 36.4106 16.7214 31.7083 14.3077 25.846C15.2017 19.141 20.7134 14.1678 27.3491 13.8611C27.5648 13.8514 27.7817 13.846 28 13.846H52.4616C52.6758 13.846 52.8886 13.8514 53.1003 13.8608C53.2217 13.8663 53.3422 13.876 53.4628 13.8845C53.5467 13.8903 53.6311 13.8949 53.7145 13.9022C53.8903 13.918 54.0652 13.9374 54.2391 13.9595C54.2602 13.9622 54.2812 13.9642 54.3023 13.9669C60.0848 14.7319 64.7461 19.0563 66.0002 24.7689C63.7095 31.0242 59.3497 36.1181 53.8462 39.3303V24.6152H55.3847V24.6153ZM38.4616 4.61533H41.5384C45.2308 4.61533 48.3077 7.23064 49.0769 10.7692H30.9231C31.6923 7.23079 34.7692 4.61533 38.4616 4.61533ZM3.07687 66.4616V61.2308C3.07687 59.6924 4.30766 58.4616 5.84609 58.4616H8.08203L7.69219 62.4616C7.6625 62.8486 7.64891 63.2369 7.65047 63.6256C7.64875 67.245 8.86641 70.6 11.2075 73.3103C11.3158 73.4392 11.4253 73.567 11.5381 73.6924C11.585 73.7444 11.6328 73.795 11.6803 73.8463H10.4613C6.30766 73.8461 3.07687 70.6153 3.07687 66.4616ZM22.4616 75.3847C19.2308 75.3847 16 74 13.8462 71.5386C11.5386 69.2309 10.4616 66.0002 10.7694 62.7694L11.3847 57.077C11.3847 56.9324 11.3678 56.7881 11.3375 56.6483L13.6886 31.3203C16.6998 36.3461 21.0344 40.3302 26.1539 42.8986V49.2309H24.6155L23.077 50.7694V56.9233L24.6155 58.4617H30.7694L32.3078 56.9233V50.7694L30.7694 49.2309H29.2309V44.2358C32.6 45.4839 36.233 46.1539 40.0002 46.1539C43.7513 46.1539 47.3878 45.4692 50.7694 44.2V49.2308H49.2309L47.6925 50.7692V56.9231L49.2309 58.4616H55.3848L56.9233 56.9231V50.7692L55.3848 49.2308H53.8464V42.85C59.1464 40.1681 63.6283 35.9716 66.6559 30.7031L69.2311 63.2308C69.2823 63.8206 69.2917 64.3964 69.2675 64.9592C69.1553 66.7444 68.7158 68.3891 67.98 69.8142C67.5302 70.6608 66.9705 71.4439 66.308 72.1539C65.6264 72.8355 64.8536 73.425 64.0116 73.9097C63.9564 73.9397 63.9023 73.9709 63.8464 74C63.8005 74.023 63.7569 74.0492 63.7145 74.077C62.1545 74.9116 60.3675 75.3847 58.4619 75.3847H22.4616ZM29.2308 52.3077V55.3845H26.1539V52.3077H29.2308ZM53.8461 52.3077V55.3845H50.7692V52.3077H53.8461ZM76.9231 66.4616C76.9231 70.6155 73.5384 73.8463 69.5384 73.8463H68.9231C69.9516 72.625 70.7642 71.215 71.3406 69.6627C71.9861 67.9719 72.3366 66.1306 72.3489 64.2102C72.3616 63.6363 72.3486 63.0531 72.3078 62.4617L72.0002 58.4617H74.1541C75.6925 58.4617 76.9233 59.6925 76.9233 61.2309V66.4616H76.9231Z" fill="#2E384D"/>
</g>
<defs>
<clipPath id="clip0_33_961">
<rect width="80" height="80" fill="white"/>
</clipPath>
</defs>
</svg>
