<svg width="52" height="52" viewBox="0 0 52 52" fill="none" xmlns="http://www.w3.org/2000/svg">
<path d="M27.8524 49.9628L26 51.0742L24.1476 49.9628V12.279H27.8524V49.9628Z" fill="#E57788"/>
<path d="M27.8522 12.279H24.1473V31.6766H27.8522V12.279Z" fill="#ED9BA3"/>
<path d="M25.9997 12.4377C29.2151 12.4377 31.8217 9.83116 31.8217 6.61578C31.8217 3.40039 29.2151 0.793808 25.9997 0.793808C22.7843 0.793808 20.1777 3.40039 20.1777 6.61578C20.1777 9.83116 22.7843 12.4377 25.9997 12.4377Z" fill="#E57788"/>
<path d="M31.822 6.61578H20.178C20.178 3.4 22.7841 0.793808 26 0.793808C29.2159 0.793808 31.822 3.4 31.822 6.61578Z" fill="#ED9BA3"/>
<path d="M26 8.73285C24.8326 8.73285 23.8829 7.78314 23.8829 6.61578C23.8829 5.44842 24.8326 4.49881 26 4.49881C27.1674 4.49881 28.1171 5.44852 28.1171 6.61588C28.1171 7.78324 27.1674 8.73285 26 8.73285Z" fill="white"/>
<path d="M17.4788 16.619H34.5212L32.3512 20.3239H19.543L17.4788 16.619Z" fill="#ED9BA3"/>
<path d="M42.2244 37.1545C41.7428 42.4006 37.3181 46.5225 31.9482 46.5225H20.3616C14.9916 46.5225 10.567 42.4006 10.0854 37.1545H13.8145C14.2771 40.3523 17.0367 42.8176 20.3616 42.8176H31.9482C35.2731 42.8176 38.0326 40.3523 38.4952 37.1545H42.2244Z" fill="#E57788"/>
<path d="M11.9498 32.4969L16.1761 34.614V37.1545H7.72372V34.614L11.9498 32.4969Z" fill="#CCCCCC"/>
<path d="M11.9498 32.4969L16.1761 34.614V37.1545H7.72372V34.614L11.9498 32.4969Z" fill="#E57788"/>
<path d="M7.72372 37.1545H11.9498V32.4969L7.72372 34.614V37.1545Z" fill="#ED9BA3"/>
<path d="M40.0503 32.4969L35.824 34.614V37.1545H44.2764V34.614L40.0503 32.4969Z" fill="#CCCCCC"/>
<path d="M40.0503 32.4969L35.824 34.614V37.1545H44.2764V34.614L40.0503 32.4969Z" fill="#E57788"/>
<path d="M44.2764 37.1545H40.0503V32.4969L44.2764 34.614V37.1545Z" fill="#ED9BA3"/>
<path d="M28.911 6.61579C28.911 5.01069 27.6051 3.7048 26 3.7048C24.3948 3.7048 23.089 5.01069 23.089 6.61579C23.089 8.22088 24.3949 9.52677 26 9.52677C27.6051 9.52677 28.911 8.22088 28.911 6.61579ZM24.6768 6.61579C24.6768 5.88616 25.2704 5.29263 26 5.29263C26.7296 5.29263 27.3232 5.88616 27.3232 6.61579C27.3232 7.34541 26.7296 7.93905 26 7.93905C25.2705 7.93905 24.6768 7.34551 24.6768 6.61579Z" fill="black"/>
<path d="M45.0703 34.1237L40.0501 31.6089L35.03 34.1237V37.9483H37.5002C36.7487 40.3253 34.5063 42.0237 31.948 42.0237H28.6462V21.1177H32.8061L35.9061 15.8251H28.6461V12.6776C30.9803 11.6547 32.6156 9.32323 32.6156 6.61588C32.6159 2.96776 29.648 0 26 0C22.3521 0 19.3842 2.96776 19.3842 6.61578C19.3842 9.32313 21.0196 11.6546 23.3537 12.6775V15.825H16.1277L19.0765 21.1176H23.3537V42.0236H20.3615C17.8033 42.0236 15.5609 40.3252 14.8093 37.9482H16.9699V34.1236L11.9497 31.6088L6.92961 34.1236V37.9482H9.38752C9.77854 40.4152 10.9908 42.6814 12.8532 44.3904C14.9095 46.2773 17.5758 47.3162 20.3615 47.3162H23.3537V50.4121L26.0001 52L28.6464 50.4122V47.3163H31.9482C34.7338 47.3163 37.4002 46.2774 39.4563 44.3905C41.3189 42.6814 42.531 40.4152 42.922 37.9483H45.0703V34.1237ZM20.9719 6.61578C20.9719 3.84333 23.2275 1.58773 26 1.58773C28.7724 1.58773 31.028 3.84333 31.028 6.61578C31.028 9.38823 28.7723 11.6438 26 11.6438C23.2275 11.6438 20.9719 9.38823 20.9719 6.61578ZM24.9414 13.1459C25.2863 13.2016 25.6397 13.2317 25.9999 13.2317C26.3601 13.2317 26.7136 13.2016 27.0584 13.1459V15.8251H24.9413V13.1459H24.9414ZM18.8299 17.4129H33.1361L31.8961 19.53H20.0094L18.8299 17.4129ZM24.9414 21.1177H27.0585V42.0237H24.9414V21.1177ZM8.51754 35.1044L11.9498 33.385L15.3821 35.1044V36.3606H8.51754V35.1044ZM27.0585 49.5133L26 50.1484L24.9415 49.5133V47.3164H27.0586V49.5133H27.0585ZM38.3827 43.2208C36.6203 44.8379 34.3352 45.7286 31.9482 45.7286H20.3616C17.9745 45.7286 15.6894 44.838 13.9271 43.2208C12.3928 41.8129 11.371 39.9655 10.9961 37.9484H13.1607C13.9563 41.221 16.9375 43.6115 20.3616 43.6115H31.9482C35.3724 43.6115 38.3535 41.2211 39.1491 37.9484H41.3137C40.9386 39.9654 39.917 41.8128 38.3827 43.2208ZM43.4826 36.3606H36.6179V35.1044L40.0503 33.385L43.4826 35.1044V36.3606Z" fill="black"/>
</svg>
