<svg width="52" height="52" viewBox="0 0 52 52" fill="none" xmlns="http://www.w3.org/2000/svg">
<path d="M43.0345 0H8.96554C7.9749 0 7.17245 0.802445 7.17245 1.79309V50.2069C7.17245 51.1976 7.9749 52 8.96554 52H43.0345C44.0251 52 44.8276 51.1976 44.8276 50.2069V1.79309C44.8276 0.802445 44.0252 0 43.0345 0Z" fill="#E6EEF4"/>
<path d="M42.138 3.58629C42.138 3.09117 41.7366 2.6897 41.2414 2.6897H20.6207C20.1255 2.6897 19.7241 3.09107 19.7241 3.58629C19.7241 4.08151 20.1254 4.48288 20.6207 4.48288H41.2413L40.3447 3.58629V34.0691C40.3447 34.5642 40.7461 34.9656 41.2413 34.9656C41.7365 34.9656 42.1379 34.5643 42.1379 34.0691V3.58629H42.138Z" fill="black"/>
<path d="M9.86203 48.4138C9.86203 48.909 10.2634 49.3104 10.7586 49.3104H31.3793C31.8744 49.3104 32.2759 48.9091 32.2759 48.4138C32.2759 47.9186 31.8745 47.5173 31.3793 47.5173H10.7586L11.6552 48.4138V17.9311C11.6552 17.436 11.2538 17.0345 10.7586 17.0345C10.2635 17.0345 9.86203 17.4359 9.86203 17.9311V48.4138Z" fill="black"/>
<path d="M28.6896 33.1725C28.6896 34.3514 28.9639 35.5143 29.4911 36.5695L30.1582 37.9027C30.307 38.2013 30.091 38.5518 29.7574 38.5518H22.2425C21.909 38.5518 21.693 38.2012 21.8417 37.9027L22.5088 36.5695C23.036 35.5143 23.3103 34.3515 23.3103 33.1725C22.4245 33.8144 21.4007 34.1452 20.2719 34.1452C16.9941 34.1452 14.1502 31.3928 14.3556 28.0738C14.4703 26.2072 15.6591 24.606 17.2425 23.6126C18.832 22.6147 20.306 22.5349 21.6239 22.855C20.7811 21.8572 20.2719 20.5697 20.2719 19.1621C20.2719 15.6243 23.4788 12.8352 27.1439 13.5443C29.4382 13.9872 31.2609 15.8726 31.6464 18.1768C31.9458 19.9645 31.4124 21.6285 30.3769 22.8549C31.7047 22.5331 33.1902 22.6165 34.7924 23.634C36.3676 24.6346 37.5519 26.2314 37.6604 28.0943C37.8523 31.4044 34.9995 34.1451 31.7289 34.1451C30.6154 34.1452 29.5593 33.8009 28.6896 33.1725Z" fill="black"/>
<path d="M15.1641 3.22208C14.8485 2.51216 13.841 2.51216 13.5255 3.22208L9.93931 11.291C9.73822 11.7435 9.94196 12.2733 10.3945 12.4744C10.847 12.6755 11.3768 12.4718 11.5779 12.0192L15.1641 3.95028H13.5255L17.1117 12.0192C17.3128 12.4717 17.8426 12.6755 18.2951 12.4744C18.7475 12.2733 18.9514 11.7435 18.7503 11.291L15.1641 3.22208Z" fill="black"/>
<path d="M16.138 9.86203C16.6331 9.86203 17.0346 9.46066 17.0346 8.96544C17.0346 8.47032 16.6332 8.06885 16.138 8.06885H12.5518C12.0567 8.06885 11.6552 8.47022 11.6552 8.96544C11.6552 9.46056 12.0566 9.86203 12.5518 9.86203H16.138Z" fill="black"/>
<path d="M36.8359 48.7779C37.1515 49.4879 38.159 49.4879 38.4744 48.7779L42.0606 40.709C42.2617 40.2565 42.058 39.7267 41.6054 39.5256C41.1529 39.3245 40.6231 39.5282 40.422 39.9808L36.8358 48.0497H38.4743L34.8882 39.9808C34.6871 39.5283 34.1572 39.3245 33.7047 39.5256C33.2523 39.7267 33.0484 40.2565 33.2495 40.709L36.8359 48.7779Z" fill="black"/>
<path d="M35.862 42.138C35.3669 42.138 34.9654 42.5393 34.9654 43.0346C34.9654 43.5297 35.3668 43.9312 35.862 43.9312H39.4482C39.9433 43.9312 40.3448 43.5298 40.3448 43.0346C40.3448 42.5394 39.9434 42.138 39.4482 42.138H35.862Z" fill="black"/>
</svg>
