<svg width="80" height="80" viewBox="0 0 80 80" fill="none" xmlns="http://www.w3.org/2000/svg">
<g clip-path="url(#clip0_33_809)">
<path d="M48.0008 69.3336V62.6671C48.0008 62.1284 47.6768 61.6418 47.1782 61.4351C46.6796 61.2298 46.1076 61.3431 45.725 61.7245L43.0584 64.3911C42.537 64.9125 42.537 65.7551 43.0584 66.2764C43.5783 66.7977 44.4224 66.7977 44.9436 66.2764L45.3342 65.8857V69.3336C44.5969 69.3336 44.001 69.9309 44.001 70.6668C44.001 71.4028 44.5969 72.0001 45.3342 72.0001H48.0008C48.7368 72.0001 49.3341 71.4028 49.3341 70.6668C49.3342 69.9309 48.7369 69.3336 48.0008 69.3336Z" fill="#2E384D"/>
<path d="M12.002 26.6684V20.0019C12.002 19.4633 11.6779 18.9766 11.1779 18.7699C10.6794 18.5632 10.1073 18.6779 9.72595 19.0593L7.05947 21.7259C6.53808 22.2473 6.53808 23.0899 7.05947 23.6111C7.57945 24.1325 8.42349 24.1325 8.94472 23.6111L9.33534 23.2205V26.6684C8.59802 26.6684 8.0021 27.2657 8.0021 28.0016C8.0021 28.7375 8.59802 29.3349 9.33534 29.3349H12.002C12.7379 29.3349 13.3352 28.7375 13.3352 28.0016C13.3352 27.2657 12.738 26.6684 12.002 26.6684Z" fill="#2E384D"/>
<path d="M75.6361 14.8927L35.832 0.402483C34.168 -0.202811 32.3654 -0.122814 30.7628 0.625132C29.1575 1.37308 27.9402 2.70101 27.3535 4.31564L26.9442 5.31968L20.4723 4.21033C18.7177 3.90237 16.9498 4.29439 15.4911 5.31561C14.0311 6.33683 13.0579 7.86616 12.7512 9.61017L12.5579 10.6687H6.66886C2.99304 10.6687 0.00234985 13.6593 0.00234985 17.3352V73.3335C0.00234985 77.0093 2.99288 80 6.66886 80H49.3343H50.6675H52.0007C55.6312 80 59.1832 79.4707 60.5819 75.6322L79.5986 23.3871C80.8465 19.9539 79.0693 16.1434 75.6361 14.8927ZM53.3341 73.3335C53.3341 75.5388 51.5395 77.3334 49.3343 77.3334H6.66886C4.46221 77.3334 2.66899 75.5388 2.66899 73.3335V17.3352C2.66899 15.13 4.46221 13.3354 6.66886 13.3354H13.6686C14.3113 13.3354 14.8633 12.8754 14.9792 12.2421L15.3766 10.0822C15.5619 9.03019 16.1445 8.11287 17.0192 7.49961C17.8977 6.8876 18.9591 6.65026 20.015 6.83822L27.5468 8.12881C28.1548 8.2274 28.7682 7.89819 29.0068 7.31946L29.8414 5.27686C30.2028 4.28221 30.9294 3.48895 31.8893 3.04225C32.8466 2.59429 33.9213 2.54632 34.9199 2.90897L55.4312 10.3755L34.7694 6.73166C34.0427 6.6037 33.3521 7.08759 33.2254 7.81304C33.096 8.53833 33.5801 9.23034 34.3053 9.3583L41.7384 10.6689H18.6671C17.9298 10.6689 17.3338 11.2662 17.3338 12.0021C17.3338 12.738 17.9298 13.3354 18.6671 13.3354H49.3341C51.5393 13.3354 53.334 15.13 53.334 17.3352V73.3335H53.3341ZM54.2527 12.8754L62.0257 14.246C64.1977 14.6286 65.6536 16.7073 65.2724 18.8791L56.0006 71.4642V17.3352C56.0006 15.6153 55.3273 14.0594 54.2527 12.8754ZM77.0934 22.4765L58.1846 74.4229L67.8976 19.3419C68.2029 17.6073 67.7896 15.9167 66.895 14.5474L74.7253 17.3979C76.7761 18.1446 77.8387 20.4233 77.0934 22.4765Z" fill="#2E384D"/>
<path d="M34.6974 38.4133C32.6934 36.7893 30.6216 35.1094 29.1443 32.6482C28.6629 31.8456 27.3403 31.8456 26.8576 32.6482C25.3377 35.1828 23.4098 36.8895 21.5445 38.5386C18.694 41.0612 16.002 43.4438 16.002 48.001C16.002 51.6768 18.9925 54.6675 22.6685 54.6675C24.4564 54.6675 25.7058 54.1981 26.6684 53.4422V57.3341C26.6684 58.0701 27.2643 58.6674 28.0016 58.6674C28.7376 58.6674 29.3349 58.0701 29.3349 57.3341V53.4422C30.2963 54.1981 31.5468 54.6675 33.3348 54.6675C36.6387 54.6675 39.1839 52.2129 39.9745 48.2624C40.9345 43.4679 37.7638 40.8986 34.6974 38.4133ZM37.3599 47.7398C37.1599 48.7397 36.2786 52.001 33.3348 52.001C31.1548 52.001 30.4575 51.2664 29.1935 48.7385C29.1308 48.6144 29.0508 48.5064 28.9561 48.4118C28.9361 48.3891 28.9094 48.3744 28.8882 48.3532C28.7935 48.2691 28.6922 48.2011 28.5802 48.1465C28.5416 48.1279 28.5043 48.1105 28.4629 48.0944C28.3162 48.0397 28.1629 48.0012 28.0015 48.0012C27.8401 48.0012 27.6856 48.0397 27.5401 48.0944C27.4987 48.1104 27.4601 48.1277 27.4215 48.1465C27.3095 48.2011 27.2082 48.2691 27.1162 48.3532C27.0921 48.3746 27.0668 48.3891 27.0456 48.4118C26.9523 48.5077 26.8696 48.6144 26.8082 48.7385C25.5442 51.2664 24.8469 52.001 22.6684 52.001C20.4617 52.001 18.6685 50.2064 18.6685 48.0012C18.6685 44.6453 20.6164 42.9213 23.3124 40.5361C24.835 39.1881 26.5176 37.6988 28.0137 35.7015C29.5536 37.6762 31.3722 39.1508 33.0176 40.4854C36.2933 43.1399 37.9746 44.6691 37.3599 47.7398Z" fill="#2E384D"/>
</g>
<defs>
<clipPath id="clip0_33_809">
<rect width="80" height="80" fill="white"/>
</clipPath>
</defs>
</svg>
