<svg width="80" height="80" viewBox="0 0 80 80" fill="none" xmlns="http://www.w3.org/2000/svg">
<g clip-path="url(#clip0_33_832)">
<path d="M34.6667 8H38.6667V14.6667C38.6667 15.4027 39.2641 16 40 16C40.7359 16 41.3333 15.4027 41.3333 14.6667V8H45.3333C46.0692 8 46.6666 7.40266 46.6666 6.66672C46.6666 5.93078 46.0692 5.33344 45.3333 5.33344H41.3333V1.33344C41.3333 0.597344 40.7359 0 40 0C39.2641 0 38.6667 0.597344 38.6667 1.33328V5.33328H34.6667C33.9308 5.33328 33.3334 5.93062 33.3334 6.66656C33.3333 7.40266 33.9306 8 34.6667 8Z" fill="#2E384D"/>
<path d="M20.4667 72H6.66672C6.00266 72 5.33344 71.588 5.33344 70.6667C5.33344 65.6481 6.56016 63.1947 7.86016 60.5961C9.24016 57.8361 10.6669 54.9814 10.6669 49.3334C10.6669 48.5975 10.0695 48.0002 9.33359 48.0002C8.59891 48.0002 8.00031 47.4016 8.00031 46.6669C8.00031 45.9322 8.59891 45.3336 9.33359 45.3336H20C20.7347 45.3336 21.3333 45.9322 21.3333 46.6669C21.3333 47.4016 20.7347 48 20 48H14.6653C13.9294 48 13.332 48.5973 13.332 49.3333C13.332 50.0692 13.9294 50.6666 14.6653 50.6666H20C22.2053 50.6666 24 48.8719 24 46.6666C24 44.8159 22.7306 43.2706 21.0227 42.8159C22.8494 41.1106 24 38.6906 24 36C24 30.8533 19.8133 26.6667 14.6667 26.6667C9.52 26.6667 5.33344 30.8534 5.33344 36C5.33344 37.3467 5.62141 38.6559 6.19078 39.8906C6.49875 40.56 7.29219 40.852 7.95875 40.5439C8.62813 40.2359 8.92016 39.4439 8.61203 38.7759C8.20531 37.8933 8 36.9586 8 36C8 32.3241 10.9906 29.3333 14.6667 29.3333C18.3427 29.3333 21.3334 32.3239 21.3334 36C21.3334 39.6759 18.3428 42.6667 14.6667 42.6667H9.33328C7.12797 42.6667 5.33328 44.4614 5.33328 46.6667C5.33328 48.3973 6.43859 49.8747 7.97859 50.4308C7.81328 54.7241 6.67453 57.0028 5.47328 59.4041C4.09328 62.1641 2.66656 65.0188 2.66656 70.6667C2.66656 71.2014 2.76922 71.7014 2.9425 72.16C1.25203 72.6267 0 74.1627 0 76V78.6667C0 79.4027 0.597344 80 1.33328 80H20C20.7359 80 21.3333 79.4027 21.3333 78.6667C21.3333 77.9308 20.7359 77.3334 20 77.3334H2.66672V76C2.66672 75.2653 3.26531 74.6667 4 74.6667H6.66672H20.4667C21.2027 74.6667 21.8 74.0694 21.8 73.3335C21.8 72.5975 21.2027 72 20.4667 72Z" fill="#2E384D"/>
<path d="M31.108 31.5853C31.2467 32.308 31.9427 32.7813 32.6694 32.6427C33.392 32.5027 33.8653 31.8041 33.7253 31.0813L32.2386 23.3706C33.5572 22.6692 36.4986 21.3613 40.0827 21.3613C43.6347 21.3613 46.5841 22.6653 47.9159 23.368L45.3613 35.7294C45.2798 36.1227 45.3798 36.5308 45.6333 36.8414C45.8866 37.1534 46.2653 37.3334 46.6666 37.3334C47.4013 37.3334 47.9998 37.932 47.9998 38.6667C47.9998 39.4014 47.4013 40 46.6666 40H38.6666C37.9306 40 37.3333 40.5973 37.3333 41.3333C37.3333 42.0692 37.9306 42.6666 38.6666 42.6666H46.6666C48.8719 42.6666 50.6666 40.8719 50.6666 38.6666C50.6666 37.0186 49.6652 35.5998 48.2372 34.988L50.7225 22.9653C50.8331 22.432 50.6092 21.8867 50.1558 21.5853C49.9784 21.468 45.7544 18.6947 40.0825 18.6947C34.4119 18.6947 30.1878 21.468 30.0105 21.5853C29.5637 21.8827 29.3384 22.42 29.4411 22.9467L31.108 31.5853Z" fill="#2E384D"/>
<path d="M53.048 72.1573C53.228 71.6973 53.3333 71.1973 53.3333 70.6667C53.3333 65.652 52.1986 62.3081 50.9986 58.7667C49.8227 55.3 48.6066 51.7147 48.1666 45.952C48.1106 45.2187 47.4719 44.6667 46.7359 44.7241C46.0012 44.78 45.4519 45.4214 45.508 46.1561C45.9733 52.252 47.3013 56.1681 48.4733 59.6228C49.6506 63.0948 50.6666 66.0922 50.6666 70.6669C50.6666 71.4522 50.1186 72.0001 49.3333 72.0001H36C35.2641 72.0001 34.6667 72.5975 34.6667 73.3334C34.6667 74.0694 35.2641 74.6667 36 74.6667H52C52.7347 74.6667 53.3333 75.2653 53.3333 76V77.3333H26.6667V76C26.6667 75.2653 27.2653 74.6667 28 74.6667H30.6667C31.4027 74.6667 32 74.0694 32 73.3334C32 72.5975 31.4027 72.0001 30.6667 72.0001C30.0027 72.0001 29.3334 71.5881 29.3334 70.6669C29.3334 66.0922 30.3494 63.0936 31.5267 59.6228C32.9987 55.2814 34.6667 50.3614 34.6667 41.3334C34.6667 40.5975 34.0694 40.0001 33.3334 40.0001C32.5987 40.0001 32.0002 39.4016 32.0002 38.6669C32.0002 37.9322 32.5987 37.3336 33.3334 37.3336H41.3334C42.0694 37.3336 42.6667 36.7362 42.6667 36.0003C42.6667 35.2644 42.0694 34.667 41.3334 34.667H33.3334C31.1281 34.667 29.3334 36.4617 29.3334 38.667C29.3334 40.4017 30.4441 41.883 31.9908 42.435C31.8614 50.3309 30.3455 54.8017 29.0014 58.767C27.8014 62.307 26.6667 65.6523 26.6667 70.667C26.6667 71.195 26.7587 71.6923 26.928 72.1458C25.2412 72.6151 24 74.1658 24 76.0004V78.6672C24 79.4031 24.5973 80.0004 25.3333 80.0004H54.6666C55.4025 80.0004 55.9998 79.4031 55.9998 78.6672V76C56 74.16 54.7441 72.6214 53.048 72.1573Z" fill="#2E384D"/>
<path d="M77.048 72.1573C77.228 71.6973 77.3333 71.1973 77.3333 70.6667C77.3333 65.0188 75.9066 62.1641 74.5266 59.4041C73.6639 57.6773 72.848 56.0481 72.3866 53.7014C72.2439 52.9788 71.5466 52.5014 70.8199 52.6508C70.0984 52.7934 69.6278 53.4948 69.7705 54.2175C70.3011 56.9175 71.2358 58.7869 72.1399 60.5961C73.4399 63.1947 74.6666 65.6481 74.6666 70.6667C74.6666 71.452 74.1186 72 73.3333 72H59.5333C58.7974 72 58.2 72.5973 58.2 73.3333C58.2 74.0692 58.7974 74.6666 59.5333 74.6666H73.3333H76C76.7347 74.6666 77.3333 75.2652 77.3333 75.9998V77.3331H60C59.2641 77.3331 58.6667 77.9305 58.6667 78.6664C58.6667 79.4023 59.2641 80 60 80H78.6667C79.4027 80 80 79.4027 80 78.6667V76C80 74.16 78.7441 72.6214 77.048 72.1573Z" fill="#2E384D"/>
<path d="M24.9694 61.74C24.6174 60.9227 24.2388 60.1641 23.86 59.4041C22.9974 57.6788 22.1813 56.0481 21.72 53.7014C21.5774 52.9788 20.8759 52.5014 20.1547 52.6508C19.432 52.7934 18.9614 53.4948 19.1041 54.2161C19.6347 56.9175 20.5694 58.7881 21.4747 60.5975C21.832 61.3108 22.1894 62.0242 22.5188 62.7922C22.7347 63.2975 23.2267 63.6002 23.7441 63.6002C23.9188 63.6002 24.0974 63.5655 24.2694 63.4922C24.9453 63.2014 25.2586 62.4173 24.9694 61.74Z" fill="#2E384D"/>
<path d="M61.3333 49.3333C61.3333 48.5973 60.7359 48 60 48C59.2653 48 58.6667 47.4014 58.6667 46.6667C58.6667 45.932 59.2653 45.3334 60 45.3334H70.6667C71.4014 45.3334 72 45.932 72 46.6667C72 47.4014 71.4014 48 70.6667 48H65.332C64.5961 48 63.9987 48.5973 63.9987 49.3333C63.9987 50.0692 64.5961 50.6666 65.332 50.6666H70.6667C72.872 50.6666 74.6667 48.8719 74.6667 46.6666C74.6667 44.8159 73.3973 43.2706 71.6894 42.8159C73.5161 41.1106 74.6667 38.6906 74.6667 36C74.6667 30.8533 70.48 26.6667 65.3334 26.6667C60.1869 26.6667 56 30.8533 56 36C56 37.3467 56.288 38.6559 56.8573 39.8906C57.1653 40.56 57.9573 40.852 58.6253 40.5439C59.2947 40.2359 59.5867 39.4439 59.2786 38.7759C58.8719 37.8933 58.6665 36.9586 58.6665 36C58.6665 32.3241 61.6572 29.3333 65.3333 29.3333C69.0092 29.3333 72 32.3239 72 36C72 39.6759 69.0094 42.6667 65.3333 42.6667H60C57.7947 42.6667 56 44.4614 56 46.6667C56 48.3973 57.1053 49.8747 58.6453 50.4308C58.48 54.7294 57.3412 57.0108 56.14 59.4161C55.7614 60.1747 55.384 60.9334 55.0333 61.7494C54.7439 62.4253 55.0559 63.2094 55.7333 63.5C55.9053 63.5733 56.0826 63.608 56.2586 63.608C56.7759 63.608 57.268 63.3053 57.4839 62.8C57.8133 62.032 58.1692 61.32 58.5265 60.608C59.9067 57.8427 61.3333 54.9853 61.3333 49.3333Z" fill="#2E384D"/>
</g>
<defs>
<clipPath id="clip0_33_832">
<rect width="80" height="80" fill="white"/>
</clipPath>
</defs>
</svg>
