<svg width="25" height="42" viewBox="0 0 25 42" fill="none" xmlns="http://www.w3.org/2000/svg">
<g clip-path="url(#clip0_1575_2)">
<path d="M15.5784 13.015C15.5784 18.7586 16.7783 24.4839 18.942 29.3797H5.5918C7.80469 24.4372 9.0338 18.8284 9.0338 13.015H15.5784Z" fill="#44403D"/>
<path d="M19.5802 29.3578H4.95409C4.5873 29.3578 4.35593 29.7532 4.53629 30.0726L5.59173 31.3473H18.9419L19.9974 30.072C20.1777 29.7532 19.9464 29.3578 19.5802 29.3578Z" fill="#383533"/>
<path d="M22.7611 38.4548H1.77262C1.44773 38.4548 1.14349 38.5422 0.882363 38.6946C0.354646 39.0013 0 39.5728 0 40.2274H1.77262H3.54524H20.9879H22.7605H24.5337C24.5337 39.2485 23.74 38.4548 22.7611 38.4548Z" fill="#383533"/>
<path d="M15.7429 40.2274H0V42H15.7429H24.5337V40.2274H15.7429Z" fill="#44403D"/>
<path d="M22.4398 34.3059C21.9971 34.0442 21.569 33.7569 21.1591 33.4466C20.7498 33.1369 20.3587 32.8041 19.9871 32.4507C19.7964 32.2697 19.6118 32.0827 19.432 31.8908C19.3622 31.8161 18.9608 31.36 18.9608 31.36H12.3318H12.2669H12.2019H5.57352C5.57352 31.36 5.17212 31.8161 5.10228 31.8908C4.92253 32.0827 4.73731 32.2697 4.54724 32.4507C4.17559 32.8041 3.78451 33.1369 3.37521 33.4466C2.96469 33.7569 2.53717 34.0442 2.09447 34.3059C1.13256 34.8743 0 35.3887 0 36.6822C0 37.6611 0.793702 38.4548 1.77262 38.4548H12.2019H12.2669H12.3318H22.7611C23.74 38.4548 24.5337 37.6611 24.5337 36.6822C24.5337 35.3887 23.4011 34.8743 22.4398 34.3059Z" fill="#44403D"/>
<path d="M16.5676 12.1497C16.5676 11.7258 16.2706 11.3724 15.8734 11.2843V11.2625H8.85341C8.36334 11.2625 7.96619 11.6596 7.96619 12.1497C7.96619 12.6397 8.36334 13.0369 8.85341 13.0369C8.9196 13.0369 8.98397 13.029 9.04591 13.015H15.4872C15.5492 13.029 15.6135 13.0369 15.6797 13.0369C15.7459 13.0369 15.8103 13.029 15.8722 13.015C16.27 12.927 16.5676 12.5735 16.5676 12.1497Z" fill="#383533"/>
<path d="M17.5738 0.403834L16.5451 3.91385H14.8824L15.3275 0.637026C15.3743 0.299991 15.112 0 14.7719 0H12.174H9.57609C9.23602 0 8.97368 0.299991 9.01983 0.637026L9.46496 3.91385H7.80226L6.77354 0.403834C6.70371 0.16457 6.48448 0 6.23489 0H4.42523C4.05054 0 3.78152 0.360111 3.88658 0.719615L5.96648 7.81981C6.14198 8.41798 6.69035 8.8291 7.31341 8.8291H12.1734H17.0334C17.6564 8.8291 18.2054 8.41798 18.3803 7.81981L20.4602 0.719615C20.5665 0.360111 20.2968 0 19.9221 0H18.1125C17.8635 0 17.6437 0.16457 17.5738 0.403834Z" fill="#44403D"/>
<path d="M19.9221 0C19.9221 0 18.1222 8.11981 7.50102 8.80663C7.48766 8.81392 7.47491 8.8212 7.46216 8.82849H12.174H17.0339C17.657 8.82849 18.206 8.41737 18.3809 7.81921L20.4608 0.719008C20.5664 0.360111 20.2968 0 19.9221 0Z" fill="#383533"/>
<path d="M5.73812 0.420837H4.959C4.58431 0.420837 4.31468 0.780948 4.42035 1.14045L4.88369 2.723C4.86001 2.58697 4.84726 2.4473 4.84726 2.3052C4.84726 1.54611 5.19401 0.868395 5.73812 0.420837Z" fill="#565656"/>
<path d="M10.7912 0.420837H10.0121C9.63741 0.420837 9.36778 0.780948 9.47345 1.14045L9.67749 2.723C9.67749 2.723 9.68721 2.42726 9.70543 2.28576C9.82627 1.3536 10.2477 0.868395 10.7912 0.420837Z" fill="#565656"/>
<path d="M0.926736 36.6166C0.926736 36.0257 1.25405 35.5113 1.73683 35.2448C1.04394 35.2715 0.489502 35.8399 0.489502 36.5395C0.489502 37.1431 0.902445 37.6489 1.46113 37.7941C1.13442 37.5062 0.926736 37.086 0.926736 36.6166Z" fill="#565656"/>
<path d="M16.9854 8.82849H7.40814C6.72375 8.82849 6.16931 9.38293 6.16931 10.0673C6.16931 10.7481 6.71828 11.3001 7.39782 11.3055V11.3062H16.9399C17.0322 11.3062 17.122 11.2952 17.2089 11.2758C17.7633 11.1525 18.1781 10.6588 18.1781 10.0673C18.1787 9.47584 17.7997 8.82849 16.9854 8.82849Z" fill="#44403D"/>
<path d="M6.88465 10.1366C6.88465 9.71513 7.11784 9.34895 7.46216 9.15826C6.96785 9.17709 6.57312 9.58275 6.57312 10.0813C6.57312 10.5119 6.86765 10.8726 7.26602 10.9758C7.03222 10.7712 6.88465 10.4712 6.88465 10.1366Z" fill="#565656"/>
</g>
<defs>
<clipPath id="clip0_1575_2">
<rect width="24.5337" height="42" fill="white"/>
</clipPath>
</defs>
</svg>
