<svg width="56" height="56" viewBox="0 0 56 56" fill="none" xmlns="http://www.w3.org/2000/svg">
<path d="M21.1008 9.89486C21.037 9.89637 20.9716 9.89986 20.9116 9.91379C20.2688 10.0158 19.9427 10.6743 19.4733 11.2952C18.9426 18.5487 18.1929 25.1902 17.6613 32.4524C19.8858 32.2859 22.9429 32.32 26.0826 32.2774C29.4983 32.231 32.8269 31.9973 34.4565 31.4069C37.815 30.1901 40.4061 27.1092 42.5702 22.5315C35.9179 18.4813 28.7572 13.6676 22.6147 10.3822C22.0809 10.1596 21.5478 9.88537 21.1008 9.89486ZM18.2054 12.8612C14.2271 20.3832 10.7083 26.5387 6.6948 34.1935C6.61688 36.2502 7.02266 37.4339 7.54165 38.1865C8.06185 38.9408 8.53327 39.1359 9.23063 39.0901C10.2364 38.7566 11.5004 37.8609 12.8073 36.7293C13.3028 36.2878 16.4765 33.5344 16.7483 32.9256C17.2463 26.1195 17.7038 19.7068 18.2054 12.8612ZM29.5646 13.2208C34.4069 16.2252 39.0363 19.2468 43.2515 21.7414C44.5114 22.487 46.9003 23.3712 48.7064 23.9082C46.9874 22.1674 45.0254 20.6712 42.8399 19.5935L29.5646 13.2208ZM26.48 16.0263C26.9689 16.0136 27.4537 16.151 27.9324 16.4332C28.8916 16.9907 29.7822 18.1111 30.6055 19.7969C31.3742 21.3712 31.6639 22.8282 31.476 24.1684C31.2897 25.5017 30.6505 26.505 29.5599 27.1773C29.267 27.3579 28.9564 27.5084 28.6232 27.6268L27.5397 27.9012L26.9389 26.6711C27.3102 26.6511 27.6661 26.5919 28.0081 26.4913C28.3501 26.3908 28.6653 26.2485 28.9543 26.0703C29.7251 25.5951 30.1662 24.9351 30.279 24.088C30.3935 23.2341 30.184 22.1805 29.6451 20.9229C29.6088 21.4443 29.4668 21.9114 29.224 22.328C28.9812 22.7446 28.6514 23.0791 28.2352 23.3357C27.3719 23.8679 26.5408 23.9909 25.742 23.7C24.9448 23.4024 24.2904 22.728 23.7786 21.6799C23.2777 20.6541 23.1361 19.6708 23.3575 18.7277C23.5789 17.7847 24.1282 17.0458 24.9992 16.5089C25.4983 16.2012 25.9911 16.039 26.48 16.0263ZM26.3712 17.2989C26.0889 17.3094 25.8062 17.4014 25.5196 17.5781C24.9955 17.9012 24.6817 18.3692 24.5781 18.9785C24.4762 19.5809 24.6012 20.238 24.9519 20.956C25.3047 21.6785 25.7365 22.153 26.2434 22.3801L27.7952 22.2334C28.3193 21.9103 28.63 21.4497 28.732 20.8472C28.8377 20.2424 28.7158 19.578 28.3629 18.8554C28.0123 18.1374 27.5822 17.6656 27.0714 17.4409C26.8804 17.3541 26.6872 17.3077 26.4942 17.2989C26.454 17.2971 26.4115 17.2974 26.3712 17.2989ZM16.0339 21.0885C16.1346 21.0829 16.2167 21.1122 16.2799 21.1737C16.4832 21.3658 16.4697 21.8696 16.2326 22.6876C16.0674 23.2574 15.8328 23.8158 15.5371 24.3624C15.2427 24.9044 14.9076 25.3933 14.5294 25.8243C14.858 25.6575 15.0636 25.7122 15.1397 25.9899C15.2184 26.2653 15.1612 26.7333 14.9694 27.395C14.675 28.4106 14.2504 29.3582 13.7015 30.2383C13.1525 31.1185 12.5234 31.8554 11.809 32.4524C11.5692 32.6529 11.3339 32.8185 11.1041 32.9445C10.8755 33.0729 10.6487 33.1629 10.4276 33.2189L10.8203 31.8753C10.9693 31.9213 11.152 31.8979 11.3738 31.7996C11.5956 31.7012 11.8479 31.5352 12.126 31.3028C12.6108 30.8977 13.0273 30.4156 13.3798 29.8598C13.7348 29.302 14.0077 28.6955 14.1982 28.0384C14.374 27.4318 14.3937 27.0589 14.255 26.9171C14.1202 26.7687 13.8433 26.8681 13.4223 27.2199L12.7553 27.7782L13.0864 26.6333L13.7819 26.0513C14.162 25.7336 14.4953 25.3555 14.7754 24.9159C15.0569 24.4717 15.2696 23.9924 15.4188 23.4777C15.572 22.9492 15.5846 22.6322 15.4567 22.5267C15.3326 22.4146 15.078 22.5196 14.6903 22.8437C14.4785 23.0207 14.2375 23.2492 13.9711 23.5344C13.7048 23.8198 13.4042 24.1718 13.0628 24.5895L13.4223 23.3499C13.7584 22.9577 14.0637 22.6195 14.3402 22.3328C14.6191 22.0438 14.8701 21.8034 15.0971 21.6136C15.5005 21.2765 15.8123 21.1009 16.0339 21.0885H16.0339ZM43.63 23.0661C41.4907 27.5878 38.7654 31.0298 35.275 32.4619L35.8049 49.6876C36.7172 49.1782 36.8896 48.8732 37.2904 47.9087L49.1937 26.0655C49.3597 25.6401 49.375 25.3647 49.1133 25.1856C47.1504 24.6363 45.4641 23.9656 43.63 23.0661ZM34.6458 26.0797L35.0621 26.9266L28.1595 30.3188L27.7384 29.4719L34.6458 26.0797ZM44.7702 29.259L44.2971 30.4985C43.7714 31.201 43.0593 32.1466 42.1634 33.3324C41.2629 34.5242 40.6889 35.2853 40.446 35.6222C39.9865 36.2567 39.6362 36.7778 39.3957 37.1835C39.1507 37.5951 38.96 37.9781 38.8233 38.3331C38.6004 38.9118 38.5296 39.3409 38.6104 39.6152C38.6885 39.8906 38.9056 39.9535 39.2585 39.8092C39.5087 39.7069 39.8023 39.5208 40.1432 39.2462C40.4816 38.9727 40.875 38.6084 41.3165 38.1534L40.7393 39.6389C40.3263 40.0085 39.9583 40.3116 39.6323 40.5472C39.3063 40.7829 39.0266 40.9493 38.7949 41.044C38.1839 41.2937 37.8056 41.2088 37.6594 40.7933C37.5132 40.3777 37.6226 39.6977 37.9859 38.7542C38.1582 38.3068 38.3675 37.8661 38.6151 37.4248C38.8582 36.9894 39.2066 36.4494 39.6559 35.8068C39.7761 35.6388 40.1403 35.1462 40.7535 34.3259L43.3367 30.8912L40.5501 32.0267L41.0279 30.7871L44.7702 29.259ZM34.3335 32.8025C32.408 33.3801 29.3128 33.5016 26.092 33.5453C23.3587 33.5712 19.6165 33.3561 17.4106 33.7535C16.1225 34.9946 14.7358 36.3216 13.3798 37.4957C12.1723 38.507 10.9358 39.5574 9.41041 40.041C9.2228 40.0562 9.19232 40.035 9.00354 40.0126C9.569 40.5217 10.1636 40.8301 10.8061 41.1954L32.5215 49.891C32.6356 49.9132 33.8385 50.3589 34.8208 49.8958L34.3335 32.8025ZM23.9016 37.6046C23.9986 37.6013 24.0947 37.6016 24.1902 37.6046C24.2992 37.6079 24.4049 37.617 24.5119 37.6282C25.3681 37.7183 26.0491 38.0437 26.5557 38.6075C26.918 39.0107 27.0668 39.4208 26.9957 39.8376C26.929 40.2526 26.6526 40.631 26.1725 40.9731C26.9146 40.8071 27.6061 40.8079 28.2447 40.9683C28.8876 41.1268 29.4106 41.431 29.8154 41.8814C30.4295 42.5649 30.6054 43.2118 30.3453 43.8259C30.0895 44.4381 29.4179 44.9772 28.3251 45.4392C27.2323 45.901 26.2282 46.0715 25.3114 45.9548C24.3991 45.8363 23.6358 45.4366 23.0216 44.7531C22.6169 44.3027 22.4564 43.8463 22.539 43.3811C22.6216 42.916 22.9355 42.4933 23.4852 42.1132V42.1085C22.8195 42.2508 22.2008 42.2523 21.6259 42.1085C21.0555 41.9628 20.5878 41.6885 20.2256 41.2853C19.719 40.7215 19.5985 40.1567 19.866 39.5916C20.138 39.0247 20.7668 38.5354 21.749 38.1202C22.5043 37.801 23.2224 37.6272 23.9016 37.6046ZM23.665 38.5886C23.272 38.5959 22.8569 38.6949 22.4255 38.8772C21.8459 39.1222 21.4906 39.4112 21.3516 39.7524C21.217 40.0918 21.3118 40.4468 21.6401 40.8122C21.9684 41.1775 22.3819 41.395 22.8844 41.4651C23.3913 41.5333 23.937 41.4451 24.5166 41.2001C25.0918 40.957 25.4468 40.6661 25.5858 40.3249C25.7293 39.9818 25.6397 39.6258 25.3114 39.2604C24.9831 38.8951 24.5596 38.6786 24.0482 38.6123C23.9215 38.5952 23.796 38.5862 23.665 38.5886ZM26.5841 41.6448C26.1371 41.6448 25.6743 41.749 25.1932 41.9524C24.5561 42.2217 24.1597 42.5529 24.0104 42.9506C23.8655 43.3465 23.9831 43.7555 24.3652 44.1807C24.7473 44.6059 25.2322 44.8674 25.8129 44.9566C26.3981 45.0439 27.0067 44.9514 27.6438 44.6822C28.2809 44.4129 28.6773 44.0769 28.8266 43.6792C28.973 43.2783 28.8557 42.8665 28.4765 42.4444C28.0944 42.0192 27.6092 41.7653 27.0241 41.678C26.8789 41.6557 26.7331 41.6446 26.5841 41.6448Z" fill="black"/>
</svg>
