<svg width="48" height="48" viewBox="0 0 48 48" fill="none" xmlns="http://www.w3.org/2000/svg">
<path d="M44 48V46.6667C44 44.5449 43.1571 42.5101 41.6569 41.0098C40.1566 39.5095 38.1217 38.6667 36 38.6667H12C9.87827 38.6667 7.84344 39.5095 6.34315 41.0098C4.84285 42.5101 4 44.5449 4 46.6667V48H44Z" fill="#66757F"/>
<path d="M16 36.6427C18.2293 38.7427 20.9947 40 24 40C27.0053 40 29.7693 38.7413 32 36.6427V34.6667H16V36.6427Z" fill="#EF9645"/>
<path d="M35.6667 27.2467C37.2507 27.524 39.1587 27.4187 38.888 28.4693C38.2493 30.9413 35.416 30.0253 34.916 30.0533C34.416 30.08 35.6667 27.2467 35.6667 27.2467Z" fill="#66757F"/>
<path d="M36.0827 27.5267C38.5827 27.86 39.4707 28.0813 37.6373 28.804C36.608 29.2107 34.6467 35.208 33.196 34.2947C31.7467 33.3813 36.0827 27.5267 36.0827 27.5267Z" fill="#292F33"/>
<path d="M12.34 27.2467C10.756 27.524 8.84801 27.4187 9.11867 28.4693C9.75734 30.9413 12.5907 30.0253 13.0907 30.0533C13.5907 30.08 12.34 27.2467 12.34 27.2467Z" fill="#66757F"/>
<path d="M11.924 27.5267C9.42399 27.86 8.53599 28.0813 10.3693 28.804C11.3987 29.2107 13.36 35.208 14.8107 34.2947C16.2613 33.3813 11.924 27.5267 11.924 27.5267Z" fill="#292F33"/>
<path d="M10.74 14.708C8.136 14.708 7.66667 18.9267 9.85467 19.5C9.85467 19.5 8.032 23.9267 12.4587 23.9267C11.7293 21.6867 10.376 18.0413 11.4173 15.3853L10.74 14.708ZM37.2573 14.708C39.8613 14.708 40.3307 18.9267 38.1427 19.5C38.1427 19.5 39.9653 23.9267 35.5387 23.9267C36.268 21.6867 37.6213 18.0413 36.58 15.3853" fill="#FFAC33"/>
<path d="M24 37.3333C31.3638 37.3333 37.3333 29.8714 37.3333 20.6667C37.3333 11.4619 31.3638 4 24 4C16.6362 4 10.6667 11.4619 10.6667 20.6667C10.6667 29.8714 16.6362 37.3333 24 37.3333Z" fill="#FFDC5D"/>
<path d="M18.6667 22.6667C18.313 22.6667 17.9739 22.5262 17.7239 22.2761C17.4738 22.0261 17.3333 21.687 17.3333 21.3333V20C17.3333 19.6464 17.4738 19.3072 17.7239 19.0572C17.9739 18.8071 18.313 18.6667 18.6667 18.6667C19.0203 18.6667 19.3594 18.8071 19.6095 19.0572C19.8595 19.3072 20 19.6464 20 20V21.3333C20 21.687 19.8595 22.0261 19.6095 22.2761C19.3594 22.5262 19.0203 22.6667 18.6667 22.6667ZM29.3333 22.6667C28.9797 22.6667 28.6406 22.5262 28.3905 22.2761C28.1405 22.0261 28 21.687 28 21.3333V20C28 19.6464 28.1405 19.3072 28.3905 19.0572C28.6406 18.8071 28.9797 18.6667 29.3333 18.6667C29.687 18.6667 30.0261 18.8071 30.2761 19.0572C30.5262 19.3072 30.6667 19.6464 30.6667 20V21.3333C30.6667 21.687 30.5262 22.0261 30.2761 22.2761C30.0261 22.5262 29.687 22.6667 29.3333 22.6667Z" fill="#662113"/>
<path d="M25.3333 27.3333C25.3333 27.5101 25.2631 27.6797 25.1381 27.8047C25.0131 27.9298 24.8435 28 24.6667 28H23.3333C23.1565 28 22.987 27.9298 22.8619 27.8047C22.7369 27.6797 22.6667 27.5101 22.6667 27.3333C22.6667 27.1565 22.7369 26.987 22.8619 26.8619C22.987 26.7369 23.1565 26.6667 23.3333 26.6667H24.6667C24.8435 26.6667 25.0131 26.7369 25.1381 26.8619C25.2631 26.987 25.3333 27.1565 25.3333 27.3333Z" fill="#C1694F"/>
<path fill-rule="evenodd" clip-rule="evenodd" d="M10.2093 19.7173C10.4067 19.9133 11.3933 20.5053 11.5907 21.096C11.788 21.6867 12.184 25.0347 13.368 26.02C14.5893 27.036 19.1947 26.6573 20.0773 26.2187C22.0507 25.2347 22.2933 22.488 22.6427 21.096C22.84 20.308 24.024 20.308 24.024 20.308C24.024 20.308 25.208 20.308 25.4053 21.096C25.7547 22.488 25.9973 25.2347 27.9707 26.2173C28.8533 26.6573 33.4587 27.036 34.6827 26.0213C35.8653 25.036 36.26 21.688 36.4573 21.096C36.652 20.5053 37.6413 19.9147 37.8373 19.7173C38.0347 19.52 38.0347 18.732 37.8373 18.5347C37.4427 18.1413 32.7867 17.7893 27.7733 18.3373C26.7733 18.4467 26.3933 18.7307 24.024 18.7307C21.656 18.7307 21.2747 18.4453 20.2747 18.3373C15.2627 17.7893 10.6053 18.14 10.2107 18.5347C10.012 18.732 10.012 19.5213 10.2093 19.7173Z" fill="#292F33"/>
<path d="M10.4773 11.1933C10.4773 11.1933 12.2893 -0.674668 18.3867 0.0306655C23.0693 0.571999 24.9067 1.13067 28.8307 0.159999C31.4267 -0.482668 34.2507 1.67467 35.9533 5.99867C36.6335 7.75056 37.1791 9.55179 37.5853 11.3867C37.5853 11.3867 42.836 10.8733 43.1387 13.696C43.4427 16.5187 37.3333 19.984 21.9533 19.984C13.3333 19.9827 4.43999 16.84 4.01733 14.2093C3.59466 11.5787 10.4773 11.1933 10.4773 11.1933Z" fill="#66757F"/>
<path d="M10.8333 9.53334C10.8333 9.53334 10.4733 11.0053 10.292 12.028C10.1107 13.052 10.5933 13.756 13.8987 14.46C18.2813 15.3933 28.1373 15.3827 33.976 13.9493C36.3213 13.3733 37.824 12.9893 37.644 11.8387C37.4213 10.4147 37.3827 10.4173 36.9227 8.89467C36.9227 8.89467 34.9533 9.564 32.3533 10.1747C28.8067 11.0067 19.068 11.3893 14.3787 10.3667C11.88 9.82 10.8333 9.53334 10.8333 9.53334ZM10.652 28.1373C10.18 28.3307 14.5467 29.9747 20.6253 30.0813C26.9867 30.1933 28.9373 30.6013 27.4867 32.0267C25.9587 33.5267 26.3507 35.8853 26.4587 36.584C26.5667 37.2827 29.188 39.1387 29.4027 39.9973C29.6173 40.8573 27.764 47.9453 27.764 47.9453L16.1253 47.6093C12.7053 35.8173 12.2813 36.2747 10.652 29.4707C10.3307 28.1267 10.652 28.1373 10.652 28.1373Z" fill="#292F33"/>
<path d="M9.31867 28.192C8.84667 28.3867 13.2133 30.0293 19.292 30.136C25.6533 30.248 27.604 30.656 26.1533 32.0813C24.6253 33.5813 25.268 35.94 25.376 36.6387C25.484 37.3373 27.8547 39.1933 28.0707 40.0533C28.284 40.912 26.4293 48 26.4293 48L14.7907 47.664C11.3707 35.872 10.9467 36.3293 9.31734 29.5253C8.99734 28.1813 9.31867 28.192 9.31867 28.192Z" fill="#66757F"/>
<path d="M37.4027 28.1373C37.8747 28.3307 33.508 29.9747 27.4307 30.0813C21.0693 30.1933 19.1187 30.6013 20.5693 32.0267C22.0973 33.5267 24.5373 35.8827 24.4307 36.5813C24.3227 37.28 18.868 39.1387 18.6533 39.9973C18.4387 40.8573 20.292 47.9453 20.292 47.9453L31.9307 47.6093C35.3507 35.8173 35.7747 36.2747 37.4027 29.4707C37.724 28.1267 37.4027 28.1373 37.4027 28.1373Z" fill="#292F33"/>
<path d="M38.6107 28.1373C39.0827 28.3307 34.716 29.9747 28.6387 30.0813C22.2773 30.1933 20.3267 30.6013 21.7773 32.0267C23.3053 33.5267 25.7467 35.8827 25.6387 36.5813C25.5307 37.28 20.076 39.1387 19.8613 39.9973C19.6467 40.8573 21.5 47.9453 21.5 47.9453L33.0427 47.9587C36.4627 36.1667 36.9827 36.2747 38.612 29.4707C38.932 28.1267 38.6107 28.1373 38.6107 28.1373Z" fill="#66757F"/>
</svg>
