<svg width="80" height="80" viewBox="0 0 80 80" fill="none" xmlns="http://www.w3.org/2000/svg">
<g clip-path="url(#clip0_33_932)">
<path d="M13.3341 34.6667C10.3927 34.6667 8.00078 37.06 8.00078 40C8.00078 42.9414 10.3928 45.3333 13.3341 45.3333C16.2755 45.3333 18.6673 42.9413 18.6673 40C18.6673 37.06 16.2753 34.6667 13.3341 34.6667ZM13.3341 42.6667C11.8634 42.6667 10.6673 41.472 10.6673 40C10.6673 38.5294 11.8633 37.3333 13.3341 37.3333C14.8034 37.3333 16.0008 38.5292 16.0008 40C16.0008 41.472 14.8034 42.6667 13.3341 42.6667Z" fill="#2E384D"/>
<path d="M54.0753 56.0359C51.842 56.0359 49.8273 57.4453 49.062 59.5466C48.0567 62.3092 49.4861 65.3745 52.2487 66.3812C52.8381 66.5945 53.4514 66.7039 54.0741 66.7039C56.3073 66.7039 58.322 65.2933 59.0847 63.1933C60.09 60.4306 58.6606 57.3639 55.898 56.3586C55.3087 56.1441 54.6953 56.0359 54.0753 56.0359ZM56.5794 62.2814C56.0914 63.6241 54.522 64.3681 53.1606 63.8761C51.7792 63.372 51.0647 61.8387 51.5673 60.4587C51.95 59.4081 52.958 58.7028 54.0753 58.7028C54.3847 58.7028 54.69 58.7575 54.9859 58.8642C56.3673 59.3667 57.082 60.9 56.5794 62.2814Z" fill="#2E384D"/>
<path d="M61.37 46.6573C63.6047 46.6573 65.6194 45.2467 66.382 43.1467C67.3873 40.3841 65.958 37.3173 63.1941 36.3108C62.6061 36.0975 61.9927 35.9894 61.3714 35.9894C59.1367 35.9894 57.122 37.4 56.3581 39.5C55.3528 42.2627 56.7834 45.3294 59.5461 46.3347C60.1341 46.548 60.7473 46.6573 61.37 46.6573ZM58.8634 40.4106C59.2461 39.3613 60.2541 38.6559 61.3714 38.6559C61.682 38.6559 61.9873 38.7106 62.2834 38.8173C63.6648 39.32 64.3794 40.8533 63.8767 42.2347C63.3887 43.5773 61.8194 44.3253 60.4581 43.828C59.0767 43.3253 58.3608 41.7933 58.8634 40.4106Z" fill="#2E384D"/>
<path d="M53.3341 46.6667V6.66672C53.3341 2.99203 50.3434 0 46.6673 0H6.66734C2.9914 0 0.000778198 2.99203 0.000778198 6.66672V46.6667C0.000778198 50.3427 2.9914 53.3334 6.6675 53.3334H46.6675C50.3434 53.3333 53.3341 50.3427 53.3341 46.6667ZM2.66734 46.6667V6.66672C2.66734 4.46141 4.46203 2.66672 6.66734 2.66672H46.6673C48.8726 2.66672 50.6673 4.46141 50.6673 6.66672V46.6667C50.6673 48.8734 48.8726 50.6667 46.6673 50.6667H6.66734C4.46203 50.6667 2.66734 48.8733 2.66734 46.6667Z" fill="#2E384D"/>
<path d="M13.3341 8C10.3927 8 8.00078 10.3933 8.00078 13.3333C8.00078 16.2747 10.3928 18.6666 13.3341 18.6666C16.2755 18.6666 18.6673 16.2745 18.6673 13.3333C18.6673 10.3933 16.2753 8 13.3341 8ZM13.3341 16C11.8634 16 10.6673 14.8053 10.6673 13.3333C10.6673 11.8627 11.8633 10.6666 13.3341 10.6666C14.8034 10.6666 16.0008 11.8625 16.0008 13.3333C16.0008 14.8053 14.8034 16 13.3341 16Z" fill="#2E384D"/>
<path d="M75.6127 29.48L56.4367 22.5C55.7461 22.2506 54.9794 22.6053 54.7287 23.2973C54.4755 23.9894 54.8328 24.7547 55.5247 25.0067L74.7006 31.9853C76.7727 32.74 77.8459 35.04 77.0913 37.112L63.41 74.7C62.6567 76.7733 60.3553 77.8453 58.2833 77.092L20.6953 63.4106C18.6247 62.6559 17.5512 60.3559 18.3047 58.2827L18.9287 56.568C19.182 55.8759 18.8234 55.1106 18.1328 54.86C17.4355 54.6094 16.6755 54.9653 16.4234 55.6573L15.7994 57.3706C14.542 60.8253 16.33 64.6586 19.7847 65.9159L57.3714 79.5974C58.122 79.8694 58.8887 80 59.6434 80C62.3675 79.9988 64.9314 78.3159 65.9155 75.612L79.5969 38.0241C80.8541 34.5694 79.0673 30.7373 75.6127 29.48Z" fill="#2E384D"/>
<path d="M36.3487 55.3573C35.7101 56.5147 34.3555 57.0294 33.1141 56.58C32.3594 56.3053 31.9326 55.7627 31.7073 55.3547C31.3514 54.7106 30.5394 54.4788 29.8953 54.8333C29.25 55.1906 29.018 56.0012 29.3739 56.6466C30.0045 57.7839 31.0086 58.6506 32.2019 59.0851C32.8059 59.3051 33.4233 59.4105 34.0325 59.4105C35.9219 59.4105 37.7166 58.3958 38.6845 56.6437C39.0392 55.9997 38.8045 55.1891 38.1605 54.8331C37.5141 54.4773 36.7034 54.712 36.3487 55.3573Z" fill="#2E384D"/>
<path d="M26.6673 21.3333C23.7259 21.3333 21.3341 23.7266 21.3341 26.6666C21.3341 29.608 23.7261 31.9998 26.6673 31.9998C29.6086 31.9998 32.0006 29.6078 32.0006 26.6666C32.0008 23.7267 29.6087 21.3333 26.6673 21.3333ZM26.6673 29.3333C25.1967 29.3333 24.0006 28.1386 24.0006 26.6666C24.0006 25.1959 25.1966 23.9998 26.6673 23.9998C28.1367 23.9998 29.3341 25.1958 29.3341 26.6666C29.3341 28.1386 28.1367 29.3333 26.6673 29.3333Z" fill="#2E384D"/>
<path d="M40.0008 34.6667C37.0594 34.6667 34.6675 37.06 34.6675 40C34.6675 42.9414 37.0595 45.3333 40.0008 45.3333C42.942 45.3333 45.3341 42.9413 45.3341 40C45.3341 37.06 42.942 34.6667 40.0008 34.6667ZM40.0008 42.6667C38.5302 42.6667 37.3341 41.472 37.3341 40C37.3341 38.5294 38.53 37.3333 40.0008 37.3333C41.4702 37.3333 42.6675 38.5292 42.6675 40C42.6673 41.472 41.47 42.6667 40.0008 42.6667Z" fill="#2E384D"/>
<path d="M40.0008 8C37.0594 8 34.6675 10.3933 34.6675 13.3333C34.6675 16.2747 37.0595 18.6666 40.0008 18.6666C42.942 18.6666 45.3341 16.2745 45.3341 13.3333C45.3341 10.3933 42.942 8 40.0008 8ZM40.0008 16C38.5302 16 37.3341 14.8053 37.3341 13.3333C37.3341 11.8627 38.53 10.6666 40.0008 10.6666C41.4702 10.6666 42.6675 11.8625 42.6675 13.3333C42.6673 14.8053 41.47 16 40.0008 16Z" fill="#2E384D"/>
</g>
<defs>
<clipPath id="clip0_33_932">
<rect width="80" height="80" fill="white"/>
</clipPath>
</defs>
</svg>
