<svg width="52" height="52" viewBox="0 0 52 52" fill="none" xmlns="http://www.w3.org/2000/svg">
<path d="M39 49.2142L47.1082 45.9857L39 24.1428V49.2142Z" fill="#E5CFAE"/>
<path d="M13 2.78575L4.89175 6.01432L13 27.8572V2.78575Z" fill="#E5CFAE"/>
<path d="M13 52H39V0H13V52Z" fill="#FDECCD"/>
<path d="M39 26.9286V25.0714H13V26.9286H39Z" fill="black"/>
<path d="M34.3572 19.524C34.3572 18.4849 33.5633 17.6427 32.5242 17.6427C31.4851 17.6427 30.6429 18.4608 30.6429 19.4999C30.6429 20.539 31.4852 21.3571 32.5242 21.3571C33.5632 21.3571 34.3572 20.5631 34.3572 19.524Z" fill="black"/>
<path d="M27.8572 13.024C27.8572 11.9849 27.0633 11.1427 26.0242 11.1427C24.9851 11.1427 24.1429 11.9608 24.1429 12.9999C24.1429 14.039 24.9852 14.8571 26.0242 14.8571C27.0632 14.8571 27.8572 14.0631 27.8572 13.024Z" fill="black"/>
<path d="M21.3572 6.52397C21.3572 5.48489 20.5633 4.64273 19.5242 4.64273C18.4851 4.64273 17.6429 5.46082 17.6429 6.4999C17.6429 7.53899 18.4852 8.35707 19.5242 8.35707C20.5633 8.35697 21.3572 7.56306 21.3572 6.52397Z" fill="black"/>
<path d="M21.3572 32.524C21.3572 31.4849 20.5633 30.6427 19.5242 30.6427C18.4851 30.6427 17.6429 31.4608 17.6429 32.4999C17.6429 33.539 18.4852 34.3571 19.5242 34.3571C20.5633 34.357 21.3572 33.563 21.3572 32.524Z" fill="black"/>
<path d="M21.3572 45.524C21.3572 44.4849 20.5633 43.6427 19.5242 43.6427C18.4851 43.6427 17.6429 44.4608 17.6429 45.4999C17.6429 46.539 18.4852 47.3571 19.5242 47.3571C20.5633 47.357 21.3572 46.563 21.3572 45.524Z" fill="black"/>
<path d="M34.3572 32.524C34.3572 31.4849 33.5633 30.6427 32.5242 30.6427C31.4851 30.6427 30.6429 31.4608 30.6429 32.4999C30.6429 33.539 31.4852 34.3571 32.5242 34.3571C33.5632 34.3571 34.3572 33.563 34.3572 32.524Z" fill="black"/>
<path d="M27.8572 39.024C27.8572 37.9849 27.0633 37.1427 26.0242 37.1427C24.9851 37.1427 24.1429 37.9608 24.1429 38.9999C24.1429 40.039 24.9852 40.8571 26.0242 40.8571C27.0632 40.8571 27.8572 40.063 27.8572 39.024Z" fill="black"/>
<path d="M34.3572 45.524C34.3572 44.4849 33.5633 43.6427 32.5242 43.6427C31.4851 43.6427 30.6429 44.4608 30.6429 45.4999C30.6429 46.539 31.4852 47.3571 32.5242 47.3571C33.5632 47.3571 34.3572 46.563 34.3572 45.524Z" fill="black"/>
</svg>
