<svg width="246" height="246" viewBox="0 0 246 246" fill="none" xmlns="http://www.w3.org/2000/svg">
<g clip-path="url(#clip0_402_3553)">
<path d="M246 116C246 123 246 130 246 137C238.01 138.67 230.02 140.35 222.03 142.02C216.67 145.67 211.32 149.32 205.96 152.97C199.97 154.65 193.99 156.32 188 158C182.19 157.95 176.24 158.66 170.58 157.7C155.66 155.16 140.95 155.87 126.38 158.66C124.38 155.73 122.4 152.84 120.08 149.45C121.66 148.75 123.39 148.05 125.06 147.24C139.27 140.36 153.48 133.5 167.63 126.53C169.02 125.85 170.05 124.44 171.25 123.37C179.3 132.04 189.24 132.27 196.73 123.96C201.43 118.57 201.11 112.59 198.76 106.39C201.91 105.39 205 103.98 208.23 103.47C220.8 101.49 233.41 99.8 246 98C246 102 246 106 246 110C233.65 111.57 220.96 111.25 209.81 116C221.55 116 233.78 116 246 116Z" fill="#192D3E"/>
<path d="M246 145C246 157.67 246 170.33 246 183C240.34 182.99 234.69 182.98 229.03 182.97C229.03 181.71 229.03 180.44 229.03 179.18C228.47 179.26 227.91 179.33 227.36 179.41C227.57 180.61 227.78 181.81 227.99 183.02C207.31 183.03 186.64 183.03 165.96 183.04C162.68 180.86 159.19 179.8 155.16 180.36C151.16 180.92 147.12 181.1 143.09 181.45C143.05 180.85 143.02 180.25 142.98 179.65C142.74 179.66 142.5 179.67 142.27 179.69C142.18 180.8 142.09 181.91 142 183.02H142.01C137.91 183.14 133.8 183.26 129.7 183.38L129.74 183.25C129.46 182.84 129.19 182.43 128.91 182.03C127.43 180.06 125.94 178.09 124.46 176.12C125.74 176.24 127.02 176.36 128.63 176.51C128.77 171.43 132 169.51 136.25 168.77C139.99 168.12 143.74 167.32 147.52 167.07C159.91 166.26 172.33 165.78 184.72 164.96C191.15 164.53 197.63 164.05 203.94 162.85C208.73 161.94 213.28 159.85 215.82 154.48C214.2 154.28 213.08 154.14 211.96 154.01C211.96 153.68 211.97 153.35 211.99 153.02C213.69 152.4 215.35 151.58 217.11 151.19C226.74 149.06 236.37 147.05 246 145ZM226.95 172.52C226.79 172.73 226.61 172.92 226.5 173.15C226.47 173.21 226.71 173.49 226.75 173.47C227 173.38 227.22 173.23 227.45 173.11C227.29 172.91 227.12 172.72 226.95 172.52Z" fill="#192D3E"/>
<path d="M70 0C82 0 94 0 106 0C106.01 2.14 105.76 4.33 106.13 6.41C106.35 7.63 107.42 9.54 108.32 9.68C115.67 10.76 120.59 14.34 121.76 21.55C121.05 23.66 120.41 25.55 119.78 27.43C118.54 27.38 117.3 27.32 116.06 27.27C115.41 27.31 114.76 27.34 114.11 27.38C114.4 33.16 114.85 38.94 114.91 44.73C114.96 49.03 112.63 51.56 108.17 51.77C103.41 52 100.45 49.64 100.2 44.82C99.92 39.23 100.13 33.61 100.13 27.83C98.55 27.66 96.59 27.44 94.64 27.23C91.36 26.49 88.02 25.94 84.84 24.92C83.11 24.36 81.51 23.14 80.09 21.94C78.98 21.01 77.75 18.53 77.41 18.67C75.47 19.52 73.44 20.66 72.11 22.26C71.18 23.37 71.33 25.37 70.99 26.97C70.34 27.03 69.68 27.09 69.03 27.16C66.65 27.22 64.28 27.28 61.9 27.34C61.29 30.76 63.33 31.61 66.14 31.69C68.44 31.75 70.76 31.6 73.02 31.91C73.7 32 74.21 33.33 74.79 34.09C74.11 34.51 73.34 35.4 72.78 35.28C68.99 34.46 66.96 36.67 65.15 39.38C61.4 38.93 57.66 38.48 53.91 38.02C52.8 28.63 55.56 20.59 61.59 13.28C64.9 9.27 67.23 4.45 70 0Z" fill="#1C2F3F"/>
<path d="M119.78 27.42C120.41 25.54 121.05 23.65 121.76 21.54C120.59 14.33 115.67 10.75 108.32 9.67C107.42 9.54 106.34 7.63 106.13 6.4C105.76 4.33 106.01 2.14 106 0C137 0 168 0 199 0C197.78 2.62 196.56 5.25 195.34 7.87C194.15 7.43 192.66 6.3 191.82 6.67C183.15 10.43 173.83 11.84 165.98 18.73C160.6 23.45 154.35 27.36 149.73 33.13C146.84 27.52 141.83 26.49 136.22 27.09C130.92 27.66 127.88 30.83 126.84 36C125.17 35.16 123.5 34.33 121.84 33.48C120.9 33 119.97 32.5 119.03 32.01C119.28 30.47 119.53 28.95 119.78 27.42Z" fill="#162635"/>
<path d="M76 246C74 246 72 246 70 246C69.35 245.61 68.7 245.22 68.05 244.83C67.45 244.07 66.92 243.24 66.24 242.56C56.79 233.15 47.08 223.99 37.92 214.3C29.37 205.26 23.68 194.37 19.64 182.61C18.05 177.98 16.15 173.45 14.39 168.88C15.76 164.22 17.13 159.55 18.5 154.89C18.9 153.91 19.29 152.94 19.69 151.96C20.32 152.95 21.19 153.86 21.54 154.94C22.52 157.93 23.29 161 24.14 164.03C24.13 164.36 24.01 164.73 24.12 165.02C31.92 184.55 43.82 201.29 58.83 215.91C59.24 216.27 59.65 216.62 60.06 216.98L60.02 216.94C60.37 217.29 60.71 217.63 61.06 217.98L61.02 217.94C61.37 218.29 61.71 218.63 62.06 218.97V218.84C66.67 223.87 71.21 228.97 75.92 233.9C79.5 237.65 83.32 241.17 87.03 244.8C83.35 245.2 79.68 245.6 76 246ZM18.84 167.15C18.42 167.27 17.99 167.38 17.57 167.5C18.51 171.07 19.45 174.64 20.39 178.21C20.91 178.07 21.43 177.93 21.95 177.79C20.91 174.24 19.88 170.7 18.84 167.15ZM24.04 182.61C23.68 182.79 23.32 182.96 22.96 183.14C23.52 184.3 24.07 185.46 24.63 186.62C25.01 186.43 25.39 186.25 25.77 186.06C25.19 184.91 24.61 183.76 24.04 182.61ZM27.13 189.51C27.23 189.27 27.36 189.03 27.42 188.77C27.43 188.71 27.14 188.5 27.09 188.53C26.87 188.66 26.69 188.85 26.5 189.02C26.7 189.18 26.91 189.34 27.13 189.51Z" fill="#EE9E52"/>
<path d="M148 246C145.67 246 143.33 246 141 246C140 246 139 246 138 246C130.67 246 123.33 246 116 246C115.33 246 114.67 246 114 246C113 246 112 246 111 246C109.74 244.27 108.85 241.87 107.15 240.9C90.6 231.49 74.9699 220.82 60.9399 207.92C44.1299 192.46 30.9 174.59 24.62 152.26C24.38 151.41 25.45 150.19 25.91 149.15C27.97 154.04 29.63 159.14 32.16 163.78C42.87 183.47 59.3399 197.54 77.8399 209.47C98.9899 223.11 121.8 233.51 144.82 243.48C146.02 244 146.95 245.15 148 246Z" fill="#F8C476"/>
<path d="M221 0C222 0 223 0 224 0C224.81 2.26 225.61 4.53 226.42 6.79C226.69 6.74 226.97 6.69 227.24 6.65C227.49 4.43 227.75 2.22 228 0C230.33 0 232.67 0 235 0C236.67 7.27 237.45 14.36 230.98 19.98C229.58 19.09 228.14 17.45 226.8 17.53C225.59 17.6 223.33 20.21 223.53 20.55C224.68 22.54 226.42 24.19 227.96 25.96C229.41 27.18 230.85 28.42 232.33 29.61C233.48 30.54 235.66 31.36 235.7 32.29C235.83 35.74 235.26 39.22 235 42.19C237.18 44.12 239.43 45.6 240.98 47.61C242.96 50.18 244.36 53.18 246.01 56C246.01 58 246.01 60 246.01 62C245.04 62.69 244.07 63.37 243.1 64.06C244.07 65.04 245.04 66.02 246.01 67C246.01 69.33 246.01 71.67 246.01 74C241.2 71.99 234.37 72.82 233.58 65.12C233.54 64.72 232.59 64.39 232.04 64.06C228.48 61.96 226.19 63.88 223.84 66.68C224.37 63.51 221.96 59.47 227.91 58.7C229.44 58.5 230.59 55.3 231.92 53.47C230.41 52.65 228.99 51.43 227.39 51.1C225 50.61 221.6 51.71 220.18 50.42C216.65 47.21 212.77 48.28 208.94 48C202.92 43.67 202.46 40.75 207.08 36.01C209.72 37.04 212.37 38.06 214.39 38.85C217.16 35.33 219.31 32.6 220.96 30.5C217.61 28.37 214.35 26.31 211.74 24.65C213.48 16.74 218.48 14.34 225.96 13.94C221.83 11.03 219.07 9.09 216.33 7.16C218 4.59 219.5 2.3 221 0ZM231.2 35.35C229.1 37.15 227.69 38.36 226.38 39.48C227.83 41.32 228.79 42.54 230.02 44.1C230.42 41.11 230.71 38.93 231.2 35.35Z" fill="#EADCB6"/>
<path d="M207.06 36.01C202.45 40.75 202.9 43.67 208.92 48C208.61 49 208.31 50 208 51.01C206.84 50.87 205.68 50.73 204.19 50.55C205.43 54.1 206.69 57 207.43 60.02C208.39 63.9 211.21 64.55 214.48 64.92C216.32 65.13 218.12 65.65 219.94 66.03C221.4 71.04 224.23 74.09 229.94 73.07C230.24 74.93 230.54 76.79 231.05 79.99C233.11 78.3 234.54 77.11 235.98 75.93C236.32 75.95 236.66 75.96 237 75.98C236.86 77.76 236.72 79.54 236.58 81.3C243.19 82.78 243.72 82.46 243.95 76.97C244.63 76.65 245.31 76.32 245.98 76C245.98 80.33 245.98 84.67 245.98 89C244.96 89.07 243.95 89.13 242.93 89.2C218.89 86.24 201.84 73.98 193.25 51.08C187.79 36.52 189.47 22.03 195.31 7.87C196.53 5.25 197.75 2.62 198.97 0C202.64 0 206.3 0 209.97 0C209.98 2.34 209.99 4.69 210 7.03C205.2 7.86 199.86 8 199.99 15.02C199.67 15.99 199.36 16.96 199.04 17.94C199.36 20.63 199.68 23.32 200 26.01C201.05 27.72 202.02 29.5 203.17 31.14C204.4 32.83 205.77 34.39 207.06 36.01Z" fill="#F7EBC5"/>
<path d="M148 246C146.95 245.15 146.02 244 144.82 243.48C121.8 233.51 98.9799 223.11 77.8399 209.47C59.3399 197.54 42.8699 183.47 32.1599 163.78C29.6399 159.14 27.9699 154.04 25.9099 149.15C25.2499 147.41 24.5999 145.67 23.9399 143.93C25.8599 142.7 25.8599 142.69 27.0699 145.68C32.3299 158.72 39.5899 170.41 50.0899 179.93C60.0599 188.11 69.2299 197.61 80.1699 204.15C97.2399 214.37 115.3 223.03 133.35 231.48C144.14 236.53 155.71 239.91 166.93 244.05C166.96 244.41 166.98 244.77 167.01 245.13C167.04 245.42 167.04 245.72 167.01 246.01C160.67 246 154.33 246 148 246Z" fill="#B36B27"/>
<path d="M25 246C16.67 246 8.33 246 0 246C0 240.33 0 234.67 0 229C0.65 226.81 1.49 224.67 1.91 222.44C4.01 211.29 6.01 200.11 8.04 188.95C9.01 190.27 9.97 191.59 10.94 192.91C11.16 194.31 11.17 195.78 11.63 197.1C13.35 202.1 15.21 207.04 17.02 212.01C16.03 213.01 15.03 214.01 14.04 215.01C12.46 215.34 10.7 215.35 9.39 216.13C8.74 216.51 8.45 219.1 8.83 219.33C10.59 220.4 12.63 221 14.57 221.76C13.93 222.41 13.29 223.06 12.65 223.71C12.9 223.11 13.15 222.51 13.55 221.54C14 222.66 14.23 223.23 14.46 223.81C14.8 223.75 15.15 223.68 15.49 223.62C14.99 220.74 14.49 217.85 13.99 214.97C15.48 216.61 16.97 218.25 18.5 219.93C18.76 219.45 19.3 218.47 19.9 217.37C20.77 218.83 21.42 219.91 22.06 220.98C22.38 221 22.69 221.01 23.01 221.01C25.67 224.36 28.33 227.7 30.98 231.05L30.95 231C31.28 232.35 31.62 233.69 31.95 235.04C29.91 235.71 27.86 236.39 25.82 237.06C25.55 237.04 25.29 237.01 25.02 236.98C20.77 233.69 17.1 234.09 14 239.09C17.48 238.7 20.27 238.39 23.07 238.08C23.71 240.72 24.36 243.36 25 246Z" fill="#D88A42"/>
<path d="M0 94C0 83.33 0 72.67 0 62C1.3 59.54 2.45 56.99 3.93 54.64C5.4 52.31 7.2 50.19 8.86 47.98C8.97 50.63 9.08 53.27 9.19 55.92C7.62 63.63 6.05 71.33 4.48 79.04C5.09 79.23 5.7 79.42 6.32 79.61C8.57 74.1 10.82 68.6 13.07 63.09C15.37 59.72 17.68 56.36 19.98 52.99C23.21 50.52 26.75 48.37 29.59 45.52C34.11 40.95 38.16 35.92 43.1 30.3C41.62 48.13 25.91 56.75 20.63 71.22C21.09 66.48 21.54 61.74 22 57C22.21 56.7 22.43 56.41 21.99 57.01C22.22 56.29 22.11 56.64 21.99 56.99C20.68 58.13 18.65 59.04 18.2 60.45C16.52 65.7 14.61 71.07 14.32 76.49C14.17 79.21 17.33 82.1 18.99 84.91C17.2 86.5 15.04 87.83 13.7 89.74C9.96 95.08 6.56 100.67 3.02 106.15C3.47 100.35 3.92 94.56 4.37 88.73C2.74 90.71 1.37 92.36 0 94Z" fill="#4B2416"/>
<path d="M8.87 47.98C7.21 50.19 5.41 52.31 3.94 54.64C2.45 56.99 1.3 59.54 0 62C0 46.67 0 31.33 0 16C4.96 11.82 5.96 5.9 7 0C9.33 0 11.67 0 14 0C13.35 3.38 12.41 6.74 12.17 10.14C12.04 11.97 13.14 13.89 13.69 15.76C14.56 14.44 15.41 13.12 16.3 11.82C16.85 11.01 17.57 10.29 18.03 9.44C19.73 6.32 21.35 3.15 23 0C25 0 27 0 29 0C28.04 2.33 27.08 4.66 26.13 6.99C22.06 15.3 17.98 23.61 13.91 31.92C12.56 35.61 11.21 39.3 9.86 42.99C9.62 44.01 9.37 45.03 9.13 46.04C9.03 46.69 8.95 47.34 8.87 47.98Z" fill="#3F2215"/>
<path d="M23.95 143.93C24.61 145.67 25.26 147.41 25.92 149.15C25.46 150.2 24.39 151.41 24.63 152.26C30.91 174.6 44.15 192.46 60.95 207.92C74.97 220.82 90.61 231.49 107.16 240.9C108.86 241.87 109.74 244.26 111.01 246C107.01 246 103.01 246 99.01 246C98.26 244.98 97.69 243.72 96.72 242.99C91.4 239 86.01 235.09 80.55 231.28C79.55 230.58 78.16 230.45 76.95 230.06L76.96 230.07C74.96 228.4 72.95 226.74 70.95 225.07C68.66 222.35 66.66 219.31 64.04 216.97C48.76 203.34 36.37 187.6 27.82 168.9C27 167.1 25.4 165.65 24.16 164.04C23.31 161 22.54 157.94 21.56 154.95C21.21 153.87 20.34 152.96 19.71 151.97C19.1 147.02 18.48 142.07 17.87 137.12C18.43 134.76 18.99 132.39 19.55 130.03C20.03 132.15 20.37 134.31 21.04 136.37C21.86 138.93 22.96 141.41 23.95 143.93Z" fill="#C57E35"/>
<path d="M230.98 19.98C237.45 14.36 236.67 7.27 235 0C238.33 0 241.67 0 245 0C245.33 0.33 245.67 0.67 246 1C246 11 246 21 246 31C246 31.33 246 31.67 246 32C246 33.33 246 34.67 246 36C246 36.33 246 36.67 246 37C246 43.33 246 49.67 246 56C244.35 53.18 242.94 50.18 240.97 47.61C239.42 45.59 237.16 44.11 234.99 42.19C235.25 39.22 235.82 35.74 235.69 32.29C235.65 31.36 233.47 30.54 232.32 29.61C230.84 28.42 229.41 27.18 227.95 25.96L227.97 25.95C229.83 26.4 231.68 26.89 233.55 27.3C234.65 27.55 235.78 27.7 236.9 27.89C237.06 26.54 237.84 24.49 237.26 23.96C235.45 22.32 233.11 21.27 230.98 19.99V19.98ZM239.62 10.78C240.71 10.62 241.79 10.45 242.88 10.29C242.45 8.05 242.09 5.79 241.47 3.61C241.42 3.44 239.51 3.8 238.47 3.91C238.85 6.21 239.24 8.49 239.62 10.78Z" fill="#F7EBC5"/>
<path d="M210.03 7.03C210.02 4.69 210.01 2.34 210 0C213.67 0 217.33 0 221 0C219.5 2.3 218 4.59 216.31 7.17C219.05 9.1 221.81 11.04 225.94 13.95C218.46 14.35 213.46 16.74 211.72 24.66C214.33 26.31 217.59 28.38 220.94 30.51C219.29 32.61 217.14 35.34 214.37 38.86C212.34 38.07 209.7 37.04 207.06 36.02C205.77 34.4 204.39 32.84 203.2 31.15C202.05 29.51 201.08 27.74 200.03 26.02C204.26 22.68 204.01 20.57 199.07 17.95C199.39 16.98 199.7 16.01 200.01 15.03C203.36 12.36 206.69 9.7 210.03 7.03Z" fill="#D9CAA4"/>
<path d="M246 76C245.32 76.32 244.64 76.65 243.97 76.97C241.66 76.64 239.34 76.31 237.02 75.98C236.68 75.96 236.34 75.95 236 75.93C233.99 74.98 231.97 74.02 229.96 73.07C224.25 74.1 221.42 71.04 219.96 66.03C219.25 63.25 218.73 60.4 217.72 57.74C217.43 56.98 215.66 56.23 214.71 56.38C208.16 57.43 208.18 57.5 208.01 51.02C208.32 50.02 208.62 49.02 208.93 48.01C212.76 48.28 216.64 47.22 220.17 50.43C221.59 51.72 224.99 50.62 227.38 51.11C228.99 51.44 230.41 52.66 231.91 53.48C230.58 55.3 229.44 58.51 227.9 58.71C221.95 59.48 224.37 63.52 223.83 66.69C226.17 63.89 228.47 61.97 232.03 64.07C232.58 64.39 233.53 64.73 233.57 65.13C234.36 72.84 241.19 72 246 74.01C246 74.67 246 75.33 246 76Z" fill="#D9CAA4"/>
<path d="M61 246C55.67 246 50.33 246 45 246C45.02 245.64 45.03 245.28 45.05 244.92C40.35 240.28 35.6501 235.64 30.9501 231L30.98 231.05C30.34 229.04 29.7 227.03 29.05 225.01C30.39 223.01 31.7201 221.02 33.0601 219.02C36.6901 221.84 40.45 224.5 43.91 227.52C48.62 231.62 53.16 235.91 57.64 240.26C59 241.58 59.9101 243.35 61.0201 244.92C61.0201 245.28 61.01 245.64 61 246Z" fill="#B36B27"/>
<path d="M242.95 89.2C243.97 89.13 244.98 89.07 246 89C246 92 246 95 246 98C233.41 99.8 220.8 101.49 208.24 103.47C205.01 103.98 201.92 105.39 198.77 106.39C197.81 105.11 196.86 103.83 195.9 102.54C196.42 101.76 196.79 100.51 197.48 100.29C205.33 97.77 213.14 95.06 221.13 93.1C228.29 91.34 235.67 90.47 242.95 89.2Z" fill="#293C54"/>
<path d="M0 161C0 153.33 0 145.67 0 138C1.93 132.28 3.86 126.56 5.78 120.83C7.82 116.86 9.86 112.9 11.9 108.93C13.29 105.3 14.69 101.66 16.08 98.03C20.36 104.07 16.69 109.49 15.27 115.97C14.16 114.22 13.62 113.37 13.08 112.52C12.62 112.52 12.16 112.51 11.7 112.51C10.59 117.72 8.85 122.89 8.52 128.15C8.1 135.07 8.79 142.05 9 149C8.99 149.34 8.98 149.69 8.97 150.03C8.99 150.67 9.01 151.32 9.03 151.96C7.89 152.87 6.63 153.68 5.62 154.73C3.67 156.75 1.86 158.9 0 161Z" fill="#4B2416"/>
<path d="M246 185C246 191.33 246 197.67 246 204C241.84 204.59 237.68 205.18 233.52 205.77L233.64 205.36C233.47 205.38 233.31 205.4 233.14 205.42C232.92 205.65 232.68 205.67 232.42 205.47C231.27 198.64 230.12 191.81 228.97 184.99C234.66 184.99 240.33 185 246 185Z" fill="#304560"/>
<path d="M246 219C246 221 246 223 246 225C237.29 224.69 228.58 224.21 219.86 224.12C214.62 224.07 209.38 224.63 204.13 224.92C203.76 224.81 203.38 224.69 203.01 224.58C199 224.39 194.99 224.2 190.99 224C191.02 223.01 191.06 222.02 191.09 221.03C198.06 221.03 205.03 221.03 212.01 221.03C212.02 220.36 212.03 219.69 212.04 219.02C209.36 219.02 206.68 219.02 204 219.02C204.03 218.31 204.07 217.6 204.1 216.89C209.4 216.92 214.7 216.95 220 216.98C221.9 217.32 223.79 217.84 225.71 217.96C232.47 218.38 239.24 218.66 246 219Z" fill="#E3D298"/>
<path d="M41 0C41.33 0 41.67 0 42 0C41.34 6.67 40.68 13.34 40.01 20.01C36.66 27.46 28.75 31.57 25.83 39.36C25.67 39.79 24.7 39.92 24.1 40.19C23.98 35.42 23.87 30.66 23.75 25.89C26.81 20.2 29.87 14.5 32.93 8.81C33.45 12.08 33.98 15.35 34.5 18.61C34.73 18.66 34.96 18.71 35.19 18.77C37.13 12.51 39.07 6.26 41 0Z" fill="#4B2416"/>
<path d="M241 246C239 246 237 246 235 246C233.82 244.89 232.83 243.41 231.44 242.75C227.71 240.97 223.82 239.54 219.99 237.97C219.56 236.31 219.12 234.66 218.69 233C227.79 233 236.89 233 246 232.99C246 236.99 246 240.99 246 244.99C245.67 245.32 245.33 245.66 245 245.99C244 245.99 243 245.99 242 245.99C241.67 246 241.33 246 241 246Z" fill="#BCA978"/>
<path d="M8.03 188.94C6 200.11 4.01 211.28 1.91 222.44C1.49 224.67 0.65 226.81 0 229C0 225.33 0 221.67 0 218C0 216.67 0 215.33 0 214C0 212.67 0 211.33 0 210C0.63 209.18 1.72 208.43 1.83 207.54C2.99 198.71 3.98 189.85 5.02 181.01C6.63 177.02 7.93 172.88 9.92 169.09C12.49 164.21 15.62 159.61 18.5 154.9C17.13 159.56 15.76 164.23 14.39 168.89C13.25 172.6 12.11 176.31 10.97 180.03C10 182.99 9.02 185.97 8.03 188.94Z" fill="#844C35"/>
<path d="M246 145C236.37 147.05 226.74 149.06 217.12 151.18C215.36 151.57 213.7 152.39 212 153.01C209.99 153 207.97 152.99 205.96 152.98C211.32 149.33 216.67 145.68 222.03 142.03C223.4 142.18 224.8 142.57 226.13 142.43C232.76 141.7 239.38 140.83 246 140.01C246 141.67 246 143.33 246 145Z" fill="#293C54"/>
<path d="M204.14 224.92C209.38 224.63 214.63 224.07 219.87 224.12C228.58 224.2 237.29 224.68 246.01 225C246.01 226.67 246.01 228.33 246.01 230C234.45 229.99 222.89 229.98 211.34 229.98C208.93 228.29 206.53 226.61 204.14 224.92Z" fill="#BCA978"/>
<path d="M24.11 40.19C24.7 39.92 25.67 39.79 25.84 39.36C28.76 31.57 36.68 27.46 40.02 20.01C45.78 14.58 48.3 7.7 49 0C51 0 53 0 55 0C53.65 2.65 52.31 5.3 50.96 7.94C48.6 12.25 46.25 16.56 43.89 20.88C35.92 31.58 27.95 42.28 19.98 52.99C17.68 56.36 15.37 59.72 13.07 63.09C12.96 62.6 12.85 62.11 12.75 61.61C13.84 57.47 14.94 53.34 16.03 49.2C16.29 49.05 16.56 48.94 16.84 48.85C17.64 48.91 18.97 49.28 19.16 48.97C20.92 46.11 22.49 43.13 24.11 40.19Z" fill="#844C35"/>
<path d="M70 0C67.23 4.45 64.9 9.27 61.59 13.28C55.56 20.59 52.8 28.63 53.91 38.02C51.98 41.09 50.06 44.16 48.13 47.24C47.89 46.21 47.36 45.15 47.46 44.16C47.9 40.15 48.53 36.16 49.09 32.16C50.36 28.46 51.63 24.75 52.9 21.05C55.72 16.44 58.67 11.91 61.29 7.19C62.53 4.97 63.12 2.4 64 0C66 0 68 0 70 0Z" fill="#844C35"/>
<path d="M211.33 229.97C222.89 229.98 234.45 229.99 246 230C246 231 246 232 246 233C236.9 233 227.8 233 218.7 233.01C217.77 232.57 216.84 232.13 215.72 231.6C215.05 233.7 214.52 235.38 213.98 237.06C209.55 236.06 205.13 235.06 200.7 234.06C197.84 232.97 194.97 231.89 192.11 230.8C194.99 230.53 197.87 230.27 200.76 230C202.78 234.03 205.53 234.15 208.84 231.54C209.6 230.93 210.49 230.49 211.33 229.97Z" fill="#998559"/>
<path d="M246 211C246 211.33 246 211.67 246 212C245.61 212.95 245.21 213.9 244.82 214.85C232.19 214.83 219.55 214.81 206.92 214.8C205.6 214.51 204.28 214.14 202.94 213.96C200.29 213.6 196.8 215.25 195.93 210.87C197.94 210.57 199.94 210.26 201.95 209.96C204.82 210.53 207.68 211.57 210.55 211.58C217.75 211.6 224.95 211.15 232.15 210.89C236.78 210.93 241.39 210.96 246 211Z" fill="#E3D298"/>
<path d="M246 116C233.78 116 221.55 116 209.81 116C220.96 111.25 233.65 111.57 246 110C246 112 246 114 246 116Z" fill="#293C54"/>
<path d="M64 0C63.12 2.4 62.53 4.97 61.31 7.17C58.69 11.89 55.74 16.42 52.92 21.03C52.44 19.37 51.74 17.74 51.52 16.05C51.17 13.37 51.13 10.64 50.96 7.94C52.31 5.3 53.65 2.65 55 0C58 0 61 0 64 0Z" fill="#612E23"/>
<path d="M200.7 234.05C205.13 235.05 209.55 236.05 213.98 237.05C215.98 237.36 217.99 237.66 219.99 237.97C223.82 239.54 227.71 240.97 231.44 242.75C232.83 243.41 233.83 244.89 235 246C232.33 246 229.67 246 227 246C226.35 245.61 225.7 245.22 225.05 244.83C223.36 244.23 221.67 243.64 219.99 243.04C212.31 240.37 204.64 237.7 196.96 235.03C198.21 234.71 199.45 234.38 200.7 234.05Z" fill="#F7EBC5"/>
<path d="M87.0301 244.8C83.3201 241.18 79.5101 237.65 75.9201 233.9C71.2101 228.97 66.6701 223.87 62.0601 218.84C65.0201 220.91 67.9801 222.99 70.9401 225.06C72.9401 226.73 74.9501 228.39 76.9501 230.06L76.9401 230.05C81.3401 233.65 85.8601 237.11 90.0801 240.92C91.4601 242.16 92.0501 244.28 92.9901 246C92.3201 246 91.6601 246 90.9901 246C89.6801 245.6 88.3501 245.2 87.0301 244.8Z" fill="#F8C476"/>
<path d="M3.03 106.16C6.57 100.67 9.97 95.09 13.71 89.75C15.05 87.84 17.21 86.51 19 84.92C19.96 89.08 18.45 92.12 14.79 94.18C14.3 94.82 13.81 95.46 13.33 96.1C12.35 97.15 11.09 98.05 10.43 99.27C6.87 105.8 3.46 112.41 0 119C0 116 0 113 0 110C1.01 108.72 2.02 107.44 3.03 106.16Z" fill="#844C35"/>
<path d="M49 0C48.3 7.7 45.78 14.58 40.01 20.01C40.68 13.34 41.34 6.67 42 0C44.33 0 46.67 0 49 0Z" fill="#612E23"/>
<path d="M0 161C1.86 158.9 3.67 156.75 5.62 154.73C6.63 153.68 7.88 152.88 9.03 151.96C7.68 157.31 6.34 162.65 4.99 167.99C1.43 170.64 2.97 173.84 4 176.99C3.99 177.65 3.99 178.32 3.98 178.98C2.65 178.99 1.33 179 0 179C0 173 0 167 0 161Z" fill="#3F2215"/>
<path d="M23 0C21.35 3.15 19.7301 6.32 18.0401 9.44C17.5801 10.29 16.86 11.01 16.31 11.82C15.42 13.12 14.57 14.45 13.7 15.76C13.15 13.88 12.06 11.97 12.18 10.14C12.41 6.74 13.35 3.38 14 0C17 0 20 0 23 0Z" fill="#4B2416"/>
<path d="M0 179C1.33 179 2.65 178.99 3.98 178.99C4.33 179.66 4.67 180.34 5.02 181.01C3.98 189.86 2.98 198.71 1.83 207.54C1.71 208.42 0.63 209.18 0 210C0 199.67 0 189.33 0 179Z" fill="#4B2416"/>
<path d="M7 0C5.96 5.9 4.96 11.82 0 16C0 10.78 0 5.56 0 0C2.32 0 4.66 0 7 0Z" fill="#58302D"/>
<path d="M0 119C3.46 112.41 6.87 105.8 10.42 99.27C11.08 98.05 12.34 97.15 13.32 96.1C11.96 99.68 10.61 103.27 9.25 106.85C7.14 111.56 5.04 116.27 2.93 120.98L3.01 120.94C2.65 121.29 2.29 121.64 1.93 121.99C1.29 122.33 0.64 122.66 0 123C0 121.67 0 120.33 0 119Z" fill="#612E23"/>
<path d="M30.95 231C35.65 235.64 40.3499 240.28 45.0499 244.92C44.6999 245.28 44.35 245.64 44 246C42 246 40 246 38 246C37.09 243.66 36.1899 241.32 35.2799 238.98C34.1699 237.67 33.06 236.35 31.95 235.04C31.61 233.69 31.28 232.35 30.95 231Z" fill="#844C35"/>
<path d="M41 0C39.07 6.26 37.13 12.51 35.2 18.77C34.97 18.72 34.74 18.67 34.51 18.61C33.99 15.34 33.46 12.07 32.94 8.81C32.84 8.48 32.91 8.19 33.16 7.94C33.42 7.57 33.69 7.19 33.95 6.82L33.8 6.9C34.27 5.63 34.74 4.36 35.21 3.09C35.81 2.06 36.4 1.03 37 0C38.33 0 39.67 0 41 0Z" fill="#612E23"/>
<path d="M3.03 106.16C2.02 107.44 1.01 108.72 0 110C0 104.67 0 99.33 0 94C1.37 92.36 2.74 90.71 4.38 88.74C3.93 94.57 3.48 100.37 3.03 106.16Z" fill="#612E23"/>
<path d="M93 246C92.05 244.28 91.46 242.16 90.09 240.92C85.87 237.12 81.35 233.65 76.95 230.05C78.16 230.44 79.55 230.58 80.55 231.27C86 235.08 91.39 238.99 96.72 242.98C97.69 243.71 98.25 244.97 99.01 245.99C97 246 95 246 93 246Z" fill="#8B3B27"/>
<path d="M246 140C239.38 140.82 232.76 141.69 226.13 142.42C224.79 142.57 223.4 142.17 222.03 142.02C230.02 140.35 238.01 138.67 246 137C246 138 246 139 246 140Z" fill="#304560"/>
<path d="M37 0C36.4 1.03 35.81 2.06 35.21 3.09C34.74 4.36 34.27 5.63 33.8 6.9L33.95 6.82C33.64 6.88 33.35 6.98 33.07 7.11C30.76 7.07 28.44 7.02 26.13 6.98C27.08 4.66 28.04 2.33 29 0C31.67 0 34.33 0 37 0Z" fill="#DEAD6B"/>
<path d="M35.28 238.98C36.19 241.32 37.09 243.66 38 246C36 246 34 246 32 246C32.02 245.69 31.98 245.38 31.9 245.08C30.23 242.84 28.56 240.6 26.89 238.36C29.68 238.57 32.48 238.77 35.28 238.98Z" fill="#D88A42"/>
<path d="M0 123C0.64 122.66 1.29 122.33 1.93 121.99C2.29 121.64 2.65 121.29 3.01 120.94L2.93 120.98C3.88 120.93 4.83 120.88 5.78 120.83C3.86 126.56 1.93 132.28 0 138C0 133 0 128 0 123Z" fill="#A85932"/>
<path d="M233.52 205.77C237.68 205.18 241.84 204.59 246 204C246 205.67 246 207.33 246 209C243.91 209.01 241.71 209.46 239.77 208.93C237.56 208.33 235.59 206.86 233.52 205.77Z" fill="#404348"/>
<path d="M233.52 205.77C235.59 206.86 237.56 208.33 239.76 208.93C241.7 209.46 243.91 209.02 245.99 209C245.99 209.67 245.99 210.33 245.99 211C241.38 210.96 236.77 210.93 232.15 210.89C231.79 210.31 231.43 209.72 231.07 209.14C231.54 208.33 232.02 207.52 232.49 206.71C232.47 206.3 232.44 205.89 232.42 205.47C232.67 205.66 232.91 205.64 233.13 205.41L233.38 205.46L233.62 205.36L233.52 205.77Z" fill="#998559"/>
<path d="M26.8801 238.36C28.5501 240.6 30.2201 242.84 31.8901 245.08C29.9201 245.39 27.9601 245.7 25.9901 246C25.6601 246 25.3201 246 24.9901 246C24.3501 243.36 23.7001 240.72 23.0601 238.08C23.7101 237.71 24.3601 237.35 25.0101 236.98C25.2801 237.01 25.5401 237.03 25.8101 237.06C26.1701 237.49 26.5301 237.93 26.8801 238.36Z" fill="#B36B27"/>
<path d="M246 185C240.33 185 234.66 184.99 228.98 184.99C228.98 184.34 228.97 183.68 228.97 183.03L229.03 182.98C234.69 182.99 240.34 183 246 183.01C246 183.67 246 184.33 246 185Z" fill="#293C54"/>
<path d="M167 246C167.03 245.71 167.03 245.41 167 245.12C176.04 244.99 185.08 244.85 194.13 244.72C195.71 244.87 197.3 245.03 198.88 245.18C198.91 245.46 198.95 245.73 199 246C188.33 246 177.67 246 167 246Z" fill="#8B3B27"/>
<path d="M199 246C198.95 245.73 198.91 245.45 198.89 245.18C199.3 245.07 199.71 244.97 200.13 244.86C208.44 244.85 216.75 244.84 225.05 244.83C225.7 245.22 226.35 245.61 227 246C217.67 246 208.33 246 199 246Z" fill="#998559"/>
<path d="M246 219C239.24 218.66 232.47 218.38 225.71 217.96C223.79 217.84 221.9 217.32 220 216.98C228.36 216.91 236.72 216.84 245.07 216.78C245.35 216.96 245.66 217.04 246 217.01C246 217.67 246 218.33 246 219Z" fill="#F7EBC5"/>
<path d="M228 0C227.75 2.22 227.49 4.43 227.24 6.65C226.97 6.7 226.69 6.75 226.42 6.79C225.61 4.53 224.81 2.26 224 0C225.33 0 226.67 0 228 0Z" fill="#D9CAA4"/>
<path d="M87.03 244.8C88.35 245.2 89.68 245.6 91 246C86 246 81 246 76 246C79.68 245.6 83.35 245.2 87.03 244.8Z" fill="#A85932"/>
<path d="M246 67C245.03 66.02 244.06 65.04 243.09 64.06C244.06 63.37 245.03 62.69 246 62C246 63.67 246 65.33 246 67Z" fill="#998559"/>
<path d="M61 246C61.01 245.64 61.02 245.28 61.02 244.92C63.36 244.89 65.71 244.86 68.05 244.84C68.7 245.23 69.35 245.62 70 246.01C67 246 64 246 61 246Z" fill="#A85932"/>
<path d="M26 246C27.97 245.69 29.93 245.38 31.9 245.08C31.98 245.38 32.02 245.69 32 246C30 246 28 246 26 246Z" fill="#8B3B27"/>
<path d="M246 217C245.67 217.03 245.36 216.95 245.07 216.78C244.98 216.14 244.9 215.5 244.81 214.86C245.2 213.91 245.6 212.96 245.99 212.01C246 213.67 246 215.33 246 217Z" fill="#998559"/>
<path d="M44 246C44.35 245.64 44.7 245.28 45.05 244.92C45.03 245.28 45.02 245.64 45 246C44.67 246 44.33 246 44 246Z" fill="#612E23"/>
<path d="M211.98 153.99C213.1 154.13 214.22 154.27 215.84 154.46C213.3 159.83 208.75 161.92 203.96 162.83C197.64 164.03 191.17 164.51 184.74 164.94C172.35 165.76 159.93 166.24 147.54 167.05C143.76 167.3 140.01 168.1 136.27 168.75C132.02 169.49 128.79 171.41 128.65 176.49C127.04 176.34 125.76 176.22 124.48 176.1C124.11 175.65 123.74 175.2 123.37 174.75C122.89 173.52 122.42 172.29 121.94 171.05C122.88 169.89 123.6 168.15 124.81 167.7C128.04 166.49 131.45 165.63 134.86 165.01C138.94 164.27 143.1 163.93 147.23 163.41C147.17 162.92 147.11 162.42 147.05 161.93C139.72 162.95 132.38 163.98 125.05 165C124.73 159.44 122.49 158.46 116.72 161.36C116.04 160.25 115.35 159.15 114.67 158.04C115.05 155.34 115.43 152.63 115.8 149.93C116.27 148.68 116.74 147.43 117.2 146.17C119.08 145.31 121.24 144.79 122.77 143.52C125.97 140.86 128.84 137.79 131.85 134.89C133.95 134.77 136.36 135.25 138.09 134.38C140.66 133.08 142.75 130.82 145.05 128.97C145.99 129.21 147.06 129.86 147.86 129.61C152.05 128.3 156.18 126.78 160.32 125.3C163.65 124.1 166.97 122.85 170.29 121.62C170.63 122.19 170.97 122.77 171.3 123.34C170.1 124.41 169.07 125.81 167.68 126.5C153.52 133.47 139.31 140.34 125.11 147.21C123.43 148.02 121.7 148.72 120.13 149.42C122.45 152.82 124.43 155.7 126.43 158.63C141 155.85 155.72 155.13 170.63 157.67C176.29 158.63 182.23 157.92 188.05 157.97C190.83 158.64 193.84 160.33 196.33 159.75C201.42 158.58 208.08 160.69 211.01 153.95C211.36 153.95 211.71 153.95 212.06 153.94L211.98 153.99Z" fill="#293C54"/>
<path d="M171.26 123.37C170.92 122.8 170.58 122.22 170.25 121.65C169.79 120.42 169.33 119.19 168.87 117.96C168.77 117.39 168.67 116.83 168.57 116.26C168.51 115.07 168.45 113.88 168.39 112.69C168.81 111.08 169.23 109.47 169.66 107.86C169.83 107.39 170 106.92 170.17 106.45C174.24 100.38 179.94 98.06 187.09 99.05C186.72 100.54 186.34 102.02 186.02 103.31C188.88 106.99 191.8 110.76 194.87 114.72C193 117.2 193.05 117.17 195.5 120.78C196.13 121.7 196.34 122.9 196.75 123.97C189.24 132.27 179.31 132.04 171.26 123.37ZM174.04 117.01C175 119.92 175.96 122.84 176.78 125.32C180.96 125.32 184.33 125.32 187.95 125.32C186.03 122.48 184.52 120.24 183.01 117.99C182.65 117.32 182.28 116.64 181.92 115.97C182.54 114.93 183.31 113.94 183.73 112.82C184.05 111.97 183.92 110.95 184 110C183.15 107.08 182.3 104.15 181.02 99.74C177.72 102.73 175.34 104.9 172.95 107.07C173.55 107.33 174.16 107.6 174.76 107.86C174.51 109.25 174.26 110.63 174.01 112.01C173.13 112.72 172.24 113.44 171.36 114.15C172.26 115.1 173.15 116.06 174.04 117.01Z" fill="#F7EBC5"/>
<path d="M196.74 123.96C196.34 122.89 196.12 121.69 195.49 120.77C193.04 117.16 192.99 117.19 194.86 114.71C191.79 110.75 188.86 106.98 186.01 103.3C186.33 102.01 186.71 100.52 187.08 99.04C190.02 100.21 192.96 101.37 195.89 102.54C196.85 103.82 197.8 105.1 198.76 106.39C201.12 112.59 201.44 118.56 196.74 123.96Z" fill="#E6EDF0"/>
<path d="M210.96 153.98C208.03 160.72 201.37 158.61 196.28 159.78C193.79 160.35 190.78 158.66 188 158C193.99 156.32 199.98 154.65 205.96 152.97C207.97 152.98 209.99 152.99 212 153C211.98 153.33 211.97 153.66 211.97 153.99L211.99 153.98C211.65 153.98 211.3 153.98 210.96 153.98Z" fill="#304560"/>
<path d="M201.96 209.96C199.95 210.26 197.95 210.57 195.94 210.87C195.64 210.87 195.34 210.92 195.05 211.02C192.38 210.23 189.71 209.43 187.04 208.64C185.06 208.1 183.12 207.32 181.1 207.06C177.4 206.58 173.67 206.41 169.94 206.11C169.99 205.16 170.05 204.21 170.1 203.27C170.74 203.19 171.38 203.11 172.02 203.03C176.65 203.35 181.27 203.9 185.9 203.95C195.16 204.06 204.42 203.98 213.67 203.76C215.12 203.73 216.54 202.59 217.97 201.97C217.87 201.42 217.77 200.87 217.67 200.32C213.61 200.11 209.55 199.9 205.49 199.68C205.5 199.44 205.5 199.19 205.51 198.95C208.59 198.95 211.67 198.95 214.76 198.95C205.15 198.02 195.54 198.12 185.94 197.93C184.01 197.89 182.1 196.76 180.18 196.13C181.83 194.41 183.48 192.7 185.52 190.57C180.02 192.32 175.45 193.77 170.88 195.23C167.14 192.46 163.39 189.69 159.65 186.93C161.76 185.64 163.86 184.34 165.97 183.05C186.65 183.04 207.32 183.04 228 183.03L227.99 183.02C227.29 183.74 226.58 184.46 225.88 185.18C216.07 185.29 206.2 184.34 196.51 186.83C206.29 186.83 216.08 186.83 225.86 186.83C225.91 189.48 226.02 192.12 225.98 194.77C225.9 200.12 225.24 200.51 219.99 198.08C219.99 201.52 219.99 204.78 219.99 208.05C215.83 208.56 211.37 210.19 207.61 209.2C205.02 208.49 203.75 209.02 201.96 209.96Z" fill="#304560"/>
<path d="M165.96 183.03C163.85 184.32 161.75 185.62 159.64 186.91C158.46 186.99 157.28 187.08 156.1 187.16C155.72 187.14 155.35 187.12 154.97 187.1C152.79 187.11 149.34 182.93 148.98 188.92C147.65 188.5 146.32 188.08 144.99 187.66C144.02 187.74 143.05 187.82 142.09 187.9C142.06 186.26 142.04 184.63 142.01 182.99H142C142.36 182.47 142.72 181.94 143.08 181.42C147.11 181.07 151.15 180.88 155.15 180.33C159.19 179.79 162.68 180.85 165.96 183.03ZM155.28 182.84C155.24 182.52 155.2 182.2 155.17 181.88C154.4 181.99 153.63 182.1 152.85 182.2C152.87 182.41 152.88 182.62 152.9 182.83C153.69 182.84 154.49 182.84 155.28 182.84Z" fill="#A85932"/>
<path d="M142.01 183.01C142.04 184.65 142.06 186.28 142.08 187.92C141.75 188.81 140.89 190.19 141.18 190.51C142.7 192.15 144.51 193.52 146.22 194.98C146.27 195.66 146.31 196.34 146.36 197.02C144.57 196.71 142.78 196.4 140.99 196.1C139.67 195.4 138.36 194.7 137.04 194C135.12 191.63 133.19 189.26 131.27 186.9C130.75 185.73 130.22 184.56 129.7 183.39C133.8 183.25 137.91 183.13 142.01 183.01Z" fill="#404348"/>
<path d="M129.7 183.37C130.22 184.54 130.75 185.71 131.27 186.88C131.21 187.73 131.16 188.57 131.1 189.42C130.41 189.3 129.72 189.18 129.02 189.06C127.93 187.36 126.84 185.66 125.77 183.99C124.97 184.95 124.12 185.96 123.27 186.98C122.85 186.62 122.42 186.26 122 185.89C121.03 184.23 120.07 182.56 119.1 180.9C119.04 180.27 118.99 179.64 118.93 179.01C119.55 178.76 120.16 178.51 120.78 178.26C118.79 175 121.39 175.11 123.35 174.75C123.72 175.2 124.09 175.65 124.46 176.1C125.94 178.07 127.42 180.04 128.91 182.01C129.19 182.42 129.46 182.83 129.74 183.23L129.7 183.37Z" fill="#D88A42"/>
<path d="M227.99 183.01C227.78 181.81 227.57 180.61 227.36 179.4C227.92 179.32 228.48 179.25 229.03 179.17C229.03 180.43 229.03 181.7 229.03 182.96L228.98 183.01C228.65 183.01 228.32 183 227.98 182.99L227.99 183.01Z" fill="#293C54"/>
<path d="M143.09 181.44C142.73 181.96 142.37 182.49 142.01 183.01C142.1 181.9 142.19 180.79 142.28 179.68C142.52 179.67 142.76 179.66 142.99 179.64C143.02 180.24 143.05 180.84 143.09 181.44Z" fill="#404348"/>
<path d="M226.95 172.52C227.12 172.71 227.29 172.91 227.45 173.1C227.22 173.23 226.99 173.38 226.75 173.46C226.71 173.48 226.47 173.2 226.5 173.14C226.61 172.92 226.8 172.73 226.95 172.52Z" fill="#293C54"/>
<path d="M129.74 183.24C129.47 182.83 129.19 182.42 128.91 182.02C129.19 182.42 129.46 182.83 129.74 183.24Z" fill="#404348"/>
<path d="M48.14 47.23C50.07 44.16 51.99 41.09 53.92 38.01C57.67 38.46 61.41 38.91 65.16 39.37C65.67 42.18 66.18 44.99 66.87 48.79C70.65 46.81 73.71 45.21 76.76 43.61C77.84 45.08 78.93 46.54 80.01 48.01C76.6 52.47 71.65 50.91 67.18 51.37C65.13 51.58 63.14 52.28 61.12 52.75C61.23 53.25 61.34 53.75 61.45 54.26C69.13 54.38 77 55.94 84 50.99C84.35 51.65 84.69 52.32 85.04 52.98C87.82 55.59 88.28 61.16 94.01 59.99C93.68 61.29 93.36 62.58 93.03 63.88C95 70.78 96.4 78 103.99 81.46C104.59 81.73 104.68 83.14 105.01 84.01C100.07 87.03 95.13 90.06 90.19 93.08C84.29 88.36 78.6 83.33 72.44 78.98C63.38 72.58 53.06 71.35 42.25 72.81C41.22 72.95 40.06 72.16 38.96 71.8C40.68 66.88 42.4 61.95 44.12 57.03C45.44 53.76 46.79 50.49 48.14 47.23Z" fill="#293C54"/>
<path d="M76.76 43.61C73.7 45.21 70.65 46.81 66.87 48.79C66.18 44.99 65.67 42.18 65.16 39.37C66.98 36.66 69.01 34.45 72.79 35.27C73.35 35.39 74.13 34.51 74.8 34.08C74.21 33.32 73.7 31.99 73.03 31.9C70.77 31.59 68.45 31.74 66.15 31.68C63.34 31.61 61.3 30.76 61.91 27.33C64.29 27.27 66.66 27.21 69.04 27.15C69.69 27.09 70.35 27.03 71 26.96C73.41 27.38 75.86 27.66 78.23 28.23C88.14 30.6 90.86 41.42 83.98 50.98C76.98 55.93 69.11 54.37 61.43 54.25C61.32 53.75 61.21 53.25 61.1 52.74C63.12 52.26 65.12 51.57 67.16 51.36C71.63 50.9 76.58 52.46 79.99 48C83.28 43.84 82.93 39.25 80.86 34.9C79.8 32.68 77.57 30.85 76.01 34.97L76.21 34.86C76.41 37.78 76.58 40.7 76.76 43.61Z" fill="#E6EDF0"/>
<path d="M119.78 27.42C119.53 28.95 119.28 30.47 119.03 32C118.94 36.15 119 40.32 118.73 44.46C118.27 51.48 114.45 54.98 107.45 55.06C99.58 55.16 96.43 52.38 94.9 43.99C94.82 38.4 94.73 32.81 94.65 27.22C96.6 27.43 98.56 27.65 100.14 27.82C100.14 33.6 99.92 39.22 100.21 44.81C100.45 49.63 103.42 51.98 108.18 51.76C112.63 51.55 114.96 49.02 114.92 44.72C114.86 38.93 114.4 33.15 114.12 27.37C114.77 27.33 115.42 27.3 116.07 27.26C117.3 27.32 118.54 27.37 119.78 27.42Z" fill="#E6EDF0"/>
<path d="M94.65 27.23C94.73 32.82 94.82 38.41 94.9 44C93.32 45.38 91.72 46.75 90.17 48.16C88.43 49.74 86.74 51.38 85.02 52.99C84.67 52.33 84.33 51.66 83.98 51C90.85 41.44 88.14 30.62 78.23 28.25C75.85 27.68 73.41 27.4 71 26.98C71.33 25.38 71.19 23.38 72.12 22.27C73.45 20.67 75.48 19.53 77.42 18.68C77.76 18.53 78.99 21.02 80.1 21.95C81.52 23.15 83.12 24.37 84.85 24.93C88.04 25.94 91.38 26.48 94.65 27.23Z" fill="#162635"/>
<path d="M116.06 27.26C115.41 27.3 114.76 27.33 114.11 27.37C114.76 27.34 115.41 27.3 116.06 27.26Z" fill="#162635"/>
<path d="M85.03 52.98C86.74 51.37 88.44 49.74 90.18 48.15C91.73 46.74 93.33 45.38 94.91 43.99C96.44 52.38 99.59 55.15 107.46 55.06C114.46 54.97 118.28 51.48 118.74 44.46C119.01 40.32 118.95 36.16 119.04 32C119.98 32.49 120.91 32.99 121.85 33.47C123.51 34.32 125.18 35.15 126.85 35.99C126.85 42.04 126.85 48.08 126.85 54.43C128.26 54.32 129.62 54.21 130.67 54.12C130.67 48.36 130.51 43.05 130.71 37.76C130.92 32.22 132.39 31.39 138.57 30.88C143.67 30.46 145.18 33.36 145.37 37.38C145.64 42.93 145.44 48.51 145.44 54.17C147.24 54.17 148.98 54.17 150.94 54.17C150.53 46.97 150.13 40.04 149.73 33.12C154.35 27.35 160.6 23.44 165.98 18.72C173.83 11.83 183.15 10.42 191.82 6.65998C192.66 6.28998 194.15 7.42998 195.34 7.85998C189.5 22.02 187.82 36.51 193.28 51.07C201.86 73.97 218.92 86.23 242.96 89.19C235.68 90.45 228.3 91.33 221.14 93.09C213.15 95.05 205.33 97.76 197.49 100.28C196.79 100.5 196.43 101.76 195.91 102.53C192.97 101.36 190.03 100.2 187.1 99.03C179.95 98.04 174.24 100.35 170.18 106.43C168.54 105.95 166.9 105.09 165.25 105.05C159.52 104.89 153.78 105.02 148.05 105.03C140.62 106.88 137.88 102.58 137.35 95.41C136.71 95.48 136.07 95.55 135.44 95.61C134.03 98.04 132.61 100.47 131.2 102.91C130.38 100.61 129.56 98.31 128.73 96.01C128.61 95.85 128.54 95.67 128.54 95.47C126.7 93.3 124.85 91.13 123.01 88.97L123.04 89.02C122.76 88.62 122.47 88.22 122.19 87.81C121.55 87.15 120.91 86.49 120.27 85.83C119.86 85.54 119.45 85.24 119.03 84.95L119.06 84.97C118.94 81.56 117.17 80.7 114.07 81.61C111.07 82.49 108.02 83.22 105 84.02C104.67 83.14 104.58 81.74 103.98 81.47C96.4 78.01 94.99 70.79 93.02 63.89C99.18 63.59 105.35 63.29 111.51 63C111.72 62.6 111.93 62.19 112.14 61.79C110.77 61.2 109.42 60.16 108.02 60.09C103.35 59.87 98.67 60 93.99 60C88.27 61.16 87.8 55.59 85.03 52.98ZM172.07 92.24C177.6 84.49 170.04 70.87 160.48 70.15C154.92 69.73 149.21 70.23 143.65 70.95C137.55 71.74 136.59 74.02 139.13 79.73C140.85 83.59 143.06 87.12 140.44 91.8C138.88 94.58 140.43 96.81 144.33 96.43C148.44 96.03 150.97 94.42 152.06 90.14C153.38 84.92 157.27 82.97 160.62 85.17C164.32 87.57 168.13 89.81 172.07 92.24ZM184.54 29.63C184.35 28.89 184.16 28.15 183.97 27.41C180.33 27.41 176.69 27.36 173.06 27.43C171.57 27.46 170.07 27.66 168.6 27.94C162.1 29.19 158.02 33.67 157.75 39.78C157.43 46.89 160.78 52.42 167.31 53.62C172.85 54.64 178.64 54.34 184.31 54.62C184.38 53.99 184.46 53.37 184.53 52.74C182.94 52.28 181.37 51.56 179.75 51.4C176.61 51.1 173.38 51.47 170.31 50.92C166.23 50.19 163.63 47.77 163.84 43.17C167.88 43.17 171.62 43.17 175.47 43.17C175.47 41.66 175.47 40.22 175.47 38.75C171.45 38.75 167.61 38.75 163.73 38.75C164.95 32.39 167.26 31.13 173.22 31.43C176.95 31.63 180.76 30.28 184.54 29.63Z" fill="#1C2F3F"/>
<path d="M149.72 33.12C150.12 40.05 150.52 46.97 150.93 54.17C148.97 54.17 147.23 54.17 145.43 54.17C145.43 48.52 145.63 42.94 145.36 37.38C145.17 33.35 143.66 30.45 138.56 30.88C132.38 31.39 130.91 32.23 130.7 37.76C130.5 43.05 130.66 48.35 130.66 54.12C129.61 54.2 128.24 54.32 126.84 54.43C126.84 48.08 126.84 42.04 126.84 35.99C127.88 30.82 130.91 27.66 136.22 27.08C141.82 26.48 146.83 27.51 149.72 33.12Z" fill="#E6EDF0"/>
<path d="M48.14 47.23C46.79 50.5 45.45 53.76 44.1 57.03C36.76 58.76 34.81 65.53 30.5 70.09C30.81 70.42 31.13 70.74 31.44 71.07C33.41 69.32 35.39 67.56 37.89 65.34C32.31 79.26 26.88 92.32 21.82 105.52C15.12 123.03 11.21 141.75 12.87 146.76C14.53 143.55 16.19 140.34 17.85 137.12C18.46 142.07 19.08 147.02 19.69 151.97C19.29 152.95 18.9 153.92 18.5 154.9C15.61 159.62 12.49 164.21 9.91998 169.09C7.92998 172.87 6.62998 177.02 5.01998 181.01C4.66998 180.34 4.32998 179.66 3.97998 178.99C3.98998 178.33 3.98998 177.66 3.99998 177C4.32998 174 4.65998 171 4.98998 168C6.33998 162.66 7.67998 157.31 9.02998 151.97C9.00998 151.33 8.98998 150.68 8.96998 150.04C9.08998 149.94 9.30998 149.82 9.29998 149.75C9.23998 149.49 9.10998 149.25 8.99998 149.01C8.78998 142.06 8.10998 135.08 8.52998 128.17C8.85998 122.91 10.6 117.74 11.71 112.53C12.17 112.53 12.63 112.54 13.09 112.54C13.63 113.39 14.17 114.24 15.28 115.99C16.7 109.51 20.37 104.09 16.09 98.05C15.66 96.77 15.23 95.48 14.8 94.2C18.46 92.14 19.97 89.1 19.01 84.94C17.35 82.13 14.19 79.23 14.34 76.52C14.63 71.11 16.54 65.73 18.22 60.48C18.67 59.07 20.71 58.16 22.01 57.02C21.55 61.76 21.09 66.49 20.64 71.23C25.92 56.76 41.63 48.14 43.11 30.31C38.17 35.93 34.13 40.96 29.6 45.53C26.77 48.39 23.22 50.54 19.99 53C27.96 42.3 35.93 31.6 43.9 20.89C45.64 24.65 47.37 28.4 49.11 32.16C48.55 36.16 47.91 40.15 47.48 44.16C47.36 45.14 47.9 46.2 48.14 47.23ZM19.42 81.07C19.71 81.25 19.93 81.41 20.18 81.51C20.23 81.53 20.47 81.26 20.45 81.2C20.35 80.97 20.17 80.76 20.03 80.55C19.83 80.72 19.64 80.89 19.42 81.07Z" fill="#612E23"/>
<path d="M68.05 244.83C65.71 244.86 63.36 244.89 61.02 244.91C59.9 243.34 58.99 241.57 57.64 240.25C53.16 235.9 48.62 231.6 43.91 227.51C40.45 224.5 36.69 221.83 33.06 219.01C33.02 218.71 33 218.41 33 218.11C33.21 217.75 33.42 217.38 33.63 217.02C33.13 217.01 32.62 217 32.12 216.99C31.44 216.03 30.76 215.08 30.08 214.12C28.59 215.83 27.1 217.54 25.44 219.46C24.92 219.34 23.96 219.12 23 218.91C21.97 217.12 20.94 215.34 19.92 213.55C20.3 213.04 20.68 212.53 21.06 212.03C23.53 212.34 26.01 212.65 28.48 212.96C28.7 212.52 28.91 212.08 29.13 211.65C26.63 207.85 23.9 204.18 21.67 200.22C17.94 193.58 14.53 186.77 10.99 180.03C12.13 176.32 13.27 172.61 14.41 168.89C16.16 173.46 18.06 177.99 19.65 182.62C23.69 194.39 29.38 205.27 37.93 214.31C47.09 224 56.8 233.16 66.25 242.57C66.93 243.24 67.45 244.07 68.05 244.83Z" fill="#D88A42"/>
<path d="M70.95 225.06C67.99 222.99 65.03 220.91 62.07 218.84V218.97C61.72 218.62 61.38 218.28 61.03 217.94L61.07 217.98C60.72 217.63 60.38 217.29 60.03 216.94L60.07 216.98C59.66 216.62 59.25 216.27 58.84 215.91C43.83 201.29 31.93 184.56 24.13 165.02C24.02 164.74 24.14 164.36 24.15 164.03C25.39 165.64 26.99 167.09 27.81 168.89C36.36 187.58 48.75 203.33 64.03 216.96C66.66 219.3 68.66 222.34 70.95 225.06Z" fill="#8B3B27"/>
<path d="M18.8399 167.15C19.8799 170.7 20.9099 174.24 21.9499 177.79C21.4299 177.93 20.9099 178.07 20.3899 178.21C19.4499 174.64 18.5099 171.07 17.5699 167.5C17.9999 167.38 18.4199 167.27 18.8399 167.15Z" fill="#D88A42"/>
<path d="M24.04 182.61C24.62 183.76 25.19 184.91 25.77 186.06C25.39 186.25 25.01 186.43 24.63 186.62C24.07 185.46 23.52 184.3 22.96 183.14C23.32 182.97 23.68 182.79 24.04 182.61Z" fill="#D88A42"/>
<path d="M27.12 189.51C26.91 189.35 26.7 189.18 26.49 189.02C26.68 188.85 26.87 188.66 27.08 188.53C27.13 188.5 27.42 188.71 27.41 188.77C27.36 189.02 27.23 189.26 27.12 189.51Z" fill="#D88A42"/>
<path d="M61.03 217.94C61.38 218.28 61.72 218.63 62.07 218.97C61.72 218.63 61.37 218.28 61.03 217.94Z" fill="#F8C476"/>
<path d="M58.83 215.91C59.24 216.27 59.65 216.62 60.06 216.98C59.65 216.62 59.24 216.26 58.83 215.91Z" fill="#F8C476"/>
<path d="M60.02 216.94C60.37 217.29 60.71 217.63 61.06 217.98C60.72 217.63 60.37 217.28 60.02 216.94Z" fill="#F8C476"/>
<path d="M227.95 25.96C226.41 24.19 224.68 22.54 223.52 20.55C223.32 20.21 225.58 17.6 226.79 17.53C228.14 17.46 229.57 19.09 230.97 19.98V19.99C229.97 21.98 228.96 23.96 227.96 25.95L227.95 25.96Z" fill="#D9CAA4"/>
<path d="M231.2 35.35C230.72 38.93 230.42 41.11 230.02 44.11C228.79 42.55 227.83 41.33 226.38 39.49C227.69 38.36 229.1 37.15 231.2 35.35Z" fill="#D9CAA4"/>
<path d="M208.01 51.01C208.18 57.5 208.17 57.42 214.71 56.37C215.66 56.22 217.43 56.98 217.72 57.73C218.73 60.4 219.25 63.24 219.96 66.02C218.14 65.64 216.34 65.12 214.5 64.91C211.23 64.54 208.41 63.88 207.45 60.01C206.7 56.99 205.44 54.09 204.21 50.54C205.68 50.73 206.85 50.87 208.01 51.01Z" fill="#EADCB6"/>
<path d="M237.02 75.98C239.34 76.31 241.65 76.64 243.97 76.97C243.74 82.46 243.21 82.78 236.6 81.3C236.74 79.54 236.88 77.76 237.02 75.98Z" fill="#EADCB6"/>
<path d="M210.03 7.03003C206.69 9.69003 203.35 12.35 200.02 15.02C199.89 8.01003 205.24 7.87003 210.03 7.03003Z" fill="#EADCB6"/>
<path d="M199.07 17.94C204.01 20.56 204.26 22.68 200.03 26.01C199.71 23.32 199.39 20.63 199.07 17.94Z" fill="#EADCB6"/>
<path d="M229.96 73.06C231.97 74.02 233.99 74.97 236 75.92C234.56 77.1 233.12 78.29 231.07 79.98C230.55 76.78 230.25 74.92 229.96 73.06Z" fill="#EADCB6"/>
<path d="M23.9501 143.93C22.9601 141.41 21.8601 138.93 21.0301 136.37C20.3601 134.31 20.03 132.15 19.55 130.03C20.59 125.63 21.63 121.24 22.67 116.85C25.12 123.89 27.5701 130.93 30.0201 137.98C31.0701 140.56 31.7501 143.36 33.2201 145.67C41.9801 159.38 53.0001 171 66.5401 180.15C77.2601 187.4 87.52 195.56 98.92 201.53C118.05 211.55 137.92 220.13 157.47 229.35C161.77 231.38 166 233.56 170.26 235.68C157.96 231.43 145.49 227.62 133.42 222.8C121.79 218.16 110.4 212.82 99.2301 207.16C88.1001 201.52 77.37 195.1 66.46 189.02C61.01 185.98 55.5601 182.95 50.1101 179.92C39.6 170.41 32.35 158.71 27.09 145.67C25.87 142.69 25.8701 142.69 23.9501 143.93Z" fill="#EE9E52"/>
<path d="M50.1 179.92C55.55 182.95 61 185.99 66.45 189.02C77.36 195.1 88.09 201.52 99.22 207.16C110.4 212.82 121.78 218.16 133.41 222.8C145.48 227.62 157.95 231.43 170.25 235.68C177.49 238.14 184.74 240.6 191.98 243.06C190.24 243.37 188.5 243.92 186.75 243.96C180.14 244.08 173.53 244.03 166.92 244.05C155.7 239.92 144.13 236.53 133.34 231.48C115.29 223.03 97.23 214.37 80.16 204.15C69.24 197.6 60.06 188.1 50.1 179.92Z" fill="#DF843E"/>
<path d="M166.93 244.04C173.54 244.03 180.15 244.07 186.76 243.95C188.51 243.92 190.24 243.37 191.99 243.05C192.7 243.6 193.42 244.16 194.13 244.71C185.09 244.84 176.05 244.98 167 245.11C166.98 244.76 166.95 244.4 166.93 244.04Z" fill="#D88A42"/>
<path d="M10.99 180.02C14.53 186.76 17.94 193.58 21.67 200.21C23.89 204.17 26.62 207.84 29.13 211.64C28.91 212.08 28.7 212.52 28.48 212.95C26.01 212.64 23.53 212.33 21.06 212.02C19.93 210.22 18.68 208.5 17.71 206.62C15.38 202.09 13.18 197.48 10.93 192.9C9.96003 191.58 9.00003 190.26 8.03003 188.94C9.02003 185.97 10 182.99 10.99 180.02Z" fill="#B36B27"/>
<path d="M33 218.12C33 218.42 33.0201 218.72 33.0601 219.02C31.7201 221.02 30.39 223.01 29.05 225.01C27.03 223.68 25.02 222.34 23 221.01C22.68 221 22.37 220.99 22.05 220.98C22.37 220.29 22.68 219.6 23 218.91C23.96 219.13 24.9201 219.35 25.4401 219.46C27.1001 217.55 28.59 215.84 30.08 214.12C30.76 215.08 31.44 216.03 32.12 216.99C32.41 217.37 32.71 217.74 33 218.12Z" fill="#C57E35"/>
<path d="M13.98 214.97C14.48 217.85 14.98 220.74 15.48 223.62C15.14 223.68 14.79 223.75 14.45 223.81C14.22 223.24 13.99 222.66 13.54 221.54C13.14 222.51 12.89 223.11 12.64 223.71C13.28 223.06 13.92 222.41 14.56 221.76C12.62 220.99 10.57 220.4 8.82003 219.33C8.44003 219.1 8.73003 216.52 9.38003 216.13C10.69 215.35 12.45 215.34 14.03 215.01C14.02 215.01 13.98 214.97 13.98 214.97Z" fill="#E3D298"/>
<path d="M10.9301 192.91C13.1801 197.49 15.3801 202.09 17.7101 206.63C18.6801 208.51 19.9301 210.24 21.0601 212.03C20.6801 212.54 20.3001 213.05 19.9201 213.55C18.9501 213.04 17.9801 212.52 17.0101 212.01C15.2001 207.05 13.3401 202.1 11.6201 197.1C11.1601 195.78 11.1501 194.31 10.9301 192.91Z" fill="#8B3B27"/>
<path d="M17 212.01C17.97 212.52 18.94 213.04 19.91 213.55C20.94 215.34 21.97 217.13 22.99 218.91C22.67 219.6 22.36 220.29 22.04 220.98C21.4 219.9 20.75 218.83 19.88 217.37C19.28 218.47 18.74 219.46 18.48 219.93C16.96 218.26 15.46 216.62 13.97 214.97L14.01 215.01C15.02 214.01 16.01 213.01 17 212.01Z" fill="#F9CB7E"/>
<path d="M25.02 236.98C24.37 237.35 23.72 237.71 23.07 238.08C20.28 238.39 17.49 238.7 14 239.09C17.1 234.09 20.77 233.7 25.02 236.98Z" fill="#DEAD6B"/>
<path d="M23.01 221.01C25.03 222.34 27.04 223.68 29.06 225.01C29.7 227.02 30.35 229.03 30.99 231.05C28.32 227.7 25.66 224.36 23.01 221.01Z" fill="#844C35"/>
<path d="M26.8801 238.36C26.5201 237.93 26.1701 237.49 25.8101 237.06C27.8501 236.39 29.9001 235.71 31.9401 235.04C33.0501 236.35 34.1601 237.67 35.2701 238.98C32.4801 238.77 29.6801 238.57 26.8801 238.36Z" fill="#F8C476"/>
<path d="M16.03 49.2C14.94 53.34 13.84 57.47 12.75 61.61C11.57 59.72 10.38 57.82 9.2 55.92C9.09 53.27 8.98 50.63 8.87 47.98C8.95 47.33 9.04 46.69 9.12 46.04C9.36 45.02 9.61 44 9.85 42.99C11.2 39.3 12.55 35.61 13.9 31.92C14.6 33.03 15.85 34.1 15.91 35.24C16.15 39.88 16.02 44.54 16.03 49.2Z" fill="#DEAD6B"/>
<path d="M9.19998 55.93C10.39 57.83 11.57 59.72 12.75 61.62C12.86 62.11 12.96 62.6 13.07 63.09C10.82 68.6 8.56998 74.1 6.31998 79.61C5.70998 79.42 5.09998 79.23 4.47998 79.04C6.04998 71.34 7.61998 63.63 9.19998 55.93Z" fill="#A85932"/>
<path d="M22 57C22.11 56.65 22.22 56.3 22 57.02C22.43 56.41 22.22 56.7 22 57Z" fill="#612E23"/>
<path d="M16.03 49.2C16.02 44.54 16.15 39.88 15.91 35.24C15.85 34.1 14.6 33.03 13.9 31.92C17.97 23.61 22.05 15.3 26.12 6.98999C28.44 7.02999 30.75 7.07999 33.07 7.11999C33.09 7.39999 33.12 7.66999 33.15 7.94999C32.9 8.18999 32.83 8.47999 32.93 8.81999C29.87 14.51 26.81 20.21 23.75 25.9C21.45 33.55 19.14 41.21 16.84 48.86C16.56 48.94 16.29 49.05 16.03 49.2Z" fill="#D9CAA4"/>
<path d="M22.6599 116.84C21.6199 121.23 20.5799 125.63 19.5399 130.02C18.9799 132.38 18.4199 134.75 17.8599 137.11C16.1999 140.32 14.5399 143.54 12.8799 146.75C11.2199 141.73 15.1299 123.01 21.8299 105.51C26.8799 92.31 32.3199 79.25 37.8999 65.33C35.3899 67.56 33.4199 69.31 31.4499 71.06C31.1399 70.73 30.8199 70.41 30.5099 70.08C34.8199 65.52 36.7699 58.75 44.1099 57.02C42.3899 61.94 40.6699 66.87 38.9499 71.79C36.8999 76.58 34.8499 81.36 32.7999 86.15C31.4599 90.06 30.1299 93.98 28.7899 97.89C27.1199 102.78 25.4399 107.67 23.7699 112.57C23.3899 114 23.0199 115.42 22.6599 116.84Z" fill="#844C35"/>
<path d="M76.9499 230.06C74.9499 228.39 72.9399 226.73 70.9399 225.06C72.9499 226.73 74.9499 228.39 76.9499 230.06Z" fill="#8B3B27"/>
<path d="M227.96 25.95C228.96 23.96 229.97 21.98 230.97 19.99C233.1 21.27 235.44 22.33 237.25 23.96C237.84 24.49 237.05 26.54 236.89 27.89C235.77 27.7 234.65 27.55 233.54 27.3C231.68 26.89 229.82 26.4 227.96 25.95Z" fill="#EADCB6"/>
<path d="M239.62 10.78C239.23 8.49 238.85 6.2 238.46 3.91C239.5 3.8 241.41 3.44 241.46 3.61C242.09 5.79 242.45 8.05 242.87 10.29C241.8 10.46 240.71 10.62 239.62 10.78Z" fill="#EADCB6"/>
<path d="M14.79 94.18C15.22 95.46 15.65 96.75 16.08 98.03C14.69 101.66 13.29 105.3 11.9 108.93C11.02 108.24 10.14 107.54 9.25 106.85C10.61 103.27 11.97 99.68 13.32 96.1C13.82 95.46 14.3 94.82 14.79 94.18Z" fill="#D9CAA4"/>
<path d="M9.25994 106.85C10.1399 107.54 11.0199 108.24 11.9099 108.93C9.86994 112.9 7.82994 116.86 5.78994 120.83C4.83994 120.88 3.88994 120.93 2.93994 120.98C5.03994 116.27 7.14994 111.56 9.25994 106.85Z" fill="#DEAD6B"/>
<path d="M8.99997 149C9.10997 149.25 9.23997 149.49 9.29997 149.74C9.31997 149.81 9.08997 149.93 8.96997 150.03C8.97997 149.69 8.98997 149.34 8.99997 149Z" fill="#3F2215"/>
<path d="M227.98 183.01C228.31 183.02 228.64 183.02 228.98 183.03C228.98 183.68 228.99 184.34 228.99 184.99C230.14 191.82 231.29 198.64 232.44 205.47C232.47 205.89 232.49 206.3 232.51 206.71C231.92 207.19 231.34 207.67 230.76 208.14C230.25 208.14 229.75 208.13 229.24 208.13C228.49 208.47 227.74 208.81 226.99 209.15C226.34 209.23 225.69 209.3 225.04 209.38C224.93 207.01 225.3 202.74 224.64 202.57C220.5 201.53 222.79 205.98 221.2 207.41C221.09 207.51 221.07 207.7 221 207.85C220.66 207.9 220.32 207.96 219.99 208.01C219.99 204.75 219.99 201.49 219.99 198.04C225.24 200.47 225.9 200.08 225.98 194.73C226.02 192.09 225.9 189.44 225.86 186.79C225.87 186.24 225.87 185.69 225.88 185.14C226.58 184.44 227.28 183.73 227.98 183.01Z" fill="#1C2F3F"/>
<path d="M233.64 205.36L233.4 205.46C233.4 205.46 233.14 205.41 233.15 205.41C233.31 205.4 233.48 205.38 233.64 205.36Z" fill="#404348"/>
<path d="M191.09 221.03C191.06 222.02 191.02 223.01 190.99 224C189.97 224.74 188.94 225.48 187.92 226.22C185.7 223.06 183.44 219.93 181.31 216.71C181.14 216.45 181.8 215.63 182.07 215.07C182.44 214.93 182.81 214.78 183.19 214.64L183.45 214.43C185.15 214.59 187.08 214.29 188.5 215C191.19 216.34 192.6 215.4 193.76 213.12C193.95 214.71 194.14 216.3 194.33 217.88C193.25 218.94 192.17 219.98 191.09 221.03Z" fill="#58302D"/>
<path d="M244.82 214.85C244.91 215.49 244.99 216.13 245.08 216.77C236.72 216.84 228.36 216.91 220.01 216.97C214.71 216.94 209.41 216.91 204.11 216.88C205.05 216.18 205.99 215.48 206.93 214.78C219.55 214.81 232.18 214.83 244.82 214.85Z" fill="#BCA978"/>
<path d="M187.92 226.22C188.94 225.48 189.97 224.74 190.99 224C195 224.19 199.01 224.38 203.01 224.58C202.26 226.38 201.51 228.19 200.76 229.99C197.88 230.26 195 230.52 192.11 230.79C190.56 229.92 189.02 229.04 187.48 228.16C187.63 227.52 187.78 226.87 187.92 226.22Z" fill="#BCA978"/>
<path d="M206.92 214.8C205.98 215.5 205.04 216.2 204.1 216.9C204.07 217.61 204.03 218.32 204 219.03C200.78 218.65 197.55 218.27 194.33 217.89C194.14 216.3 193.95 214.71 193.76 213.13C194.19 212.43 194.62 211.73 195.05 211.03C195.34 210.93 195.64 210.88 195.94 210.88C196.81 215.26 200.3 213.61 202.95 213.97C204.28 214.14 205.59 214.51 206.92 214.8Z" fill="#EADCB6"/>
<path d="M194.33 217.89C197.55 218.27 200.78 218.65 204 219.03C206.68 219.03 209.36 219.03 212.04 219.03C212.03 219.7 212.02 220.37 212.01 221.04C205.04 221.04 198.07 221.04 191.09 221.04C192.17 219.98 193.25 218.94 194.33 217.89Z" fill="#BCA978"/>
<path d="M200.76 229.99C201.51 228.19 202.26 226.38 203.01 224.58C203.38 224.69 203.76 224.81 204.13 224.92C206.53 226.6 208.92 228.29 211.32 229.97C210.49 230.48 209.6 230.92 208.83 231.52C205.53 234.14 202.79 234.02 200.76 229.99Z" fill="#404348"/>
<path d="M16.84 48.85C19.14 41.2 21.45 33.54 23.75 25.89C23.87 30.65 23.98 35.42 24.1 40.19C22.48 43.13 20.92 46.11 19.16 48.97C18.97 49.28 17.64 48.91 16.84 48.85Z" fill="#3F2215"/>
<path d="M219.99 237.97C217.99 237.66 215.98 237.36 213.98 237.05C214.51 235.37 215.05 233.69 215.72 231.59C216.84 232.12 217.77 232.56 218.7 233C219.13 234.66 219.56 236.32 219.99 237.97Z" fill="#58302D"/>
<path d="M49.1 32.15C47.36 28.39 45.63 24.64 43.89 20.88C46.24 16.57 48.6 12.26 50.96 7.94C51.13 10.65 51.17 13.37 51.52 16.05C51.74 17.74 52.44 19.37 52.92 21.03C51.65 24.74 50.37 28.44 49.1 32.15Z" fill="#4B2416"/>
<path d="M187.48 228.17C189.03 229.05 190.57 229.92 192.12 230.79C194.98 231.88 197.85 232.96 200.71 234.05C199.46 234.38 198.21 234.7 196.96 235.03C193.52 234 190 233.17 186.65 231.9C176.38 228.01 166.17 223.95 155.94 219.95C155.97 219.34 156 218.73 156.02 218.12C156.62 218.2 157.22 218.29 157.82 218.37C158.25 218.57 158.67 218.77 159.1 218.97C162.37 220.02 165.65 221.07 168.92 222.11C173.65 223.74 178.37 225.37 183.1 227C184.56 227.4 186.02 227.79 187.48 228.17Z" fill="#EADCB6"/>
<path d="M219.99 208.02C220.33 207.97 220.67 207.91 221 207.86C222.35 208.37 223.69 208.88 225.04 209.39C225.69 209.31 226.34 209.24 226.99 209.16C227.74 208.82 228.49 208.48 229.24 208.14C229.75 208.14 230.25 208.15 230.76 208.15C230.87 208.48 230.98 208.81 231.1 209.14C231.46 209.72 231.82 210.31 232.18 210.89C224.98 211.15 217.78 211.6 210.58 211.58C207.71 211.57 204.84 210.53 201.98 209.96C203.77 209.02 205.04 208.5 207.63 209.18C211.37 210.17 215.82 208.54 219.99 208.02Z" fill="#EADCB6"/>
<path d="M155.94 219.96C166.17 223.96 176.38 228.02 186.65 231.91C190 233.18 193.52 234.01 196.96 235.04C204.63 237.71 212.31 240.38 219.99 243.05C217.92 243.37 215.87 243.81 213.79 243.98C209.24 244.35 204.68 244.58 200.13 244.86C199.72 244.97 199.31 245.07 198.89 245.18C197.3 245.03 195.72 244.87 194.14 244.72C193.43 244.17 192.71 243.61 192 243.06C184.76 240.6 177.51 238.14 170.27 235.68C166.01 233.56 161.78 231.38 157.48 229.35C137.94 220.13 118.06 211.54 98.93 201.53C87.53 195.56 77.27 187.4 66.55 180.15C53 171 41.98 159.38 33.2 145.65C31.73 143.35 31.05 140.54 30 137.96C30.83 138.12 31.67 138.28 32.5 138.44L32.47 138.57C32.66 139.02 32.86 139.47 33.05 139.92C35.66 142.68 38.27 145.44 40.88 148.2C44.51 152.22 48.13 156.23 51.76 160.25C55.17 163.26 58.59 166.27 62 169.28C65.01 171.24 68.01 173.2 71.01 175.17C76.23 178.5 81.46 181.82 86.68 185.15C88.42 185.85 90.17 186.55 91.91 187.25C96.33 193.52 103.98 194.35 110.06 197.79C118.13 202.35 126.8 205.86 135.21 209.83C135.65 210.49 135.94 211.48 136.56 211.74C142.99 214.53 149.47 217.23 155.94 219.96Z" fill="#F9CB7E"/>
<path d="M200.12 244.86C204.67 244.58 209.23 244.35 213.78 243.98C215.86 243.81 217.91 243.37 219.98 243.05C221.67 243.65 223.36 244.24 225.04 244.84C216.74 244.84 208.43 244.85 200.12 244.86Z" fill="#E3D298"/>
<path d="M4.99003 168C4.66003 171 4.33003 174 4.00003 177C2.97003 173.85 1.42003 170.64 4.99003 168Z" fill="#4B2416"/>
<path d="M33.16 7.94001C33.12 7.66001 33.09 7.39001 33.08 7.11001C33.36 6.98001 33.65 6.88001 33.96 6.82001C33.68 7.20001 33.42 7.57001 33.16 7.94001Z" fill="#4B2416"/>
<path d="M231.09 209.14C230.98 208.81 230.87 208.48 230.75 208.15C231.33 207.67 231.92 207.19 232.5 206.72C232.03 207.52 231.56 208.33 231.09 209.14Z" fill="#404348"/>
<path d="M168.86 117.95C169.32 119.18 169.78 120.41 170.24 121.64C166.92 122.87 163.6 124.12 160.27 125.32C156.13 126.8 152.01 128.32 147.81 129.63C147.02 129.88 145.95 129.22 145 128.99C145.02 128.32 145.04 127.66 145.06 126.99C148.77 125.44 148.12 122.58 147.57 119.88C145.8 119.54 144.39 119.26 142.98 118.99C149.41 113.06 157.81 112.17 165.78 110.29C166.42 110.14 167.5 111.84 168.37 112.68C168.43 113.87 168.49 115.06 168.55 116.25C168.66 116.82 168.76 117.39 168.86 117.95Z" fill="#192D3E"/>
<path d="M131.82 134.9C128.81 137.8 125.94 140.86 122.74 143.53C121.21 144.8 119.05 145.32 117.17 146.18C112.1 146.16 107.03 146.15 101.96 146.14C99.9601 145.1 97.9701 144.07 95.9701 143.04C91.9101 136.5 91.9101 136.5 89.5401 136.8C89.6801 138.88 89.8201 140.96 89.9501 143.04C86.9901 140.03 84.0201 137.03 81.0601 134.02C81.0701 132.7 81.0801 131.38 81.0901 130.06C81.1301 129.77 81.1301 129.48 81.1001 129.19C81.4001 129.12 81.7001 129.08 82.0001 129.06C82.3101 129.1 82.6201 129.12 82.9301 129.12C83.5801 130.27 84.2301 131.41 84.8801 132.56C85.2301 132.45 85.5801 132.34 85.9301 132.24C85.9301 130.82 85.9301 129.4 85.9301 127.98C85.6401 124.66 85.3401 121.34 85.0501 118.01C85.4101 117.99 85.7701 117.97 86.1401 117.96C87.0801 118.63 88.0201 119.31 88.9601 119.98C87.1501 123.87 86.4501 127.61 90.3601 131.12C91.9101 129.72 93.2901 128.47 95.2701 126.68C95.5601 128.57 95.7301 129.76 95.9101 130.95C95.9101 132.77 95.7101 134.62 95.9401 136.42C96.5201 141.02 101.91 144.44 106.34 143.15C107.57 143.35 108.8 143.77 110.02 143.73C118.6 143.4 124.98 138.72 130.8 132.99C131.16 133.08 131.53 133.18 131.89 133.27C131.85 133.5 131.87 133.72 131.94 133.94C131.92 134.29 131.91 134.64 131.89 134.98C131.91 134.96 131.82 134.9 131.82 134.9Z" fill="#8B3B27"/>
<path d="M123.35 174.76C121.38 175.12 118.79 175.01 120.78 178.27C120.16 178.52 119.55 178.77 118.93 179.02C118.29 179.02 117.64 179.01 117 179.01C116.57 177.62 116.15 176.23 115.72 174.85C115.7 173.97 115.69 173.09 115.67 172.21C115.47 171.67 115.26 171.14 115.06 170.6C114.7 171.06 114.34 171.51 113.98 171.97C107.98 174.74 113.36 168.45 111.06 168.16C109.51 168.04 107.97 167.91 106.42 167.79C113.3 167.67 111.68 161.71 113.26 158.06C113.72 158.06 114.17 158.06 114.63 158.06C115.31 159.17 116 160.27 116.68 161.38C117.77 163.62 118.85 165.87 119.93 168.11C120.59 169.1 121.26 170.08 121.92 171.07C122.4 172.29 122.88 173.53 123.35 174.76Z" fill="#C57E35"/>
<path d="M101.96 146.14C107.03 146.15 112.1 146.17 117.17 146.18C116.7 147.43 116.24 148.69 115.77 149.94C112.58 152.34 109.4 154.73 106.21 157.13C105.47 157.11 104.73 157.08 104 157.06C105 155.87 106 154.68 107.29 153.17C105.93 153.1 104.99 153.06 104.04 153.01C103.34 150.72 102.65 148.43 101.96 146.14Z" fill="#612E23"/>
<path d="M131.96 133.92C131.89 133.7 131.87 133.48 131.91 133.25C131.92 132.81 131.94 132.37 131.95 131.94L131.93 131.93C135.93 130.61 136.05 127.3 136.03 123.93C139.04 124.95 142.05 125.98 145.07 127C145.05 127.67 145.03 128.33 145.01 129C142.71 130.85 140.62 133.1 138.05 134.41C136.33 135.28 133.92 134.8 131.81 134.92L131.9 134.98C132.02 134.89 132.26 134.77 132.25 134.7C132.2 134.42 132.06 134.17 131.96 133.92Z" fill="#304560"/>
<path d="M121.93 171.06C121.27 170.07 120.6 169.09 119.94 168.1C121.63 167.07 123.33 166.04 125.02 165.01C132.35 163.99 139.69 162.96 147.02 161.94C147.08 162.43 147.14 162.93 147.2 163.42C143.07 163.93 138.92 164.28 134.83 165.02C131.42 165.64 128.02 166.5 124.78 167.71C123.59 168.16 122.87 169.91 121.93 171.06Z" fill="#1C2F3F"/>
<path d="M125.02 165.02C123.33 166.05 121.63 167.08 119.94 168.11C118.86 165.87 117.77 163.62 116.69 161.38C122.46 158.47 124.7 159.45 125.02 165.02Z" fill="#304560"/>
<path d="M106.21 157.13C109.4 154.73 112.58 152.34 115.77 149.94C115.39 152.64 115.02 155.35 114.64 158.05C114.18 158.05 113.72 158.05 113.27 158.05C110.91 157.74 108.56 157.44 106.21 157.13Z" fill="#A85932"/>
<path d="M210.96 153.98C211.31 153.98 211.66 153.98 212.01 153.97C211.65 153.98 211.3 153.98 210.96 153.98Z" fill="#192D3E"/>
<path d="M136.03 123.92C136.05 127.3 135.93 130.61 131.93 131.92C132.7 127.98 133.48 124.03 134.25 120.09C135.37 116.63 136.97 113.21 137.31 109.68C137.41 108.62 134 107.22 132.21 105.96C131.82 105.68 131.45 105.37 131.07 105.07C130.97 104.7 130.88 104.33 130.78 103.96C130.91 103.61 131.04 103.26 131.17 102.91C132.58 100.48 134 98.05 135.41 95.61C136.05 95.54 136.69 95.47 137.32 95.41C137.85 102.58 140.59 106.88 148.02 105.03C148.84 105.67 149.63 106.82 150.49 106.88C156.87 107.32 163.26 107.55 169.64 107.85C169.22 109.46 168.79 111.07 168.37 112.68C167.5 111.84 166.42 110.14 165.78 110.29C157.81 112.17 149.41 113.06 142.98 118.99C140.8 120.81 136.49 119.65 136.03 123.92Z" fill="#293C54"/>
<path d="M174.02 112.01C174.27 110.62 174.52 109.24 174.77 107.85C174.17 107.59 173.56 107.32 172.96 107.06C175.35 104.89 177.73 102.73 181.03 99.73C182.31 104.14 183.16 107.06 184.01 109.99C183.95 110.1 183.89 110.21 183.82 110.32C183.88 110.21 183.95 110.1 184.01 109.99C183.94 110.94 184.06 111.95 183.74 112.81C183.32 113.93 182.55 114.92 181.93 115.96C179.29 114.65 176.65 113.33 174.02 112.01Z" fill="#D9CAA4"/>
<path d="M183.01 117.99C184.52 120.23 186.04 122.48 187.95 125.32C184.33 125.32 180.97 125.32 176.78 125.32C175.96 122.84 175 119.92 174.04 117.01C177.03 117.33 180.02 117.66 183.01 117.99Z" fill="#D9CAA4"/>
<path d="M169.65 107.85C163.26 107.55 156.87 107.33 150.5 106.88C149.64 106.82 148.85 105.67 148.03 105.03C153.76 105.01 159.5 104.89 165.23 105.05C166.89 105.1 168.52 105.95 170.16 106.43C169.99 106.91 169.82 107.38 169.65 107.85Z" fill="#304560"/>
<path d="M183.01 117.99C180.02 117.66 177.03 117.34 174.04 117.01C173.15 116.06 172.26 115.11 171.37 114.16C172.25 113.45 173.14 112.73 174.02 112.02C176.65 113.34 179.29 114.66 181.92 115.98C182.28 116.64 182.65 117.32 183.01 117.99Z" fill="#EADCB6"/>
<path d="M168.86 117.95C168.76 117.38 168.66 116.82 168.56 116.25C168.66 116.82 168.76 117.39 168.86 117.95Z" fill="#293C54"/>
<path d="M180.17 196.13C182.09 196.76 184 197.89 185.93 197.93C195.53 198.12 205.14 198.02 214.75 198.95C211.67 198.95 208.59 198.95 205.5 198.95C205.49 199.19 205.49 199.44 205.48 199.68C209.54 199.89 213.6 200.1 217.66 200.32C217.76 200.87 217.86 201.42 217.96 201.97C216.53 202.6 215.11 203.73 213.66 203.76C204.41 203.97 195.15 204.05 185.89 203.95C181.26 203.9 176.64 203.35 172.01 203.03C174.88 201.69 178.67 201.41 178.93 197.05C179.35 196.74 179.76 196.43 180.17 196.13Z" fill="#4E71AC"/>
<path d="M144.99 187.67C146.32 188.09 147.65 188.51 148.98 188.93C152.97 190.6 156.95 192.27 160.94 193.94C162.95 195.28 164.96 196.63 166.97 197.97C163.66 197.17 160.34 196.37 157.03 195.57C156.85 196.12 156.67 196.67 156.49 197.22C161.03 199.23 165.57 201.24 170.11 203.25C170.06 204.2 170 205.15 169.95 206.09C168.95 206.13 167.94 206.16 166.93 206.2C166.31 206.11 165.68 206.02 165.06 205.93C165.19 205.78 165.23 205.61 165.19 205.42C159.44 201.61 153.7 197.8 147.95 193.98C146.33 192.19 142.75 191.29 144.99 187.67Z" fill="#BCA978"/>
<path d="M166.97 197.97C164.96 196.63 162.95 195.28 160.94 193.94C158.95 191.66 156.96 189.38 154.97 187.11C155.35 187.13 155.72 187.15 156.1 187.17C158.27 188.65 160.33 190.33 162.63 191.57C165.27 192.99 168.12 194.02 170.87 195.22C175.44 193.77 180.01 192.31 185.51 190.56C183.46 192.69 181.82 194.41 180.17 196.12C179.76 196.43 179.35 196.73 178.95 197.03C174.96 197.35 170.96 197.66 166.97 197.97Z" fill="#D9CAA4"/>
<path d="M166.97 197.97C170.96 197.66 174.95 197.35 178.95 197.04C178.68 201.4 174.9 201.68 172.03 203.02C171.39 203.1 170.75 203.18 170.11 203.26C165.57 201.25 161.03 199.24 156.49 197.23C156.67 196.68 156.85 196.13 157.03 195.58C160.34 196.37 163.66 197.17 166.97 197.97Z" fill="#F7EBC5"/>
<path d="M166.93 206.21C167.94 206.17 168.94 206.14 169.95 206.1C173.67 206.4 177.41 206.58 181.1 207.05C183.11 207.31 185.06 208.09 187.04 208.63C186.34 208.83 185.63 209.03 184.93 209.24C177.46 208.86 170 208.48 162.53 208.1C160.2 207.35 155.33 209.91 157.06 203.89C159.77 204.4 162.48 204.91 165.19 205.43C165.23 205.62 165.19 205.79 165.06 205.94C165.68 206.03 166.31 206.12 166.93 206.21Z" fill="#404348"/>
<path d="M225.87 185.16C225.86 185.71 225.86 186.26 225.85 186.81C216.07 186.81 206.28 186.81 196.5 186.81C206.2 184.32 216.06 185.28 225.87 185.16Z" fill="#4E71AC"/>
<path d="M184.93 209.24C185.63 209.04 186.34 208.84 187.04 208.63C189.71 209.42 192.38 210.22 195.05 211.01C194.62 211.71 194.19 212.41 193.76 213.11C192.6 215.4 191.19 216.34 188.5 215C187.08 214.29 185.15 214.59 183.45 214.43C183.94 212.7 184.43 210.97 184.93 209.24Z" fill="#BCA978"/>
<path d="M170.88 195.22C168.12 194.02 165.28 192.99 162.64 191.57C160.34 190.33 158.28 188.65 156.11 187.17C157.29 187.09 158.47 187.01 159.65 186.92C163.39 189.69 167.13 192.45 170.88 195.22Z" fill="#F7EBC5"/>
<path d="M154.98 187.11C156.97 189.39 158.96 191.67 160.95 193.94C156.96 192.27 152.98 190.6 148.99 188.93C149.34 182.93 152.8 187.12 154.98 187.11Z" fill="#EADCB6"/>
<path d="M144.99 187.67C142.74 191.29 146.33 192.18 147.95 194C147.38 194.32 146.8 194.65 146.23 194.97C144.52 193.51 142.71 192.14 141.19 190.5C140.9 190.19 141.76 188.8 142.09 187.91C143.06 187.83 144.02 187.75 144.99 187.67Z" fill="#844C35"/>
<path d="M155.28 182.84C154.49 182.84 153.69 182.84 152.9 182.84C152.88 182.63 152.87 182.42 152.85 182.21C153.62 182.1 154.39 181.99 155.17 181.89C155.2 182.2 155.24 182.52 155.28 182.84Z" fill="#192D3E"/>
<path d="M106.21 157.13C108.56 157.44 110.91 157.74 113.26 158.05C111.68 161.7 113.3 167.66 106.42 167.78C107.97 167.9 109.51 168.03 111.06 168.15C113.36 168.44 107.98 174.73 113.98 171.96C114.54 172.04 115.11 172.12 115.67 172.2C115.69 173.08 115.7 173.96 115.72 174.84C113.95 178.96 109.22 182.03 110.16 187.1C110.73 187.35 111.29 187.6 111.86 187.85C113.57 184.9 115.29 181.95 117 179C117.64 179 118.29 179.01 118.93 179.01C118.99 179.64 119.04 180.27 119.1 180.9C120.05 184.26 121.01 187.61 121.96 190.97C121.6 191.94 121.24 192.92 120.89 193.89C120.51 194.37 120.13 194.86 119.75 195.34C119.98 195.46 120.21 195.59 120.45 195.71C120.67 195.16 120.88 194.6 121.1 194.05C121.42 193.05 121.75 192.05 122.08 191.05C123.22 190.34 124.36 189.62 125.57 188.86C125.88 190.03 126.14 191.01 126.6 192.75C127.69 191.1 128.37 190.07 129.04 189.04C129.73 189.16 130.42 189.28 131.12 189.4C132.85 191.69 134.59 193.98 136.61 196.64C136.81 195.49 136.94 194.73 137.07 193.96C138.39 194.66 139.7 195.36 141.02 196.06C140.21 198.09 139.4 200.13 138.34 202.78C141.89 202.51 145.37 202.25 148.85 201.98C151.24 204.65 153.62 207.32 156.01 209.99C156.62 212.78 157.24 215.56 157.85 218.35C157.25 218.27 156.65 218.18 156.05 218.1C154.27 217.28 152.57 216.04 150.7 215.71C145.13 214.72 141.3 209.35 135.24 209.78C126.83 205.82 118.17 202.3 110.09 197.74C104.01 194.31 96.36 193.48 91.94 187.2C94.3 186.09 96.67 184.97 100.22 183.3C95.77 182.75 92.88 182.39 89.99 182.04L89.93 181.99C89.23 180.5 88.53 179.01 87.58 177C90 177.34 92.01 177.62 94.01 177.89C94.7 177.63 95.39 177.37 96.09 177.1C99.17 176.53 102.24 175.97 105.32 175.4C105.25 174.75 105.18 174.11 105.1 173.46C102.07 173.63 99.04 173.8 96.01 173.97C94.03 173.3 92.05 172.64 90.06 171.97C89.71 171.62 89.37 171.27 89.02 170.91L89.05 170.93C88.68 170.3 88.31 169.67 87.94 169.05C88.31 168.68 88.68 168.32 89.04 167.95C92.02 167.94 94.99 167.94 97.97 167.93C99.99 166.62 102.01 165.31 104.03 164C106.3 160.24 102.5 161.01 101.09 160.25C98.16 158.67 95.08 157.37 92.07 155.95C92.72 155.3 93.38 154.65 94.03 154C97.36 155.01 100.68 156.02 104.01 157.02C104.73 157.08 105.47 157.1 106.21 157.13Z" fill="#8B3B27"/>
<path d="M146.23 194.97C146.8 194.65 147.38 194.32 147.95 194C153.69 197.81 159.44 201.63 165.18 205.44C162.47 204.92 159.76 204.41 157.05 203.9C154.36 202.63 151.67 201.36 148.98 200.09C148.11 199.07 147.24 198.04 146.37 197.02C146.32 196.33 146.27 195.65 146.23 194.97Z" fill="#998559"/>
<path d="M146.37 197.01C147.24 198.03 148.11 199.06 148.98 200.08C148.93 200.72 148.88 201.36 148.82 202.01C145.34 202.27 141.86 202.54 138.31 202.81C139.37 200.16 140.18 198.13 140.99 196.09C142.79 196.4 144.58 196.7 146.37 197.01Z" fill="#844C35"/>
<path d="M137.04 193.99C136.91 194.75 136.78 195.52 136.58 196.67C134.56 194.01 132.83 191.72 131.09 189.43C131.15 188.59 131.2 187.74 131.26 186.89C133.19 189.25 135.12 191.62 137.04 193.99Z" fill="#A85932"/>
<path d="M129.03 189.06C128.35 190.09 127.67 191.12 126.59 192.77C126.13 191.03 125.87 190.04 125.56 188.88C124.35 189.64 123.21 190.35 122.07 191.07L121.97 190.98C121.02 187.62 120.06 184.27 119.11 180.91C120.08 182.57 121.04 184.24 122.01 185.9C122.43 186.26 122.86 186.62 123.28 186.99C124.13 185.97 124.98 184.96 125.78 184C126.84 185.66 127.93 187.36 129.03 189.06Z" fill="#A85932"/>
<path d="M71.02 175.16C68.01 173.2 65.01 171.24 62 169.27C61.29 164.84 60.57 160.42 59.86 155.99C59.87 155.31 59.89 154.63 59.9 153.95C59.95 152.62 60.01 151.3 60.06 149.97C60.11 146.08 60.15 142.2 60.2 138.31C60.58 136.94 60.97 135.57 61.35 134.21C64.27 126.86 67.19 119.51 70.11 112.16C71.07 111.12 72.03 110.08 72.99 109.04C74.12 107.94 75.3 106.89 76.36 105.74C79.32 102.51 82.23 99.23 85.16 95.97C86.83 95.01 88.5 94.05 90.17 93.1C95.11 90.08 100.05 87.05 104.99 84.03C108.02 83.23 111.06 82.51 114.06 81.62C117.16 80.71 118.93 81.57 119.05 84.98C115.4 82.86 107.39 85 103.97 89.01L104.01 88.97C103.4 89.97 102.79 90.97 102.17 91.97C101.71 92.05 101.24 92.12 100.78 92.2C91.77 93.05 90.88 101.03 87.24 106.99C88.76 107.58 89.84 108 91.22 108.54C89.36 111.25 87.71 113.65 86.06 116.05C84.96 114.9 83.87 113.75 82.49 112.31C81.91 113.62 81.42 114.74 80.92 115.86C80.59 117.2 80.26 118.54 79.93 119.89C77.6 121.25 75.27 122.62 72.95 123.98C72.46 126.24 71.97 128.49 71.34 131.37C70.57 129.61 70.03 128.39 69.49 127.16C69.27 127.22 69.05 127.28 68.83 127.33C69.22 129.88 69.61 132.44 70 134.99C70.34 136.98 70.68 138.98 71.02 140.97C71.67 142.01 72.33 143.06 72.98 144.1C72.99 144.38 73.01 144.66 73.03 144.94C73.67 145.64 74.31 146.35 74.95 147.05L74.94 147.08C74.61 148.24 74.28 149.4 73.95 150.56C72.85 150.08 71.68 149.71 70.67 149.08C69.73 148.5 68.95 147.65 68.11 146.92C67.13 144.22 66.15 141.53 65.18 138.83C64.88 138.93 64.59 139.04 64.29 139.14C64.88 142.76 65.46 146.38 66.05 150.01C66.37 150.67 66.7 151.34 67.02 152C67.01 153.33 67 154.67 66.99 156C65.7 153.84 64.42 151.68 63.13 149.52C62.65 149.7 62.18 149.88 61.7 150.06C63.8 156.03 65.91 162 68.01 167.98C69.01 170.37 70.02 172.76 71.02 175.16Z" fill="#8B3B27"/>
<path d="M90.17 93.09C88.5 94.05 86.83 95.01 85.16 95.96C81.12 94.7 77.05 93.53 73.05 92.17C59.99 87.72 46.73 84.67 32.79 86.16C34.84 81.37 36.89 76.59 38.94 71.8C40.04 72.16 41.2 72.95 42.23 72.81C53.04 71.35 63.36 72.59 72.42 78.98C78.58 83.34 84.27 88.37 90.17 93.09Z" fill="#192D3E"/>
<path d="M76.76 43.61C76.58 40.7 76.41 37.78 76.23 34.87L76.03 34.98C77.59 30.86 79.83 32.69 80.88 34.91C82.95 39.26 83.3 43.84 80.01 48.01C78.93 46.54 77.84 45.08 76.76 43.61Z" fill="#1C2F3F"/>
<path d="M94 59.99C98.68 59.99 103.36 59.86 108.03 60.08C109.43 60.15 110.77 61.18 112.15 61.78C111.94 62.18 111.73 62.59 111.52 62.99C105.36 63.29 99.19 63.59 93.03 63.88C93.34 62.59 93.67 61.29 94 59.99Z" fill="#304560"/>
<path d="M172.07 92.24C168.12 89.81 164.32 87.58 160.63 85.16C157.28 82.97 153.39 84.91 152.07 90.13C150.99 94.41 148.45 96.03 144.34 96.42C140.44 96.8 138.89 94.57 140.45 91.79C143.07 87.11 140.86 83.58 139.14 79.72C136.6 74.02 137.56 71.73 143.66 70.94C149.22 70.22 154.92 69.73 160.49 70.14C170.05 70.87 177.61 84.48 172.07 92.24Z" fill="#162635"/>
<path d="M184.54 29.63C180.76 30.29 176.95 31.63 173.22 31.44C167.27 31.14 164.95 32.4 163.73 38.76C167.61 38.76 171.45 38.76 175.47 38.76C175.47 40.23 175.47 41.67 175.47 43.18C171.62 43.18 167.88 43.18 163.84 43.18C163.63 47.79 166.23 50.2 170.31 50.93C173.39 51.48 176.62 51.11 179.75 51.41C181.37 51.57 182.94 52.28 184.53 52.75C184.46 53.38 184.38 54 184.31 54.63C178.63 54.35 172.85 54.64 167.31 53.63C160.78 52.43 157.43 46.89 157.75 39.79C158.02 33.68 162.1 29.2 168.6 27.95C170.07 27.67 171.57 27.47 173.06 27.44C176.7 27.37 180.34 27.42 183.97 27.42C184.15 28.15 184.34 28.89 184.54 29.63Z" fill="#E6EDF0"/>
<path d="M103.97 89C107.4 84.99 115.4 82.85 119.05 84.97L119.02 84.95C119.43 85.24 119.84 85.54 120.26 85.83C120.9 86.49 121.54 87.15 122.18 87.81C122.46 88.21 122.74 88.61 123.03 89.01L123 88.96C124.84 91.13 126.69 93.3 128.53 95.46C128.53 95.66 128.59 95.84 128.72 96C128.87 98.65 129.03 101.29 129.18 103.93C128.77 103.98 128.36 104.03 127.95 104.09C127.59 103.7 127.23 103.32 126.88 102.93C126.91 102.63 126.95 102.34 126.99 102.04C127.01 101.64 127.02 101.23 127.04 100.83C126.98 100.6 126.92 100.38 126.85 100.15C126.3 98.57 126.04 96.77 125.11 95.46C124.1 94.04 122.45 93.08 121.07 91.92C116.59 85.8 114.87 85.28 108.25 87.85C106.88 88.41 105.39 88.63 103.97 89Z" fill="#EE9E52"/>
<path d="M129.17 103.95C129.02 101.31 128.86 98.66 128.71 96.02C129.53 98.32 130.35 100.62 131.17 102.92C131.04 103.27 130.91 103.62 130.79 103.97C130.25 103.96 129.71 103.96 129.17 103.95Z" fill="#8B3B27"/>
<path d="M120.25 85.84C119.84 85.55 119.43 85.25 119.01 84.96C119.43 85.25 119.84 85.54 120.25 85.84Z" fill="#8B3B27"/>
<path d="M19.42 81.07C19.63 80.89 19.83 80.72 20.02 80.55C20.17 80.76 20.34 80.97 20.44 81.2C20.47 81.26 20.22 81.53 20.17 81.51C19.94 81.41 19.72 81.25 19.42 81.07Z" fill="#4B2416"/>
<path d="M33 218.12C32.71 217.75 32.41 217.37 32.12 217C32.63 217.01 33.13 217.02 33.63 217.03C33.42 217.39 33.21 217.76 33 218.12Z" fill="#BCA978"/>
<path d="M32.51 138.45C31.68 138.29 30.84 138.13 30.01 137.97C27.56 130.93 25.11 123.89 22.66 116.84C23.03 115.42 23.4 114 23.76 112.58C24.56 116.05 25.36 119.53 26.16 123C26.76 125.02 27.35 127.03 27.95 129.05C29.46 132.18 30.98 135.31 32.51 138.45Z" fill="#E3D298"/>
<path d="M26.16 123C25.36 119.52 24.56 116.05 23.76 112.58C25.43 107.69 27.11 102.8 28.78 97.91C37.52 97.28 46.25 96.15 54.99 96.18C60.89 96.19 66.79 97.82 73.83 98.9C71.44 101.75 69.38 103.26 68.67 105.26C67.23 109.29 70.59 108.84 73 109.05C72.04 110.09 71.08 111.13 70.12 112.17C64.47 106.93 57.63 108.84 51.66 110.31C46.89 111.49 40.78 113.07 40.03 119.99C37.62 119.58 35.11 119.47 32.82 118.7C28.54 117.25 26.49 118.29 26.99 123.03C26.71 123.03 26.43 123.02 26.16 123Z" fill="#293C54"/>
<path d="M73 109.04C70.59 108.84 67.23 109.28 68.67 105.25C69.38 103.25 71.44 101.74 73.83 98.89C66.79 97.81 60.89 96.18 54.99 96.17C46.26 96.15 37.52 97.27 28.78 97.9C30.12 93.98 31.46 90.07 32.79 86.15C46.73 84.66 59.99 87.71 73.05 92.16C77.05 93.52 81.12 94.69 85.16 95.95C82.23 99.21 79.32 102.49 76.36 105.72C75.3 106.9 74.12 107.94 73 109.04Z" fill="#304560"/>
<path d="M225.04 209.39C223.69 208.88 222.35 208.37 221 207.86C221.06 207.71 221.09 207.52 221.2 207.42C222.79 205.99 220.49 201.54 224.64 202.58C225.3 202.75 224.93 207.02 225.04 209.39Z" fill="#304560"/>
<path d="M184.93 209.24C184.44 210.97 183.94 212.7 183.45 214.43L183.19 214.64C182.82 214.78 182.45 214.93 182.07 215.07C181.8 215.63 181.13 216.45 181.31 216.71C183.44 219.93 185.7 223.06 187.92 226.22C187.77 226.87 187.63 227.51 187.48 228.16C186.02 227.78 184.56 227.39 183.1 227.01C176.76 222.93 170.42 218.86 164.08 214.78C162.74 213.84 161.39 212.9 160.05 211.96C159.12 211.34 158.18 210.71 157.25 210.09C159.01 209.42 160.78 208.76 162.54 208.09C170 208.48 177.46 208.86 184.93 209.24Z" fill="#E3D298"/>
<path d="M182.07 215.08C182.44 214.94 182.81 214.79 183.19 214.65C182.81 214.79 182.44 214.93 182.07 215.08Z" fill="#BCA978"/>
<path d="M164.08 214.79C170.42 218.87 176.76 222.94 183.1 227.02C178.37 225.39 173.65 223.76 168.92 222.13C167.31 219.68 165.69 217.24 164.08 214.79Z" fill="#A85932"/>
<path d="M135.21 209.81C141.27 209.38 145.11 214.75 150.67 215.74C152.53 216.07 154.24 217.31 156.02 218.13C155.99 218.74 155.96 219.35 155.94 219.96C149.47 217.23 142.99 214.53 136.56 211.72C135.95 211.45 135.65 210.46 135.21 209.81Z" fill="#E3D298"/>
<path d="M164.08 214.79C165.7 217.23 167.31 219.68 168.93 222.12C165.66 221.07 162.38 220.02 159.11 218.98C159.76 218.4 160.98 217.8 160.96 217.23C160.91 215.47 160.39 213.72 160.05 211.96C161.39 212.91 162.73 213.85 164.08 214.79Z" fill="#8B3B27"/>
<path d="M160.04 211.97C160.38 213.72 160.9 215.47 160.95 217.24C160.97 217.8 159.75 218.4 159.1 218.99C158.67 218.79 158.25 218.59 157.82 218.39C157.21 215.6 156.59 212.82 155.98 210.03C156.4 210.06 156.82 210.08 157.23 210.11C158.17 210.72 159.11 211.34 160.04 211.97Z" fill="#612E23"/>
<path d="M67 152C66.68 151.34 66.35 150.67 66.03 150.01C66.72 148.98 67.4 147.95 68.09 146.92C68.94 147.65 69.71 148.5 70.65 149.08C71.66 149.7 72.83 150.07 73.93 150.56C74.26 149.4 74.59 148.24 74.92 147.08C76.1 148.11 77.28 149.14 78.46 150.17C78.83 150.14 79.2 150.11 79.58 150.07C77.67 144.32 75.76 138.57 74.06 133.42C72.77 133.91 71.38 134.45 69.99 134.99C69.6 132.44 69.21 129.88 68.82 127.33C69.04 127.27 69.26 127.21 69.48 127.16C70.02 128.38 70.55 129.61 71.33 131.37C71.96 128.49 72.45 126.24 72.94 123.98C73.96 124.95 75.11 125.81 75.96 126.91C77.75 129.22 79.37 131.65 81.06 134.03C84.02 137.04 86.99 140.04 89.95 143.05C91.43 143.5 92.9 144.08 94.42 144.33C94.86 144.4 95.45 143.51 95.97 143.06C97.97 144.09 99.96 145.13 101.96 146.16C102.65 148.45 103.34 150.74 104.03 153.03C100.69 153.03 97.34 153.03 94 153.03C93.9 152.97 93.81 152.91 93.71 152.85C93.81 152.91 93.91 152.96 94.01 153.02C94.01 153.37 94.02 153.71 94.02 154.06C93.37 154.71 92.71 155.36 92.06 156.01C88.53 157.93 90.35 159.14 92.68 160.04C96.43 161.47 100.24 162.73 104.02 164.06C102 165.37 99.98 166.68 97.96 167.99C94.25 167.1 90.53 166.21 86.82 165.32C86.71 165.58 86.61 165.84 86.5 166.11C87.34 166.74 88.19 167.38 89.03 168.01C88.66 168.38 88.29 168.74 87.93 169.1C87.55 169.31 87.18 169.53 86.8 169.74C87.55 170.15 88.3 170.57 89.04 170.98L89.01 170.96C89.36 171.31 89.7 171.66 90.05 172.02C92.03 172.69 94.01 173.35 96 174.02C96.03 175.06 96.05 176.11 96.08 177.15C95.39 177.41 94.7 177.67 94 177.94C92 177.3 89.99 176.65 87.99 176.01C86.99 175.68 86 175.35 85 175.01C83.82 173.34 82.65 171.67 81.39 169.89C82.29 169.34 83.11 168.84 83.92 168.34C83.77 167.9 83.63 167.47 83.48 167.03C81.42 167.45 79.36 167.87 77.3 168.29C77.16 168.9 77.01 169.5 76.87 170.11C79.57 171.75 82.27 173.38 84.98 175.02C84.99 175.34 85.02 175.66 85.05 175.98C85.28 177.9 85.52 179.82 85.77 181.83C87.35 181.91 88.63 181.97 89.91 182.03L89.97 182.08C88.87 183.1 87.78 184.12 86.68 185.14C81.46 181.81 76.23 178.49 71.01 175.16C70 172.77 69 170.37 67.99 167.98C68.74 167.32 70.23 166.44 70.11 166.02C69.24 162.96 68.05 160 66.96 157C67.92 156.39 68.88 155.78 69.85 155.17C68.91 154.11 67.96 153.05 67 152ZM78.28 157.17C77.88 157.57 77.47 157.97 77.07 158.37C79.29 160.53 81.51 162.68 83.73 164.84C84.13 164.44 84.53 164.04 84.94 163.64C82.72 161.49 80.5 159.33 78.28 157.17ZM87.76 155.87C88.08 155.53 88.39 155.2 88.71 154.86C87.65 153.88 86.58 152.89 85.52 151.91C85.21 152.24 84.91 152.56 84.6 152.89C85.65 153.89 86.71 154.88 87.76 155.87ZM82.61 157.54C83.06 157.33 83.52 157.11 83.97 156.9C83.44 156.04 82.9 155.18 82.37 154.33C82.03 154.53 81.7 154.73 81.36 154.92C81.78 155.79 82.2 156.66 82.61 157.54Z" fill="#58302D"/>
<path d="M40.0201 119.98C40.7701 113.06 46.8801 111.48 51.6501 110.3C57.6201 108.83 64.4601 106.92 70.1101 112.16C67.1901 119.51 64.2701 126.86 61.3501 134.21C58.8201 133.86 56.3001 133.49 53.7701 133.16C49.1501 132.55 47.5001 134.52 48.3501 139.2C48.6301 140.74 48.1701 142.4 48.0501 144.01L48.0001 144.07C45.6201 145.45 43.2501 146.82 40.8701 148.2C38.2601 145.44 35.6501 142.68 33.0401 139.93C32.8501 139.48 32.6501 139.03 32.4601 138.58L32.4901 138.45C30.9701 135.32 29.4501 132.18 27.9301 129.05L28.0401 128.96C35.8201 133.27 55.1901 125.83 55.1401 118.33C53.3701 118.91 51.6701 119.48 49.9601 120.04C46.6601 120.02 43.3401 120 40.0201 119.98Z" fill="#1C2F3F"/>
<path d="M40.88 148.2C43.26 146.82 45.63 145.45 48.01 144.07C48.23 145.16 48.19 147.06 48.7 147.22C55.25 149.23 51.92 152.27 49.74 154.77C50.61 156.75 51.32 158.37 52.03 159.98L51.77 160.25C48.14 156.23 44.51 152.21 40.88 148.2Z" fill="#293C54"/>
<path d="M59.86 155.99C60.57 160.42 61.29 164.84 62 169.27C58.59 166.26 55.17 163.25 51.76 160.24L52.02 159.97C54.64 158.64 57.25 157.32 59.86 155.99Z" fill="#293C54"/>
<path d="M86.6899 185.13C87.7899 184.11 88.8799 183.09 89.9799 182.07C92.8699 182.43 95.7499 182.78 100.21 183.33C96.6499 185 94.2899 186.12 91.9299 187.23C90.1799 186.53 88.4399 185.83 86.6899 185.13Z" fill="#612E23"/>
<path d="M32.47 138.57C32.66 139.02 32.86 139.47 33.05 139.92C32.86 139.47 32.67 139.02 32.47 138.57Z" fill="#E3D298"/>
<path d="M136.03 123.92C136.49 119.65 140.79 120.81 142.99 118.99C144.4 119.26 145.81 119.54 147.58 119.88C148.13 122.58 148.78 125.44 145.07 126.99C142.06 125.97 139.05 124.94 136.03 123.92Z" fill="#1C2F3F"/>
<path d="M126.87 102.95C127.23 103.34 127.59 103.72 127.95 104.11C128.47 107.06 126.58 110.87 131.46 112.82C131.63 111.33 131.77 110.15 131.9 108.97C135.41 107.78 134.86 110.89 134.94 112.34C135.09 114.9 134.52 117.51 134.25 120.09C133.48 124.03 132.7 127.98 131.93 131.92L131.95 131.93C131.57 132.28 131.2 132.62 130.82 132.97C125 138.7 118.62 143.38 110.04 143.71C108.82 143.76 107.59 143.34 106.36 143.13C106.07 139.42 105.02 135.58 108.2 132.44C107.82 132.16 107.44 131.87 107.06 131.59C105 134.36 102.94 137.12 100.88 139.89C100.44 139.78 100 139.67 99.56 139.57C99.56 136.42 99.56 133.26 99.56 130.11C99.1 130.09 98.65 130.08 98.19 130.06C98.08 131.62 97.96 133.19 97.82 135.13C97.07 133.47 96.5 132.21 95.93 130.94C95.75 129.75 95.57 128.56 95.29 126.67C93.31 128.47 91.93 129.71 90.38 131.11C86.46 127.6 87.17 123.86 88.98 119.97C90.16 119.53 91.62 119.4 92.49 118.61C95.89 115.54 98.03 115.95 99.89 120.23C100.54 121.73 101.36 123.16 102.53 125.47C103.88 122.69 104.71 120.97 105.18 120C103.06 117.97 100.83 116.37 99.35 114.25C98.1 112.47 97.72 110.09 96.95 107.98C97.89 108.17 99.03 108.07 99.73 108.58C102.63 110.69 105.39 112.97 107.44 114.59C107.13 112.89 106.56 109.83 105.99 106.77C112.51 114.11 116.51 122.26 114.81 132.57C115.85 128.74 116.81 124.71 116 121.07C115.02 116.64 113.17 112.1 110.55 108.43C107.93 104.76 103.88 102.11 100.46 99.02C99.98 99.36 99.49 99.7 99.01 100.03L99.06 99.99C98.72 100.33 98.37 100.67 98.03 101.01H98.06C97.34 100.99 96.62 100.97 95.9 100.95C94.31 96.29 97.5 94.49 100.79 92.74C101.43 93.74 101.83 95.17 102.75 95.67C106.24 97.6 109.86 99.3 113.49 100.94C114.59 101.44 115.9 101.49 117.12 101.74C118.11 102.89 119.45 103.89 120.03 105.22C121.52 108.68 122.68 112.29 123.97 115.84C124.77 118.39 126.11 117.91 126.62 115.95C127.1 114.13 126.56 112.06 126.58 110.1C126.61 107.74 126.77 105.35 126.87 102.95Z" fill="#D36532"/>
<path d="M96.94 107.99C97.71 110.1 98.09 112.48 99.34 114.26C100.83 116.38 103.05 117.98 105.17 120.01C104.7 120.98 103.87 122.7 102.52 125.48C101.35 123.17 100.53 121.74 99.88 120.24C98.02 115.97 95.88 115.55 92.48 118.62C91.61 119.41 90.16 119.54 88.97 119.98C88.03 119.31 87.09 118.63 86.15 117.96C86.12 117.32 86.08 116.68 86.05 116.04C87.7 113.64 89.35 111.24 91.21 108.53C89.83 107.99 88.76 107.57 87.23 106.98C90.86 101.02 91.76 93.04 100.77 92.19C100.8 92.38 100.8 92.58 100.78 92.77C97.49 94.52 94.3 96.32 95.89 100.98C95.94 101.65 95.98 102.33 96.03 103C95.39 103.73 94.76 104.45 94.12 105.18C93.77 106.3 93.41 107.43 93.06 108.55C93.72 108.36 94.38 108.18 95.05 107.99C95.68 107.99 96.31 107.99 96.94 107.99Z" fill="#EE9E52"/>
<path d="M95.93 130.94C96.5 132.21 97.07 133.47 97.82 135.13C97.96 133.19 98.08 131.62 98.19 130.06C98.65 130.08 99.1 130.09 99.56 130.11C99.56 133.26 99.56 136.42 99.56 139.57C100 139.68 100.44 139.79 100.88 139.89C102.94 137.12 105 134.36 107.06 131.59C107.44 131.87 107.82 132.16 108.2 132.44C105.03 135.59 106.08 139.42 106.36 143.13C101.92 144.41 96.53 141 95.96 136.4C95.73 134.61 95.92 132.76 95.93 130.94Z" fill="#EE9E52"/>
<path d="M79.92 119.87C80.25 118.53 80.58 117.19 80.91 115.84C82.29 116.56 83.68 117.28 85.06 118C85.35 121.32 85.65 124.64 85.94 127.97C84.94 128.35 83.94 128.73 82.93 129.11C82.62 129.11 82.31 129.09 82 129.05C81.7 129.09 81.4 129.13 81.1 129.18C81.13 129.47 81.13 129.76 81.09 130.04C80.7 126.66 80.31 123.27 79.92 119.87Z" fill="#58302D"/>
<path d="M79.9199 119.87C80.3099 123.26 80.6999 126.65 81.0899 130.05C81.0799 131.37 81.0699 132.69 81.0599 134.01C79.3699 131.63 77.7399 129.2 75.9599 126.89C75.1099 125.79 73.9599 124.93 72.9399 123.96C75.2699 122.6 77.5899 121.24 79.9199 119.87Z" fill="#612E23"/>
<path d="M95.97 143.03C95.45 143.48 94.86 144.37 94.42 144.3C92.9 144.05 91.44 143.48 89.95 143.02C89.81 140.94 89.67 138.86 89.53 136.78C91.91 136.49 91.91 136.49 95.97 143.03Z" fill="#4B2416"/>
<path d="M85.06 118.01C83.68 117.29 82.29 116.57 80.91 115.85C81.41 114.73 81.9 113.6 82.48 112.3C83.86 113.74 84.95 114.89 86.05 116.04C86.08 116.68 86.12 117.32 86.15 117.96C85.79 117.97 85.43 117.99 85.06 118.01Z" fill="#612E23"/>
<path d="M82.9399 129.12C83.9399 128.74 84.9399 128.36 85.9499 127.98C85.9499 129.4 85.9499 130.82 85.9499 132.24C85.5999 132.35 85.2499 132.46 84.8999 132.56C84.2399 131.41 83.5899 130.27 82.9399 129.12Z" fill="#612E23"/>
<path d="M130.81 132.98C131.19 132.63 131.56 132.29 131.94 131.94C131.93 132.38 131.91 132.81 131.9 133.25C131.54 133.16 131.18 133.07 130.81 132.98Z" fill="#293C54"/>
<path d="M131.96 133.92C132.07 134.17 132.2 134.42 132.26 134.68C132.27 134.75 132.04 134.86 131.91 134.96C131.92 134.62 131.94 134.27 131.96 133.92Z" fill="#293C54"/>
<path d="M81.1 129.19C81.4 129.15 81.7 129.11 82 129.06C81.7 129.08 81.4 129.12 81.1 129.19Z" fill="#612E23"/>
<path d="M117 179C115.29 181.95 113.57 184.9 111.86 187.85C111.29 187.6 110.73 187.35 110.16 187.1C109.22 182.03 113.96 178.95 115.72 174.84C116.15 176.23 116.58 177.61 117 179Z" fill="#A85932"/>
<path d="M115.68 172.2C115.12 172.12 114.55 172.04 113.99 171.96C114.35 171.5 114.71 171.05 115.07 170.59C115.27 171.13 115.47 171.67 115.68 172.2Z" fill="#A85932"/>
<path d="M94 153.01C97.34 153.01 100.69 153.01 104.03 153.01C104.98 153.06 105.92 153.1 107.28 153.17C106 154.69 105 155.88 103.99 157.06C100.66 156.05 97.34 155.04 94.01 154.04C94.01 153.69 94.01 153.34 94 153.01Z" fill="#4B2416"/>
<path d="M134.25 120.1C134.52 117.51 135.1 114.91 134.94 112.35C134.85 110.9 135.41 107.79 131.9 108.98C131.63 107.68 131.35 106.38 131.08 105.08C131.46 105.38 131.82 105.7 132.22 105.97C134.01 107.23 137.42 108.62 137.32 109.69C136.97 113.22 135.37 116.64 134.25 120.1Z" fill="#BCA978"/>
<path d="M131.08 105.07C131.35 106.37 131.63 107.67 131.9 108.97C131.76 110.15 131.63 111.33 131.46 112.82C126.58 110.87 128.47 107.05 127.95 104.11C128.36 104.06 128.77 104.01 129.18 103.95C129.72 103.95 130.26 103.96 130.8 103.96C130.89 104.33 130.98 104.7 131.08 105.07Z" fill="#D88A42"/>
<path d="M157.24 210.1C156.82 210.07 156.4 210.05 155.99 210.02C153.6 207.35 151.22 204.68 148.83 202.01C148.88 201.37 148.93 200.73 148.98 200.08C151.67 201.35 154.36 202.62 157.05 203.89C155.33 209.9 160.2 207.35 162.53 208.1C160.77 208.77 159 209.43 157.24 210.1Z" fill="#58302D"/>
<path d="M104.02 164.03C100.24 162.7 96.42 161.44 92.68 160.01C90.35 159.12 88.52 157.9 92.06 155.98C95.08 157.4 98.15 158.7 101.09 160.28C102.5 161.05 106.3 160.28 104.02 164.03Z" fill="#4B2416"/>
<path d="M87.9901 175.99C89.9901 176.63 92.0001 177.28 94.0001 177.92C92.0001 177.64 90.0001 177.36 87.5701 177.02C88.5101 179.03 89.2101 180.52 89.9201 182.01C88.6401 181.95 87.3601 181.88 85.7801 181.81C85.5301 179.8 85.3001 177.88 85.0601 175.96C86.0401 175.98 87.0201 175.98 87.9901 175.99Z" fill="#612E23"/>
<path d="M96.08 177.14C96.05 176.1 96.03 175.05 96 174.01C99.03 173.84 102.06 173.67 105.09 173.5C105.16 174.15 105.23 174.79 105.31 175.44C102.23 176 99.16 176.57 96.08 177.14Z" fill="#612E23"/>
<path d="M89.04 167.99C88.2 167.36 87.35 166.72 86.51 166.09C86.62 165.83 86.72 165.57 86.83 165.3C90.54 166.19 94.26 167.08 97.97 167.97C94.99 167.97 92.01 167.98 89.04 167.99Z" fill="#4B2416"/>
<path d="M89.04 170.97C88.29 170.56 87.54 170.14 86.8 169.73C87.18 169.52 87.55 169.3 87.93 169.09C88.3 169.71 88.67 170.34 89.04 170.97Z" fill="#4B2416"/>
<path d="M121.09 194.06C120.87 194.61 120.66 195.17 120.44 195.72C120.21 195.6 119.98 195.47 119.74 195.35C120.12 194.87 120.5 194.38 120.88 193.9C120.89 193.9 121.09 194.06 121.09 194.06Z" fill="#A85932"/>
<path d="M120.89 193.9C121.25 192.93 121.61 191.95 121.96 190.98C121.96 190.98 122.06 191.06 122.06 191.07C121.74 192.07 121.41 193.07 121.09 194.07C121.09 194.06 120.89 193.9 120.89 193.9Z" fill="#A85932"/>
<path d="M90.05 172C89.7 171.65 89.36 171.3 89.01 170.94C89.36 171.3 89.71 171.65 90.05 172Z" fill="#4B2416"/>
<path d="M100.78 92.76C100.8 92.57 100.8 92.37 100.77 92.18C101.23 92.1 101.7 92.03 102.16 91.95C102.77 90.95 103.38 89.95 104 88.95L103.96 88.99C105.39 88.62 106.87 88.4 108.24 87.87C114.86 85.3 116.58 85.82 121.06 91.94C118.77 93.18 118.91 94.71 120.76 96.12C122.69 97.59 124.81 98.83 126.85 100.17C126.92 100.39 126.98 100.62 127.04 100.85C127.02 101.25 127.01 101.65 126.99 102.06C126.94 102.35 126.91 102.65 126.88 102.95C126.78 105.35 126.62 107.74 126.59 110.14C126.56 112.1 127.1 114.17 126.63 115.99C126.12 117.95 124.78 118.43 123.98 115.88C125.83 105.75 119.03 99.42 114.26 92.21C113.74 92.45 113.22 92.68 112.7 92.92C114.18 95.87 115.65 98.83 117.13 101.78C115.92 101.53 114.61 101.48 113.5 100.98C109.87 99.34 106.24 97.64 102.76 95.71C101.83 95.19 101.42 93.76 100.78 92.76ZM112.72 90.4C112.22 89.92 111.94 89.46 111.6 89.4C111.25 89.35 110.84 89.7 110.46 89.88C110.72 90.2 110.93 90.7 111.25 90.79C111.59 90.89 112.04 90.6 112.72 90.4Z" fill="#A85932"/>
<path d="M59.86 155.99C57.25 157.32 54.64 158.64 52.03 159.97C51.32 158.36 50.61 156.74 49.74 154.76C51.93 152.26 55.25 149.22 48.7 147.21C48.2 147.06 48.23 145.15 48.01 144.06L48.06 144.01C50.44 142.56 52.96 141.3 55.16 139.61C56.77 138.37 57.72 135.75 60.2 138.32C60.15 142.21 60.11 146.09 60.06 149.98C60.01 151.31 59.95 152.63 59.9 153.96C59.89 154.63 59.88 155.31 59.86 155.99Z" fill="#304560"/>
<path d="M60.2001 138.32C57.7201 135.75 56.7701 138.37 55.1601 139.61C52.9701 141.3 50.4401 142.57 48.0601 144.01C48.1801 142.4 48.6301 140.73 48.3601 139.2C47.5101 134.52 49.1601 132.56 53.7801 133.16C56.3101 133.49 58.8301 133.86 61.3601 134.21C60.9701 135.58 60.5901 136.95 60.2001 138.32Z" fill="#293C54"/>
<path d="M69.99 134.98C71.38 134.44 72.77 133.91 74.06 133.41C75.77 138.56 77.68 144.31 79.58 150.06C79.21 150.09 78.84 150.12 78.46 150.16C77.28 149.13 76.1 148.1 74.92 147.07L74.93 147.04C74.29 146.33 73.65 145.63 73.01 144.93C72.99 144.65 72.97 144.37 72.96 144.09C72.31 143.05 71.65 142 70.99 140.96C70.67 138.97 70.33 136.97 69.99 134.98Z" fill="#4B2416"/>
<path d="M66.98 157C68.07 159.99 69.2599 162.96 70.1299 166.02C70.2499 166.44 68.75 167.31 68.01 167.98C65.91 162.01 63.8 156.04 61.7 150.06C62.18 149.88 62.65 149.7 63.13 149.52C64.42 151.68 65.6999 153.84 66.9899 156C66.9799 156.33 66.98 156.67 66.98 157Z" fill="#4B2416"/>
<path d="M68.1 146.92C67.41 147.95 66.73 148.98 66.04 150.01C65.45 146.39 64.87 142.77 64.28 139.14C64.58 139.04 64.87 138.93 65.17 138.83C66.14 141.52 67.12 144.22 68.1 146.92Z" fill="#612E23"/>
<path d="M66.98 157C66.98 156.67 66.98 156.33 66.98 156C66.99 154.67 67 153.33 67.01 152C67.96 153.06 68.92 154.11 69.87 155.17C68.9 155.78 67.94 156.39 66.98 157Z" fill="#612E23"/>
<path d="M59.9 153.95C59.95 152.62 60.01 151.3 60.06 149.97C60.01 151.3 59.96 152.63 59.9 153.95Z" fill="#293C54"/>
<path d="M73.02 144.93C73.66 145.63 74.3 146.34 74.94 147.04C74.3 146.34 73.66 145.64 73.02 144.93Z" fill="#58302D"/>
<path d="M126.84 100.18C124.8 98.84 122.69 97.6 120.75 96.13C118.9 94.72 118.77 93.18 121.05 91.95C122.42 93.11 124.08 94.07 125.09 95.49C126.04 96.8 126.29 98.6 126.84 100.18Z" fill="#D36532"/>
<path d="M26.16 123C26.43 123.02 26.71 123.03 26.98 123.02C27.32 123.35 27.67 123.67 28.01 124C28.02 125.65 28.04 127.31 28.05 128.96L27.94 129.05C27.35 127.03 26.75 125.02 26.16 123Z" fill="#1C2F3F"/>
<path d="M28.01 124C27.67 123.67 27.32 123.35 26.98 123.02C26.48 118.28 28.53 117.25 32.81 118.69C35.1 119.46 37.61 119.57 40.02 119.98C43.34 120 46.66 120.02 49.97 120.03C48.99 120.68 48.06 121.78 47.02 121.92C40.7 122.74 34.35 123.33 28.01 124Z" fill="#304560"/>
<path d="M84.99 175.01C82.29 173.37 79.59 171.74 76.88 170.1C77.02 169.49 77.17 168.89 77.31 168.28C79.37 167.86 81.43 167.44 83.49 167.02C83.64 167.46 83.78 167.89 83.93 168.33C83.12 168.83 82.3 169.33 81.4 169.88C82.66 171.66 83.83 173.33 85.01 175C85.01 174.99 84.99 175.01 84.99 175.01Z" fill="#4B2416"/>
<path d="M78.2801 157.17C80.5001 159.33 82.7101 161.49 84.9301 163.65C84.5301 164.05 84.1301 164.45 83.7201 164.85C81.5001 162.69 79.2801 160.54 77.0601 158.38C77.4701 157.97 77.8801 157.57 78.2801 157.17Z" fill="#4B2416"/>
<path d="M87.76 155.87C86.71 154.88 85.65 153.89 84.6 152.89C84.91 152.56 85.21 152.24 85.52 151.91C86.58 152.89 87.65 153.88 88.71 154.86C88.39 155.2 88.08 155.54 87.76 155.87Z" fill="#4B2416"/>
<path d="M82.61 157.54C82.19 156.67 81.78 155.79 81.36 154.92C81.7 154.72 82.03 154.52 82.37 154.33C82.9 155.19 83.44 156.05 83.97 156.9C83.52 157.11 83.07 157.32 82.61 157.54Z" fill="#4B2416"/>
<path d="M87.99 175.99C87.01 175.98 86.04 175.98 85.06 175.97C85.02 175.65 85 175.33 84.99 175L85 174.99C86 175.33 87 175.66 87.99 175.99Z" fill="#4B2416"/>
<path d="M94.01 153C93.91 152.94 93.81 152.89 93.71 152.83C93.8 152.89 93.9 152.95 94.01 153Z" fill="#4B2416"/>
<path d="M28.01 124C34.35 123.33 40.7 122.74 47.02 121.93C48.07 121.8 48.99 120.69 49.97 120.04C51.68 119.48 53.38 118.91 55.15 118.33C55.2 125.83 35.83 133.28 28.05 128.96C28.04 127.3 28.03 125.65 28.01 124Z" fill="#293C54"/>
<path d="M100.45 99.03C103.87 102.13 107.92 104.78 110.54 108.44C113.17 112.11 115.01 116.65 115.99 121.08C116.8 124.72 115.84 128.75 114.8 132.58C116.49 122.27 112.5 114.11 105.98 106.78C105.71 106.52 105.44 106.27 105.17 106.01C104.78 105.62 104.38 105.24 103.99 104.85C103.73 104.56 103.47 104.28 103.22 103.99C102.81 103.58 102.4 103.17 102 102.76C100.71 102.5 99.42 102.24 98.13 101.98C98.08 101.66 98.06 101.34 98.05 101.02H98.02C98.37 100.68 98.71 100.34 99.05 100L99 100.04C99.48 99.71 99.97 99.37 100.45 99.03Z" fill="#8B3B27"/>
<path d="M103.22 104C103.48 104.29 103.74 104.57 103.99 104.86C104.38 105.25 104.78 105.63 105.17 106.02C105.44 106.28 105.71 106.53 105.98 106.79C106.55 109.85 107.11 112.92 107.43 114.61C105.38 112.99 102.62 110.7 99.72 108.6C99.02 108.09 97.88 108.18 96.94 108C96.31 108 95.68 108 95.05 108C94.74 107.06 94.43 106.13 94.12 105.19C94.76 104.46 95.39 103.74 96.02 103.01C96.72 102.68 97.42 102.34 98.12 102.01C99.41 102.27 100.7 102.53 101.99 102.79C102.4 103.18 102.81 103.59 103.22 104Z" fill="#A85932"/>
<path d="M117.11 101.77C115.63 98.82 114.16 95.86 112.68 92.91C113.2 92.67 113.72 92.44 114.24 92.2C119.01 99.42 125.8 105.74 123.96 115.87C122.67 112.32 121.51 108.71 120.02 105.24C119.44 103.92 118.1 102.92 117.11 101.77Z" fill="#EE9E52"/>
<path d="M98.12 101.99C97.42 102.32 96.72 102.66 96.02 102.99C95.97 102.31 95.93 101.64 95.88 100.97C96.6 100.99 97.32 101.01 98.04 101.03C98.05 101.35 98.08 101.67 98.12 101.99Z" fill="#D88A42"/>
<path d="M99.05 100.01C98.71 100.35 98.36 100.69 98.02 101.03C98.36 100.69 98.7 100.35 99.05 100.01Z" fill="#D88A42"/>
<path d="M94.1201 105.18C94.4301 106.12 94.7401 107.05 95.0501 107.99C94.3901 108.18 93.7301 108.36 93.0601 108.55C93.4201 107.42 93.7701 106.3 94.1201 105.18Z" fill="#D36532"/>
<path d="M112.72 90.4C112.04 90.6 111.59 90.89 111.26 90.79C110.93 90.69 110.73 90.2 110.47 89.88C110.85 89.7 111.26 89.35 111.61 89.4C111.94 89.46 112.22 89.93 112.72 90.4Z" fill="#EE9E52"/>
<path d="M105.18 106.01C104.79 105.62 104.39 105.24 104 104.85C104.39 105.24 104.78 105.63 105.18 106.01Z" fill="#D36532"/>
</g>
<defs>
<clipPath id="clip0_402_3553">
<rect width="246" height="246" fill="white"/>
</clipPath>
</defs>
</svg>
