<svg width="400" height="308" viewBox="0 0 400 308" fill="none" xmlns="http://www.w3.org/2000/svg">
<g clip-path="url(#clip0_41_7)">
<path d="M0 200.949C0 142.195 88.3425 94.5641 198.801 94.5641C309.255 94.5641 400 142.195 400 200.949C400 259.702 309.255 307.334 198.801 307.334C88.3425 307.334 0 259.702 0 200.949Z" fill="#F03749"/>
<path d="M14.6177 197.554C14.6177 143.095 96.4157 98.9464 198.802 98.9464C301.183 98.9464 385.384 143.095 385.384 197.554C385.384 252.016 301.183 296.166 198.802 296.166C96.4157 296.166 14.6177 252.016 14.6177 197.554Z" fill="#F5B723"/>
<path d="M54.8682 195.701C54.8682 154.121 120.636 120.416 198.802 120.416C276.964 120.416 337.93 154.121 337.93 195.701C337.93 237.277 276.964 270.985 198.802 270.985C120.636 270.985 54.8682 237.277 54.8682 195.701Z" fill="#F57D36"/>
<path d="M332.259 174.159C322.446 156.049 300.518 140.796 271.245 131.22C278.603 129.14 286.977 127.957 295.786 127.957C324.104 127.957 346.193 140.169 346.193 155.235C346.193 162.584 340.934 169.255 332.259 174.159Z" fill="#EA8115"/>
<path d="M295.786 182.507C267.466 182.507 243.638 170.297 243.638 155.235C243.638 144.854 254.947 135.831 271.245 131.22C300.518 140.796 322.446 156.049 332.259 174.159C323.153 179.306 310.287 182.507 295.786 182.507Z" fill="#EE651D"/>
<path d="M76.2577 156.457C70.6204 152.305 67.2776 147.243 67.2776 141.781C67.2776 127.674 89.5925 116.234 116.115 116.234C130.288 116.234 142.794 119.501 151.368 124.696C120.149 130.496 93.5673 141.829 76.2577 156.457Z" fill="#EA8115"/>
<path d="M116.115 167.328C99.8593 167.328 85.1843 163.03 76.2578 156.457C93.5674 141.829 120.149 130.496 151.368 124.696C158.839 129.223 163.325 135.212 163.325 141.781C163.325 155.89 142.638 167.328 116.115 167.328Z" fill="#EE651D"/>
<path d="M105.571 265.434C80.0922 265.434 58.6541 254.445 58.6541 240.893C58.6541 235.528 62.0132 230.565 67.6531 226.528C80.6534 241.452 102.722 253.794 129.942 261.657C122.95 264.048 114.613 265.434 105.571 265.434Z" fill="#EA8115"/>
<path d="M129.943 261.657C102.722 253.794 80.6536 241.452 67.6533 226.528C76.2606 220.363 90.1788 216.352 105.571 216.352C131.049 216.352 150.922 227.34 150.922 240.893C150.922 249.636 142.652 257.31 129.943 261.657Z" fill="#EE651D"/>
<path d="M293.7 70.8676C290.043 72.0047 279.034 79.9294 275.63 81.7913C272.336 83.594 268.773 83.2462 267.251 89.1434C266.084 93.6615 269.323 95.109 271.015 95.5468C275.885 96.8056 295.424 87.9926 295.424 87.9926L303.674 70.3935C305.248 69.6109 303.996 68.7915 293.7 70.8676Z" fill="#FABAAC"/>
<path d="M324.803 140.775C326.03 139.083 331.655 145.202 339.794 138.098C330.417 128.523 312.524 128.113 307.904 127.374C295.949 125.466 291.03 130.625 291.03 130.625C289.948 130.56 283.002 115.178 271.721 110.632C270.349 114.874 277.39 123.966 275.04 127.787C273.222 130.744 270.824 127.568 268.568 130.192C270.326 132.869 276.12 140.14 278.044 142.699C283.421 149.847 289.341 151.442 297.266 153.849C300.313 157.398 307.745 159.32 313.946 159.173C318.227 159.071 321.125 156.86 327.708 155.212C325.768 148.96 320.837 146.248 324.803 140.775Z" fill="#3B1F1F"/>
<path d="M275.04 127.787C278.836 122.937 278.76 115.15 278.76 115.15C278.76 115.15 269.882 107.439 264.567 106.839C257.388 106.026 255.674 111.615 255.146 113.424C252.677 121.906 257.89 133.458 262.344 140.771C266.429 147.473 273.282 162.637 273.282 162.637L282.624 158.245C282.624 158.245 279.57 132.724 275.04 127.787Z" fill="#3B1F1F"/>
<path d="M271.721 159.244C271.721 159.244 273.44 165.106 274.264 167.026C275.086 168.948 278.653 181.113 283.045 186.51C287.434 191.905 292.558 188.511 294.022 185.727C295.484 182.943 293.718 173.844 292.466 171.144C289.669 165.113 282.389 156.417 282.389 156.417L271.721 159.244Z" fill="#F8AC9E"/>
<path d="M331.303 83.6076C330.477 79.4762 318.402 70.3083 318.402 70.3083C318.402 70.3083 311.158 75.5309 308.606 77.3382C306.164 79.0688 302.007 83.6076 301.655 83.9943L301.597 83.9825C301.685 83.2076 302.458 76.9948 305.222 70.4579C306.092 68.4002 305.222 62.2201 305.222 62.2201C305.222 62.2201 304.258 61.9301 302.854 61.6078C300.617 63.8566 296.142 69.8986 293.753 72.3729C291.447 74.7644 282.587 82.1455 284.581 90.3212C285.172 92.7498 285.948 94.8699 287.073 97.8989C288.335 101.297 287.939 107.635 287.589 111.069C287.188 115.012 284.15 122.329 284.15 122.329C284.15 122.329 284.15 133.78 301.321 136.256C312.588 137.882 322.508 129.531 322.508 129.531C322.508 129.531 320.322 113.792 321.39 106.758C322.589 98.8447 334.031 97.2452 331.303 83.6076Z" fill="#F03749"/>
<path d="M301.36 68.5061C301.36 68.5061 296.936 77.3534 295.992 83.2389C295.049 89.1271 294.959 97.0385 294.959 97.0385C294.959 97.0385 302.219 87.7272 307.328 85.5111C312.44 83.2948 322.508 74.2787 322.508 74.2787C322.508 74.2787 311.076 61.8495 301.36 68.5061Z" fill="#E72530"/>
<path d="M294.764 45.047H293.348C293.348 45.047 286.144 49.4548 284.977 52.256C283.81 55.0618 284.639 57.3359 285.967 59.6813C287.292 62.0291 286.818 63.2236 284.942 65.5299C283.066 67.8386 284.823 71.0402 287.14 72.8839C289.461 74.7276 290.805 77.2383 289.937 79.363C289.55 80.3097 287.783 80.1578 287.783 80.1578C287.783 80.1578 288.137 83.3316 291.783 81.2941C295.146 79.4088 292.05 75.7357 296.444 74.4261C300.84 73.1164 301.36 68.5061 301.36 68.5061L294.764 45.047Z" fill="#3B1F1F"/>
<path d="M304.445 63.1293C304.445 63.1293 304.196 70.1587 302.769 73.8437C301.653 75.4158 300.352 80.4768 300.755 84.9635C303.124 83.7712 307.101 79.9753 309.366 78.0232C312.103 75.6552 319.265 71.0356 319.265 71.0356L319.024 50.219L304.445 63.1293Z" fill="#F68C83"/>
<path d="M312.827 38.4135C308.224 34.9057 297.325 33.7825 293.346 45.047C289.175 56.8548 299.862 71.6088 305.559 69.1022C308.749 67.6959 315.454 62.7127 317.341 56.4935C319.468 49.4963 316.402 41.1341 312.827 38.4135Z" fill="#FABAAC"/>
<path d="M326.161 59.6813C325.703 57.3358 324.366 55.6832 324.004 54.0421C323.512 51.7956 325.484 49.8414 324.686 46.6605C324.046 44.1056 322.085 43.1411 322.076 40.7566C322.062 38.372 323.185 35.1381 319.265 33.3221C317.104 32.3185 316.319 33.0343 313.785 31.6717C311.251 30.3091 311.4 27.234 307.329 27.4458C304.454 27.5954 303.568 29.5173 301.777 31.2183C299.988 32.9216 297.583 30.0835 293.914 31.4439C290.245 32.8065 292.667 35.9874 290.505 37.6907C288.346 39.394 285.513 41.0972 287.143 45.4751C288.772 49.8552 289.84 52.4147 289.84 52.4147C289.84 52.4147 291.866 52.958 294.764 51.6989C297.664 50.4422 299.137 47.0011 299.137 47.0011C300.755 55.3655 307.8 56.8778 310.585 60.259C311.299 61.1221 311.561 63.7852 311.06 64.7151C309.469 67.6682 307.89 70.1702 309.131 72.0967C310.369 74.0232 312.763 77.0914 311.288 78.6823C309.81 80.2701 305.832 83.3523 307.329 85.5111C308.825 87.668 310.834 87.9925 310.834 87.9925C310.834 87.9925 308.475 85.163 310.406 84.13C312.335 83.0986 316.694 82.3137 316.694 80.3824C316.694 78.4538 313.953 77.3029 317.191 76.7346C320.43 76.1661 325.583 75.5009 324.301 70.1748C323.576 67.1687 326.845 63.173 326.161 59.6813Z" fill="#3B1F1F"/>
<path d="M334.986 135.265C330.415 134.536 326.891 137.852 324.525 139.362C319.599 142.504 307.264 152.215 303.715 154.514C299.563 157.202 296.345 159.06 292.738 160.185C293.175 162.874 294.064 167.615 295.548 172.536L296.158 172.442C317.939 169.333 333.239 162.015 339.196 151.952C345.15 141.891 339.562 135.997 334.986 135.265Z" fill="#3B1F1F"/>
<path d="M285.096 161.466C282.479 161.592 270.591 163.113 264.555 163.205C258.518 163.295 260.341 174.27 263.227 177.004C265.815 179.45 281.77 174.58 295.548 172.536C294.063 167.615 293.175 162.874 292.738 160.185C290.457 160.899 288.024 161.323 285.096 161.466Z" fill="#FABAAC"/>
<path d="M337.711 93.4591C335.078 87.0277 334.588 79.4159 325.837 77.2544C319.335 75.6483 315.493 93.353 322.509 100.78C324.941 103.356 329.978 110.024 334.213 115.026C333.331 117.558 331.366 122.148 330.726 125.388C329.492 131.647 328.647 142.13 326.256 142.716C323.867 143.297 319.496 140.529 315.705 143.297C311.916 146.067 312.646 150.293 312.791 151.167C312.938 152.042 319.051 147.671 323.717 148.398C328.385 149.125 331.009 152.042 333.633 146.797C336.254 141.549 339.884 130.489 341.781 127.266C343.192 124.866 344.718 117.627 345.853 114.216C346.601 111.967 345.915 111.182 345.694 110.632C343.387 104.836 339.615 98.1038 337.711 93.4591Z" fill="#FABAAC"/>
<path d="M271.111 87.9926L270.214 84.6758C270.214 84.6758 265.914 88.0501 266.934 93.8941C267.953 99.7375 270.432 101.959 272.925 103.708C276.281 106.061 279.365 108.786 282.091 108.662C284.813 108.54 278.254 100.454 277.816 100.014C277.379 99.5794 271.111 87.9926 271.111 87.9926Z" fill="#FABAAC"/>
<path d="M271.015 85.6908C271.015 85.6908 274.707 99.5191 277.816 103.405C280.926 107.292 280.417 110.148 280.417 110.148L291.417 119.146C291.417 119.146 294.568 116.043 292.402 106.903C290.398 98.4375 286.657 90.1925 286.657 90.1925L271.015 85.6908Z" fill="white"/>
<path d="M271.015 102.417C271.015 102.417 273.89 97.6848 277.775 99.8211C281.663 101.959 285.147 105.437 283.891 106.758C282.634 108.079 281.674 108.984 278.123 107.9C274.569 106.818 271.015 102.417 271.015 102.417Z" fill="#FABAAC"/>
<path d="M233.676 243.889L114.533 175.105L179.959 137.329L299.1 206.119L233.676 243.889Z" fill="white"/>
<path d="M234.203 241.083L119.111 174.633L179.531 139.75L294.623 206.199L234.203 241.083Z" fill="#BFDEF5"/>
<path d="M282.852 212.993L167.76 146.546L179.531 139.75L294.623 206.199L282.852 212.993Z" fill="#559DDB"/>
<path d="M234.203 241.083L119.111 174.633L130.882 167.837L245.974 234.284L234.203 241.083Z" fill="#559DDB"/>
<path d="M132.284 178.799L186.208 147.666L176.014 141.781L122.09 172.914L132.284 178.799Z" fill="#559DDB"/>
<path d="M237.182 239.362L291.104 208.229L280.912 202.343L226.988 233.477L237.182 239.362Z" fill="#559DDB"/>
<path d="M200.734 151.993L200.191 151.678L188.419 158.475L188.963 158.788L200.734 151.993Z" fill="white"/>
<path d="M190.268 145.952L189.725 145.636L177.954 152.432L178.498 152.746L190.268 145.952Z" fill="white"/>
<path d="M211.2 158.035L210.656 157.72L198.886 164.517L199.429 164.83L211.2 158.035Z" fill="white"/>
<path d="M221.666 164.078L221.123 163.765L209.352 170.559L209.895 170.875L221.666 164.078Z" fill="white"/>
<path d="M232.132 170.12L231.588 169.807L219.817 176.601L220.361 176.917L232.132 170.12Z" fill="white"/>
<path d="M242.597 176.162L242.054 175.849L230.283 182.646L230.826 182.959L242.597 176.162Z" fill="white"/>
<path d="M232.132 170.12L231.588 169.807L219.817 176.601L220.361 176.917L232.132 170.12Z" fill="white"/>
<path d="M253.064 182.204L252.52 181.891L240.75 188.688L241.293 189.001L253.064 182.204Z" fill="white"/>
<path d="M263.529 188.245L262.986 187.933L251.215 194.73L251.758 195.043L263.529 188.245Z" fill="white"/>
<path d="M273.995 194.287L273.452 193.977L261.681 200.772L262.224 201.086L273.995 194.287Z" fill="white"/>
<path d="M284.429 200.313L283.886 200.001L272.115 206.795L272.658 207.111L284.429 200.313Z" fill="white"/>
<path d="M152.086 180.082L151.542 179.766L139.771 186.561L140.313 186.876L152.086 180.082Z" fill="white"/>
<path d="M141.62 174.037L141.076 173.724L129.305 180.519L129.848 180.834L141.62 174.037Z" fill="white"/>
<path d="M162.551 186.124L162.008 185.808L150.237 192.605L150.78 192.918L162.551 186.124Z" fill="white"/>
<path d="M173.016 192.166L172.474 191.85L160.702 198.647L161.246 198.96L173.016 192.166Z" fill="white"/>
<path d="M183.483 198.208L182.939 197.895L171.169 204.689L171.711 205.004L183.483 198.208Z" fill="white"/>
<path d="M193.949 204.25L193.405 203.937L181.634 210.731L182.177 211.046L193.949 204.25Z" fill="white"/>
<path d="M183.483 198.208L182.939 197.895L171.169 204.689L171.711 205.004L183.483 198.208Z" fill="white"/>
<path d="M204.414 210.293L203.871 209.979L192.099 216.773L192.642 217.088L204.414 210.293Z" fill="white"/>
<path d="M214.88 216.335L214.337 216.021L202.565 222.817L203.109 223.13L214.88 216.335Z" fill="white"/>
<path d="M225.346 222.377L224.803 222.063L213.032 228.859L213.575 229.172L225.346 222.377Z" fill="white"/>
<path d="M235.78 228.401L235.237 228.086L223.466 234.883L224.009 235.196L235.78 228.401Z" fill="white"/>
<path d="M282.228 213.355L282.857 212.992L272.663 207.106L272.034 207.469L282.228 213.355Z" fill="white"/>
<path d="M270.144 220.332L270.771 219.97L260.576 214.085L259.95 214.446L270.144 220.332Z" fill="white"/>
<path d="M258.058 227.308L258.687 226.947L248.492 221.061L247.864 221.425L258.058 227.308Z" fill="white"/>
<path d="M245.974 234.284L246.603 233.923L236.406 228.04L235.78 228.401L245.974 234.284Z" fill="white"/>
<path d="M177.33 152.792L177.958 152.429L167.764 146.543L167.135 146.907L177.33 152.792Z" fill="white"/>
<path d="M165.246 159.769L165.872 159.405L155.679 153.522L155.052 153.883L165.246 159.769Z" fill="white"/>
<path d="M153.161 166.748L153.788 166.382L143.595 160.498L142.967 160.86L153.161 166.748Z" fill="white"/>
<path d="M141.076 173.724L141.704 173.363L131.509 167.475L130.882 167.837L141.076 173.724Z" fill="white"/>
<path d="M165.803 174.949L157.4 170.099L171.773 161.801L180.176 166.654L165.803 174.949Z" fill="#F03749"/>
<path d="M159.634 170.012L165.954 173.662L177.942 166.741L171.621 163.09L159.634 170.012ZM165.881 174.251L158.608 170.053L171.694 162.499L178.967 166.697L165.881 174.251Z" fill="white"/>
<path d="M170.672 166.375L171.207 166.145C171.39 166.091 171.593 166.069 171.816 166.073L172.332 166.078L172.844 166.099L173.163 166.232L173.135 166.465L172.94 166.6L172.719 166.723C172.223 166.99 171.72 167.259 171.216 167.53C170.712 167.804 170.21 168.073 169.713 168.34L169.248 168.511L168.807 168.552L168.38 168.507L167.962 168.428L167.717 168.276L167.873 168.018L168.267 167.777L168.703 167.517L169.109 167.275L169.42 167.095L170.672 166.375ZM165.187 169.37C165.415 169.326 165.642 169.3 165.87 169.296C166.096 169.292 166.324 169.298 166.55 169.314L166.919 169.38L167.076 169.581L167.123 169.91L167.086 170.246L166.968 170.41L166.663 170.502C166.425 170.515 166.191 170.521 165.96 170.509C165.729 170.502 165.512 170.458 165.313 170.379C164.893 170.214 164.715 169.976 164.777 169.666L164.899 169.479L165.187 169.37Z" fill="white"/>
<path d="M180.176 166.654L165.803 174.949V178.816L180.176 170.515V166.654Z" fill="#D32125"/>
<path d="M157.4 170.099L165.803 174.949V178.816L157.4 173.966V170.099Z" fill="#E72530"/>
<path d="M179.736 182.993L171.334 178.143L185.706 169.843L194.108 174.698L179.736 182.993Z" fill="#F03749"/>
<path d="M173.566 178.056L179.888 181.706L191.877 174.785L185.555 171.135L173.566 178.056ZM179.815 182.298L172.541 178.097L185.628 170.543L192.902 174.742L179.815 182.298Z" fill="white"/>
<path d="M181.048 177.683L181.097 177.962L181.145 178.249L181.038 178.475L180.675 178.59C180.353 178.629 180.069 178.629 179.82 178.587C179.57 178.549 179.36 178.482 179.184 178.388C178.953 178.263 178.801 178.079 178.732 177.839L178.809 177.596L179.168 177.478C179.43 177.46 179.686 177.448 179.938 177.448C180.189 177.446 180.459 177.463 180.745 177.499L180.966 177.554L181.048 177.683ZM185.898 174.413C185.558 174.454 185.249 174.477 184.971 174.477C184.692 174.479 184.415 174.454 184.141 174.406L183.782 174.313L183.655 174.14L183.845 173.954C184.034 173.872 184.251 173.805 184.493 173.752C184.735 173.699 184.987 173.667 185.249 173.655C185.485 173.646 185.728 173.641 185.976 173.641C186.223 173.643 186.461 173.655 186.691 173.678C186.921 173.704 187.135 173.743 187.337 173.798L187.853 174.014C188.112 174.18 188.232 174.38 188.215 174.617L187.922 175.142C187.751 175.303 187.554 175.449 187.333 175.577C187.12 175.7 186.886 175.812 186.632 175.911C186.378 176.012 186.107 176.092 185.821 176.162C185.488 176.24 185.165 176.302 184.848 176.353C184.532 176.399 184.205 176.438 183.867 176.466C183.636 176.486 183.408 176.502 183.182 176.516C182.958 176.53 182.718 176.539 182.463 176.544C182.19 176.548 181.942 176.546 181.72 176.539C181.498 176.532 181.276 176.493 181.056 176.429L180.943 176.281L181.113 176.113L181.709 175.961L182.312 175.893C182.644 175.86 182.991 175.816 183.351 175.759C183.711 175.7 184.064 175.623 184.411 175.531C184.726 175.443 185.014 175.328 185.277 175.188C185.539 175.046 185.725 174.879 185.835 174.689L185.885 174.559L185.898 174.413Z" fill="white"/>
<path d="M194.108 174.698L179.736 182.993V186.857L194.108 178.56V174.698Z" fill="#D32125"/>
<path d="M171.334 178.143L179.736 182.993V186.857L171.334 182.01V178.143Z" fill="#E72530"/>
<path d="M100.995 180.684L119.331 170.102L91.3871 153.966L73.0508 164.554L100.995 180.684Z" fill="white"/>
<path d="M101.01 179.471L117.11 170.177L115.13 169.045L99.0315 178.339L101.01 179.471Z" fill="#583330"/>
<path d="M95.579 176.314L111.677 167.02L110.432 166.298L94.3337 175.593L95.579 176.314Z" fill="#583330"/>
<path d="M92.9713 174.859L109.071 165.565L107.825 164.844L91.7268 174.14L92.9713 174.859Z" fill="#583330"/>
<path d="M90.4782 173.436L106.578 164.142L105.333 163.421L89.2346 172.716L90.4782 173.436Z" fill="#583330"/>
<path d="M87.8724 171.857L103.971 162.563L102.727 161.845L86.6272 171.139L87.8724 171.857Z" fill="#583330"/>
<path d="M85.2048 170.348L101.305 161.053L100.06 160.336L83.9614 169.629L85.2048 170.348Z" fill="#583330"/>
<path d="M82.5992 168.893L98.6976 159.598L97.4533 158.881L81.354 168.175L82.5992 168.893Z" fill="#583330"/>
<path d="M80.1058 167.471L96.2042 158.176L94.9599 157.458L78.8606 166.752L80.1058 167.471Z" fill="#583330"/>
<path d="M77.5005 165.894L93.598 156.597L92.3537 155.879L76.2544 165.174L77.5005 165.894Z" fill="#583330"/>
<path d="M165.584 227.538L157.181 222.686L171.553 214.389L179.956 219.238L165.584 227.538Z" fill="#F03749"/>
<path d="M159.414 222.599L165.735 226.249L177.723 219.326L171.401 215.677L159.414 222.599ZM165.661 226.841L158.388 222.643L171.476 215.086L178.748 219.286L165.661 226.841Z" fill="white"/>
<path d="M170.453 218.96L170.988 218.734C171.171 218.678 171.373 218.656 171.597 218.66L172.112 218.662L172.626 218.688L172.943 218.821L172.915 219.052L172.721 219.19L172.501 219.311C172.003 219.578 171.501 219.848 170.997 220.12C170.492 220.389 169.991 220.661 169.492 220.928L169.029 221.101L168.589 221.139L168.16 221.095L167.743 221.017L167.497 220.861L167.654 220.605L168.047 220.366L168.484 220.101L168.891 219.864L169.201 219.684L170.453 218.96ZM164.967 221.958C165.196 221.913 165.424 221.89 165.65 221.886C165.876 221.88 166.105 221.887 166.331 221.901L166.699 221.97L166.856 222.171L166.904 222.497L166.866 222.836L166.748 222.997L166.444 223.087C166.207 223.105 165.972 223.109 165.74 223.098C165.51 223.088 165.293 223.045 165.093 222.967C164.672 222.801 164.495 222.564 164.558 222.253L164.68 222.069L164.967 221.958Z" fill="white"/>
<path d="M179.956 219.238L165.584 227.538V228.146L179.956 219.848V219.238Z" fill="#D32125"/>
<path d="M157.181 222.686L165.584 227.538V228.146L157.181 223.298V222.686Z" fill="#E72530"/>
<path d="M174.973 228.956L166.571 224.106L180.944 215.808L189.346 220.661L174.973 228.956Z" fill="#F03749"/>
<path d="M168.803 224.017L175.124 227.667L187.112 220.748L180.792 217.098L168.803 224.017ZM175.052 228.258L167.778 224.06L180.864 216.506L188.138 220.704L175.052 228.258Z" fill="white"/>
<path d="M179.843 220.38L180.378 220.152C180.561 220.099 180.764 220.076 180.986 220.08L181.502 220.085L182.014 220.106L182.334 220.239L182.305 220.469L182.111 220.608L181.891 220.729C181.393 220.996 180.891 221.266 180.387 221.538C179.882 221.812 179.38 222.081 178.882 222.348L178.419 222.519L177.977 222.56L177.55 222.513L177.133 222.435L176.887 222.283L177.044 222.026L177.437 221.784L177.874 221.524L178.279 221.282L178.591 221.102L179.843 220.38ZM174.357 223.376C174.585 223.333 174.813 223.308 175.039 223.303C175.267 223.298 175.494 223.305 175.721 223.321L176.089 223.388L176.246 223.588L176.292 223.918L176.255 224.254L176.138 224.417L175.834 224.506C175.596 224.523 175.362 224.527 175.131 224.516C174.899 224.506 174.683 224.463 174.481 224.387C174.063 224.219 173.885 223.984 173.948 223.674L174.068 223.487L174.357 223.376Z" fill="white"/>
<path d="M189.346 220.661L174.973 228.956V229.566L189.346 221.266V220.661Z" fill="#D32125"/>
<path d="M166.571 224.106L174.973 228.956V229.566L166.571 224.716V224.106Z" fill="#E72530"/>
<path d="M169.9 122.762L161.498 117.912L175.869 109.614L184.272 114.467L169.9 122.762Z" fill="#F03749"/>
<path d="M163.73 117.825L170.052 121.475L182.039 114.554L175.717 110.904L163.73 117.825ZM169.977 122.067L162.705 117.866L175.792 110.312L183.064 114.51L169.977 122.067Z" fill="white"/>
<path d="M174.768 114.188L175.303 113.958C175.487 113.908 175.69 113.882 175.913 113.887L176.428 113.891L176.941 113.914L177.259 114.045L177.231 114.278L177.036 114.414L176.817 114.536C176.319 114.803 175.818 115.072 175.312 115.346C174.808 115.617 174.307 115.886 173.809 116.153L173.346 116.324L172.904 116.366L172.476 116.32L172.058 116.241L171.813 116.09L171.971 115.834L172.363 115.59L172.799 115.33L173.206 115.088L173.516 114.908L174.768 114.188ZM169.283 117.183C169.511 117.139 169.739 117.114 169.966 117.109C170.193 117.105 170.42 117.111 170.646 117.127L171.016 117.194L171.172 117.394L171.219 117.723L171.182 118.06L171.064 118.225L170.761 118.315C170.522 118.331 170.288 118.334 170.056 118.327C169.826 118.315 169.61 118.272 169.408 118.194C168.989 118.027 168.811 117.791 168.874 117.48L168.995 117.294L169.283 117.183Z" fill="white"/>
<path d="M184.272 114.467L169.9 122.762V123.372L184.272 115.075V114.467Z" fill="#D32125"/>
<path d="M161.498 117.912L169.9 122.762V123.372L161.498 118.523V117.912Z" fill="#E72530"/>
<path d="M239.423 144.432L247.827 139.583L233.455 131.283L225.054 136.137L239.423 144.432Z" fill="#F03749"/>
<path d="M245.597 139.495L239.274 143.146L227.284 136.225L233.607 132.574L245.597 139.495ZM239.348 143.737L246.621 139.537L233.533 131.982L226.26 136.181L239.348 143.737Z" fill="white"/>
<path d="M234.555 135.859L234.021 135.629C233.837 135.576 233.635 135.553 233.411 135.557L232.896 135.56L232.383 135.585L232.065 135.716L232.095 135.948L232.288 136.084L232.507 136.206C233.006 136.473 233.508 136.745 234.012 137.016C234.516 137.286 235.018 137.555 235.518 137.822L235.98 137.994L236.42 138.036L236.848 137.99L237.265 137.912L237.511 137.76L237.354 137.504L236.963 137.261L236.526 136.998L236.118 136.758L235.808 136.579L234.555 135.859ZM240.04 138.853C239.813 138.809 239.585 138.784 239.359 138.779C239.131 138.775 238.906 138.782 238.678 138.798L238.309 138.865L238.153 139.065L238.105 139.394L238.141 139.73L238.261 139.896L238.565 139.986C238.802 140.002 239.037 140.004 239.267 139.995C239.499 139.986 239.716 139.939 239.916 139.864C240.335 139.698 240.515 139.461 240.45 139.148L240.33 138.964L240.04 138.853Z" fill="white"/>
<path d="M225.054 136.137L239.423 144.432V145.042L225.054 136.745V136.137Z" fill="#D32125"/>
<path d="M247.827 139.583L239.424 144.432V145.042L247.827 140.196V139.583Z" fill="#E72530"/>
<path d="M235.223 155.936L243.627 151.087L229.255 142.789L220.851 147.641L235.223 155.936Z" fill="#F03749"/>
<path d="M241.394 150.999L235.073 154.649L223.084 147.728L229.407 144.078L241.394 150.999ZM235.145 155.241L242.418 151.041L229.333 143.486L222.06 147.685L235.145 155.241Z" fill="white"/>
<path d="M230.355 147.362L229.821 147.132C229.637 147.082 229.434 147.057 229.211 147.061L228.695 147.066L228.182 147.089L227.865 147.22L227.892 147.452L228.088 147.588L228.306 147.71C228.804 147.977 229.305 148.249 229.812 148.52C230.316 148.792 230.818 149.062 231.315 149.329L231.78 149.499L232.219 149.54L232.647 149.497L233.064 149.416L233.31 149.264L233.154 149.009L232.76 148.764L232.323 148.504L231.918 148.262L231.607 148.083L230.355 147.362ZM235.84 150.36C235.612 150.313 235.384 150.288 235.156 150.284C234.931 150.279 234.703 150.286 234.475 150.302L234.107 150.369L233.95 150.569L233.904 150.899L233.941 151.234L234.058 151.4L234.365 151.489C234.602 151.505 234.836 151.511 235.067 151.499C235.297 151.489 235.515 151.446 235.716 151.368C236.135 151.201 236.312 150.965 236.25 150.654L236.128 150.468L235.84 150.36Z" fill="white"/>
<path d="M220.851 147.641L235.223 155.936V156.547L220.851 148.249V147.641Z" fill="#D32125"/>
<path d="M243.626 151.087L235.223 155.936V156.547L243.626 151.699V151.087Z" fill="#E72530"/>
<path d="M239.967 273.093L248.37 268.239L233.996 259.944L225.595 264.794L239.967 273.093Z" fill="#F03749"/>
<path d="M246.138 268.152L239.815 271.802L227.828 264.881L234.148 261.23L246.138 268.152ZM239.891 272.394L247.162 268.196L234.077 260.642L226.803 264.839L239.891 272.394Z" fill="white"/>
<path d="M235.098 264.515L234.562 264.287C234.378 264.234 234.178 264.209 233.955 264.215L233.439 264.218L232.926 264.243L232.606 264.375L232.636 264.605L232.831 264.743L233.05 264.867C233.547 265.134 234.049 265.403 234.553 265.673C235.057 265.945 235.561 266.216 236.058 266.483L236.521 266.656L236.963 266.695L237.391 266.651L237.808 266.57L238.054 266.416L237.895 266.161L237.504 265.921L237.066 265.657L236.661 265.418L236.351 265.24L235.098 264.515ZM240.583 267.512C240.356 267.466 240.128 267.443 239.9 267.438C239.674 267.436 239.446 267.441 239.219 267.457L238.85 267.523L238.694 267.724L238.648 268.05L238.685 268.389L238.802 268.553L239.106 268.642C239.345 268.661 239.58 268.662 239.81 268.653C240.04 268.642 240.257 268.6 240.459 268.52C240.878 268.357 241.055 268.119 240.993 267.809L240.871 267.625L240.583 267.512Z" fill="white"/>
<path d="M225.595 264.794L239.967 273.093V273.699L225.595 265.403V264.794Z" fill="#D32125"/>
<path d="M248.37 268.239L239.967 273.093V273.699L248.37 268.854V268.239Z" fill="#E72530"/>
<path d="M231.022 260.213L239.424 255.364L225.054 247.063L216.65 251.917L231.022 260.213Z" fill="#F03749"/>
<path d="M237.193 255.276L230.87 258.927L218.883 252.006L225.206 248.355L237.193 255.276ZM230.944 259.516L238.217 255.318L225.13 247.764L217.859 251.962L230.944 259.516Z" fill="white"/>
<path d="M226.154 251.637L225.618 251.409C225.434 251.354 225.231 251.333 225.01 251.338L224.495 251.34L223.981 251.363L223.664 251.497L223.691 251.729L223.885 251.865L224.106 251.987C224.603 252.254 225.104 252.523 225.609 252.795C226.115 253.068 226.614 253.335 227.114 253.605L227.576 253.775L228.018 253.816L228.444 253.771L228.863 253.692L229.109 253.54L228.951 253.282L228.559 253.041L228.122 252.781L227.715 252.54L227.406 252.36L226.154 251.637ZM231.639 254.634C231.411 254.591 231.183 254.564 230.955 254.56C230.73 254.555 230.502 254.563 230.274 254.579L229.906 254.645L229.749 254.846L229.703 255.175L229.74 255.511L229.857 255.674L230.161 255.764C230.398 255.78 230.635 255.785 230.866 255.773C231.096 255.764 231.312 255.721 231.512 255.644C231.931 255.476 232.111 255.242 232.046 254.93L231.927 254.744L231.639 254.634Z" fill="white"/>
<path d="M216.65 251.917L231.022 260.213V260.823L216.65 252.523V251.917Z" fill="#D32125"/>
<path d="M239.423 255.364L231.022 260.213V260.823L239.423 255.973V255.364Z" fill="#E72530"/>
<path d="M244.276 262.241L252.679 257.391L238.307 249.092L229.904 253.943L244.276 262.241Z" fill="#F03749"/>
<path d="M250.446 257.301L244.124 260.952L232.136 254.033L238.457 250.383L250.446 257.301ZM244.197 261.543L251.471 257.345L238.385 249.791L231.112 253.989L244.197 261.543Z" fill="white"/>
<path d="M239.407 253.664L238.871 253.437C238.689 253.382 238.487 253.362 238.261 253.363L237.746 253.366L237.235 253.391L236.917 253.524L236.945 253.754L237.138 253.893L237.359 254.015C237.856 254.282 238.358 254.551 238.862 254.822C239.366 255.092 239.868 255.364 240.367 255.633L240.83 255.803L241.272 255.845L241.7 255.799L242.117 255.721L242.363 255.569L242.204 255.311L241.813 255.069L241.375 254.804L240.968 254.567L240.66 254.387L239.407 253.664ZM244.892 256.662C244.665 256.618 244.437 256.593 244.209 256.588C243.983 256.584 243.755 256.59 243.527 256.606L243.159 256.673L243.003 256.874L242.957 257.201L242.994 257.539L243.111 257.702L243.415 257.791C243.652 257.808 243.887 257.813 244.119 257.801C244.349 257.791 244.566 257.748 244.766 257.672C245.187 257.504 245.364 257.269 245.302 256.956L245.18 256.772L244.892 256.662Z" fill="white"/>
<path d="M229.904 253.943L244.276 262.241V262.851L229.904 254.551V253.943Z" fill="#D32125"/>
<path d="M252.679 257.391L244.275 262.241V262.851L252.679 258.001V257.391Z" fill="#E72530"/>
<path d="M155.624 217.313L147.22 212.464L161.592 204.167L169.995 209.018L155.624 217.313Z" fill="#F03749"/>
<path d="M149.453 212.377L155.775 216.027L167.763 209.106L161.44 205.455L149.453 212.377ZM155.701 216.619L148.428 212.418L161.515 204.864L168.788 209.063L155.701 216.619Z" fill="white"/>
<path d="M156.935 212.006L156.983 212.282L157.03 212.57L156.925 212.796L156.561 212.911C156.239 212.95 155.955 212.95 155.706 212.908C155.456 212.869 155.245 212.803 155.072 212.708C154.839 212.584 154.688 212.402 154.619 212.161L154.696 211.916L155.054 211.799C155.318 211.78 155.572 211.769 155.824 211.769C156.076 211.767 156.345 211.785 156.632 211.82L156.852 211.877L156.935 212.006ZM161.785 208.733C161.446 208.775 161.136 208.797 160.856 208.797C160.577 208.8 160.301 208.775 160.028 208.726L159.668 208.634L159.541 208.462L159.731 208.278C159.922 208.192 160.136 208.125 160.38 208.073C160.621 208.02 160.873 207.987 161.134 207.978C161.371 207.966 161.614 207.962 161.863 207.965C162.109 207.965 162.348 207.975 162.578 208.001C162.808 208.024 163.022 208.064 163.223 208.118L163.74 208.335C163.998 208.5 164.119 208.701 164.102 208.938L163.809 209.463C163.637 209.626 163.442 209.771 163.22 209.898C163.006 210.02 162.773 210.132 162.518 210.231C162.265 210.333 161.993 210.416 161.707 210.482C161.375 210.56 161.051 210.622 160.736 210.674C160.419 210.719 160.092 210.758 159.753 210.786C159.522 210.807 159.294 210.826 159.069 210.837C158.844 210.851 158.605 210.86 158.35 210.867C158.076 210.871 157.828 210.871 157.605 210.862C157.384 210.853 157.163 210.814 156.942 210.749L156.83 210.602L156.998 210.435L157.595 210.283L158.198 210.213C158.531 210.183 158.877 210.137 159.238 210.079C159.597 210.02 159.951 209.946 160.297 209.852C160.612 209.765 160.901 209.65 161.164 209.508C161.426 209.366 161.613 209.2 161.722 209.009L161.771 208.88L161.785 208.733Z" fill="white"/>
<path d="M169.995 209.018L155.624 217.314V217.924L169.995 209.626V209.018Z" fill="#D32125"/>
<path d="M147.22 212.464L155.624 217.314V217.924L147.22 213.076V212.464Z" fill="#E72530"/>
<path d="M183.476 127.25L175.074 122.4L189.446 114.102L197.848 118.952L183.476 127.25Z" fill="#F03749"/>
<path d="M177.306 122.313L183.628 125.964L195.617 119.04L189.295 115.392L177.306 122.313ZM183.555 126.555L176.281 122.357L189.368 114.798L196.642 118.999L183.555 126.555Z" fill="white"/>
<path d="M184.788 121.94L184.837 122.216L184.885 122.504L184.778 122.734L184.415 122.845C184.093 122.884 183.809 122.884 183.56 122.843C183.31 122.806 183.098 122.739 182.924 122.647C182.693 122.52 182.541 122.337 182.473 122.095L182.549 121.85L182.908 121.733C183.17 121.715 183.427 121.706 183.678 121.703C183.929 121.703 184.198 121.719 184.486 121.754L184.706 121.811L184.788 121.94ZM189.639 118.669C189.298 118.713 188.989 118.734 188.711 118.734C188.432 118.734 188.155 118.711 187.882 118.66L187.522 118.569L187.394 118.398L187.585 118.212C187.775 118.131 187.991 118.06 188.233 118.009C188.475 117.954 188.726 117.924 188.989 117.912C189.225 117.903 189.468 117.899 189.716 117.899C189.963 117.899 190.201 117.912 190.432 117.937C190.66 117.958 190.876 118 191.076 118.052L191.593 118.272C191.851 118.435 191.973 118.635 191.955 118.874L191.662 119.396C191.491 119.563 191.294 119.705 191.073 119.834C190.861 119.959 190.627 120.066 190.371 120.168C190.119 120.267 189.847 120.35 189.561 120.416C189.229 120.495 188.905 120.557 188.589 120.608C188.272 120.656 187.945 120.695 187.608 120.725C187.375 120.743 187.148 120.76 186.922 120.773C186.698 120.787 186.459 120.796 186.203 120.804C185.93 120.808 185.683 120.805 185.461 120.796C185.237 120.787 185.016 120.751 184.796 120.683L184.684 120.537L184.854 120.37L185.449 120.218L186.052 120.15C186.385 120.118 186.731 120.071 187.092 120.014C187.451 119.959 187.804 119.88 188.151 119.788C188.466 119.699 188.755 119.584 189.017 119.443C189.279 119.3 189.465 119.137 189.576 118.946L189.625 118.817L189.639 118.669Z" fill="white"/>
<path d="M197.848 118.952L183.476 127.25V127.861L197.848 119.563V118.952Z" fill="#D32125"/>
<path d="M175.074 122.4L183.476 127.25V127.861L175.074 123.013V122.4Z" fill="#E72530"/>
<path d="M189.44 209.104C189.44 208.089 190.989 207.262 192.901 207.262C194.812 207.262 196.362 208.089 196.362 209.104C196.362 210.119 194.812 210.945 192.901 210.945C190.989 210.945 189.44 210.119 189.44 209.104Z" fill="#583330"/>
<path d="M192.901 199.062L189.44 209.104H196.362L192.901 199.062Z" fill="#583330"/>
<path d="M168.626 198.007C168.626 196.99 170.175 196.166 172.087 196.166C173.999 196.166 175.547 196.99 175.547 198.007C175.547 199.022 173.999 199.849 172.087 199.849C170.175 199.849 168.626 199.022 168.626 198.007Z" fill="#F57D36"/>
<path d="M172.087 187.962L168.626 198.007H175.547L172.087 187.962Z" fill="#F57D36"/>
<path d="M206.867 164.6C206.867 163.583 208.417 162.759 210.327 162.759C212.238 162.759 213.79 163.583 213.79 164.6C213.79 165.615 212.238 166.441 210.327 166.441C208.417 166.441 206.867 165.615 206.867 164.6Z" fill="#F03749"/>
<path d="M210.327 154.558L206.867 164.6H213.79L210.327 154.558Z" fill="#F03749"/>
<path d="M239.136 182.72C239.136 181.704 240.687 180.878 242.598 180.878C244.508 180.878 246.06 181.704 246.06 182.72C246.06 183.737 244.508 184.561 242.598 184.561C240.687 184.561 239.136 183.737 239.136 182.72Z" fill="#F5B723"/>
<path d="M242.598 172.677L239.136 182.72H246.06L242.598 172.677Z" fill="#F5B723"/>
<path d="M109.701 91.8083C109.701 91.8083 107.94 100.944 112.344 108.302C116.749 115.661 130.036 133.778 132.108 135.247C134.181 136.715 145.205 144.569 151.134 145.664C156.353 146.629 173.168 140.876 164.494 125.436C155.819 109.995 133.551 86.2337 133.551 86.2337L109.701 91.8083Z" fill="#3B1F1F"/>
<path d="M87.8948 134.064V123.717C87.8948 123.717 86.1281 121.195 82.6764 120.217L82.6971 120.165C76.1534 117.776 74.6142 123.671 72.7008 129.509C70.7892 135.346 71.6623 138.885 73.5586 143.213C75.4548 147.54 80.9006 149.91 84.4936 148.237C88.0873 146.562 86.7412 143.905 86.7412 143.905C86.7412 143.905 86.5992 143.859 86.3573 143.821C86.2199 142.685 85.1993 140.954 82.3401 138.038C81.1444 136.819 87.8948 134.064 87.8948 134.064Z" fill="white"/>
<path d="M148.402 47.5973L154.61 57.5798C154.61 57.5798 164.464 52.9326 173.991 50.1729C177.685 49.1026 178.406 44.6948 180.438 42.2987C182.936 44.2368 181.172 46.1587 180.438 48.4121C182.114 48.4075 185.775 44.3933 189.615 43.7166C193.419 43.0445 195.469 46.7042 194.228 48.4857C189.338 55.4945 186.823 54.6957 180.997 56.9836C177.978 58.169 174.776 60.4477 172.128 61.8288C167.305 64.3422 161.988 67.3644 158.996 68.9917C153.779 71.8297 153.117 71.5742 149.095 68.9917C146.527 67.3437 143.188 64.1167 142.036 62.3236C139.405 58.2335 137.257 51.8692 137.257 51.8692L148.402 47.5973Z" fill="#F68C83"/>
<path d="M94.046 94.0407C94.046 94.0407 89.4012 102.104 91.1652 110.496C92.9292 118.888 102.809 140.446 104.289 142.506C105.77 144.57 120.134 160.691 120.134 160.691C120.134 160.691 139.454 164.347 136.29 146.921C133.127 129.497 122.389 99.8157 122.389 99.8157L94.046 94.0407Z" fill="#3B1F1F"/>
<path d="M132.823 32.7444C132.823 32.7444 135.821 43.7558 135.293 47.4454C134.766 51.1327 127.64 57.9803 127.64 57.9803C127.64 57.9803 119.737 61.1429 113.747 55.8743C107.759 50.6056 109.735 32.7444 109.735 32.7444L123.505 23.3856L132.823 32.7444Z" fill="#F68C83"/>
<path d="M133.686 24.2004C134.862 25.5262 142.909 20.0182 146.24 29.835C149.569 39.6564 152.946 52.4309 152.946 52.4309C152.946 52.4309 140.389 59.3959 135.907 58.3739C131.426 57.3474 131.426 57.3474 131.426 57.3474L136.641 36.3005L131.125 29.0225L133.686 24.2004Z" fill="#577C2B"/>
<path d="M114.051 32.1551C114.051 32.1551 121.996 57.1793 129.146 51.6345C136.295 46.0896 133.441 39.0556 133.441 39.0556L138.438 32.4129C138.438 32.4129 140.918 40.5264 140.262 48.4052C139.607 56.2793 130.842 73.045 133.8 79.0527C136.641 84.8231 137.257 90.9569 137.257 90.9569C137.257 90.9569 124.373 100.624 113.703 101.013C100.931 101.478 91.3996 101.151 91.3996 101.151C91.3996 101.151 90.086 94.0408 93.6627 88.7982C92.4814 76.9464 92.4239 58.9746 94.8515 49.0243C96.7557 41.2238 102.256 34.9862 105.354 32.7443C113.342 26.9601 124.041 23.3856 124.041 23.3856L122.56 27.4136L114.051 32.1551Z" fill="#6A992D"/>
<path d="M129.146 80.2611C129.146 80.2611 125.219 86.9036 118.273 90.0335C111.328 93.1624 103.806 91.9881 103.806 91.9881C103.806 91.9881 111.911 89.8249 116.657 86.998C121.402 84.1713 129.146 80.2611 129.146 80.2611Z" fill="#577C2B"/>
<path d="M126.148 70.214C126.148 70.214 119.84 79.692 111.314 83.435C102.788 87.1753 98.5122 88.0223 98.5122 88.0223C98.5122 88.0223 103.305 83.6123 109.422 79.1472C115.539 74.6816 126.148 70.214 126.148 70.214Z" fill="#577C2B"/>
<path d="M136.641 36.3005C136.641 36.3005 137.5 39.0395 137.873 42.4829C138.245 45.9262 137.257 53.0915 137.257 53.0915C137.257 53.0915 135.548 51.8808 133.872 51.9751C132.196 52.0672 129.146 51.6345 129.146 51.6345C129.146 51.6345 132.569 47.9748 132.569 43.6936C132.569 39.4124 132.438 37.4606 132.968 37.3662C133.499 37.2741 136.641 36.3005 136.641 36.3005Z" fill="#577C2B"/>
<path d="M125.693 5.69229C130.599 1.95431 142.219 0.755112 146.46 12.7631C150.909 25.3535 139.514 41.0788 133.442 38.4065C130.042 36.9104 122.894 31.5957 120.88 24.9668C118.614 17.507 121.882 8.59475 125.693 5.69229Z" fill="#FABAAC"/>
<path d="M126.957 23.6434C126.957 23.6434 124.709 18.9479 122.589 20.3151C121.022 21.3302 120.88 24.9669 120.88 24.9669C120.88 24.9669 117.021 19.4313 118.694 11.907C119.737 7.21839 125.588 -0.856022 133.8 0.0738697C144.413 1.27306 148.67 11.1244 147.466 16.7958C146.126 12.6896 142.22 11.5341 137.032 12.8346C128.23 15.0373 126.957 23.6434 126.957 23.6434Z" fill="#3B1F1F"/>
<path d="M84.926 57.4648C82.1228 65.6336 77.4699 72.3085 77.0033 77.8048C76.4854 83.9025 75.712 88.229 78.4237 89.0696C83.2492 90.5585 87.6379 93.6615 93.1728 94.985C101.986 97.0977 105.545 98.8951 107.04 99.5442C109.198 100.484 110.542 105.108 113.935 108.153C117.013 110.913 125.176 113.987 129.511 114.338C132.518 114.582 130.957 108.705 127.833 106.903C124.71 105.099 119.126 98.4302 119.126 98.4302C119.126 98.4302 121.474 97.2202 124.671 96.8586C127.161 96.5782 126.954 94.7044 123.221 94.6397C120.226 94.5847 114.392 94.4006 111.328 93.1625C108.736 92.115 103.373 87.8794 101.363 85.8564C95.5058 79.9663 89.8954 81.1287 89.9576 81.1791C89.9576 81.1791 96.5957 76.3158 99.0323 70.4349C100.258 67.4772 106.279 59.877 106.279 59.877L99.4394 41.1526C99.4394 41.1526 89.9997 42.6832 84.926 57.4648Z" fill="#FABAAC"/>
<path d="M101.801 36.0934C105.913 34.5811 110.608 38.7058 111.265 47.084C111.79 53.7866 108.016 61.7298 106.514 64.9108C105.013 68.0895 100.204 74.9025 100.204 74.9025C100.204 74.9025 89.4587 72.7182 86.7874 70.4925C82.3207 66.7706 80.5044 62.3053 80.5044 62.3053C80.5044 62.3053 88.5901 40.9454 101.801 36.0934Z" fill="#577C2B"/>
<path d="M115.422 139.219C115.422 139.219 101.633 129.812 95.3008 124.509C92.2519 121.956 86.9274 119.967 86.9274 119.967C86.9274 119.967 80.1553 121.862 78.6214 129.509C77.8366 133.421 79.9477 138.623 79.9477 138.623C79.9477 138.623 100.943 155.769 111.655 159.283C122.367 162.798 127.868 160.691 127.868 160.691L115.422 139.219Z" fill="#3B1F1F"/>
<path d="M122.023 27.7059C122.023 27.7059 116.54 30.0145 118.273 33.3635C120.006 36.7147 122.798 42.0294 125.031 45.6523C127.264 49.2775 129.146 51.6344 129.146 51.6344C129.146 51.6344 128.381 52.6265 124.472 54.2078C122.399 55.0479 119.679 57.5798 119.679 57.5798C119.679 57.5798 111.813 37.6861 113.011 33.223C114.208 28.7577 120.88 24.9668 120.88 24.9668L122.023 27.7059Z" fill="#577C2B"/>
<path d="M75.2354 203.407C75.2354 203.407 74.9288 210.784 72.2998 217.355C69.6708 223.927 68.226 229.614 65.8163 232.59C63.4057 235.564 57.2731 230.538 53.112 234.215C48.5724 238.227 65.0349 241.802 68.0066 240.81C75.5293 238.301 73.7025 226.972 77.4255 220.58C81.1487 214.19 83.3328 204.508 83.3328 204.508L75.2354 203.407Z" fill="#FABAAC"/>
<path d="M86.8402 194.587C86.8402 194.587 80.1671 189.779 76.0052 195.857C71.8432 201.941 70.543 209.007 70.543 209.007C70.543 209.007 75.4926 215.491 80.7488 214.681C86.0068 213.868 86.8402 194.587 86.8402 194.587Z" fill="#4D79C6"/>
<path d="M102.687 171.607C97.624 161.727 98.9286 165.146 97.589 164.216C93.953 161.69 86.9606 162.48 83.9272 168.891C82.2477 172.438 84.6203 181.981 84.9961 188.681L83.4874 197.204C83.4874 197.204 83.4874 197.204 88.1223 199.114C92.7582 201.025 95.7387 197.77 95.7387 197.77L95.5886 189.53C95.5886 189.53 99.5158 188.808 100.609 188.349C102.592 187.525 106.128 178.32 102.687 171.607Z" fill="#FABAAC"/>
<path d="M90.1799 229.175C90.1799 229.175 104.21 217.282 109.017 214.987C113.398 212.897 115.053 212.955 116.994 213.96C120.7 215.885 126.35 221.116 128.073 223.789C131.579 221.51 132.226 220.389 137.493 218.03C144.283 214.987 144.283 221.289 138.589 226.917C133.541 231.904 129.785 235.118 127.186 234.526C125.116 234.057 125.237 232.528 123.474 231.484C121.133 230.098 118.195 229.52 114.713 226.917C109.258 231.757 99.3785 240.552 99.3785 240.552L90.1799 229.175Z" fill="#F8AC9E"/>
<path d="M101.736 236.462C101.736 236.462 115.765 224.567 120.573 222.274C124.953 220.182 126.608 220.239 128.549 221.245C132.255 223.17 137.905 228.401 139.629 231.074C143.135 228.795 143.781 227.676 149.048 225.315C155.838 222.274 155.838 228.576 150.145 234.202C145.097 239.192 141.342 242.402 138.741 241.811C136.671 241.341 136.794 239.813 135.031 238.768C132.689 237.383 129.75 236.807 126.269 234.202C120.814 239.042 110.935 247.837 110.935 247.837L101.736 236.462Z" fill="#FABAAC"/>
<path d="M75.0622 228.553C73.4241 237.847 72.426 238.246 71.2885 245.331C70.4318 250.661 84.3894 262.489 96.6974 258.793C105.914 256.022 117.068 244.127 117.068 244.127C117.068 244.127 121.275 237.953 117.89 233.942C111.827 226.751 102.996 231.686 102.996 231.686L96.8465 230.846L75.0622 228.553Z" fill="#3B1F1F"/>
<path d="M70.3228 237.428C72.6489 240.292 80.9548 243.758 90.1796 245.222C95.6388 246.09 103.045 241.641 105.616 237.428C105.616 221.448 107.664 212.239 104.164 204.919C100.663 197.597 100.427 197.904 97.0749 196.721C93.5252 195.468 80.9691 195.793 80.9691 195.793C80.9691 195.793 76.4817 197.621 76.1058 208.862C75.4224 229.329 71.3836 227.651 70.3228 237.428Z" fill="#559DDB"/>
<path d="M81.575 196.113C81.575 196.113 85.512 200.974 90.7072 199.593C95.9049 198.214 98.783 197.077 98.783 197.077C98.783 197.077 97.9189 194.467 94.6038 194.122C89.3649 193.579 82.5773 191.67 82.5773 191.67L81.575 196.113Z" fill="#4D79C6"/>
<path d="M86.8402 159.375C87.8318 155.433 90.1796 155.541 92.5298 158.174C93.7309 155.104 97.2385 155.759 98.7831 158.609C101.736 156.857 103.482 160.8 102.165 163.219C105.06 163.219 105.562 166.165 103.654 167.558C105.509 170.707 103.68 172.511 102.431 173.906C103.482 175.692 103.043 178.652 100.482 178.928C100.743 182.155 98.9153 184.561 96.9353 183.884C97.0442 185.963 95.4859 187.086 92.4191 186.319C91.2927 189.224 88.2519 188.467 86.8402 187.192C83.8768 189.047 82.066 186.717 82.0156 185.003C78.6908 185.003 77.8527 183.032 78.6908 181.299C75.1204 180.733 75.1204 177.446 76.5392 176.242C74.1295 174.71 75.1149 171.859 77.0867 171.093C73.9101 168.027 76.5392 165.618 78.6719 165.947C76.648 162.881 79.4964 160.579 81.5751 161.345C81.0993 157.472 84.9729 157.624 86.8402 159.375Z" fill="#3B1F1F"/>
<path d="M98.0835 216.055C98.0835 216.055 99.1697 224.463 100.258 228.553C101.345 232.646 105.106 249.306 105.782 254.33C106.113 256.8 104.671 258.837 106.212 261.723C107.753 264.609 111.531 267.638 115.309 268.529C117.82 269.121 120.69 269.813 120.677 267.802C120.674 267.284 121.181 264.11 119.207 261.23C117.234 258.351 112.701 254.611 112.701 253.016C112.701 247.103 110.446 220.822 109.017 214.987C107.588 209.152 98.0835 216.055 98.0835 216.055Z" fill="#FABAAC"/>
<path d="M98.1546 196.905C93.2105 197.107 93.1251 203.732 94.4781 209.705C95.5707 214.529 96.423 218.941 96.423 218.941C96.423 218.941 99.3936 221.995 104.952 220.568C110.31 219.194 110.598 215.901 110.598 215.901C110.598 215.901 108.401 196.486 98.1546 196.905Z" fill="#4D79C6"/>
<path d="M352.035 210.756L333.697 200.169L361.642 184.036L379.978 194.624L352.035 210.756Z" fill="white"/>
<path d="M352.018 209.539L335.918 200.244L337.897 199.114L353.998 208.409L352.018 209.539Z" fill="#583330"/>
<path d="M357.451 206.383L341.353 197.089L342.596 196.371L358.696 205.665L357.451 206.383Z" fill="#583330"/>
<path d="M360.059 204.929L343.958 195.632L345.203 194.916L361.301 204.21L360.059 204.929Z" fill="#583330"/>
<path d="M362.549 203.506L346.451 194.212L347.696 193.494L363.794 202.788L362.549 203.506Z" fill="#583330"/>
<path d="M365.157 201.929L349.058 192.635L350.301 191.915L366.402 201.209L365.157 201.929Z" fill="#583330"/>
<path d="M367.824 200.419L351.724 191.123L352.969 190.404L369.067 199.699L367.824 200.419Z" fill="#583330"/>
<path d="M370.43 198.965L354.332 189.668L355.574 188.95L371.675 198.245L370.43 198.965Z" fill="#583330"/>
<path d="M372.923 197.542L356.822 188.245L358.067 187.527L374.165 196.822L372.923 197.542Z" fill="#583330"/>
<path d="M375.528 195.964L359.43 186.67L360.675 185.948L376.774 195.245L375.528 195.964Z" fill="#583330"/>
<path d="M298.879 280.892H342.708V260.187H298.879V280.892Z" fill="#EE4325"/>
<path d="M298.879 280.696C281.036 279.375 267.108 271.539 265.854 261.854C283.849 256.553 299.328 249.172 311.278 240.304C329.022 242.048 342.494 250.269 342.706 260.187C330.228 268.172 315.431 275.105 298.879 280.696Z" fill="#EA8115"/>
<path d="M265.854 261.854C265.792 261.382 265.762 260.906 265.762 260.428C265.762 249.124 282.988 239.96 304.235 239.96C306.64 239.96 308.995 240.078 311.278 240.304C299.328 249.172 283.849 256.553 265.854 261.854Z" fill="#EE651D"/>
<path d="M315.311 231.023C314.874 231.119 308.751 229.835 303.275 234.655C297.799 239.472 290.756 246.659 290.439 248.09C290.121 249.519 296.497 255.327 303.275 253.298C310.054 251.271 315.311 231.023 315.311 231.023Z" fill="#F8AC9E"/>
<path d="M272.598 247.328C278.513 245.457 289.055 246.216 294.174 246.216C310.756 246.216 313.996 248.09 313.996 248.09L313.607 249.973L325.82 254.217C325.82 254.217 326.212 264.043 316.818 268.379C307.425 272.718 292.089 270.953 286.399 269.671C278.511 267.894 268.017 263.113 267.122 256.668C265.868 247.659 268.639 248.58 272.598 247.328Z" fill="#FABAAC"/>
<path d="M329.377 241.56C330.647 241.802 331.987 247.063 332.436 254.952C332.884 262.837 327.731 273.149 310.74 273.853C293.748 274.558 289.46 271.566 286.127 269.331C282.797 267.098 278.732 264.107 279.676 258.176C281.747 245.174 290.132 246.969 297.351 246.147C329.876 242.435 328.585 236.947 329.377 241.56Z" fill="#3B1F1F"/>
<path d="M330.155 172.997C334.705 174.785 336.523 182.528 334.829 186.708C333.133 190.885 325.484 195.27 326.101 198.065C327.489 204.362 332.215 199.759 332.215 199.759C332.215 199.759 331.927 204.627 324.764 203.671C320.066 203.046 319.433 195.94 318.766 191.68C317.601 184.243 316.959 180.21 319.571 175.853C321.772 172.179 325.003 170.971 330.155 172.997Z" fill="#583330"/>
<path d="M301.805 184.579C306.868 174.701 305.563 178.116 306.903 177.188C310.54 174.664 317.532 175.45 320.566 181.861C322.246 185.408 318.193 192.46 317.818 199.162L320.559 208.636C320.559 208.636 321.006 210.177 316.37 212.087C311.734 213.997 308.754 210.74 308.754 210.74L308.903 202.5C308.903 202.5 304.979 201.777 303.885 201.321C301.901 200.495 298.366 191.291 301.805 184.579Z" fill="#FABAAC"/>
<path d="M320.251 176.715C317.033 172.882 312.34 171.722 304.235 175.853C300.364 177.826 299.968 181.057 300.364 183.739C301.213 189.51 306.542 193.984 309.967 196.836C315.438 201.393 318.821 201.736 318.821 201.736C318.821 201.736 330.673 189.132 320.251 176.715Z" fill="#3B1F1F"/>
<path d="M304.235 191.908C304.235 191.908 307.129 186.95 308.374 191.908C309.529 196.515 305.513 198.065 305.513 198.065L304.235 191.908Z" fill="#FABAAC"/>
<path d="M319.804 206.025C320.559 208.636 325.606 211.405 328.891 224.329C330.095 229.064 332.436 248.958 332.436 248.958C332.436 248.958 329.411 255.389 318.646 255.861C307.883 256.337 303.275 256.25 300.364 248.753C303.275 243.247 303.275 234.655 300.364 224.691C298.177 217.21 301.3 210.48 306.408 209.393C311.518 208.305 319.804 206.025 319.804 206.025Z" fill="#6A992D"/>
<path d="M321.486 208.241L319.159 203.794C319.159 203.794 312.148 203.32 308.583 207.463C305.015 211.606 305.015 211.606 305.015 211.606C305.015 211.606 315.283 211.23 321.486 208.241Z" fill="#577C2B"/>
<path d="M308.993 211.495C307.214 207.419 301.929 210.575 299.913 212.725C297.897 214.874 284.936 222.235 280.717 225.895C277.915 228.328 279.082 234.74 282.017 239.96C283.502 242.603 285.794 246.412 286.699 249.191C288.885 255.888 293.938 251.805 293.305 250.086C292.467 247.814 288.404 232.503 288.404 232.503C288.404 232.503 296.304 229.471 303.225 227.225C310.144 224.978 311.946 218.258 308.993 211.495Z" fill="#FABAAC"/>
<path d="M317.588 182.588C321.673 185.277 321.643 192.17 319.947 196.347C318.25 200.527 310.146 203.453 310.763 206.247C312.151 212.545 317.334 209.401 317.334 209.401C317.334 209.401 317.047 214.266 309.881 213.312C305.184 212.688 304.551 205.582 303.886 201.321C302.719 193.885 303.055 187.887 306.408 184.068C308.894 181.239 311.592 178.648 317.588 182.588Z" fill="#583330"/>
<path d="M212.92 136.888L209.582 138.815V134.365L212.92 132.438V136.888Z" fill="#9ECBEE"/>
<path d="M206.245 136.888L209.582 138.815V134.365L206.245 132.438V136.888Z" fill="#BFDEF5"/>
<path d="M212.919 132.438L209.582 130.51L206.245 132.438L209.582 134.365L212.919 132.438Z" fill="white"/>
<path d="M208.952 132.27C208.952 132.086 209.235 131.936 209.582 131.936C209.929 131.936 210.211 132.086 210.211 132.27C210.211 132.454 209.929 132.606 209.582 132.606C209.235 132.606 208.952 132.454 208.952 132.27Z" fill="#583330"/>
<path d="M210.924 134.903C210.924 135.166 210.765 135.47 210.568 135.585C210.371 135.695 210.211 135.578 210.211 135.313C210.211 135.051 210.371 134.747 210.568 134.634C210.765 134.519 210.924 134.639 210.924 134.903Z" fill="#583330"/>
<path d="M212.503 133.996C212.503 134.259 212.342 134.566 212.146 134.678C211.948 134.793 211.789 134.672 211.789 134.409C211.789 134.148 211.948 133.843 212.146 133.727C212.342 133.615 212.503 133.736 212.503 133.996Z" fill="#583330"/>
<path d="M210.924 136.842C210.924 137.106 210.765 137.413 210.568 137.522C210.371 137.637 210.211 137.516 210.211 137.254C210.211 136.994 210.371 136.687 210.568 136.572C210.765 136.46 210.924 136.579 210.924 136.842Z" fill="#583330"/>
<path d="M212.503 135.939C212.503 136.202 212.342 136.505 212.146 136.621C211.948 136.733 211.789 136.613 211.789 136.351C211.789 136.087 211.948 135.783 212.146 135.67C212.342 135.555 212.503 135.677 212.503 135.939Z" fill="#583330"/>
<path d="M206.769 133.996C206.769 134.259 206.928 134.566 207.125 134.678C207.321 134.793 207.481 134.672 207.481 134.409C207.481 134.148 207.321 133.843 207.125 133.727C206.928 133.615 206.769 133.736 206.769 133.996Z" fill="#583330"/>
<path d="M208.345 136.842C208.345 137.106 208.506 137.413 208.702 137.522C208.9 137.637 209.059 137.516 209.059 137.254C209.059 136.994 208.9 136.687 208.702 136.572C208.506 136.46 208.345 136.579 208.345 136.842Z" fill="#583330"/>
<path d="M200.74 139.834L197.403 141.76V137.311L200.74 135.384V139.834Z" fill="#9ECBEE"/>
<path d="M194.067 139.834L197.403 141.76V137.311L194.067 135.384V139.834Z" fill="#BFDEF5"/>
<path d="M200.74 135.384L197.403 133.458L194.067 135.384L197.403 137.311L200.74 135.384Z" fill="white"/>
<path d="M195.398 135.384C195.398 135.2 195.68 135.048 196.027 135.048C196.374 135.048 196.656 135.2 196.656 135.384C196.656 135.569 196.374 135.718 196.027 135.718C195.68 135.718 195.398 135.569 195.398 135.384Z" fill="#583330"/>
<path d="M198.229 135.384C198.229 135.2 198.511 135.048 198.858 135.048C199.205 135.048 199.488 135.2 199.488 135.384C199.488 135.569 199.205 135.718 198.858 135.718C198.511 135.718 198.229 135.569 198.229 135.384Z" fill="#583330"/>
<path d="M198.746 137.847C198.746 138.11 198.586 138.416 198.389 138.529C198.193 138.644 198.033 138.521 198.033 138.262C198.033 137.997 198.193 137.693 198.389 137.58C198.586 137.465 198.746 137.587 198.746 137.847Z" fill="#583330"/>
<path d="M200.324 136.943C200.324 137.208 200.164 137.512 199.967 137.624C199.771 137.739 199.611 137.617 199.611 137.355C199.611 137.093 199.771 136.789 199.967 136.674C200.164 136.56 200.324 136.68 200.324 136.943Z" fill="#583330"/>
<path d="M198.746 139.79C198.746 140.052 198.586 140.356 198.389 140.472C198.193 140.582 198.033 140.464 198.033 140.2C198.033 139.937 198.193 139.633 198.389 139.52C198.586 139.405 198.746 139.526 198.746 139.79Z" fill="#583330"/>
<path d="M199.571 138.368C199.571 138.63 199.412 138.934 199.214 139.046C199.017 139.16 198.858 139.042 198.858 138.777C198.858 138.515 199.017 138.211 199.214 138.096C199.412 137.985 199.571 138.102 199.571 138.368Z" fill="#583330"/>
<path d="M200.324 138.883C200.324 139.145 200.164 139.452 199.967 139.564C199.771 139.679 199.611 139.557 199.611 139.295C199.611 139.035 199.771 138.729 199.967 138.616C200.164 138.501 200.324 138.623 200.324 138.883Z" fill="#583330"/>
<path d="M194.589 136.943C194.589 137.208 194.749 137.512 194.947 137.624C195.143 137.739 195.303 137.617 195.303 137.355C195.303 137.093 195.143 136.789 194.947 136.674C194.749 136.56 194.589 136.68 194.589 136.943Z" fill="#583330"/>
<path d="M196.167 139.79C196.167 140.052 196.327 140.356 196.523 140.472C196.721 140.582 196.881 140.464 196.881 140.2C196.881 139.937 196.721 139.633 196.523 139.52C196.327 139.405 196.167 139.526 196.167 139.79Z" fill="#583330"/>
<path d="M195.303 138.368C195.303 138.63 195.463 138.934 195.659 139.046C195.856 139.16 196.015 139.042 196.015 138.777C196.015 138.515 195.856 138.211 195.659 138.096C195.463 137.985 195.303 138.102 195.303 138.368Z" fill="#583330"/>
<path d="M222.959 123.367C222.959 120.59 227.351 118.336 232.574 118.336C237.796 118.336 241.87 120.59 241.87 123.367C241.87 126.145 237.796 128.399 232.574 128.399C227.351 128.399 222.959 126.145 222.959 123.367Z" fill="#6A992D"/>
<path d="M241.87 108.401H222.959V123.367H241.87V108.401Z" fill="#6A992D"/>
<path d="M222.959 108.401C222.959 105.626 227.351 103.373 232.574 103.373C237.796 103.373 241.87 105.626 241.87 108.401C241.87 111.18 237.796 113.433 232.574 113.433C227.351 113.433 222.959 111.18 222.959 108.401Z" fill="#A8D930"/>
<path d="M232.532 106.825C236.187 106.825 239.191 108.059 240.36 109.778C240.697 109.285 240.901 108.756 240.901 108.199C240.901 105.697 237.235 103.669 232.532 103.669C227.83 103.669 223.873 105.697 223.873 108.199C223.873 108.756 224.097 109.285 224.453 109.778C225.701 108.059 228.877 106.825 232.532 106.825Z" fill="#577C2B"/>
<path d="M232.532 112.729C236.187 112.729 239.191 111.497 240.36 109.778C239.191 108.059 236.187 106.825 232.532 106.825C228.877 106.825 225.701 108.059 224.453 109.778C225.701 111.497 228.877 112.729 232.532 112.729Z" fill="#559DDB"/>
<path d="M239.423 113.433C238.652 113.983 238.952 115.5 239.87 116.317C241.378 117.024 242.011 119.339 241.838 121.003C241.631 122.99 239.559 122.097 239.559 123.74C239.559 124.884 241.002 125.303 242.598 124.131C243.919 123.163 244.95 120.628 243.739 116.823C242.563 113.124 240.77 112.473 239.423 113.433Z" fill="#577C2B"/>
<path d="M172.262 257.817C172.262 255.039 167.867 252.788 162.645 252.788C157.423 252.788 153.35 255.039 153.35 257.817C153.35 260.596 157.423 262.846 162.645 262.846C167.867 262.846 172.262 260.596 172.262 257.817Z" fill="#559DDB"/>
<path d="M153.35 242.852H172.262V257.817H153.35V242.852Z" fill="#559DDB"/>
<path d="M172.262 242.852C172.262 240.074 167.867 237.822 162.645 237.822C157.423 237.822 153.35 240.074 153.35 242.852C153.35 245.629 157.423 247.883 162.645 247.883C167.867 247.883 172.262 245.629 172.262 242.852Z" fill="#BFDEF5"/>
<path d="M162.687 241.278C159.033 241.278 156.028 242.507 154.859 244.227C154.524 243.733 154.317 243.203 154.317 242.647C154.317 240.147 157.985 238.119 162.687 238.119C167.389 238.119 171.345 240.147 171.345 242.647C171.345 243.203 171.123 243.733 170.766 244.227C169.519 242.507 166.34 241.278 162.687 241.278Z" fill="#4D79C6"/>
<path d="M162.687 247.177C159.033 247.177 156.027 245.948 154.859 244.227C156.027 242.507 159.033 241.278 162.687 241.278C166.34 241.278 169.519 242.507 170.766 244.227C169.519 245.948 166.34 247.177 162.687 247.177Z" fill="#559DDB"/>
<path d="M155.795 247.883C156.565 248.434 156.268 249.95 155.35 250.767C153.842 251.473 153.209 253.789 153.382 255.451C153.589 257.44 155.658 256.544 155.658 258.188C155.658 259.332 154.216 259.751 152.622 258.582C151.301 257.612 150.269 255.076 151.48 251.271C152.658 247.572 154.448 246.921 155.795 247.883Z" fill="#4D79C6"/>
</g>
<defs>
<clipPath id="clip0_41_7">
<rect width="400" height="307.334" fill="white"/>
</clipPath>
</defs>
</svg>
