<svg width="50" height="50" viewBox="0 0 50 50" fill="none" xmlns="http://www.w3.org/2000/svg">
<g clip-path="url(#clip0_28_747)">
<path d="M41.3917 0H8.61043C3.85549 0 0 3.85376 0 8.6083V41.3916C0 46.1461 3.85549 49.9999 8.61043 49.9999H41.3917C46.1464 49.9999 50 46.1463 50 41.3916V8.6083C50 3.85356 46.1464 0 41.3917 0ZM45.8333 8.6083V22.9167H27.0841V4.16667H41.3916C43.8452 4.16667 45.8333 6.15479 45.8333 8.6083ZM8.61043 4.16667H22.9175V22.9167H4.16667V8.6083C4.16667 6.1554 6.15621 4.16667 8.61043 4.16667ZM4.16667 41.3917V27.0833H22.9175V45.8333H8.61043C6.15621 45.8333 4.16667 43.8446 4.16667 41.3917ZM41.3917 45.8333H27.0841V27.0833H45.8333V41.3917C45.8333 43.8452 43.8452 45.8333 41.3917 45.8333Z" fill="#6C6E79"/>
<path d="M36.4595 19.7915L41.6678 14.5832L36.4595 9.37489L31.2512 14.5832L36.4595 19.7915Z" fill="#6C6E79"/>
<path d="M13.5425 29.1667L8.33415 41.6667H18.7508L13.5425 29.1667Z" fill="#6C6E79"/>
<path d="M13.5425 18.75C16.4196 18.75 18.7508 16.4188 18.7508 13.5417C18.7508 10.6646 16.4196 8.33334 13.5425 8.33334C10.6654 8.33334 8.33415 10.6646 8.33415 13.5417C8.33415 16.4188 10.6654 18.75 13.5425 18.75Z" fill="#6C6E79"/>
<path d="M36.0633 31.0069L34.3321 34.5152L30.4592 35.0777L33.2612 37.8089L32.5988 41.6673L36.0633 39.8465L39.5279 41.6673L38.8655 37.8089L41.6675 35.0777L37.7946 34.5152L36.0633 31.0069Z" fill="#6C6E79"/>
</g>
<defs>
<clipPath id="clip0_28_747">
<rect width="50" height="50" fill="white"/>
</clipPath>
</defs>
</svg>
