<svg width="165" height="146" viewBox="0 0 165 146" fill="none" xmlns="http://www.w3.org/2000/svg">
<path d="M51.6535 78.807C51.2428 78.807 50.8317 78.807 50.4264 78.8013C50.0105 78.8013 49.6049 78.8013 49.1999 78.7955C45.5524 78.7784 42.1273 78.7612 39.0021 78.7383C38.9797 78.7354 38.9577 78.724 38.9353 78.7183L36.4765 77.8968L35.8711 77.6907C35.6934 77.6364 35.5211 77.5534 35.3549 77.4761C35.0218 77.2986 34.7165 77.0811 34.4445 76.8264C33.9005 76.3169 33.5175 75.6643 33.3177 74.9717C33.2177 74.6225 33.1678 74.2619 33.1732 73.9013L33.2008 72.619L33.2452 67.4471L33.1953 62.2837C33.1509 60.5579 33.1346 58.8348 33.0566 57.1118C33.0233 56.2503 33.001 55.3859 32.9565 54.5273L32.8843 53.2365C32.8622 52.7871 32.8456 52.415 32.8901 52.0229C33.0511 50.443 34.1834 48.9575 35.8046 48.325C34.9496 48.4738 34.1169 48.8803 33.4564 49.5071C32.8015 50.131 32.3128 50.9582 32.0906 51.8712C31.9739 52.3263 31.9573 52.8214 31.9353 53.2365L31.8687 54.5273C31.8186 55.3859 31.802 56.2503 31.7633 57.1118C31.6856 58.8348 31.669 60.5579 31.6245 62.2837L31.5798 67.4471L31.6245 72.619L31.6575 73.927C31.669 74.4279 31.7687 74.9259 31.9241 75.3982C32.2351 76.3513 32.8235 77.1985 33.5949 77.8081C33.9781 78.1201 34.4001 78.3748 34.8495 78.5637C34.994 78.6238 35.1439 78.6782 35.2938 78.724C33.9452 78.7183 32.6736 78.7125 31.4801 78.7068C30.3197 77.3931 29.637 75.6701 29.637 73.824V52.7756C29.637 50.0766 31.108 47.6381 33.3842 46.353C33.9059 46.0524 34.4669 45.8206 35.0662 45.6546L40.3679 44.1892L44.1536 43.1416L47.1068 42.3231L48.3448 41.9824L49.6049 41.6333L50.7265 41.3242L51.2482 48.4538H48.3337C48.256 49.384 48.2173 50.3256 48.2173 51.273V63.8722C48.2173 69.027 49.4051 74.1731 51.6535 78.807Z" fill="black"/>
<path d="M52.7525 68.8893C52.0199 67.3123 51.6145 65.5533 51.6145 63.7066C51.6145 62.4985 51.7865 61.3357 52.1142 60.2321L52.7525 68.8893Z" fill="black"/>
<path d="M54.0235 86.1847L52.7744 85.8424L35.066 80.9471C35.0605 80.9471 35.0492 80.9419 35.0437 80.9419C39.4349 80.9639 44.6031 80.9901 50.282 81.0176C50.6985 81.0231 51.1146 81.0245 51.5366 81.0245C51.9531 81.03 52.3692 81.0293 52.7912 81.0348C53.0743 81.0348 53.3574 81.0345 53.646 81.04L53.7849 82.9647L53.996 85.7788L54.0235 86.1847Z" fill="black"/>
<path d="M40.3672 43.9909L39.4918 35.1768C39.4233 34.493 38.876 33.9517 38.1879 33.8906C37.3189 33.8149 36.1057 33.7073 35.0164 33.6142C34.1969 33.5414 33.4844 34.1671 33.4535 34.9876C33.3594 37.5076 33.1702 42.5796 33.065 45.3935C33.028 46.3741 33.9684 47.1016 34.9132 46.8223C36.3899 46.3858 37.8665 45.9464 39.3431 45.5099C40.0055 45.3149 40.4351 44.6776 40.3672 43.9909Z" fill="black"/>
<path d="M37.4597 42.959C37.933 37.3508 38.3948 31.7457 38.827 26.1343C39.1315 22.1805 40.204 18.4293 42.2728 15.0176C46.3547 8.2846 53.6126 3.8354 61.4795 3.28704C62.0546 3.24653 62.6309 3.22783 63.2069 3.22783H90.235V-1.14441e-05C90.235 -1.14441e-05 63.2125 -1.14441e-05 63.2069 -1.14441e-05C55.423 -1.14441e-05 47.8871 3.36182 42.6693 9.12584C36.5847 15.8464 35.771 23.6387 35.1254 32.2847C34.8592 35.8459 34.5275 39.4009 34.2271 42.959H37.4597Z" fill="black"/>
<path d="M113.384 63.7066C113.384 65.5533 112.978 67.3123 112.246 68.8893L112.884 60.2321C113.212 61.3357 113.384 62.4985 113.384 63.7066Z" fill="black"/>
<path d="M131.614 46.3534C131.098 46.0528 130.532 45.821 129.938 45.655L124.631 44.1839L120.762 43.1191L117.891 42.3235L116.654 41.9829L115.393 41.6337L114.272 41.3246L113.75 48.4542H116.665C116.742 49.3844 116.781 50.326 116.781 51.2734V63.8726C116.781 69.1505 115.538 74.4111 113.184 79.1279C113.595 79.1279 114.006 79.1337 114.417 79.1337C114.827 79.1394 115.238 79.1394 115.643 79.1394C118.808 79.1566 121.85 79.1738 124.714 79.1881C125.164 79.0335 125.613 78.8732 126.063 78.7187L128.522 77.8972L129.127 77.6911C129.305 77.6368 129.477 77.5538 129.644 77.4765C129.977 77.299 130.282 77.0815 130.554 76.8268C131.098 76.3173 131.481 75.6647 131.681 74.9721C131.781 74.6229 131.831 74.2623 131.825 73.9017L131.798 72.6194L131.753 67.4475L131.803 62.2841C131.848 60.5583 131.864 58.8352 131.942 57.1122C131.975 56.2507 131.998 55.3863 132.048 54.5277L132.114 53.2369C132.136 52.7875 132.158 52.4154 132.108 52.0233C131.947 50.4434 130.82 48.9579 129.194 48.3254C130.049 48.4742 130.881 48.8807 131.542 49.5075C132.197 50.1314 132.686 50.9586 132.908 51.8716C133.024 52.3267 133.041 52.8219 133.063 53.2369L133.13 54.5277C133.18 55.3863 133.202 56.2507 133.235 57.1122C133.313 58.8352 133.33 60.5583 133.374 62.2841L133.419 67.4475L133.374 72.6194L133.341 73.9274C133.33 74.4283 133.235 74.9263 133.074 75.3986C132.764 76.3517 132.175 77.1989 131.404 77.8085C131.02 78.1205 130.599 78.3752 130.149 78.5641C129.921 78.6557 129.694 78.7387 129.461 78.7959C129.227 78.8618 129.033 78.8961 128.816 78.9448L127.645 79.2052C129.527 79.211 131.32 79.2224 133.013 79.2281C134.473 77.8657 135.361 75.9252 135.361 73.8244V52.776C135.361 50.077 133.891 47.6385 131.614 46.3534ZM114.544 81.3518C114.133 81.3518 113.717 81.3518 113.295 81.3461C112.884 81.3461 112.468 81.3404 112.052 81.3404H111.33L111.213 82.9632L111.002 85.7796L110.975 86.1832L112.224 85.8397L128.212 81.4234C124.053 81.4005 119.446 81.3776 114.544 81.3518Z" fill="black"/>
<path d="M124.632 43.9909L125.508 35.1768C125.576 34.493 126.123 33.9517 126.812 33.8906C127.681 33.8149 128.894 33.7073 129.983 33.6142C130.803 33.5414 131.515 34.1671 131.546 34.9876C131.64 37.5076 131.829 42.5796 131.934 45.3935C131.971 46.3741 131.031 47.1016 130.086 46.8223C128.61 46.3858 127.133 45.9464 125.656 45.5099C124.994 45.3149 124.564 44.6776 124.632 43.9909Z" fill="black"/>
<path d="M127.539 42.959C127.065 37.3508 126.604 31.7457 126.171 26.1343C125.867 22.1805 124.794 18.4292 122.726 15.0176C118.644 8.28456 111.386 3.83537 103.519 3.28701C102.944 3.2465 102.368 3.22779 101.791 3.22779H74.7632V-4.19617e-05C74.7632 -4.19617e-05 101.786 -4.19617e-05 101.791 -4.19617e-05C109.575 -4.19617e-05 117.111 3.36179 122.329 9.12581C128.414 15.8463 129.227 23.6387 129.873 32.2847C130.139 35.8459 130.471 39.4009 130.771 42.959H127.539Z" fill="black"/>
<path d="M66.8035 70.5089C66.8035 71.3912 66.093 72.0998 65.2105 72.0998H62.873C61.9958 72.0998 61.2856 71.3912 61.2856 70.5089V66.5119H57.2774C56.4005 66.5119 55.6897 65.8033 55.6897 64.921V62.5878C55.6897 61.7139 56.4005 61.0025 57.2774 61.0025H61.2856V56.9999C61.2856 56.126 61.9958 55.4146 62.873 55.4146H65.2105C66.093 55.4146 66.8035 56.126 66.8035 56.9999V61.0025H70.8058C71.6886 61.0025 72.3991 61.7139 72.3991 62.5878V64.921C72.3991 65.8033 71.6886 66.5119 70.8058 66.5119H66.8035V70.5089ZM64.0444 51.3028C58.3986 51.3028 53.6192 55.0784 52.1146 60.2322C51.7869 61.3358 51.615 62.4982 51.615 63.7082C51.615 65.554 52.0206 67.3102 52.753 68.89C54.7183 73.153 59.0426 76.1192 64.0444 76.1192C69.6734 76.1192 74.4421 72.3603 75.9574 67.2234C76.2907 66.1086 76.4682 64.9266 76.4682 63.7082C76.4682 56.8683 70.8948 51.3028 64.0444 51.3028Z" fill="white"/>
<path d="M86.8648 63.7079C86.8648 64.9229 87.0202 66.0986 87.3091 67.2238H77.6883C77.9772 66.0986 78.1329 64.9229 78.1329 63.7079C78.1329 57.6216 74.2469 52.4276 68.8176 50.4718H96.1854C90.7561 52.4276 86.8648 57.6216 86.8648 63.7079Z" fill="white"/>
<path d="M101.287 50.4729V50.4785C101.176 50.4729 101.065 50.4729 100.954 50.4729H101.287Z" fill="white"/>
<path d="M113.384 63.7082C113.384 65.554 112.979 67.3102 112.246 68.8899C110.281 73.153 105.956 76.1192 100.954 76.1192C95.3253 76.1192 90.5569 72.3603 89.0416 67.2234C88.7083 66.1086 88.5308 64.9266 88.5308 63.7082C88.5308 56.8682 94.1039 51.3027 100.954 51.3027C101.065 51.3027 101.176 51.3028 101.288 51.314C106.789 51.4512 111.408 55.1821 112.884 60.2322C113.212 61.3357 113.384 62.4982 113.384 63.7082Z" fill="white"/>
<path d="M74.8906 40.6522C74.1631 40.6522 73.5749 41.2407 73.5749 41.965C73.5749 42.6923 74.1631 43.2778 74.8906 43.2778C75.6177 43.2778 76.2062 42.6923 76.2062 41.965C76.2062 41.2407 75.6177 40.6522 74.8906 40.6522ZM80.2807 40.6522C79.5535 40.6522 78.9651 41.2407 78.9651 41.965C78.9651 42.6923 79.5535 43.2778 80.2807 43.2778C81.0079 43.2778 81.6018 42.6923 81.6018 41.965C81.6018 41.2407 81.0079 40.6522 80.2807 40.6522ZM85.6766 40.6522C84.9494 40.6522 84.361 41.2407 84.361 41.965C84.361 42.6923 84.9494 43.2778 85.6766 43.2778C86.4038 43.2778 86.9923 42.6923 86.9923 41.965C86.9923 41.2407 86.4038 40.6522 85.6766 40.6522ZM85.6766 40.6522C84.9494 40.6522 84.361 41.2407 84.361 41.965C84.361 42.6923 84.9494 43.2778 85.6766 43.2778C86.4038 43.2778 86.9923 42.6923 86.9923 41.965C86.9923 41.2407 86.4038 40.6522 85.6766 40.6522ZM80.2807 40.6522C79.5535 40.6522 78.9651 41.2407 78.9651 41.965C78.9651 42.6923 79.5535 43.2778 80.2807 43.2778C81.0079 43.2778 81.6018 42.6923 81.6018 41.965C81.6018 41.2407 81.0079 40.6522 80.2807 40.6522ZM74.8906 40.6522C74.1631 40.6522 73.5749 41.2407 73.5749 41.965C73.5749 42.6923 74.1631 43.2778 74.8906 43.2778C75.6177 43.2778 76.2062 42.6923 76.2062 41.965C76.2062 41.2407 75.6177 40.6522 74.8906 40.6522ZM74.8906 40.6522C74.1631 40.6522 73.5749 41.2407 73.5749 41.965C73.5749 42.6923 74.1631 43.2778 74.8906 43.2778C75.6177 43.2778 76.2062 42.6923 76.2062 41.965C76.2062 41.2407 75.6177 40.6522 74.8906 40.6522ZM80.2807 40.6522C79.5535 40.6522 78.9651 41.2407 78.9651 41.965C78.9651 42.6923 79.5535 43.2778 80.2807 43.2778C81.0079 43.2778 81.6018 42.6923 81.6018 41.965C81.6018 41.2407 81.0079 40.6522 80.2807 40.6522ZM85.6766 40.6522C84.9494 40.6522 84.361 41.2407 84.361 41.965C84.361 42.6923 84.9494 43.2778 85.6766 43.2778C86.4038 43.2778 86.9923 42.6923 86.9923 41.965C86.9923 41.2407 86.4038 40.6522 85.6766 40.6522ZM85.6766 40.6522C84.9494 40.6522 84.361 41.2407 84.361 41.965C84.361 42.6923 84.9494 43.2778 85.6766 43.2778C86.4038 43.2778 86.9923 42.6923 86.9923 41.965C86.9923 41.2407 86.4038 40.6522 85.6766 40.6522ZM80.2807 40.6522C79.5535 40.6522 78.9651 41.2407 78.9651 41.965C78.9651 42.6923 79.5535 43.2778 80.2807 43.2778C81.0079 43.2778 81.6018 42.6923 81.6018 41.965C81.6018 41.2407 81.0079 40.6522 80.2807 40.6522ZM74.8906 40.6522C74.1631 40.6522 73.5749 41.2407 73.5749 41.965C73.5749 42.6923 74.1631 43.2778 74.8906 43.2778C75.6177 43.2778 76.2062 42.6923 76.2062 41.965C76.2062 41.2407 75.6177 40.6522 74.8906 40.6522ZM74.8906 40.6522C74.1631 40.6522 73.5749 41.2407 73.5749 41.965C73.5749 42.6923 74.1631 43.2778 74.8906 43.2778C75.6177 43.2778 76.2062 42.6923 76.2062 41.965C76.2062 41.2407 75.6177 40.6522 74.8906 40.6522ZM80.2807 40.6522C79.5535 40.6522 78.9651 41.2407 78.9651 41.965C78.9651 42.6923 79.5535 43.2778 80.2807 43.2778C81.0079 43.2778 81.6018 42.6923 81.6018 41.965C81.6018 41.2407 81.0079 40.6522 80.2807 40.6522ZM85.6766 40.6522C84.9494 40.6522 84.361 41.2407 84.361 41.965C84.361 42.6923 84.9494 43.2778 85.6766 43.2778C86.4038 43.2778 86.9923 42.6923 86.9923 41.965C86.9923 41.2407 86.4038 40.6522 85.6766 40.6522ZM85.6766 40.6522C84.9494 40.6522 84.361 41.2407 84.361 41.965C84.361 42.6923 84.9494 43.2778 85.6766 43.2778C86.4038 43.2778 86.9923 42.6923 86.9923 41.965C86.9923 41.2407 86.4038 40.6522 85.6766 40.6522ZM80.2807 40.6522C79.5535 40.6522 78.9651 41.2407 78.9651 41.965C78.9651 42.6923 79.5535 43.2778 80.2807 43.2778C81.0079 43.2778 81.6018 42.6923 81.6018 41.965C81.6018 41.2407 81.0079 40.6522 80.2807 40.6522ZM74.8906 40.6522C74.1631 40.6522 73.5749 41.2407 73.5749 41.965C73.5749 42.6923 74.1631 43.2778 74.8906 43.2778C75.6177 43.2778 76.2062 42.6923 76.2062 41.965C76.2062 41.2407 75.6177 40.6522 74.8906 40.6522ZM74.8906 40.6522C74.1631 40.6522 73.5749 41.2407 73.5749 41.965C73.5749 42.6923 74.1631 43.2778 74.8906 43.2778C75.6177 43.2778 76.2062 42.6923 76.2062 41.965C76.2062 41.2407 75.6177 40.6522 74.8906 40.6522ZM80.2807 40.6522C79.5535 40.6522 78.9651 41.2407 78.9651 41.965C78.9651 42.6923 79.5535 43.2778 80.2807 43.2778C81.0079 43.2778 81.6018 42.6923 81.6018 41.965C81.6018 41.2407 81.0079 40.6522 80.2807 40.6522ZM85.6766 40.6522C84.9494 40.6522 84.361 41.2407 84.361 41.965C84.361 42.6923 84.9494 43.2778 85.6766 43.2778C86.4038 43.2778 86.9923 42.6923 86.9923 41.965C86.9923 41.2407 86.4038 40.6522 85.6766 40.6522ZM85.6766 40.6522C84.9494 40.6522 84.361 41.2407 84.361 41.965C84.361 42.6923 84.9494 43.2778 85.6766 43.2778C86.4038 43.2778 86.9923 42.6923 86.9923 41.965C86.9923 41.2407 86.4038 40.6522 85.6766 40.6522ZM80.2807 40.6522C79.5535 40.6522 78.9651 41.2407 78.9651 41.965C78.9651 42.6923 79.5535 43.2778 80.2807 43.2778C81.0079 43.2778 81.6018 42.6923 81.6018 41.965C81.6018 41.2407 81.0079 40.6522 80.2807 40.6522ZM74.8906 40.6522C74.1631 40.6522 73.5749 41.2407 73.5749 41.965C73.5749 42.6923 74.1631 43.2778 74.8906 43.2778C75.6177 43.2778 76.2062 42.6923 76.2062 41.965C76.2062 41.2407 75.6177 40.6522 74.8906 40.6522ZM74.8906 40.6522C74.1631 40.6522 73.5749 41.2407 73.5749 41.965C73.5749 42.6923 74.1631 43.2778 74.8906 43.2778C75.6177 43.2778 76.2062 42.6923 76.2062 41.965C76.2062 41.2407 75.6177 40.6522 74.8906 40.6522ZM80.2807 40.6522C79.5535 40.6522 78.9651 41.2407 78.9651 41.965C78.9651 42.6923 79.5535 43.2778 80.2807 43.2778C81.0079 43.2778 81.6018 42.6923 81.6018 41.965C81.6018 41.2407 81.0079 40.6522 80.2807 40.6522ZM85.6766 40.6522C84.9494 40.6522 84.361 41.2407 84.361 41.965C84.361 42.6923 84.9494 43.2778 85.6766 43.2778C86.4038 43.2778 86.9923 42.6923 86.9923 41.965C86.9923 41.2407 86.4038 40.6522 85.6766 40.6522ZM85.6766 40.6522C84.9494 40.6522 84.361 41.2407 84.361 41.965C84.361 42.6923 84.9494 43.2778 85.6766 43.2778C86.4038 43.2778 86.9923 42.6923 86.9923 41.965C86.9923 41.2407 86.4038 40.6522 85.6766 40.6522ZM80.2807 40.6522C79.5535 40.6522 78.9651 41.2407 78.9651 41.965C78.9651 42.6923 79.5535 43.2778 80.2807 43.2778C81.0079 43.2778 81.6018 42.6923 81.6018 41.965C81.6018 41.2407 81.0079 40.6522 80.2807 40.6522ZM74.8906 40.6522C74.1631 40.6522 73.5749 41.2407 73.5749 41.965C73.5749 42.6923 74.1631 43.2778 74.8906 43.2778C75.6177 43.2778 76.2062 42.6923 76.2062 41.965C76.2062 41.2407 75.6177 40.6522 74.8906 40.6522ZM74.8906 40.6522C74.1631 40.6522 73.5749 41.2407 73.5749 41.965C73.5749 42.6923 74.1631 43.2778 74.8906 43.2778C75.6177 43.2778 76.2062 42.6923 76.2062 41.965C76.2062 41.2407 75.6177 40.6522 74.8906 40.6522ZM80.2807 40.6522C79.5535 40.6522 78.9651 41.2407 78.9651 41.965C78.9651 42.6923 79.5535 43.2778 80.2807 43.2778C81.0079 43.2778 81.6018 42.6923 81.6018 41.965C81.6018 41.2407 81.0079 40.6522 80.2807 40.6522ZM85.6766 40.6522C84.9494 40.6522 84.361 41.2407 84.361 41.965C84.361 42.6923 84.9494 43.2778 85.6766 43.2778C86.4038 43.2778 86.9923 42.6923 86.9923 41.965C86.9923 41.2407 86.4038 40.6522 85.6766 40.6522ZM85.6766 40.6522C84.9494 40.6522 84.361 41.2407 84.361 41.965C84.361 42.6923 84.9494 43.2778 85.6766 43.2778C86.4038 43.2778 86.9923 42.6923 86.9923 41.965C86.9923 41.2407 86.4038 40.6522 85.6766 40.6522ZM80.2807 40.6522C79.5535 40.6522 78.9651 41.2407 78.9651 41.965C78.9651 42.6923 79.5535 43.2778 80.2807 43.2778C81.0079 43.2778 81.6018 42.6923 81.6018 41.965C81.6018 41.2407 81.0079 40.6522 80.2807 40.6522ZM74.8906 40.6522C74.1631 40.6522 73.5749 41.2407 73.5749 41.965C73.5749 42.6923 74.1631 43.2778 74.8906 43.2778C75.6177 43.2778 76.2062 42.6923 76.2062 41.965C76.2062 41.2407 75.6177 40.6522 74.8906 40.6522ZM74.8906 40.6522C74.1631 40.6522 73.5749 41.2407 73.5749 41.965C73.5749 42.6923 74.1631 43.2778 74.8906 43.2778C75.6177 43.2778 76.2062 42.6923 76.2062 41.965C76.2062 41.2407 75.6177 40.6522 74.8906 40.6522ZM80.2807 40.6522C79.5535 40.6522 78.9651 41.2407 78.9651 41.965C78.9651 42.6923 79.5535 43.2778 80.2807 43.2778C81.0079 43.2778 81.6018 42.6923 81.6018 41.965C81.6018 41.2407 81.0079 40.6522 80.2807 40.6522ZM85.6766 40.6522C84.9494 40.6522 84.361 41.2407 84.361 41.965C84.361 42.6923 84.9494 43.2778 85.6766 43.2778C86.4038 43.2778 86.9923 42.6923 86.9923 41.965C86.9923 41.2407 86.4038 40.6522 85.6766 40.6522ZM85.6766 40.6522C84.9494 40.6522 84.361 41.2407 84.361 41.965C84.361 42.6923 84.9494 43.2778 85.6766 43.2778C86.4038 43.2778 86.9923 42.6923 86.9923 41.965C86.9923 41.2407 86.4038 40.6522 85.6766 40.6522ZM80.2807 40.6522C79.5535 40.6522 78.9651 41.2407 78.9651 41.965C78.9651 42.6923 79.5535 43.2778 80.2807 43.2778C81.0079 43.2778 81.6018 42.6923 81.6018 41.965C81.6018 41.2407 81.0079 40.6522 80.2807 40.6522ZM74.8906 40.6522C74.1631 40.6522 73.5749 41.2407 73.5749 41.965C73.5749 42.6923 74.1631 43.2778 74.8906 43.2778C75.6177 43.2778 76.2062 42.6923 76.2062 41.965C76.2062 41.2407 75.6177 40.6522 74.8906 40.6522ZM74.8906 43.2778C75.6177 43.2778 76.2062 42.6923 76.2062 41.965C76.2062 41.2407 75.6177 40.6522 74.8906 40.6522C74.1631 40.6522 73.5749 41.2407 73.5749 41.965C73.5749 42.6923 74.1631 43.2778 74.8906 43.2778ZM80.2807 43.2778C81.0079 43.2778 81.6018 42.6923 81.6018 41.965C81.6018 41.2407 81.0079 40.6522 80.2807 40.6522C79.5535 40.6522 78.9651 41.2407 78.9651 41.965C78.9651 42.6923 79.5535 43.2778 80.2807 43.2778ZM85.6766 43.2778C86.4038 43.2778 86.9923 42.6923 86.9923 41.965C86.9923 41.2407 86.4038 40.6522 85.6766 40.6522C84.9494 40.6522 84.361 41.2407 84.361 41.965C84.361 42.6923 84.9494 43.2778 85.6766 43.2778ZM92.1379 41.965C92.1379 40.0486 91.3055 38.3223 89.9787 37.1363H98.1223V46.8389H89.9285C91.2835 45.6529 92.1379 43.9055 92.1379 41.965ZM90.4729 41.965C90.4729 44.6268 88.3022 46.7937 85.6376 46.7937H66.8745V37.1363H85.6376C88.3022 37.1363 90.4729 39.3062 90.4729 41.965ZM98.1223 35.4734H66.8745V31.8881C66.8745 29.7665 68.5952 28.0463 70.7218 28.0463H94.2754C96.4013 28.0463 98.1223 29.7665 98.1223 31.8881V35.4734ZM117.774 48.4565C117.602 46.2323 117.224 44.0715 116.653 41.9861C115.015 35.9623 111.817 30.5813 107.526 26.2898C101.12 19.8918 92.2769 15.9353 82.501 15.9353C66.1749 15.9353 52.4302 26.978 48.3442 41.9861C47.7723 44.0715 47.3951 46.2323 47.2232 48.4565C47.1455 49.3861 47.1062 50.3307 47.1062 51.2783V63.8782C47.1062 69.0418 48.2387 74.1361 50.426 78.8049C50.8313 78.8109 51.2421 78.8109 51.6528 78.8109C49.4044 74.1754 48.2166 69.0328 48.2166 63.8782V51.2783C48.2166 50.3307 48.2556 49.3861 48.3333 48.4565H62.156V48.5018H104.756V48.4565H116.664C116.741 49.3861 116.78 50.3307 116.78 51.2783V63.8782C116.78 69.1535 115.536 74.4138 113.183 79.1308C113.594 79.1308 114.005 79.1368 114.415 79.1368C116.703 74.3745 117.89 69.1656 117.89 63.8782V51.2783C117.89 50.3307 117.851 49.3861 117.774 48.4565ZM74.8906 40.6522C74.1631 40.6522 73.5749 41.2407 73.5749 41.965C73.5749 42.6923 74.1631 43.2778 74.8906 43.2778C75.6177 43.2778 76.2062 42.6923 76.2062 41.965C76.2062 41.2407 75.6177 40.6522 74.8906 40.6522ZM80.2807 40.6522C79.5535 40.6522 78.9651 41.2407 78.9651 41.965C78.9651 42.6923 79.5535 43.2778 80.2807 43.2778C81.0079 43.2778 81.6018 42.6923 81.6018 41.965C81.6018 41.2407 81.0079 40.6522 80.2807 40.6522ZM85.6766 40.6522C84.9494 40.6522 84.361 41.2407 84.361 41.965C84.361 42.6923 84.9494 43.2778 85.6766 43.2778C86.4038 43.2778 86.9923 42.6923 86.9923 41.965C86.9923 41.2407 86.4038 40.6522 85.6766 40.6522ZM85.6766 40.6522C84.9494 40.6522 84.361 41.2407 84.361 41.965C84.361 42.6923 84.9494 43.2778 85.6766 43.2778C86.4038 43.2778 86.9923 42.6923 86.9923 41.965C86.9923 41.2407 86.4038 40.6522 85.6766 40.6522ZM80.2807 40.6522C79.5535 40.6522 78.9651 41.2407 78.9651 41.965C78.9651 42.6923 79.5535 43.2778 80.2807 43.2778C81.0079 43.2778 81.6018 42.6923 81.6018 41.965C81.6018 41.2407 81.0079 40.6522 80.2807 40.6522ZM74.8906 40.6522C74.1631 40.6522 73.5749 41.2407 73.5749 41.965C73.5749 42.6923 74.1631 43.2778 74.8906 43.2778C75.6177 43.2778 76.2062 42.6923 76.2062 41.965C76.2062 41.2407 75.6177 40.6522 74.8906 40.6522ZM74.8906 40.6522C74.1631 40.6522 73.5749 41.2407 73.5749 41.965C73.5749 42.6923 74.1631 43.2778 74.8906 43.2778C75.6177 43.2778 76.2062 42.6923 76.2062 41.965C76.2062 41.2407 75.6177 40.6522 74.8906 40.6522ZM80.2807 40.6522C79.5535 40.6522 78.9651 41.2407 78.9651 41.965C78.9651 42.6923 79.5535 43.2778 80.2807 43.2778C81.0079 43.2778 81.6018 42.6923 81.6018 41.965C81.6018 41.2407 81.0079 40.6522 80.2807 40.6522ZM85.6766 40.6522C84.9494 40.6522 84.361 41.2407 84.361 41.965C84.361 42.6923 84.9494 43.2778 85.6766 43.2778C86.4038 43.2778 86.9923 42.6923 86.9923 41.965C86.9923 41.2407 86.4038 40.6522 85.6766 40.6522ZM85.6766 40.6522C84.9494 40.6522 84.361 41.2407 84.361 41.965C84.361 42.6923 84.9494 43.2778 85.6766 43.2778C86.4038 43.2778 86.9923 42.6923 86.9923 41.965C86.9923 41.2407 86.4038 40.6522 85.6766 40.6522ZM80.2807 40.6522C79.5535 40.6522 78.9651 41.2407 78.9651 41.965C78.9651 42.6923 79.5535 43.2778 80.2807 43.2778C81.0079 43.2778 81.6018 42.6923 81.6018 41.965C81.6018 41.2407 81.0079 40.6522 80.2807 40.6522ZM74.8906 40.6522C74.1631 40.6522 73.5749 41.2407 73.5749 41.965C73.5749 42.6923 74.1631 43.2778 74.8906 43.2778C75.6177 43.2778 76.2062 42.6923 76.2062 41.965C76.2062 41.2407 75.6177 40.6522 74.8906 40.6522ZM74.8906 40.6522C74.1631 40.6522 73.5749 41.2407 73.5749 41.965C73.5749 42.6923 74.1631 43.2778 74.8906 43.2778C75.6177 43.2778 76.2062 42.6923 76.2062 41.965C76.2062 41.2407 75.6177 40.6522 74.8906 40.6522ZM80.2807 40.6522C79.5535 40.6522 78.9651 41.2407 78.9651 41.965C78.9651 42.6923 79.5535 43.2778 80.2807 43.2778C81.0079 43.2778 81.6018 42.6923 81.6018 41.965C81.6018 41.2407 81.0079 40.6522 80.2807 40.6522ZM85.6766 40.6522C84.9494 40.6522 84.361 41.2407 84.361 41.965C84.361 42.6923 84.9494 43.2778 85.6766 43.2778C86.4038 43.2778 86.9923 42.6923 86.9923 41.965C86.9923 41.2407 86.4038 40.6522 85.6766 40.6522ZM85.6766 40.6522C84.9494 40.6522 84.361 41.2407 84.361 41.965C84.361 42.6923 84.9494 43.2778 85.6766 43.2778C86.4038 43.2778 86.9923 42.6923 86.9923 41.965C86.9923 41.2407 86.4038 40.6522 85.6766 40.6522ZM80.2807 40.6522C79.5535 40.6522 78.9651 41.2407 78.9651 41.965C78.9651 42.6923 79.5535 43.2778 80.2807 43.2778C81.0079 43.2778 81.6018 42.6923 81.6018 41.965C81.6018 41.2407 81.0079 40.6522 80.2807 40.6522ZM74.8906 40.6522C74.1631 40.6522 73.5749 41.2407 73.5749 41.965C73.5749 42.6923 74.1631 43.2778 74.8906 43.2778C75.6177 43.2778 76.2062 42.6923 76.2062 41.965C76.2062 41.2407 75.6177 40.6522 74.8906 40.6522ZM74.8906 40.6522C74.1631 40.6522 73.5749 41.2407 73.5749 41.965C73.5749 42.6923 74.1631 43.2778 74.8906 43.2778C75.6177 43.2778 76.2062 42.6923 76.2062 41.965C76.2062 41.2407 75.6177 40.6522 74.8906 40.6522ZM80.2807 40.6522C79.5535 40.6522 78.9651 41.2407 78.9651 41.965C78.9651 42.6923 79.5535 43.2778 80.2807 43.2778C81.0079 43.2778 81.6018 42.6923 81.6018 41.965C81.6018 41.2407 81.0079 40.6522 80.2807 40.6522ZM85.6766 40.6522C84.9494 40.6522 84.361 41.2407 84.361 41.965C84.361 42.6923 84.9494 43.2778 85.6766 43.2778C86.4038 43.2778 86.9923 42.6923 86.9923 41.965C86.9923 41.2407 86.4038 40.6522 85.6766 40.6522ZM85.6766 40.6522C84.9494 40.6522 84.361 41.2407 84.361 41.965C84.361 42.6923 84.9494 43.2778 85.6766 43.2778C86.4038 43.2778 86.9923 42.6923 86.9923 41.965C86.9923 41.2407 86.4038 40.6522 85.6766 40.6522ZM80.2807 40.6522C79.5535 40.6522 78.9651 41.2407 78.9651 41.965C78.9651 42.6923 79.5535 43.2778 80.2807 43.2778C81.0079 43.2778 81.6018 42.6923 81.6018 41.965C81.6018 41.2407 81.0079 40.6522 80.2807 40.6522ZM74.8906 40.6522C74.1631 40.6522 73.5749 41.2407 73.5749 41.965C73.5749 42.6923 74.1631 43.2778 74.8906 43.2778C75.6177 43.2778 76.2062 42.6923 76.2062 41.965C76.2062 41.2407 75.6177 40.6522 74.8906 40.6522ZM74.8906 40.6522C74.1631 40.6522 73.5749 41.2407 73.5749 41.965C73.5749 42.6923 74.1631 43.2778 74.8906 43.2778C75.6177 43.2778 76.2062 42.6923 76.2062 41.965C76.2062 41.2407 75.6177 40.6522 74.8906 40.6522ZM80.2807 40.6522C79.5535 40.6522 78.9651 41.2407 78.9651 41.965C78.9651 42.6923 79.5535 43.2778 80.2807 43.2778C81.0079 43.2778 81.6018 42.6923 81.6018 41.965C81.6018 41.2407 81.0079 40.6522 80.2807 40.6522ZM85.6766 40.6522C84.9494 40.6522 84.361 41.2407 84.361 41.965C84.361 42.6923 84.9494 43.2778 85.6766 43.2778C86.4038 43.2778 86.9923 42.6923 86.9923 41.965C86.9923 41.2407 86.4038 40.6522 85.6766 40.6522ZM85.6766 40.6522C84.9494 40.6522 84.361 41.2407 84.361 41.965C84.361 42.6923 84.9494 43.2778 85.6766 43.2778C86.4038 43.2778 86.9923 42.6923 86.9923 41.965C86.9923 41.2407 86.4038 40.6522 85.6766 40.6522ZM80.2807 40.6522C79.5535 40.6522 78.9651 41.2407 78.9651 41.965C78.9651 42.6923 79.5535 43.2778 80.2807 43.2778C81.0079 43.2778 81.6018 42.6923 81.6018 41.965C81.6018 41.2407 81.0079 40.6522 80.2807 40.6522ZM74.8906 40.6522C74.1631 40.6522 73.5749 41.2407 73.5749 41.965C73.5749 42.6923 74.1631 43.2778 74.8906 43.2778C75.6177 43.2778 76.2062 42.6923 76.2062 41.965C76.2062 41.2407 75.6177 40.6522 74.8906 40.6522ZM74.8906 40.6522C74.1631 40.6522 73.5749 41.2407 73.5749 41.965C73.5749 42.6923 74.1631 43.2778 74.8906 43.2778C75.6177 43.2778 76.2062 42.6923 76.2062 41.965C76.2062 41.2407 75.6177 40.6522 74.8906 40.6522ZM80.2807 40.6522C79.5535 40.6522 78.9651 41.2407 78.9651 41.965C78.9651 42.6923 79.5535 43.2778 80.2807 43.2778C81.0079 43.2778 81.6018 42.6923 81.6018 41.965C81.6018 41.2407 81.0079 40.6522 80.2807 40.6522ZM85.6766 40.6522C84.9494 40.6522 84.361 41.2407 84.361 41.965C84.361 42.6923 84.9494 43.2778 85.6766 43.2778C86.4038 43.2778 86.9923 42.6923 86.9923 41.965C86.9923 41.2407 86.4038 40.6522 85.6766 40.6522ZM88.2191 113.52L87.5862 114.824C90.3338 114.163 92.9098 112.971 95.1745 111.332V99.2242L88.2191 113.52ZM112.05 81.3429H111.329C93.0208 81.2433 71.2879 81.1317 53.6455 81.0442C53.3568 81.0381 53.0739 81.0381 52.7907 81.0381C52.3688 81.0321 51.9526 81.0321 51.5361 81.026L53.9955 85.7823L54.3784 86.5247H55.3057L56.6546 90.9339L63.2661 103.733C64.6259 106.365 66.4804 108.637 68.6841 110.46V86.5247H74.7349L84.9549 107.463L95.1745 86.5247H101.226V104.647C101.403 104.346 101.57 104.041 101.731 103.733L108.242 91.1271V86.5247H110.618L111.001 85.7823L113.294 81.349C112.883 81.349 112.467 81.3429 112.05 81.3429ZM82.0739 114.32L74.7349 99.2694V113.991C77.1719 114.929 79.8032 115.433 82.501 115.433H82.618L82.0739 114.32ZM85.6766 40.6522C84.9494 40.6522 84.361 41.2407 84.361 41.965C84.361 42.6923 84.9494 43.2778 85.6766 43.2778C86.4038 43.2778 86.9923 42.6923 86.9923 41.965C86.9923 41.2407 86.4038 40.6522 85.6766 40.6522ZM80.2807 40.6522C79.5535 40.6522 78.9651 41.2407 78.9651 41.965C78.9651 42.6923 79.5535 43.2778 80.2807 43.2778C81.0079 43.2778 81.6018 42.6923 81.6018 41.965C81.6018 41.2407 81.0079 40.6522 80.2807 40.6522ZM74.8906 40.6522C74.1631 40.6522 73.5749 41.2407 73.5749 41.965C73.5749 42.6923 74.1631 43.2778 74.8906 43.2778C75.6177 43.2778 76.2062 42.6923 76.2062 41.965C76.2062 41.2407 75.6177 40.6522 74.8906 40.6522ZM74.8906 40.6522C74.1631 40.6522 73.5749 41.2407 73.5749 41.965C73.5749 42.6923 74.1631 43.2778 74.8906 43.2778C75.6177 43.2778 76.2062 42.6923 76.2062 41.965C76.2062 41.2407 75.6177 40.6522 74.8906 40.6522ZM80.2807 40.6522C79.5535 40.6522 78.9651 41.2407 78.9651 41.965C78.9651 42.6923 79.5535 43.2778 80.2807 43.2778C81.0079 43.2778 81.6018 42.6923 81.6018 41.965C81.6018 41.2407 81.0079 40.6522 80.2807 40.6522ZM85.6766 40.6522C84.9494 40.6522 84.361 41.2407 84.361 41.965C84.361 42.6923 84.9494 43.2778 85.6766 43.2778C86.4038 43.2778 86.9923 42.6923 86.9923 41.965C86.9923 41.2407 86.4038 40.6522 85.6766 40.6522ZM85.6766 40.6522C84.9494 40.6522 84.361 41.2407 84.361 41.965C84.361 42.6923 84.9494 43.2778 85.6766 43.2778C86.4038 43.2778 86.9923 42.6923 86.9923 41.965C86.9923 41.2407 86.4038 40.6522 85.6766 40.6522ZM80.2807 40.6522C79.5535 40.6522 78.9651 41.2407 78.9651 41.965C78.9651 42.6923 79.5535 43.2778 80.2807 43.2778C81.0079 43.2778 81.6018 42.6923 81.6018 41.965C81.6018 41.2407 81.0079 40.6522 80.2807 40.6522ZM74.8906 40.6522C74.1631 40.6522 73.5749 41.2407 73.5749 41.965C73.5749 42.6923 74.1631 43.2778 74.8906 43.2778C75.6177 43.2778 76.2062 42.6923 76.2062 41.965C76.2062 41.2407 75.6177 40.6522 74.8906 40.6522Z" fill="white"/>
<path d="M118.897 48.451C118.73 46.3518 118.392 44.304 117.892 42.3198C113.884 26.5336 99.5337 14.8218 82.5024 14.8218C65.4653 14.8218 51.1152 26.5336 47.1072 42.3198C46.6077 44.304 46.269 46.3518 46.1024 48.451C46.0358 49.3826 45.9973 50.3263 45.9973 51.2731V63.8712C45.9973 68.9951 47.096 74.116 49.2001 78.7953C49.6054 78.8014 50.0108 78.8014 50.427 78.8014C50.8323 78.8044 51.243 78.8044 51.6538 78.8044C49.4055 74.1705 48.2174 69.0284 48.2174 63.8712V51.2731C48.2174 50.3263 48.2565 49.3826 48.3341 48.451C48.5286 46.1008 48.9557 43.8231 49.6054 41.6332C53.78 27.432 66.9476 17.0389 82.5024 17.0389C98.0515 17.0389 111.219 27.432 115.394 41.6332C116.043 43.8231 116.471 46.1008 116.665 48.451C116.743 49.3826 116.782 50.3263 116.782 51.2731V63.8712C116.782 69.1494 115.538 74.4094 113.185 79.1281C113.595 79.1281 114.006 79.1311 114.417 79.1311C114.828 79.1371 115.238 79.1371 115.643 79.1371C117.848 74.3701 119.002 69.1222 119.002 63.8712V51.2731C119.002 50.3263 118.963 49.3826 118.897 48.451ZM64.2552 103.223L53.7855 82.9634L52.7919 81.0336C52.3699 81.0276 51.9537 81.0276 51.5372 81.0215C51.1152 81.0215 50.699 81.0215 50.2825 81.0185L52.7749 85.84L53.1248 86.5206H55.3068L56.6554 90.9276L58.4708 96.8712L62.2792 104.237C63.861 107.298 66.0594 109.887 68.6851 111.886V108.998C66.9091 107.385 65.3987 105.44 64.2552 103.223ZM88.2204 113.516L87.5876 114.82L86.9602 116.1C89.9243 115.519 92.7112 114.354 95.1758 112.703V109.956C93.1165 111.578 90.7571 112.785 88.2204 113.516ZM113.296 81.3452C112.885 81.3452 112.469 81.3391 112.052 81.3391L111.214 82.9634L109.376 86.5206H111.874L112.224 85.84L114.544 81.3512C114.134 81.3512 113.718 81.3512 113.296 81.3452ZM101.227 102.286V106.726C101.771 105.939 102.271 105.108 102.72 104.237L108.244 93.544V88.7044L101.227 102.286ZM82.619 115.428L82.075 114.315C79.5101 114.264 77.0285 113.737 74.736 112.806V115.183C77.1785 116.072 79.7988 116.538 82.5024 116.538C82.719 116.538 82.941 116.532 83.1573 116.526L82.619 115.428Z" fill="black"/>
<path d="M120.999 48.455H98.1225V31.8863C98.1225 29.7657 96.4014 28.0472 94.2755 28.0472H70.7216C68.5952 28.0472 66.8744 29.7657 66.8744 31.8863V48.455H43.9976L44.1531 43.1459L44.7137 24.2756C44.9857 15.0077 52.5908 7.63631 61.8783 7.63631H102.763C111.951 7.63631 119.511 14.8604 119.917 24.0209L120.761 43.1213L120.999 48.455Z" fill="black"/>
<path d="M63.8219 46.8341V37.1343H103.092V46.8341H63.8219ZM62.1565 35.4708V48.4977H104.757V35.4708H62.1565Z" fill="black"/>
<path d="M85.6386 46.7914H62.5564C62.4231 46.7914 62.2899 46.7856 62.1567 46.774C59.6807 46.5683 57.7213 44.4903 57.7213 41.9632C57.7213 39.4361 59.6807 37.3553 62.1567 37.1524C62.2899 37.1408 62.4231 37.135 62.5564 37.135H85.6386C88.3033 37.135 90.474 39.3028 90.474 41.9632C90.474 44.6237 88.3033 46.7914 85.6386 46.7914ZM89.98 37.135C88.8307 36.0975 87.3098 35.4715 85.6386 35.4715H62.5564C62.4231 35.4715 62.2899 35.4773 62.1567 35.4889C58.7482 35.6947 56.0559 38.5145 56.0559 41.9632C56.0559 45.4148 58.7482 48.2376 62.1567 48.4375C62.2899 48.4491 62.4231 48.452 62.5564 48.452H85.6386C87.2875 48.452 88.7863 47.8434 89.9298 46.8349C91.2846 45.6496 92.1391 43.902 92.1391 41.9632C92.1391 40.0447 91.3067 38.3204 89.98 37.135Z" fill="black"/>
<path d="M81.603 41.9604C81.603 42.6884 81.0088 43.276 80.2816 43.276C79.5545 43.276 78.9661 42.6884 78.9661 41.9604C78.9661 41.2352 79.5545 40.6476 80.2816 40.6476C81.0088 40.6476 81.603 41.2352 81.603 41.9604Z" fill="black"/>
<path d="M86.9935 41.9604C86.9935 42.6884 86.4048 43.276 85.6776 43.276C84.9505 43.276 84.3621 42.6884 84.3621 41.9604C84.3621 41.2352 84.9505 40.6476 85.6776 40.6476C86.4048 40.6476 86.9935 41.2352 86.9935 41.9604Z" fill="black"/>
<path d="M76.2071 41.9604C76.2071 42.6884 75.6186 43.276 74.8918 43.276C74.1644 43.276 73.5759 42.6884 73.5759 41.9604C73.5759 41.2352 74.1644 40.6476 74.8918 40.6476C75.6186 40.6476 76.2071 41.2352 76.2071 41.9604Z" fill="black"/>
<path d="M76.4677 63.7071C76.4677 64.9255 76.2902 66.1075 75.9569 67.2223H66.803V66.5108H70.8054C71.6881 66.5108 72.3987 65.8022 72.3987 64.9199V62.5867C72.3987 61.7128 71.6881 61.0014 70.8054 61.0014H66.803V56.9988C66.803 56.1249 66.0925 55.4135 65.21 55.4135H64.0439V51.3017C70.8943 51.3017 76.4677 56.8672 76.4677 63.7071Z" fill="black"/>
<path d="M86.8648 63.7079C86.8648 64.9229 87.0202 66.0986 87.3091 67.2238H77.6883C77.9772 66.0986 78.1329 64.9229 78.1329 63.7079C78.1329 57.6216 74.2469 52.4276 68.8176 50.4718H96.1854C90.7561 52.4276 86.8648 57.6216 86.8648 63.7079Z" fill="black"/>
<path d="M101.287 50.4729V50.4785C101.176 50.4729 101.065 50.4729 100.954 50.4729H101.287Z" fill="black"/>
<path d="M101.288 51.3129V67.2223H89.0416C88.7083 66.1075 88.5308 64.9255 88.5308 63.7071C88.5308 56.8672 94.1039 51.3017 100.954 51.3017C101.065 51.3017 101.176 51.3017 101.288 51.3129Z" fill="black"/>
<path d="M113.384 63.7082C113.384 65.554 112.979 67.3102 112.246 68.8899C110.281 73.153 105.956 76.1192 100.954 76.1192C95.3253 76.1192 90.5569 72.3603 89.0416 67.2234C88.7083 66.1086 88.5308 64.9266 88.5308 63.7082C88.5308 56.8682 94.1039 51.3027 100.954 51.3027C101.065 51.3027 101.176 51.3028 101.288 51.314C106.789 51.4512 111.408 55.1821 112.884 60.2322C113.212 61.3357 113.384 62.4982 113.384 63.7082Z" fill="black"/>
<path d="M100.954 50.4729C101.065 50.4729 101.176 50.4729 101.287 50.4785V50.4729H100.954Z" fill="white"/>
<path d="M98.2679 63.7563C98.2679 65.6691 96.7145 67.2223 94.7981 67.2223C92.882 67.2223 91.3286 65.6691 91.3286 63.7563C91.3286 61.8436 92.882 60.2921 94.7981 60.2921C96.7145 60.2921 98.2679 61.8436 98.2679 63.7563Z" fill="#129AD6"/>
<path d="M110.584 63.7563C110.584 65.6691 109.031 67.2223 107.115 67.2223C105.198 67.2223 103.645 65.6691 103.645 63.7563C103.645 61.8436 105.198 60.2921 107.115 60.2921C109.031 60.2921 110.584 61.8436 110.584 63.7563Z" fill="#E03339"/>
<path d="M104.755 57.8391C104.755 59.7532 103.202 61.3028 101.286 61.3028C99.3695 61.3028 97.8159 59.7532 97.8159 57.8391C97.8159 55.925 99.3695 54.3754 101.286 54.3754C103.202 54.3754 104.755 55.925 104.755 57.8391Z" fill="#FCDD10"/>
<path d="M104.755 69.5769C104.755 71.4896 103.202 73.0428 101.286 73.0428C99.3696 73.0428 97.8162 71.4896 97.8162 69.5769C97.8162 67.6642 99.3696 66.1126 101.286 66.1126C103.202 66.1126 104.755 67.6642 104.755 69.5769Z" fill="#89C94E"/>
<path d="M66.8035 70.5089C66.8035 71.3912 66.093 72.0998 65.2105 72.0998H62.873C61.9958 72.0998 61.2856 71.3912 61.2856 70.5089V66.5119H57.2774C56.4005 66.5119 55.6897 65.8033 55.6897 64.921V62.5878C55.6897 61.7139 56.4005 61.0025 57.2774 61.0025H61.2856V56.9999C61.2856 56.126 61.9958 55.4146 62.873 55.4146H65.2105C66.093 55.4146 66.8035 56.126 66.8035 56.9999V61.0025H70.8058C71.6886 61.0025 72.3991 61.7139 72.3991 62.5878V64.921C72.3991 65.8033 71.6886 66.5119 70.8058 66.5119H66.8035V70.5089ZM64.0444 51.3028C58.3986 51.3028 53.6192 55.0784 52.1146 60.2322C51.7869 61.3358 51.615 62.4982 51.615 63.7082C51.615 65.554 52.0206 67.3102 52.753 68.89C54.7183 73.153 59.0426 76.1192 64.0444 76.1192C69.6734 76.1192 74.4421 72.3603 75.9574 67.2234C76.2907 66.1086 76.4682 64.9266 76.4682 63.7082C76.4682 56.8683 70.8948 51.3028 64.0444 51.3028Z" fill="black"/>
<path d="M48.4402 145.41V143.725C48.4402 143.107 48.5621 142.649 48.8058 142.349L56.2593 131.368V131.256H49.5371C49.1433 131.256 48.9465 131.059 48.9465 130.666V128.531C48.9465 128.138 49.1433 127.942 49.5371 127.942H59.522C59.897 127.942 60.0845 128.138 60.0845 128.531V130.947C60.0845 131.508 59.9439 131.995 59.6626 132.407L52.6591 142.574V142.686H59.8032C60.1783 142.686 60.3658 142.864 60.3658 143.22V145.354C60.3658 145.785 60.1783 146 59.8032 146H49.0308C48.6371 146 48.4402 145.803 48.4402 145.41Z" fill="black"/>
<path d="M71.8103 142.911H73.8073C74.4073 142.911 74.8292 142.789 75.073 142.546C75.3355 142.283 75.4667 141.853 75.4667 141.254V132.688C75.4667 132.089 75.3355 131.667 75.073 131.424C74.8292 131.162 74.4073 131.031 73.8073 131.031H71.8103C71.2103 131.031 70.7884 131.162 70.5446 131.424C70.3009 131.667 70.179 132.089 70.179 132.688V141.254C70.179 141.853 70.3009 142.283 70.5446 142.546C70.7884 142.789 71.2103 142.911 71.8103 142.911ZM74.3979 146H71.2478C69.7665 146 68.6227 145.607 67.8164 144.82C67.0101 144.034 66.6069 142.901 66.6069 141.422V132.519C66.6069 131.04 67.0101 129.907 67.8164 129.121C68.6227 128.335 69.7665 127.942 71.2478 127.942H74.3979C75.8793 127.942 77.0231 128.335 77.8294 129.121C78.6356 129.907 79.0388 131.04 79.0388 132.519V141.422C79.0388 142.901 78.6356 144.034 77.8294 144.82C77.0231 145.607 75.8793 146 74.3979 146Z" fill="black"/>
<path d="M90.1266 146H87.7921C87.3983 146 87.2014 145.803 87.2014 145.41V128.531C87.2014 128.138 87.3983 127.942 87.7921 127.942H89.9015C90.2953 127.942 90.5578 128.073 90.6891 128.335L96.3706 138.979H96.4831V128.531C96.4831 128.138 96.68 127.942 97.0738 127.942H99.4083C99.802 127.942 99.9989 128.138 99.9989 128.531V145.41C99.9989 145.803 99.802 146 99.4083 146H97.355C96.9425 146 96.6425 145.813 96.455 145.438L90.8297 134.991H90.7172V145.41C90.7172 145.803 90.5203 146 90.1266 146Z" fill="black"/>
<path d="M117.303 146H108.106C107.712 146 107.515 145.803 107.515 145.41V128.531C107.515 128.138 107.712 127.942 108.106 127.942H117.303C117.678 127.942 117.865 128.138 117.865 128.531V130.441C117.865 130.834 117.678 131.031 117.303 131.031H111.424C111.199 131.031 111.087 131.134 111.087 131.34V134.991C111.087 135.197 111.199 135.3 111.424 135.3H116.234C116.628 135.3 116.825 135.496 116.825 135.89V137.799C116.825 138.192 116.628 138.389 116.234 138.389H111.424C111.199 138.389 111.087 138.492 111.087 138.698V142.602C111.087 142.808 111.199 142.911 111.424 142.911H117.303C117.678 142.911 117.865 143.107 117.865 143.5V145.41C117.865 145.803 117.678 146 117.303 146Z" fill="black"/>
<path d="M50.7873 92.129L46.0965 107.543H55.5669L50.7873 92.129ZM88.2197 113.518C90.7565 112.786 93.1158 111.578 95.1753 109.959V99.2226L88.2197 113.518ZM74.7354 99.2673V112.808C77.028 113.741 79.5095 114.267 82.0744 114.316L74.7354 99.2673ZM50.7873 92.129L46.0965 107.543H55.5669L50.7873 92.129ZM50.7873 92.129L46.0965 107.543H55.5669L50.7873 92.129ZM88.2197 113.518C90.7565 112.786 93.1158 111.578 95.1753 109.959V99.2226L88.2197 113.518ZM74.7354 99.2673V112.808C77.028 113.741 79.5095 114.267 82.0744 114.316L74.7354 99.2673ZM50.7873 92.129L46.0965 107.543H55.5669L50.7873 92.129ZM50.7873 92.129L46.0965 107.543H55.5669L50.7873 92.129ZM152.809 93.8353C152.37 93.3427 151.837 92.9326 151.204 92.6106C150.577 92.2886 149.972 92.129 149.389 92.129H140.968V101.761H149.389C150 101.761 150.644 101.59 151.315 101.24C151.987 100.885 152.542 100.42 152.981 99.8367C153.625 98.9615 153.947 98.0536 153.947 97.1206C153.947 95.7804 153.569 94.6829 152.809 93.8353ZM152.809 93.8353C152.37 93.3427 151.837 92.9326 151.204 92.6106C150.577 92.2886 149.972 92.129 149.389 92.129H140.968V101.761H149.389C150 101.761 150.644 101.59 151.315 101.24C151.987 100.885 152.542 100.42 152.981 99.8367C153.625 98.9615 153.947 98.0536 153.947 97.1206C153.947 95.7804 153.569 94.6829 152.809 93.8353ZM88.2197 113.518C90.7565 112.786 93.1158 111.578 95.1753 109.959V99.2226L88.2197 113.518ZM74.7354 99.2673V112.808C77.028 113.741 79.5095 114.267 82.0744 114.316L74.7354 99.2673ZM50.7873 92.129L46.0965 107.543H55.5669L50.7873 92.129ZM46.0965 107.543H55.5669L50.7873 92.129L46.0965 107.543ZM151.204 92.6106C150.577 92.2886 149.972 92.129 149.389 92.129H140.968V101.761H149.389C150 101.761 150.644 101.59 151.315 101.24C151.987 100.885 152.542 100.42 152.981 99.8367C153.625 98.9615 153.947 98.0536 153.947 97.1206C153.947 95.7804 153.569 94.6829 152.809 93.8353C152.37 93.3427 151.837 92.9326 151.204 92.6106ZM160.003 118.059H153.247L148.029 107.326H140.968V118.059H135V86.5215H149.428C150.511 86.5215 151.582 86.6846 152.631 87.0066C153.686 87.3258 154.663 87.8164 155.573 88.4686C156.478 89.1292 157.25 89.8932 157.894 90.7684C158.566 91.6766 159.087 92.6756 159.454 93.7682C159.82 94.8636 160.003 95.9785 160.003 97.1206C160.003 98.1692 159.809 99.2181 159.431 100.253C159.048 101.29 158.538 102.242 157.894 103.12C156.933 104.466 155.701 105.487 154.213 106.184L160.003 118.059ZM128.861 92.4747H114.211V99.312H126.229V105.264H114.211V112.097H128.861V118.059H108.243V86.5215H128.861V92.4747ZM101.226 118.059H95.1753V99.2226L88.2197 113.518L87.5869 114.82L86.9595 116.102L86.01 118.059H83.9007L83.1568 116.528L82.6185 115.431L82.0744 114.316L74.7354 99.2673V118.059H68.6845V86.5215H74.7354L84.9555 107.46L95.1753 86.5215H101.226V118.059ZM58.8145 118.059L57.2823 113.152H44.3868L42.8935 118.059H36.7538L46.4019 86.5215H55.3061L56.655 90.9318L58.4702 96.873L64.9542 118.059H58.8145ZM35.6546 102.286C35.5713 106.959 34.3388 110.714 31.974 113.546C30.6251 115.236 28.9374 116.523 26.9056 117.399C24.874 118.274 22.6866 118.711 20.3496 118.711C18.0071 118.711 15.8143 118.274 13.7714 117.399C11.723 116.523 10.0409 115.236 8.72533 113.546C6.32715 110.714 5.08382 106.959 5.0003 102.286C5.08382 97.7038 6.32715 93.9495 8.72533 91.035C10.0687 89.3672 11.7673 88.0909 13.8158 87.1992C15.8587 86.313 18.0402 85.8644 20.3496 85.8644C22.6866 85.8644 24.874 86.3189 26.9056 87.2216C28.9374 88.1298 30.6251 89.4002 31.974 91.035C32.496 91.6762 32.9678 92.3928 33.373 93.1799L27.894 95.6758L27.2333 94.6214C26.4728 93.6278 25.4957 92.8576 24.2965 92.3044C23.0976 91.7512 21.843 91.4736 20.5216 91.4736C19.0617 91.4736 17.7073 91.734 16.4695 92.2597C15.2259 92.7854 14.2099 93.5728 13.4217 94.6214C12.0728 96.435 11.3732 98.989 11.3123 102.286C11.3732 105.586 12.0728 108.141 13.4217 109.954C14.1766 110.975 15.1591 111.754 16.3584 112.299C17.5573 112.835 18.8285 113.107 20.1722 113.107C21.6043 113.107 22.9421 112.841 24.1857 112.316C25.4291 111.796 26.445 111.003 27.2333 109.954C27.9937 108.961 28.5822 107.631 28.9876 105.969H21.6652V101.24H35.6546V102.286ZM160.53 107.752L161.025 107.199C161.341 106.838 161.652 106.45 161.941 106.051C162.851 104.799 163.584 103.429 164.122 101.968C164.705 100.383 164.999 98.7499 164.999 97.1206C164.999 95.4529 164.727 93.7909 164.189 92.1892C163.662 90.604 162.901 89.1343 161.93 87.827C160.975 86.528 159.825 85.3938 158.504 84.4333C157.155 83.4563 155.673 82.716 154.091 82.2316C152.57 81.7665 150.999 81.535 149.428 81.535C149.106 81.535 140.651 81.4892 128.211 81.4232C124.053 81.4012 119.446 81.3785 114.544 81.3509C114.133 81.3509 113.717 81.3513 113.295 81.3458C112.884 81.3458 112.468 81.3406 112.051 81.3406H111.33C93.0215 81.2416 71.2883 81.1304 53.6461 81.0396C53.3575 81.0341 53.0744 81.0345 52.7913 81.0345C52.3693 81.0289 51.9532 81.0296 51.5367 81.0241C51.1147 81.0241 50.6986 81.0228 50.2821 81.0173C44.6032 80.9897 39.435 80.9636 35.0438 80.9416C26.5503 80.903 20.9825 80.8745 20.3496 80.8745C17.3575 80.8745 14.4875 81.4669 11.8172 82.6255C9.03044 83.8392 6.69344 85.6026 4.86718 87.8649C1.74742 91.6601 0.109697 96.4852 0.00413432 102.193C-0.0013781 102.254 -0.0013781 102.319 0.00413432 102.382C0.109697 108.156 1.73643 112.969 4.83385 116.671C6.67693 119.01 9.01391 120.788 11.8007 121.983C14.4654 123.122 17.341 123.701 20.3496 123.701C23.4752 123.701 158.632 123.051 159.998 123.046C161.735 123.046 163.317 122.165 164.239 120.701C165.155 119.234 165.249 117.426 164.494 115.868L160.53 107.752ZM50.7873 92.129L46.0965 107.543H55.5669L50.7873 92.129ZM74.7354 112.808C77.028 113.741 79.5095 114.267 82.0744 114.316L74.7354 99.2673V112.808ZM88.2197 113.518C90.7565 112.786 93.1158 111.578 95.1753 109.959V99.2226L88.2197 113.518ZM152.809 93.8353C152.37 93.3427 151.837 92.9326 151.204 92.6106C150.577 92.2886 149.972 92.129 149.389 92.129H140.968V101.761H149.389C150 101.761 150.644 101.59 151.315 101.24C151.987 100.885 152.542 100.42 152.981 99.8367C153.625 98.9615 153.947 98.0536 153.947 97.1206C153.947 95.7804 153.569 94.6829 152.809 93.8353ZM152.809 93.8353C152.37 93.3427 151.837 92.9326 151.204 92.6106C150.577 92.2886 149.972 92.129 149.389 92.129H140.968V101.761H149.389C150 101.761 150.644 101.59 151.315 101.24C151.987 100.885 152.542 100.42 152.981 99.8367C153.625 98.9615 153.947 98.0536 153.947 97.1206C153.947 95.7804 153.569 94.6829 152.809 93.8353ZM50.7873 92.129L46.0965 107.543H55.5669L50.7873 92.129ZM50.7873 92.129L46.0965 107.543H55.5669L50.7873 92.129ZM74.7354 99.2673V112.808C77.028 113.741 79.5095 114.267 82.0744 114.316L74.7354 99.2673ZM88.2197 113.518C90.7565 112.786 93.1158 111.578 95.1753 109.959V99.2226L88.2197 113.518ZM50.7873 92.129L46.0965 107.543H55.5669L50.7873 92.129ZM50.7873 92.129L46.0965 107.543H55.5669L50.7873 92.129ZM74.7354 99.2673V112.808C77.028 113.741 79.5095 114.267 82.0744 114.316L74.7354 99.2673ZM88.2197 113.518C90.7565 112.786 93.1158 111.578 95.1753 109.959V99.2226L88.2197 113.518ZM50.7873 92.129L46.0965 107.543H55.5669L50.7873 92.129ZM50.7873 92.129L46.0965 107.543H55.5669L50.7873 92.129ZM50.7873 92.129L46.0965 107.543H55.5669L50.7873 92.129Z" fill="black"/>
<path d="M43.6811 139.851C43.6811 141.178 42.6051 142.251 41.2777 142.251C39.9505 142.251 38.8748 141.178 38.8748 139.851C38.8748 138.527 39.9505 137.45 41.2777 137.45C42.6051 137.45 43.6811 138.527 43.6811 139.851Z" fill="black"/>
<path d="M125.014 139.851C125.014 141.178 123.938 142.251 122.611 142.251C121.284 142.251 120.208 141.178 120.208 139.851C120.208 138.527 121.284 137.45 122.611 137.45C123.938 137.45 125.014 138.527 125.014 139.851Z" fill="black"/>
</svg>
