<svg width="52" height="52" viewBox="0 0 52 52" fill="none" xmlns="http://www.w3.org/2000/svg">
<g clip-path="url(#clip0_36_2254)">
<path d="M34.8619 1.92804C34.516 0.54441 33.0458 -0.320447 31.7486 0.111982L2.43189 6.77099C1.04816 7.11687 0.269849 8.58705 0.615833 9.97067L11.3394 50.0974C11.5124 50.7893 11.9447 51.3081 12.5501 51.654C12.9825 51.9135 13.4149 51.9999 13.8473 51.9999C14.1067 51.9999 14.2797 51.9999 14.5392 51.9135L15.058 51.7405C14.5392 51.0486 14.2797 50.1839 14.2797 49.319V44.995C13.9338 44.995 13.5879 44.7356 13.415 44.3897C12.4637 40.7575 11.4259 37.1254 10.4746 33.4067C9.43678 29.7746 8.48548 26.0559 7.53417 22.5103C7.44773 22.0779 7.70717 21.559 8.13949 21.4725C8.57182 21.3861 9.09079 21.6455 9.17724 22.0779C10.1285 25.71 11.1663 29.3422 12.1176 32.9743C12.8095 35.5687 13.5878 38.2496 14.2796 40.8439V16.0243C13.9337 16.3701 13.4149 16.2837 13.0689 15.9378L11.8582 14.5541C11.8582 14.5541 11.7717 14.5541 11.7717 14.6405L8.39903 15.5053C8.31259 15.5053 8.31259 15.5053 8.22604 15.5053L7.88016 17.3213C7.79371 17.7538 7.44773 18.0132 7.0154 18.0132C6.92896 18.0132 6.92896 18.0132 6.84241 18.0132C6.40998 17.9268 6.0641 17.4943 6.15055 16.9755L7.70717 9.4517C7.79361 9.10582 8.05305 8.84638 8.31248 8.75983C8.65837 8.67339 9.00435 8.75983 9.17724 9.01927L14.2795 14.727V7.80874C14.2795 5.38726 16.1821 3.48476 18.6035 3.48476H35.3806L34.8619 1.92804Z" fill="black"/>
<path d="M48.8716 5.21429H18.6036C17.1334 5.21429 16.0092 6.33848 16.0092 7.80866V49.319C16.0092 50.7892 17.1334 51.9134 18.6036 51.9134H48.8715C50.3417 51.9134 51.4659 50.7892 51.4659 49.319V7.80876C51.466 6.33859 50.3418 5.21429 48.8716 5.21429ZM31.5756 8.67352H47.142C47.6609 8.67352 48.0068 9.0194 48.0068 9.53827V35.3959C48.0068 35.9148 47.6609 36.2606 47.142 36.2606C46.6231 36.2606 46.2773 35.9148 46.2773 35.3959V10.4032H31.5756C31.0568 10.4032 30.7109 10.0573 30.7109 9.53848C30.7109 9.0196 31.0568 8.67352 31.5756 8.67352ZM19.4685 9.53837C19.4685 9.0195 19.8143 8.67362 20.3332 8.67362C20.8521 8.67362 21.198 9.0195 21.198 9.53837V12.3057L23.9654 8.93295C24.3113 8.58707 24.8302 8.50052 25.1762 8.84651C25.5221 9.19249 25.6086 9.71126 25.2626 10.0572L22.9277 12.8246L26.1275 17.6674C26.3869 18.0999 26.3004 18.6188 25.868 18.8782C25.868 18.9646 25.695 19.0512 25.5221 19.0512C25.2627 19.0512 25.0033 18.8782 24.8303 18.7053L21.8899 14.2948L21.1981 15.0731V18.1863C21.1981 18.7052 20.8522 19.0511 20.3333 19.0511C19.8144 19.0511 19.4686 18.7052 19.4686 18.1863V9.53837H19.4685ZM37.6292 48.4542L20.3332 48.5407C20.0738 48.5407 19.9008 48.4542 19.7279 48.2813C19.5549 48.1083 19.4685 47.9354 19.4685 47.6759V21.732C19.4685 21.2131 19.8143 20.8672 20.3332 20.8672C20.8521 20.8672 21.198 21.2131 21.198 21.732V46.8112L37.6291 46.7247C38.148 46.7247 38.4939 47.0706 38.4939 47.5895C38.494 48.0219 38.1481 48.4542 37.6292 48.4542ZM37.2833 36.1742L38.0616 38.0768C38.2346 38.4227 38.2346 38.8551 37.9752 39.201C37.7158 39.5469 37.3699 39.8063 36.9374 39.8063H30.5379C30.1055 39.8063 29.6731 39.5469 29.5001 39.201C29.3271 38.8551 29.2407 38.4227 29.4137 38.0768L30.019 36.1742C29.5866 36.3472 29.2407 36.3472 28.8083 36.3472C27.1651 36.3472 25.6085 35.6553 24.4843 34.4446C23.3601 33.3204 22.8411 31.7637 22.9277 30.2935C23.0141 28.5639 24.0519 26.9208 25.7815 25.7965C26.6462 25.2777 27.4246 24.9318 28.2894 24.9318C28.03 24.3265 27.9435 23.548 27.9435 22.7697C27.9435 21.0401 28.7218 19.3971 30.1056 18.2728C31.4893 17.1486 33.2188 16.7161 34.9484 17.1486C37.1969 17.581 38.9265 19.3971 39.3589 21.6455C39.6184 22.8563 39.5319 23.9805 39.1859 24.9318C40.0507 25.0182 40.8291 25.2777 41.6938 25.8831C43.4235 27.0073 44.4612 28.564 44.5477 30.38C44.6341 31.9367 44.1152 33.4068 42.991 34.5311C41.8668 35.7419 40.2237 36.4337 38.6671 36.4337C38.1481 36.3471 37.7157 36.2606 37.2833 36.1742ZM48.1798 47.5895H48.0068C48.0068 48.1084 47.6609 48.4542 47.142 48.4542C46.6231 48.4542 46.2773 48.1084 46.2773 47.5895V44.8221L43.5099 48.1948C43.3369 48.3678 43.0775 48.4542 42.818 48.4542C42.645 48.4542 42.3856 48.3678 42.2992 48.2813C41.9533 47.9354 41.8667 47.4165 42.2127 47.0705L44.5477 44.3032L41.3479 39.4603C41.0884 39.0279 41.1749 38.509 41.6073 38.2496C42.0397 37.9901 42.5586 38.0766 42.818 38.509L45.7584 42.9195L46.4503 42.1412V38.9414C46.4503 38.4226 46.7961 38.0767 47.315 38.0767C47.8339 38.0767 48.1798 38.4226 48.1798 38.9414V47.5895Z" fill="black"/>
</g>
<defs>
<clipPath id="clip0_36_2254">
<rect width="52" height="52" fill="white"/>
</clipPath>
</defs>
</svg>
