<svg width="52" height="52" viewBox="0 0 52 52" fill="none" xmlns="http://www.w3.org/2000/svg">
<path d="M43.0345 0H8.96553C7.97488 0 7.17244 0.802445 7.17244 1.79309V50.2069C7.17244 51.1976 7.97488 52 8.96553 52H43.0345C44.0251 52 44.8275 51.1976 44.8275 50.2069V1.79309C44.8275 0.802445 44.0252 0 43.0345 0Z" fill="#E6EEF4"/>
<path d="M9.86201 14.3448C9.86201 14.8399 10.2634 15.2414 10.7586 15.2414C11.2537 15.2414 11.6552 14.84 11.6552 14.3448V3.58617C11.6552 3.09105 11.2538 2.68958 10.7586 2.68958C10.2635 2.68958 9.86201 3.09095 9.86201 3.58617V14.3448Z" fill="#D71E00"/>
<path d="M13.4483 6.27585V11.6552C13.4483 13.6297 15.06 15.2414 17.0345 15.2414C19.0089 15.2414 20.6206 13.6297 20.6206 11.6552V6.27585C20.6206 4.30138 19.0089 2.68968 17.0345 2.68968C15.06 2.68968 13.4483 4.30138 13.4483 6.27585ZM18.8275 6.27585V11.6552C18.8275 12.6394 18.0186 13.4483 17.0345 13.4483C16.0503 13.4483 15.2414 12.6394 15.2414 11.6552V6.27585C15.2414 5.29171 16.0503 4.48277 17.0345 4.48277C18.0186 4.48277 18.8275 5.29171 18.8275 6.27585Z" fill="#D71E00"/>
<path d="M26 24.2069C26.9655 21.7477 29.0088 19.7241 31.5738 19.7241C33.7327 19.7241 35.6567 20.7391 36.9532 22.4138C38.5795 24.5154 39.7289 29.1935 36.1696 32.7529C34.364 34.5585 26 43.0345 26 43.0345C26 43.0345 17.636 34.5585 15.8304 32.7528C12.2711 29.1934 13.4205 24.5153 15.0469 22.4137C16.3433 20.739 18.2673 19.724 20.4262 19.724C22.9912 19.7241 25.0344 21.7477 26 24.2069Z" fill="#D71E00"/>
<path d="M11.6552 3.58617C11.6552 3.09105 11.2538 2.68958 10.7586 2.68958C10.2635 2.68958 9.86201 3.09095 9.86201 3.58617V4.48276C9.86201 4.97788 10.2634 5.37936 10.7586 5.37936C11.2537 5.37936 11.6552 4.97798 11.6552 4.48276V3.58617Z" fill="#D71E00"/>
</svg>
