<svg width="48" height="48" viewBox="0 0 48 48" fill="none" xmlns="http://www.w3.org/2000/svg">
<g clip-path="url(#clip0_36_2351)">
<path d="M38.6775 1.96311C37.1186 0.780572 35.1806 0.0702095 33.0716 0.0702095H9.30228C4.16529 0.0702095 0 4.23649 0 9.37249V33.1428C0 35.3804 0.791484 37.4323 2.10794 39.0386C3.16825 44.1092 7.67181 47.9298 13.0524 47.9298H36.8206C42.9852 47.9298 48.0001 42.9139 48.0001 36.7484V12.9771C48 7.44475 43.959 2.85159 38.6775 1.96311ZM35.4598 33.1796H36.2325V37.2058H35.3229V34.0163H35.3103L34.5419 34.381L34.3881 33.6749L35.4598 33.1796ZM19.8641 24.1819C15.7157 22.7991 14.1305 20.5625 14.1717 18.2037C14.1717 14.4621 17.343 11.6574 22.2631 11.6574C24.5806 11.6574 26.615 12.2266 27.8334 12.8357L26.7773 17.1065C25.8813 16.6184 24.1339 15.9671 22.4665 15.9671C20.9615 15.9671 20.1088 16.5784 20.1088 17.5523C20.1088 18.5293 20.8814 19.0173 23.3203 19.87C27.102 21.1706 28.6471 23.1237 28.6882 26.0103C28.6882 29.7509 25.8014 32.4764 20.1089 32.4764C17.5067 32.4764 15.189 31.8652 13.6839 31.0515L14.7822 26.6595C15.9194 27.352 18.2793 28.1246 20.1089 28.1246C21.9787 28.1246 22.7512 27.5154 22.7512 26.4982C22.751 25.4423 22.1407 24.9545 19.8641 24.1819ZM44.2414 36.7473C44.2414 40.8398 40.9132 44.1703 36.8206 44.1703H13.0524C11.2111 44.1703 9.5279 43.4916 8.22941 42.3786C8.58145 42.4197 8.93878 42.4452 9.30338 42.4452H33.0716C38.2108 42.4452 42.3729 38.2799 42.3729 33.1429V9.37359C42.3729 8.88245 42.3234 8.40498 42.2507 7.9349C43.4827 9.26083 44.2425 11.0315 44.2425 12.9781V36.7473H44.2414Z" fill="#507623"/>
</g>
<defs>
<clipPath id="clip0_36_2351">
<rect width="48" height="48" fill="white"/>
</clipPath>
</defs>
</svg>
