<svg width="52" height="52" viewBox="0 0 52 52" fill="none" xmlns="http://www.w3.org/2000/svg">
<g clip-path="url(#clip0_36_2222)">
<path d="M16.5712 50.1475V7.16367C16.5712 6.17417 17.3735 5.37268 18.3622 5.37268H35.7097L34.3002 1.32776C34.0441 0.372209 33.0627 -0.194623 32.1071 0.0614988L1.83227 6.95956C0.876711 7.21558 0.309878 8.19714 0.566 9.15259L11.6916 50.6722C11.9468 51.6277 12.9292 52.1946 13.8847 51.9385L16.8711 51.1379C16.6822 50.8539 16.5712 50.5137 16.5712 50.1475Z" fill="#DAE1E5"/>
<path d="M49.7045 5.37268H18.3621C17.3726 5.37268 16.5712 6.17417 16.5712 7.16368V50.1474C16.5712 51.1369 17.3726 51.9384 18.3621 51.9384H49.7045C50.694 51.9384 51.4955 51.1369 51.4955 50.1474V7.16368C51.4955 6.17417 50.694 5.37268 49.7045 5.37268Z" fill="#E6EEF4"/>
<path d="M48.809 8.95498C48.809 8.46038 48.4081 8.05948 47.9135 8.05948H31.7946C31.3 8.05948 30.8991 8.46038 30.8991 8.95498C30.8991 9.44958 31.3 9.85048 31.7946 9.85048H47.9135L47.018 8.95498V35.7652C47.018 36.2598 47.4189 36.6607 47.9135 36.6607C48.4081 36.6607 48.809 36.2598 48.809 35.7652V8.95498Z" fill="black"/>
<path d="M19.2576 48.4074C19.2576 48.9029 19.6601 49.3043 20.1557 49.3029L38.0656 49.2518C38.5602 49.2503 38.9599 48.8483 38.9585 48.3537C38.957 47.8591 38.555 47.4593 38.0604 47.4608L20.1506 47.5119L21.0486 48.4074V21.5425C21.0486 21.0479 20.6477 20.647 20.1531 20.647C19.6585 20.647 19.2576 21.0479 19.2576 21.5425V48.4074Z" fill="black"/>
<path d="M36.2749 34.9539C36.2238 34.9208 36.1648 34.971 36.1872 35.0282L37.6719 38.8296C37.8027 39.092 37.612 39.4018 37.3182 39.4018H30.6951C30.4014 39.4018 30.2106 39.0919 30.3423 38.8296L31.5789 35.0193C31.5977 34.962 31.5359 34.9163 31.4867 34.9494C30.7407 35.4536 29.89 35.8323 28.9587 35.8323C26.0698 35.8323 23.5633 33.4064 23.7442 30.4808C23.8454 28.8358 24.8931 27.4244 26.2892 26.5487C27.6897 25.6702 28.8423 25.6003 30.0037 25.8815C29.2614 25.0021 28.9587 23.8675 28.9587 22.6273C28.9587 19.4859 31.8278 17.0143 35.0884 17.6904C37.0307 18.0933 38.5871 19.6837 38.9606 21.6315C39.2722 23.255 39 24.772 38.0633 25.8815C39.2328 25.5976 40.3432 25.6711 41.7554 26.5684C43.1444 27.4495 44.1875 28.8573 44.2834 30.4996C44.4527 33.4171 41.9381 35.8322 39.0564 35.8322C38.1411 35.8324 37.0406 35.4465 36.2749 34.9539Z" fill="black"/>
<path d="M24.5361 8.55418C24.2061 7.89417 23.2642 7.89417 22.9342 8.55418L19.3522 15.7182C19.131 16.1605 19.3103 16.6984 19.7527 16.9196C20.195 17.1408 20.7329 16.9615 20.9541 16.5191L24.5361 9.35516H22.9342L26.5161 16.5191C26.7373 16.9615 27.2752 17.1408 27.7176 16.9196C28.16 16.6985 28.3392 16.1605 28.1181 15.7182L24.5361 8.55418Z" fill="black"/>
<path d="M25.5542 14.8109C26.0488 14.8109 26.4497 14.41 26.4497 13.9154C26.4497 13.4208 26.0488 13.0199 25.5542 13.0199H21.9722C21.4776 13.0199 21.0767 13.4208 21.0767 13.9154C21.0767 14.41 21.4776 14.8109 21.9722 14.8109H25.5542Z" fill="black"/>
<path d="M48.7145 41.593C48.9356 41.1506 48.7564 40.6128 48.314 40.3915C47.8716 40.1704 47.3338 40.3496 47.1125 40.792L43.5305 47.956C43.3094 48.3984 43.4886 48.9362 43.931 49.1575C44.3734 49.3786 44.9112 49.1993 45.1325 48.757L48.7145 41.593Z" fill="black"/>
<path d="M43.5305 48.7569C43.7517 49.1993 44.2896 49.3785 44.732 49.1574C45.1744 48.9362 45.3536 48.3983 45.1325 47.9559L41.5505 40.7919C41.3293 40.3495 40.7914 40.1703 40.349 40.3914C39.9066 40.6126 39.7274 41.1505 39.9485 41.5929L43.5305 48.7569Z" fill="black"/>
<path d="M42.5126 42.5002C42.018 42.5002 41.6171 42.9011 41.6171 43.3957C41.6171 43.8903 42.018 44.2912 42.5126 44.2912H46.0946C46.5892 44.2912 46.9901 43.8903 46.9901 43.3957C46.9901 42.9011 46.5892 42.5002 46.0946 42.5002H42.5126Z" fill="black"/>
<path d="M9.93964 33.6334C11.4862 39.3135 12.1814 41.8775 13.0194 45.0061C13.1474 45.4838 13.6383 45.7673 14.1161 45.6394C14.5939 45.5114 14.8774 45.0204 14.7494 44.5426C13.9106 41.4109 13.2148 38.8453 11.6804 33.2093C10.1207 27.4809 9.44545 24.9909 8.61259 21.883C8.48453 21.4053 7.99354 21.1217 7.51587 21.2498C7.03819 21.3778 6.75462 21.8688 6.88268 22.3465C7.71627 25.4576 8.39197 27.9491 9.93964 33.6334Z" fill="#D71E00"/>
<path d="M8.61981 8.43469C8.13016 7.88251 7.22043 8.12635 7.07245 8.84932L5.46679 16.6965C5.36762 17.181 5.68008 17.6543 6.16457 17.7533C6.64905 17.8524 7.12229 17.54 7.22136 17.0555L8.82702 9.20832L7.27966 9.62295L12.5935 15.6156C12.9217 15.9857 13.4876 16.0196 13.8576 15.6915C14.2277 15.3633 14.2616 14.7974 13.9335 14.4274L8.61981 8.43469Z" fill="#D71E00"/>
<path d="M11.2224 14.2149C11.7002 14.0869 11.9837 13.5959 11.8557 13.1182C11.7277 12.6404 11.2368 12.3569 10.759 12.4849L7.29876 13.4117C6.82098 13.5397 6.53751 14.0307 6.66547 14.5085C6.79343 14.9862 7.28441 15.2697 7.76219 15.1418L11.2224 14.2149Z" fill="#D71E00"/>
</g>
<defs>
<clipPath id="clip0_36_2222">
<rect width="52" height="52" fill="white"/>
</clipPath>
</defs>
</svg>
