<svg width="48" height="48" viewBox="0 0 48 48" fill="none" xmlns="http://www.w3.org/2000/svg">
<g clip-path="url(#clip0_34_1795)">
<path d="M0.436859 34.6437C0.436859 31.3665 3.07817 28.7099 6.33635 28.7099C7.95128 28.7099 9.41341 29.3635 10.4781 30.4213C10.873 30.8134 11.5165 30.8134 11.9113 30.4213C12.9761 29.3636 14.4382 28.7099 16.0531 28.7099C19.3112 28.7099 21.9525 31.3665 21.9525 34.6437C21.9525 40.772 14.0611 46.3471 11.7959 47.8211C11.4297 48.0594 10.9596 48.0594 10.5934 47.8211C8.32835 46.3471 0.436859 40.7721 0.436859 34.6437Z" fill="#FF6464"/>
<path d="M8.73569 29.2276C8.00219 28.8977 7.192 28.71 6.33635 28.71C3.07817 28.71 0.436859 31.3666 0.436859 34.6438C0.436859 40.7722 8.32825 46.3473 10.5935 47.8213C10.7766 47.9405 10.9857 48.0001 11.1947 48.0001C3.13264 36.995 6.00128 30.8366 8.73569 29.2276Z" fill="#D2555A"/>
<path d="M42.6816 35.661C40.8881 35.5581 39.3182 36.5473 38.5652 38.0235C38.399 38.3495 38.1219 38.6055 37.7745 38.7204C37.7702 38.7218 37.7659 38.7233 37.7616 38.7246C37.4663 38.8219 37.1712 38.5702 37.2175 38.2626C37.3192 37.587 37.4789 36.9305 37.6908 36.2976C37.8058 35.954 38.0574 35.6781 38.3805 35.5141C39.8608 34.7627 40.8535 33.1906 40.7504 31.3941C40.6244 29.1978 38.7973 27.4037 36.5994 27.3151C34.1219 27.2152 32.0821 29.1941 32.0821 31.6493C32.0821 33.3406 33.052 34.8021 34.4646 35.5167C34.7848 35.6787 35.0334 35.9527 35.1475 36.293C35.36 36.9273 35.5204 37.5854 35.6224 38.2626C35.6686 38.5701 35.3736 38.8219 35.0783 38.7246C35.0739 38.7232 35.0694 38.7217 35.065 38.7202C34.7179 38.6053 34.441 38.3495 34.2749 38.0238C33.522 36.5474 31.9521 35.558 30.1583 35.6609C27.962 35.7869 26.1679 37.614 26.0793 39.812C25.9795 42.2894 27.9584 44.3292 30.4135 44.3292C32.0994 44.3292 33.5567 43.3657 34.2739 41.9606C34.4408 41.6337 34.719 41.377 35.0674 41.2618C35.0714 41.2605 35.0755 41.2591 35.0795 41.2578C35.375 41.1605 35.6693 41.4125 35.6236 41.7202C35.3173 43.7809 34.4727 45.6655 33.2372 47.2275C32.9901 47.54 33.2189 47.9998 33.6174 47.9998H39.2221C39.6206 47.9998 39.8494 47.54 39.6023 47.2275C38.3668 45.6655 37.5222 43.7809 37.2159 41.7202C37.1701 41.4124 37.4644 41.1605 37.76 41.2578C37.764 41.2591 37.7681 41.2605 37.7721 41.2618C38.1206 41.377 38.3987 41.6338 38.5656 41.9606C39.2828 43.3658 40.7401 44.3292 42.426 44.3292C44.8813 44.3292 46.8601 42.2893 46.7602 39.812C46.672 37.6141 44.8779 35.787 42.6816 35.661Z" fill="#515262"/>
<path d="M28.9359 39.8121C29.0081 38.0212 30.2127 36.4771 31.8442 35.8982C31.3209 35.7147 30.7525 35.6269 30.1584 35.6609C27.9621 35.7869 26.168 37.614 26.0795 39.812C25.9797 42.2894 27.9585 44.3292 30.4137 44.3292C30.9156 44.3292 31.3964 44.2421 31.8444 44.0851C30.0969 43.4764 28.8565 41.7849 28.9359 39.8121Z" fill="#464655"/>
<path d="M35.4618 34.4913C35.2549 33.7977 34.9385 32.4257 34.9385 31.6495C34.9385 29.4994 36.1535 28.1507 37.8447 27.5587C37.4505 27.4186 37.0326 27.3328 36.5995 27.3153C34.1219 27.2154 32.0822 29.1943 32.0822 31.6495C32.0822 33.2683 32.9718 34.6746 34.2866 35.419C34.3455 35.4523 34.404 35.4862 34.4647 35.5168C34.7849 35.6789 35.0336 35.9528 35.1476 36.2931C35.3601 36.9274 35.5206 37.5855 35.6225 38.2627C35.6623 38.5271 35.4491 38.7491 35.2009 38.7443L35.2018 38.7476C35.3029 38.7827 35.9299 38.8515 36.0635 38.4356C36.1932 38.0321 35.9892 36.2592 35.4618 34.4913Z" fill="#464655"/>
<path d="M42.6816 35.661C40.888 35.5581 39.3182 36.5473 38.5652 38.0235C38.399 38.3495 38.1219 38.6055 37.7745 38.7204C37.7702 38.7218 37.6759 38.7456 37.6345 38.746C37.6345 38.746 39.2501 38.9706 40.5427 37.2547C41.305 36.2427 42.1249 35.8285 43.1658 35.7203C43.0068 35.6922 42.8458 35.6704 42.6816 35.661Z" fill="#464655"/>
<path d="M42.6816 44.3216C40.888 44.4246 39.3182 43.4353 38.5652 41.9591C38.399 41.6332 38.1219 41.3771 37.7745 41.2623C37.7702 41.2609 37.6759 41.2371 37.6345 41.2366C37.6345 41.2366 39.2501 41.0121 40.5427 42.728C41.305 43.7399 42.1249 44.1542 43.1658 44.2624C43.0068 44.2904 42.8458 44.3122 42.6816 44.3216Z" fill="#464655"/>
<path d="M35.349 47.2276C35.9001 45.8418 36.4572 41.9642 35.5132 41.3734C35.5132 41.3734 35.6441 41.5847 35.6239 41.7203C35.3176 43.781 34.4729 45.6656 33.2375 47.2276C32.9904 47.5401 33.2192 47.9999 33.6177 47.9999H35.7292C35.3308 47.9999 35.2018 47.5978 35.349 47.2276Z" fill="#464655"/>
<path d="M37.0468 0.309186C39.7277 3.7768 43.8156 7.86533 47.2826 10.5468C47.6947 10.8654 47.6947 11.4813 47.2826 11.7999C43.8156 14.4813 39.7277 18.5698 37.0468 22.0375C36.7281 22.4497 36.1121 22.4497 35.7935 22.0375C33.1125 18.5699 29.0247 14.4813 25.5576 11.7999C25.1456 11.4813 25.1456 10.8654 25.5576 10.5468C29.0246 7.86533 33.1124 3.7768 35.7934 0.309186C36.1121 -0.103032 36.728 -0.103032 37.0468 0.309186Z" fill="#FF6464"/>
<path d="M36.3236 22.0373C35.0871 18.5697 33.2018 14.4812 31.6028 11.7997C31.4127 11.4811 31.4127 10.8652 31.6028 10.5466C33.2018 7.86514 35.0872 3.77671 36.3236 0.308996C36.3851 0.136684 36.5104 0.0610282 36.618 0.0274657C36.3254 -0.0482841 35.9983 0.0440595 35.7934 0.308996C33.1124 3.77671 29.0246 7.86523 25.5575 10.5466C25.1455 10.8652 25.1455 11.4811 25.5575 11.7997C29.0246 14.4811 33.1124 18.5696 35.7934 22.0373C35.9982 22.3022 36.3254 22.3946 36.6179 22.3188C36.5104 22.2854 36.3851 22.2097 36.3236 22.0373Z" fill="#D2555A"/>
<path d="M11.6151 0.122156C11.3553 -0.036375 11.0341 -0.036375 10.7743 0.122156C8.78437 1.33612 0.408386 6.81983 0.408386 13.1154C0.408386 16.3875 3.05672 19.0399 6.32353 19.0399C7.39284 19.0399 8.39493 18.755 9.25978 18.2575C9.50774 18.1148 9.79771 18.367 9.7004 18.638C9.23896 19.9233 8.58562 21.1157 7.77431 22.1791C7.46447 22.5852 7.76203 23.174 8.26959 23.174H14.1826C14.6903 23.174 14.9872 22.5849 14.6772 22.1786C13.8751 21.1273 13.2275 19.95 12.7671 18.6813C12.6694 18.4119 12.9552 18.1593 13.204 18.2978C14.0517 18.77 15.0269 19.0399 16.066 19.0399C19.3329 19.0399 21.9812 16.3875 21.9812 13.1154C21.9812 6.81983 13.6052 1.33612 11.6151 0.122156Z" fill="#515262"/>
<path d="M8.75203 18.5145C2.10629 14.8345 8.34843 3.79855 11.2529 0.0112471C11.0885 -0.000846658 10.9217 0.0321533 10.7743 0.122153C8.78437 1.33612 0.408386 6.81983 0.408386 13.1153C0.408386 16.3874 3.05672 19.0398 6.32353 19.0398C7.18997 19.0399 8.01093 18.8501 8.75203 18.5145Z" fill="#464655"/>
<path d="M10.0798 22.3088C10.4623 19.1293 10.4457 18.2245 9.46716 18.2245C9.63873 18.2595 9.77054 18.4427 9.70041 18.638C9.23907 19.9233 8.58573 21.1157 7.77432 22.1791C7.46448 22.5851 7.76204 23.174 8.2696 23.174H10.5058C10.0593 23.174 10.0417 22.6264 10.0798 22.3088Z" fill="#464655"/>
</g>
<defs>
<clipPath id="clip0_34_1795">
<rect width="48" height="48" fill="white"/>
</clipPath>
</defs>
</svg>
