<?xml version="1.0" encoding="UTF-8" standalone="no"?>
<svg
   width="80"
   height="80"
   viewBox="0 0 80 80"
   fill="none"
   version="1.1"
   id="svg1"
   sodipodi:docname="rpg.svg"
   inkscape:version="1.3.2 (091e20e, 2023-11-25, custom)"
   xmlns:inkscape="http://www.inkscape.org/namespaces/inkscape"
   xmlns:sodipodi="http://sodipodi.sourceforge.net/DTD/sodipodi-0.dtd"
   xmlns="http://www.w3.org/2000/svg"
   xmlns:svg="http://www.w3.org/2000/svg">
  <sodipodi:namedview
     id="namedview1"
     pagecolor="#ffffff"
     bordercolor="#000000"
     borderopacity="0.25"
     inkscape:showpageshadow="2"
     inkscape:pageopacity="0.0"
     inkscape:pagecheckerboard="0"
     inkscape:deskcolor="#d1d1d1"
     inkscape:zoom="10.2625"
     inkscape:cx="40"
     inkscape:cy="32.204629"
     inkscape:window-width="1920"
     inkscape:window-height="1017"
     inkscape:window-x="1072"
     inkscape:window-y="418"
     inkscape:window-maximized="1"
     inkscape:current-layer="g1" />
  <g
     clip-path="url(#clip0_33_915)"
     id="g1">
    <path
       d="m 78.007,68.065161 -8.9398,-9.185182 4.3327,-4.451624 c 0.6912,-0.71007 0.6912,-1.861531 0,-2.571805 -0.6911,-0.709865 -1.8117,-0.709865 -2.503,0 l -1.6803,1.726421 -7.4984,-7.704219 c 1.1614,-4.255177 1.7511,-8.653786 1.7511,-13.092464 l -2e-4,-27.9470644 c 0,-0.8686459 -0.598,-1.6160117 -1.4274,-1.7840302 -20.1103,-4.0735912 -40.504,-4.0735912 -60.61434,0 C 0.598024,3.2232119 0,3.9707524 0,4.8394086 V 32.786493 c 0,10.020291 2.95932,19.653236 8.55816,27.857923 5.59884,8.20438 13.40444,14.346672 22.57324,17.762319 0.1949,0.07254 0.3991,0.108911 0.6033,0.108911 0.2043,0 0.4085,-0.03638 0.6035,-0.108911 7.1487,-2.664172 13.5785,-7.077782 18.706,-12.819779 l 3.2448,3.333864 -1.6803,1.726421 c -0.6911,0.71007 -0.6911,1.861532 0,2.571806 0.3457,0.355087 0.7986,0.532526 1.2515,0.532526 0.4529,0 0.906,-0.177645 1.2514,-0.532526 l 4.3327,-4.451625 8.9398,9.18508 C 69.6693,79.272874 71.3781,80 73.1957,80 c 1.8176,0 3.5262,-0.727126 4.8114,-2.047498 1.2853,-1.320477 1.9931,-3.076181 1.9931,-4.943466 C 80,71.141342 79.2922,69.385638 78.007,68.065161 Z m -14.3029,-8.818074 -0.6998,0.719008 -34.1737,-35.111912 8.041,0.639175 29.8421,30.661417 z M 53.7356,32.786493 c 0,1.546824 -0.0924,3.08892 -0.2696,4.613449 L 38.9121,22.44646 c -0.2986,-0.306795 -0.694,-0.493689 -1.115,-0.527184 L 24.3305,20.848983 c -0.5161,-0.04161 -1.0224,0.151447 -1.3879,0.527184 -0.3655,0.375533 -0.5529,0.896449 -0.5131,1.425996 l 1.0417,13.836234 c 0.0326,0.432555 0.2145,0.838808 0.5131,1.145605 L 44.1536,58.507016 C 40.6782,62.50718 36.5113,65.652301 31.7353,67.869433 25.6382,65.03347 20.3919,60.563248 16.5282,54.903549 12.0835,48.388501 9.73404,40.740484 9.73404,32.786493 V 12.698032 c 14.60586,-2.870896 29.39556,-2.870896 44.00136,0 v 20.088461 z m -22.001,41.97126 C 23.5137,71.556225 16.5125,65.965365 11.4564,58.556333 6.27722,50.966882 3.53965,42.055721 3.53965,32.786493 V 6.3414044 c 18.71835,-3.6058913 37.67175,-3.6058913 56.39015,0 V 32.786493 c 0,3.412053 -0.3771,6.798215 -1.1205,10.103515 l -2.2384,-2.29984 c 0.4667,-2.553825 0.7042,-5.173715 0.7042,-7.803675 l -2e-4,-21.58268 c 0,-0.864289 -0.5922,-1.609087 -1.4164,-1.781697 -16.0072,-3.3527389 -32.2404,-3.3527389 -48.2479,0 -0.82421,0.172405 -1.41621,0.917408 -1.41621,1.781697 v 21.58268 c 0,8.705055 2.57102,17.074752 7.43561,24.20514 4.3886,6.428743 10.4081,11.455328 17.4078,14.536132 0.2224,0.09791 0.4596,0.146924 0.6969,0.146924 0.2372,0 0.4743,-0.04901 0.6968,-0.146924 5.4882,-2.415223 10.2645,-5.926733 14.2283,-10.445655 l 1.8792,1.93078 c -4.6157,5.205464 -10.3851,9.241691 -16.8044,11.744863 z m -4.7849,-39.070054 -0.622,-8.261711 34.1738,35.111707 -3.7096,3.811217 z m 39.6146,25.76388 1.1214,1.152182 -2.7158,6.696907 -3.0225,-3.105463 z m 1.1124,10.630186 2.7158,-6.697011 1.9783,2.032602 -2.7158,6.697009 z m 7.8274,3.298622 c -0.6164,0.633525 -1.4364,0.982447 -2.3084,0.982447 -0.2019,0 -0.4003,-0.02076 -0.5948,-0.05722 l 2.4767,-6.107153 0.4265,0.438207 c 0.6166,0.633524 0.9562,1.475827 0.9562,2.37176 0,0.895935 -0.3396,1.738444 -0.9562,2.371968 z"
       fill="#2e384d"
       id="path1"
       style="stroke-width:1.01363" />
  </g>
  <defs
     id="defs1">
    <clipPath
       id="clip0_33_915">
      <rect
         width="80"
         height="80"
         fill="white"
         id="rect1" />
    </clipPath>
  </defs>
</svg>
