<svg width="80" height="78" viewBox="0 0 80 78" fill="none" xmlns="http://www.w3.org/2000/svg">
<path d="M78.007 66.3155L69.0672 57.3757L73.3999 53.043C74.0911 52.3519 74.0911 51.2313 73.3999 50.54C72.7088 49.849 71.5882 49.849 70.8969 50.54L69.2166 52.2202L61.7182 44.7219C62.8796 40.5803 63.4693 36.2993 63.4693 31.9791L63.4691 4.77867C63.4691 3.93323 62.8711 3.20583 62.0417 3.0423C41.9314 -0.922465 21.5377 -0.922465 1.42736 3.0423C0.598024 3.20583 0 3.9334 0 4.77885V31.9793C0 41.7319 2.95932 51.1076 8.55816 59.093C14.157 67.0783 21.9626 73.0564 31.1314 76.3808C31.3263 76.4514 31.5305 76.4868 31.7347 76.4868C31.939 76.4868 32.1432 76.4514 32.3382 76.3808C39.4869 73.7879 45.9167 69.4921 51.0442 63.9036L54.289 67.1484L52.6087 68.8286C51.9176 69.5198 51.9176 70.6404 52.6087 71.3317C52.9544 71.6773 53.4073 71.8501 53.8602 71.8501C54.3131 71.8501 54.7662 71.6772 55.1116 71.3317L59.4443 66.999L68.3841 75.9387C69.6693 77.2238 71.3781 77.9315 73.1957 77.9315C75.0133 77.9315 76.7219 77.2238 78.0071 75.9387C79.2924 74.6535 80.0002 72.9447 80.0002 71.1273C80 69.3095 79.2922 67.6007 78.007 66.3155ZM63.0043 58.4329L28.8306 24.259L36.8716 24.8811L66.7137 54.7233L63.0043 58.4329ZM53.7356 31.9793C53.7356 33.4849 53.6432 34.9857 53.466 36.4695L38.9121 21.9155C38.6135 21.617 38.2181 21.435 37.7971 21.4025L24.3305 20.3607C23.8144 20.3202 23.3081 20.5082 22.9426 20.8738C22.5771 21.2393 22.3897 21.7463 22.4295 22.2617L23.4712 35.7283C23.5038 36.1494 23.6857 36.5447 23.9843 36.8433L44.1536 57.0128C40.6782 60.906 36.5113 63.9671 31.7353 66.125C25.6382 63.3648 20.3919 59.0141 16.5282 53.5055C12.0835 47.1646 9.73404 39.7209 9.73404 31.9793V12.4275C24.3399 9.6333 39.1296 9.6333 53.7354 12.4275L53.7356 31.9793ZM31.7346 72.8293C23.5137 69.7134 16.5125 64.2719 11.4564 57.0607C6.27722 49.674 3.53965 41.001 3.53965 31.9793V6.24072C22.258 2.73116 41.2114 2.73116 59.9298 6.24072V31.9793C59.9298 35.3002 59.5527 38.596 58.8093 41.813L56.5709 39.5745C57.0376 37.089 57.2751 34.539 57.2751 31.9793L57.2749 10.9732C57.2749 10.132 56.6827 9.40712 55.8585 9.23916C39.8513 5.97596 23.6181 5.97596 7.6106 9.23916C6.78639 9.40694 6.19439 10.132 6.19439 10.9732V31.9793C6.19439 40.4518 8.76541 48.5979 13.63 55.5378C18.0186 61.7948 24.0381 66.6871 31.0378 69.6856C31.2602 69.781 31.4974 69.8286 31.7347 69.8286C31.9719 69.8286 32.209 69.781 32.4315 69.6856C37.9197 67.3349 42.696 63.9172 46.6598 59.519L48.539 61.3982C43.9233 66.4647 38.1539 70.393 31.7346 72.8293ZM26.9497 34.803L26.3277 26.762L60.5015 60.9357L56.7919 64.6451L26.9497 34.803ZM66.5643 59.8786L67.6857 61L64.9699 67.5181L61.9474 64.4956L66.5643 59.8786ZM67.6767 70.2248L70.3925 63.7068L72.3708 65.6851L69.655 72.2032L67.6767 70.2248ZM75.5041 73.4353C74.8877 74.0519 74.0677 74.3915 73.1957 74.3915C72.9938 74.3915 72.7954 74.3714 72.6009 74.3358L75.0776 68.3918L75.5041 68.8184C76.1207 69.435 76.4603 70.2548 76.4603 71.1268C76.4603 71.9987 76.1207 72.8187 75.5041 73.4353Z" fill="#2E384D"/>
</svg>
