<svg width="52" height="52" viewBox="0 0 52 52" fill="none" xmlns="http://www.w3.org/2000/svg">
<path d="M11.375 18.525V21.125C10.4 21.125 9.75 21.775 9.75 22.75C9.75 23.725 10.4 24.375 11.375 24.375H14.625C15.6 24.375 16.25 23.725 16.25 22.75C16.25 21.775 15.6 21.125 14.625 21.125V18.525C15.4375 19.175 16.575 19.5 17.55 19.5C18.85 19.5 20.15 19.0125 21.125 18.0375C22.1 17.0625 22.5875 15.7625 22.5875 14.4625C22.5875 13.1625 22.1 11.8625 21.125 10.8875L14.1375 3.7375C13.4875 3.0875 12.5125 3.0875 11.8625 3.7375L4.7125 10.725C3.7375 11.7 3.25 13 3.25 14.3C3.25 15.6 3.7375 16.9 4.7125 17.875C6.5 19.825 9.425 19.9875 11.375 18.525Z" fill="black"/>
<path d="M37.8625 22.2625C38.1875 22.5875 38.675 22.75 39 22.75C39.325 22.75 39.975 22.5875 40.1375 22.2625L47.2875 14.3C49.2375 12.1875 49.2375 8.6125 47.2875 6.5C45.3375 4.3875 41.7625 4.3875 39.8125 6.5L39 7.475L38.1875 6.5C36.2375 4.3875 32.6625 4.3875 30.7125 6.5C28.7625 8.6125 28.7625 12.1875 30.7125 14.3L37.8625 22.2625Z" fill="black"/>
<path d="M44.6875 32.6625C44.6875 32.5 44.6875 32.175 44.6875 32.0125C44.6875 28.925 42.0875 26.325 39 26.325C35.9125 26.325 33.3125 28.925 33.3125 32.0125C33.3125 32.175 33.3125 32.5 33.3125 32.6625C30.875 33.3125 29.25 35.5875 29.25 38.1875C29.25 41.275 31.85 43.875 34.9375 43.875C35.75 43.875 36.5625 43.7125 37.375 43.225V45.5C36.4 45.5 35.75 46.15 35.75 47.125C35.75 48.1 36.4 48.75 37.375 48.75H40.625C41.6 48.75 42.25 48.1 42.25 47.125C42.25 46.15 41.6 45.5 40.625 45.5V43.225C41.4375 43.55 42.25 43.875 43.0625 43.875C46.15 43.875 48.75 41.275 48.75 38.1875C48.75 35.5875 46.9625 33.475 44.6875 32.6625Z" fill="black"/>
<path d="M14.1375 28.1125C13.4875 27.4625 12.35 27.4625 11.7 28.1125L3.57501 37.05C3.08751 37.7 3.08751 38.675 3.57501 39.1625L11.7 48.1C12.025 48.5875 12.5125 48.75 13 48.75C13.4875 48.75 13.975 48.5875 14.1375 48.2625L22.2625 39.325C22.75 38.675 22.75 37.7 22.2625 37.2125L14.1375 28.1125Z" fill="black"/>
</svg>
