<svg width="56" height="56" viewBox="0 0 56 56" fill="none" xmlns="http://www.w3.org/2000/svg">
<g clip-path="url(#clip0_8_495)">
<g clip-path="url(#clip1_8_495)">
<path fill-rule="evenodd" clip-rule="evenodd" d="M21.5545 11.5877C28.2912 8.00989 35.5436 7.26853 41.4744 8.65455C54.98 11.8456 56.0437 21.9989 48.8558 32.4746C45.568 37.2773 40.7008 41.8866 34.8345 44.7876C25.1969 49.558 15.9783 49.8159 9.91849 46.1413C3.82649 42.4668 2.37601 36.2781 4.53561 29.7026C6.75967 22.8692 12.9806 15.8425 21.5545 11.5877Z" fill="#ED1C24"/>
<path d="M42.7638 19.3559C42.7316 19.7426 42.7315 20.1294 42.796 20.5162C42.8605 20.9353 42.9572 21.3865 43.1183 21.8055C43.344 22.418 43.6663 22.9659 44.0209 23.4172C44.3432 23.8362 44.73 24.1585 45.1813 24.4164C45.7292 24.642 46.2449 24.771 46.664 24.7387C47.0185 24.7387 47.2764 24.642 47.4698 24.4809C47.5987 24.3519 47.6954 24.1585 47.7276 23.9007C47.7921 23.5461 47.7276 23.0949 47.6309 22.5147C47.5987 22.3535 47.5665 22.2246 47.5342 22.0634C47.502 21.9345 47.4376 21.7733 47.4053 21.6444C47.1152 20.903 46.7284 20.2261 46.2449 19.7104C45.8259 19.2591 45.3102 18.9368 44.7622 18.7757C44.182 18.6145 43.6985 18.6145 43.344 18.7434C43.1183 18.8401 42.9249 19.0013 42.8282 19.2591L42.7638 19.3559ZM42.5059 10.2662C45.3746 9.2025 48.2111 9.42814 50.6286 10.6208C53.1428 11.8456 55.1734 14.1341 56.2371 17.0028C56.8496 18.6145 57.0752 20.2906 56.9785 21.87C56.8818 23.4817 56.4628 25.0288 55.6892 26.4148C55.6569 26.4793 55.6247 26.576 55.528 26.7049C55.4635 26.8339 55.3991 26.9306 55.3668 26.995C54.2065 28.8968 53.0138 30.2828 51.8212 31.282C50.5964 32.2812 49.4038 32.9259 48.2111 33.3771C45.2779 34.4731 42.377 34.2474 39.9273 33.0548C37.3487 31.7977 35.2858 29.5414 34.2221 26.6405C33.6419 25.0611 33.3518 23.4817 33.4162 21.9667C33.4807 20.4195 33.8353 18.9368 34.5122 17.5508C35.0279 16.5194 35.8337 15.3267 36.8974 14.1986C37.8321 13.1994 38.9603 12.2324 40.2174 11.3943C40.5397 11.1687 40.8943 10.9753 41.2488 10.7819C41.7323 10.5885 42.1191 10.3951 42.5059 10.2662Z" fill="white"/>
<path d="M29.097 15.5524L33.9964 13.7151C34.4477 13.5539 34.9312 13.7796 35.0923 14.2308C35.0923 14.263 35.1246 14.2631 35.1246 14.2953L42.0869 32.8936C42.1513 32.9903 42.1836 33.1193 42.1836 33.2482C42.2158 33.5061 42.1191 33.7639 41.9257 33.9251L39.6372 36.2136C39.5405 36.3103 39.4438 36.3748 39.3148 36.407L35.2857 37.8897C35.0279 37.9864 34.7378 37.9542 34.5122 37.793L29.9673 34.7631L30.8376 37.0517C30.9021 37.1806 30.9665 37.3418 30.9665 37.5029C30.9665 37.7286 30.8698 37.9542 30.7087 38.0831L28.4202 40.3717C28.3235 40.4684 28.2267 40.5328 28.13 40.5651L23.1984 42.4023C22.7472 42.5635 22.2637 42.3379 22.1025 41.8866L15.0757 23.0948C14.9468 22.7403 15.0435 22.3535 15.3336 22.1279L17.5577 19.9038C17.6544 19.8071 17.7511 19.7426 17.88 19.7104L22.167 18.131C22.4248 18.0343 22.7149 18.0665 22.9406 18.2277L27.1308 20.9675L26.3572 18.9046C26.2283 18.5822 26.325 18.2277 26.5506 18.0021L28.8069 15.7135C28.9036 15.6491 29.0003 15.5846 29.097 15.5524Z" fill="white"/>
<path d="M12.4004 46.3348C10.4665 46.5281 8.79035 46.1736 7.33987 45.3033C5.37367 44.1429 3.92319 42.1123 2.92397 39.5014L-0.943967 29.1224C-1.0729 28.7678 -0.976204 28.381 -0.686108 28.1554L1.53796 25.9314C1.63466 25.8347 1.73136 25.7702 1.82805 25.738L6.75968 23.9007C7.21094 23.7395 7.69443 23.9651 7.8556 24.4164L11.8202 35.021C12.0459 35.6334 12.3682 36.2136 12.8195 36.6004C13.1418 36.8905 13.5608 37.0839 14.0765 37.1162C14.1732 37.1162 14.3022 37.1162 14.3989 37.1162C14.3989 36.9228 14.3666 36.7294 14.3344 36.536C14.2699 36.2459 14.2055 35.9558 14.0765 35.6334L10.1119 25.0288C9.98296 24.6743 10.0797 24.2875 10.3698 24.0618L12.5294 21.9022C12.6261 21.7733 12.755 21.6766 12.9162 21.6122L17.8478 19.7749C18.299 19.6137 18.7825 19.8393 18.9437 20.2906L22.8761 30.7985C23.4885 32.4102 23.7786 33.9573 23.7464 35.4078C23.7142 36.8583 23.3918 38.2121 22.7149 39.4369C22.167 40.4039 21.1355 41.4031 20.1041 42.4023C19.8784 42.628 19.6206 42.8536 19.4272 43.047L19.395 43.0792C19.0082 43.4983 18.5569 43.8851 18.0734 44.2074C16.4295 45.3678 14.4633 46.1091 12.4004 46.3348Z" fill="white"/>
<path fill-rule="evenodd" clip-rule="evenodd" d="M34.9957 37.0839L28.259 32.6035L30.064 37.5029H30.0963L27.8077 39.7592L22.8761 41.6287L15.8494 22.837L18.1379 20.5485L22.4571 18.969L28.807 23.1271L27.1309 18.6467L29.3872 16.3582L34.2865 14.5209L41.3455 33.3127L39.057 35.6012L34.9957 37.0839Z" fill="black"/>
<path fill-rule="evenodd" clip-rule="evenodd" d="M42.8282 11.072C48.2111 9.07358 53.5295 12.1035 55.4635 17.293C56.5916 20.2906 56.366 23.5139 54.98 26.0603C54.9155 26.2215 54.8188 26.3826 54.7221 26.5438C52.4981 30.2183 50.2095 31.7333 47.9855 32.5713C42.4414 34.6342 37.0585 31.5399 35.0923 26.3504C33.9964 23.385 34.0931 20.484 35.3502 17.9376C36.2527 16.1003 38.2189 13.7796 40.7653 12.1035C41.3777 11.6844 42.0869 11.3299 42.8282 11.072ZM41.9257 19.1947C41.9257 19.1625 41.9579 19.1302 41.9579 19.098C42.3125 17.9376 43.4729 17.583 44.9234 17.9698C46.4061 18.3566 47.5342 19.7426 48.1466 21.3543C48.2756 21.6766 48.3723 21.999 48.4367 22.3535C48.7268 23.6751 48.5979 24.6098 48.0499 25.1255C47.4053 25.738 46.2127 25.7702 44.8589 25.19C43.7307 24.5776 42.8605 23.4494 42.3447 22.0957C41.9579 21.1287 41.829 20.1294 41.9257 19.1947Z" fill="black"/>
<path fill-rule="evenodd" clip-rule="evenodd" d="M26.3895 27.5752L30.064 37.5029L25.1324 39.3402L18.1379 20.5485L22.4571 18.969L32.9328 25.8024L29.3871 16.3582L34.2865 14.5209L41.3455 33.3127L37.2842 34.7954L26.3895 27.5752Z" fill="black"/>
<path fill-rule="evenodd" clip-rule="evenodd" d="M25.0679 25.9313L29.2582 37.1161L25.5192 38.5022L18.9759 20.9353L22.3604 19.6782L34.2221 27.4463L30.2252 16.745L33.8997 15.359L40.5075 32.9259L37.3487 34.0863L25.0679 25.9313Z" fill="white"/>
<path fill-rule="evenodd" clip-rule="evenodd" d="M30.8054 17.0028L33.6419 15.9392L39.895 32.668L37.4131 33.5705L24.1654 24.771L28.678 36.8583L25.8093 37.922L19.5561 21.2253L22.2959 20.1939L35.1246 28.5744L30.8054 17.0028Z" fill="#F8DA27"/>
<path fill-rule="evenodd" clip-rule="evenodd" d="M42.8282 11.072C48.2111 9.07358 53.5296 12.1035 55.4635 17.2929C57.3975 22.4824 55.3668 28.2844 50.0162 30.2828C44.6333 32.2812 39.3149 29.2513 37.3809 24.0618C35.4147 18.8401 37.4454 13.0705 42.8282 11.072ZM44.6011 15.8102C41.8935 16.8095 41.41 19.5815 42.3448 22.0957C43.2795 24.5776 45.4391 26.3504 48.1789 25.3512C50.8865 24.3197 51.37 21.5799 50.4352 19.0658C49.4682 16.5838 47.3086 14.811 44.6011 15.8102Z" fill="black"/>
<path fill-rule="evenodd" clip-rule="evenodd" d="M43.0539 11.6844C48.0822 9.81493 53.046 12.6514 54.8833 17.5508C56.6883 22.418 54.8188 27.8331 49.7905 29.7348C44.7622 31.6043 39.7983 28.7356 37.9611 23.8685C36.156 18.9691 37.9933 13.5539 43.0539 11.6844ZM44.3754 15.1978C41.3133 16.326 40.6686 19.4848 41.7323 22.3213C42.796 25.1578 45.3102 27.0917 48.4045 25.9636C51.4666 24.8032 52.1113 21.6766 51.0476 18.8724C49.9517 16.0359 47.4375 14.0697 44.3754 15.1978Z" fill="white"/>
<path fill-rule="evenodd" clip-rule="evenodd" d="M44.2143 14.7788C47.4053 13.5862 50.2418 15.4879 51.4344 18.679C52.6271 21.87 51.7245 25.1578 48.5335 26.3504C45.3424 27.543 42.4737 25.6412 41.2811 22.4502C40.0885 19.2914 41.0232 15.9714 44.2143 14.7788ZM43.2151 12.1035C47.9211 10.3307 52.6915 12.9415 54.4643 17.6797C56.2371 22.418 54.3354 27.5108 49.6616 29.2513C44.9556 30.9919 40.1852 28.4133 38.4124 23.6751C36.6073 18.9368 38.4768 13.844 43.2151 12.1035Z" fill="#F8DA27"/>
<path fill-rule="evenodd" clip-rule="evenodd" d="M11.8847 45.5289C8.01675 45.7545 5.27696 43.2726 3.76202 39.179L-0.105927 28.8001L2.15037 26.5115L7.082 24.6743L11.0466 35.2789C11.5624 36.6326 12.4971 37.8253 14.0765 37.8897C14.5278 37.922 15.1402 37.8575 15.2691 37.2773C15.3014 36.6004 15.1724 35.9235 14.9146 35.2789L10.9499 24.6743L13.2385 22.3857L18.1379 20.5485L22.0703 31.0564C23.1984 34.0862 23.1984 36.7938 21.9736 38.9856C21.3934 40.0171 20.0074 41.2419 18.847 42.4023C17.0742 44.2718 14.3989 45.4 11.8847 45.5289Z" fill="black"/>
<path fill-rule="evenodd" clip-rule="evenodd" d="M18.3635 42.08L18.3957 42.1445L17.3643 42.5313C17.3321 42.5313 17.2998 42.5635 17.2998 42.5635C17.2676 42.5635 17.2354 42.5957 17.2031 42.5957L16.1717 42.9825L16.1394 42.918C11.2078 44.2074 7.82337 41.6287 6.05056 36.8905L2.18262 26.5115L7.11424 24.6743L11.0789 35.2789C11.5946 36.6326 12.5294 37.8253 14.1088 37.8897C14.56 37.922 15.0435 37.8253 15.4625 37.6641C15.9138 37.5029 16.3328 37.2451 16.6552 36.9227C17.7833 35.8591 17.7188 34.3441 17.2031 32.9903L13.2063 22.3857L18.1379 20.5485L22.0703 31.0564C23.8431 35.8268 22.9728 39.8559 18.3635 42.08Z" fill="black"/>
<path fill-rule="evenodd" clip-rule="evenodd" d="M17.5254 41.7577L17.1064 41.9188C17.0742 41.9188 17.0419 41.9511 17.0097 41.9511C16.9775 41.9511 16.9453 41.9833 16.913 41.9833L16.494 42.1445C11.5946 43.6916 8.33909 41.3386 6.63075 36.6971L2.98843 26.9306L6.69521 25.5446L10.4342 35.5367C11.0466 37.1484 12.207 38.5022 14.0443 38.5666C14.5923 38.5989 15.1402 38.5022 15.6559 38.3088C16.1717 38.1154 16.6874 37.8253 17.0742 37.4385C18.3957 36.1814 18.3957 34.4086 17.7833 32.7969L14.0443 22.8048L17.7511 21.4188L21.4579 31.3142C23.1984 35.9558 22.2637 39.727 17.5254 41.7577Z" fill="white"/>
<path fill-rule="evenodd" clip-rule="evenodd" d="M3.56863 27.1884L6.43736 26.1247L10.0152 35.6979C11.2078 38.8567 13.722 39.5014 15.8171 38.7278C17.9123 37.922 19.4272 35.7946 18.2023 32.6358L14.6245 23.0626L17.4932 21.9989L21.0388 31.4754C22.4571 35.2466 22.4571 39.3724 16.9453 41.532C16.913 41.532 16.8808 41.5643 16.8486 41.5643C16.8163 41.5643 16.7841 41.5965 16.7519 41.5965C11.3367 43.5305 8.46803 40.4361 7.01755 36.5682L3.56863 27.1884Z" fill="#F8DA27"/>
<path fill-rule="evenodd" clip-rule="evenodd" d="M27.8722 18.7757L29.645 16.9706L30.6442 19.6459L28.8714 21.451L27.8722 18.7757ZM29.1937 22.3535L30.9666 20.5485L31.3533 21.5477L29.5805 23.3527L29.1937 22.3535Z" fill="#58585A"/>
<path fill-rule="evenodd" clip-rule="evenodd" d="M11.6913 24.8354L13.4641 23.0304L14.4633 25.7057L12.6905 27.5108L11.6913 24.8354ZM13.0129 28.4133L14.7857 26.6082L15.1725 27.6074L13.3997 29.4125L13.0129 28.4133Z" fill="#58585A"/>
<path fill-rule="evenodd" clip-rule="evenodd" d="M2.8595 34.9888L4.6323 33.1837L5.63152 35.859L3.85872 37.6641L2.8595 34.9888ZM4.21328 38.5666L5.98609 36.7616L6.05055 36.8905C6.17948 37.1806 6.27618 37.4707 6.40511 37.7608L4.60007 39.5658L4.21328 38.5666Z" fill="#58585A"/>
<path fill-rule="evenodd" clip-rule="evenodd" d="M46.7929 18.2277L48.5979 16.4227C49.2426 16.9384 49.7905 17.6797 50.1773 18.5178L48.4045 20.2906C48.0177 19.517 47.4698 18.7756 46.7929 18.2277ZM48.7913 21.1609L50.5319 19.3881C50.6608 19.7749 50.7253 20.1294 50.7897 20.5162L49.0814 22.2246V22.1923C49.0169 21.87 48.9202 21.5154 48.7913 21.1609Z" fill="#58585A"/>
</g>
</g>
<defs>
<clipPath id="clip0_8_495">
<rect width="56" height="56" fill="white"/>
</clipPath>
<clipPath id="clip1_8_495">
<rect width="58" height="40.6602" fill="white" transform="translate(-1 8)"/>
</clipPath>
</defs>
</svg>
